<svg width="16" height="16" viewBox="0 0 16 16" fill="none" xmlns="http://www.w3.org/2000/svg">
<path fill-rule="evenodd" clip-rule="evenodd" d="M0.523933 0.523933C1.22251 -0.174644 2.35513 -0.174644 3.05371 0.523933L15.4761 12.9463C16.1746 13.6449 16.1746 14.7775 15.4761 15.4761C14.7775 16.1746 13.6449 16.1746 12.9463 15.4761L0.523933 3.05371C-0.174644 2.35513 -0.174644 1.22251 0.523933 0.523933Z" fill="#BD76FF"/>
<path fill-rule="evenodd" clip-rule="evenodd" d="M14.2112 0C15.1991 0 16 0.800882 16 1.78882V14.2112C16 15.1991 15.1991 16 14.2112 16H1.78882C0.800882 16 0 15.1991 0 14.2112C0 13.2232 0.800882 12.4224 1.78882 12.4224H12.4224V1.78882C12.4224 0.800882 13.2232 0 14.2112 0Z" fill="#BD76FF"/>
</svg>
