<svg width="52" height="52" viewBox="0 0 52 52" fill="none" xmlns="http://www.w3.org/2000/svg">
<circle cx="26" cy="26" r="26" fill="#F7F7F7"/>
<g clip-path="url(#clip0_9179_102221)">
<path d="M27 17H24C22.92 17 21.89 17.43 21.15 18.21C20.22 16.83 18.67 16 17 16H13C12.45 16 12 16.45 12 17V19C12 21.76 14.24 24 17 24H24C26.21 24 28 22.21 28 20V18C28 17.45 27.55 17 27 17ZM14 19V18H17C18.66 18 20 19.34 20 21V22H17C15.34 22 14 20.66 14 19ZM26 20C26 21.1 25.1 22 24 22H22V21C22 19.9 22.9 19 24 19H26V20Z" fill="#BD76FF"/>
<path d="M41 22.0001H38.46L39 19.5601C41.53 18.4401 42.67 15.4901 41.55 12.9601C40.93 11.5701 39.72 10.5301 38.24 10.1501C36.73 9.77011 35.13 10.1101 33.91 11.0701C32.7 12.0201 32 13.4701 32 15.0001C32 16.2201 32.45 17.4001 33.24 18.3201L32.42 22.0001H11C10.45 22.0001 10 22.4501 10 23.0001V27.0001C10 27.5501 10.45 28.0001 11 28.0001H12V31.0001C12 37.0801 16.92 42.0001 23 42.0001H29C35.08 42.0001 40 37.0801 40 31.0001V28.0001H41C41.55 28.0001 42 27.5501 42 27.0001V23.0001C42 22.4501 41.55 22.0001 41 22.0001ZM34.75 17.0001C33.66 15.7501 33.79 13.8601 35.03 12.7701C35.07 12.7401 35.11 12.7001 35.15 12.6701C35.89 12.0901 36.86 11.8801 37.77 12.1201C39.37 12.5501 40.32 14.2001 39.88 15.8001C39.64 16.6701 39.03 17.4001 38.2 17.7601C37.63 17.9901 37.21 18.4901 37.07 19.0901L36.42 22.0001H34.42L35.14 18.7601C35.3 18.1401 35.15 17.4901 34.75 17.0001ZM38 31.0001C38 35.9701 33.97 40.0001 29 40.0001H23C18.03 40.0001 14 35.9701 14 31.0001V28.0001H38V31.0001ZM40 26.0001H12V24.0001H40V26.0001Z" fill="#565656"/>
<path d="M28 33H27V32C27 31.45 26.55 31 26 31C25.45 31 25 31.45 25 32V33H24C23.45 33 23 33.45 23 34C23 34.55 23.45 35 24 35H25V36C25 36.55 25.45 37 26 37C26.55 37 27 36.55 27 36V35H28C28.55 35 29 34.55 29 34C29 33.45 28.55 33 28 33Z" fill="#BD76FF"/>
<path d="M17 14C16.45 14 16 13.55 16 13C16 12.45 16.45 12 17 12C17.55 12 18 12.45 18 13C18 13.55 17.55 14 17 14Z" fill="#BD76FF"/>
<path d="M25 15C24.45 15 24 14.55 24 14C24 13.45 24.45 13 25 13C25.55 13 26 13.45 26 14C26 14.55 25.55 15 25 15Z" fill="#BD76FF"/>
<path d="M21 12C20.45 12 20 11.55 20 11C20 10.45 20.45 10 21 10C21.55 10 22 10.45 22 11C22 11.55 21.55 12 21 12Z" fill="#BD76FF"/>
</g>
<defs>
<clipPath id="clip0_9179_102221">
<rect width="32" height="32" fill="white" transform="translate(10 10)"/>
</clipPath>
</defs>
</svg>
