<svg width="40" height="40" viewBox="0 0 40 40" fill="none" xmlns="http://www.w3.org/2000/svg">
<path d="M35.6 15.2001V13.2001C35.6 12.2453 35.2207 11.3296 34.5456 10.6545C33.8704 9.97938 32.9548 9.6001 32 9.6001H7.99999C7.04521 9.6001 6.12954 9.97938 5.45441 10.6545C4.77928 11.3296 4.39999 12.2453 4.39999 13.2001V15.2001H35.6Z" fill="#BD76FF"/>
<path d="M4.39999 17.6001V27.6001C4.39999 28.5549 4.77928 29.4706 5.45441 30.1457C6.12954 30.8208 7.04521 31.2001 7.99999 31.2001H32C32.9548 31.2001 33.8704 30.8208 34.5456 30.1457C35.2207 29.4706 35.6 28.5549 35.6 27.6001V17.6001H4.39999ZM10.4 21.6001H14C14.3183 21.6001 14.6235 21.7265 14.8485 21.9516C15.0736 22.1766 15.2 22.4818 15.2 22.8001C15.2 23.1184 15.0736 23.4236 14.8485 23.6486C14.6235 23.8737 14.3183 24.0001 14 24.0001H10.4C10.0817 24.0001 9.77651 23.8737 9.55147 23.6486C9.32642 23.4236 9.19999 23.1184 9.19999 22.8001C9.19999 22.4818 9.32642 22.1766 9.55147 21.9516C9.77651 21.7265 10.0817 21.6001 10.4 21.6001ZM16.4 27.6001H10.4C10.0817 27.6001 9.77651 27.4737 9.55147 27.2486C9.32642 27.0236 9.19999 26.7184 9.19999 26.4001C9.19999 26.0818 9.32642 25.7766 9.55147 25.5516C9.77651 25.3265 10.0817 25.2001 10.4 25.2001H16.4C16.7183 25.2001 17.0235 25.3265 17.2485 25.5516C17.4736 25.7766 17.6 26.0818 17.6 26.4001C17.6 26.7184 17.4736 27.0236 17.2485 27.2486C17.0235 27.4737 16.7183 27.6001 16.4 27.6001ZM28.8 27.6001C28.0727 27.5995 27.3673 27.3512 26.8 26.8961C26.3295 27.2735 25.762 27.5103 25.1628 27.5792C24.5636 27.648 23.9571 27.5461 23.4133 27.2852C22.8695 27.0243 22.4105 26.6151 22.0892 26.1046C21.768 25.5941 21.5975 25.0032 21.5975 24.4001C21.5975 23.7969 21.768 23.2061 22.0892 22.6956C22.4105 22.1851 22.8695 21.7759 23.4133 21.515C23.9571 21.2541 24.5636 21.1522 25.1628 21.221C25.762 21.2899 26.3295 21.5267 26.8 21.9041C27.199 21.584 27.669 21.3642 28.1705 21.2631C28.6719 21.1621 29.1903 21.1828 29.6822 21.3234C30.174 21.464 30.625 21.7205 30.9973 22.0714C31.3696 22.4223 31.6523 22.8573 31.8218 23.34C31.9913 23.8226 32.0425 24.3389 31.9713 24.8455C31.9001 25.3521 31.7085 25.8342 31.4126 26.2515C31.1166 26.6687 30.7249 27.0089 30.2703 27.2436C29.8158 27.4782 29.3116 27.6005 28.8 27.6001Z" fill="#5F0080"/>
</svg>
