<svg width="40" height="40" viewBox="0 0 40 40" fill="none" xmlns="http://www.w3.org/2000/svg">
<path d="M24.1619 29.3337C23.3169 30.9432 22.0478 32.2909 20.492 33.2309C18.9361 34.171 17.1528 34.6676 15.335 34.6671H6.66837C6.38808 34.668 6.11465 34.5805 5.88699 34.417C5.65933 34.2535 5.48905 34.0223 5.4004 33.7564C5.31175 33.4905 5.30925 33.2034 5.39325 32.936C5.47725 32.6686 5.64347 32.4345 5.86824 32.2671L7.58824 30.9737C6.65018 29.8265 5.97947 28.4846 5.62485 27.0457C5.27022 25.6068 5.2406 24.107 5.53812 22.6552C5.83563 21.2035 6.45283 19.8362 7.34485 18.6528C8.23687 17.4694 9.38132 16.4995 10.695 15.8137C10.6817 16.0937 10.6684 16.3871 10.6684 16.6671C10.6714 20.0255 12.0069 23.2456 14.3817 25.6204C16.7565 27.9952 19.9766 29.3307 23.335 29.3337H24.1619Z" fill="#BD76FF"/>
<path d="M34.1335 25.6006L31.9759 23.9821C33.64 22.0113 34.5814 19.5315 34.6444 16.9529C34.7074 14.3743 33.8881 11.8515 32.3223 9.80187C30.7564 7.75222 28.5377 6.29858 26.0332 5.68144C23.5288 5.06431 20.8887 5.32067 18.5498 6.40811C16.2109 7.49555 14.3133 9.34891 13.171 11.6615C12.0287 13.9742 11.7102 16.6074 12.2681 19.1257C12.826 21.644 14.2269 23.8964 16.2391 25.5102C18.2512 27.124 20.754 28.0025 23.3334 28.0003H33.3334C33.6132 28.0004 33.8859 27.9124 34.113 27.7488C34.34 27.5852 34.5098 27.3543 34.5983 27.0888C34.6868 26.8234 34.6896 26.5368 34.6062 26.2697C34.5227 26.0025 34.3574 25.7685 34.1335 25.6006ZM23.3334 23.3336C23.0696 23.3336 22.8119 23.2554 22.5926 23.1089C22.3733 22.9624 22.2024 22.7542 22.1015 22.5105C22.0006 22.2669 21.9742 21.9988 22.0256 21.7402C22.0771 21.4815 22.2041 21.244 22.3905 21.0575C22.577 20.871 22.8146 20.744 23.0732 20.6926C23.3319 20.6411 23.6 20.6675 23.8436 20.7685C24.0872 20.8694 24.2955 21.0403 24.442 21.2595C24.5885 21.4788 24.6667 21.7366 24.6667 22.0003C24.6667 22.3539 24.5262 22.6931 24.2762 22.9431C24.0261 23.1932 23.687 23.3336 23.3334 23.3336ZM24.6667 18.1643V18.667C24.6667 19.0206 24.5262 19.3597 24.2762 19.6098C24.0261 19.8598 23.687 20.0003 23.3334 20.0003C22.9797 20.0003 22.6406 19.8598 22.3905 19.6098C22.1405 19.3597 22 19.0206 22 18.667V18.098C21.9937 17.5547 22.162 17.0239 22.4803 16.5836C22.7985 16.1433 23.2498 15.817 23.7676 15.6526C24.1545 15.5381 24.4804 15.2751 24.6741 14.9211C24.8678 14.5671 24.9136 14.1509 24.8014 13.7633C24.7329 13.5145 24.601 13.2878 24.4187 13.1052C24.2363 12.9226 24.0098 12.7905 23.7611 12.7216C23.5296 12.6573 23.2863 12.6475 23.0505 12.6932C22.8146 12.7388 22.5925 12.8386 22.4017 12.9847C22.2169 13.1266 22.0673 13.3092 21.9646 13.5183C21.8618 13.7274 21.8087 13.9574 21.8093 14.1904C21.8093 14.544 21.6688 14.8831 21.4187 15.1332C21.1687 15.3832 20.8296 15.5237 20.4759 15.5237C20.1223 15.5237 19.7832 15.3832 19.5331 15.1332C19.2831 14.8831 19.1426 14.544 19.1426 14.1904C19.1422 13.4187 19.3549 12.6618 19.7571 12.0032C20.1594 11.3446 20.7356 10.8097 21.4223 10.4576C22.109 10.1055 22.8796 9.94971 23.6491 10.0075C24.4187 10.0652 25.1574 10.3342 25.7839 10.7849C26.4103 11.2356 26.9003 11.8504 27.1997 12.5617C27.4991 13.2729 27.5964 14.0531 27.4809 14.8161C27.3654 15.5791 27.0415 16.2955 26.545 16.8862C26.0484 17.477 25.3985 17.9193 24.6667 18.1643Z" fill="#5F0080"/>
</svg>
