<svg width="18" height="18" viewBox="0 0 18 18" fill="none" xmlns="http://www.w3.org/2000/svg">
<g clip-path="url(#clip0_8792_101720)">
<path d="M7.49973 4.4999C8.13903 4.50264 8.76066 4.71004 9.27353 5.09172C9.78639 5.4734 10.1635 6.0093 10.3497 6.6209L11.9825 7.21415C11.9285 6.34969 11.6263 5.51915 11.1119 4.82225C10.5976 4.12534 9.89309 3.59167 9.08294 3.2853C8.27278 2.97893 7.39143 2.91287 6.54466 3.09506C5.69789 3.27725 4.92169 3.69995 4.30923 4.31241C3.69677 4.92486 3.27408 5.70106 3.09189 6.54783C2.9097 7.3946 2.97575 8.27596 3.28213 9.08611C3.5885 9.89626 4.12216 10.6008 4.81907 11.1151C5.51598 11.6294 6.34651 11.9317 7.21098 11.9857L6.62073 10.3499C5.93605 10.1395 5.34962 9.69028 4.96809 9.08406C4.58655 8.47783 4.43525 7.75482 4.54168 7.04647C4.64811 6.33813 5.00522 5.69151 5.54806 5.22417C6.0909 4.75684 6.78343 4.49984 7.49973 4.4999Z" fill="#333333"/>
<path d="M7.49962 13.5001C6.31293 13.5001 5.15289 13.1482 4.1662 12.4889C3.1795 11.8296 2.41047 10.8926 1.95634 9.79621C1.50221 8.69985 1.38339 7.49345 1.61491 6.32956C1.84642 5.16568 2.41786 4.09658 3.25698 3.25746C4.09609 2.41835 5.16519 1.8469 6.32908 1.61539C7.49296 1.38388 8.69936 1.5027 9.79572 1.95683C10.8921 2.41095 11.8291 3.17999 12.4884 4.16668C13.1477 5.15338 13.4996 6.31342 13.4996 7.50011C13.4996 7.58786 13.4899 7.67336 13.4861 7.76036L14.9561 8.29511C15.1231 6.74944 14.8065 5.19002 14.0498 3.83192C13.2931 2.47382 12.1337 1.38394 10.7315 0.712588C9.32924 0.0412385 7.75325 -0.178507 6.22084 0.0836571C4.68844 0.345821 3.27512 1.07698 2.17581 2.17629C1.07649 3.27561 0.345333 4.68893 0.0831688 6.22133C-0.178995 7.75374 0.0407503 9.32973 0.7121 10.732C1.38345 12.1342 2.47333 13.2936 3.83143 14.0503C5.18953 14.807 6.74895 15.1236 8.29462 14.9566L7.75987 13.4866C7.67287 13.4904 7.58737 13.5001 7.49962 13.5001Z" fill="#333333"/>
<path d="M17.9993 11.0842L10.1528 8.23421C9.88466 8.13677 9.59425 8.11785 9.31569 8.17966C9.03713 8.24147 8.78197 8.38145 8.58017 8.58318C8.37837 8.7849 8.23829 9.04 8.17637 9.31853C8.11445 9.59707 8.13326 9.88749 8.23059 10.1557L11.0836 18L14.0086 15.075L16.1033 17.1697L17.1638 16.1092L15.0743 14.0122L17.9993 11.0842ZM11.6888 15.2737L9.64059 9.64121L15.2731 11.6895L11.6888 15.2737Z" fill="#333333"/>
</g>
<defs>
<clipPath id="clip0_8792_101720">
<rect width="18" height="18" fill="white"/>
</clipPath>
</defs>
</svg>
