<svg width="18" height="18" viewBox="0 0 18 18" fill="none" xmlns="http://www.w3.org/2000/svg">
<path fill-rule="evenodd" clip-rule="evenodd" d="M5.13025 1.80005H9.2412C9.75393 1.80005 10.1733 1.80004 10.5158 1.82379C10.8697 1.84834 11.1911 1.90059 11.4982 2.03014C12.2018 2.32705 12.7616 2.88741 13.0583 3.59168C13.1877 3.89898 13.2399 4.22082 13.2645 4.57504C13.2802 4.80271 13.2855 5.06438 13.2872 5.36484L15.2197 5.91939C15.6817 6.05196 16.0716 6.16384 16.3848 6.28563C16.7157 6.4143 17.013 6.57269 17.2677 6.8256C17.4362 6.99298 17.5799 7.18373 17.6941 7.39201C17.8668 7.70676 17.937 8.0365 17.9694 8.39034C18 8.72523 18 9.13118 18 9.61223V11.081C18 11.6803 18.0001 12.1968 17.9445 12.6103C17.885 13.0535 17.7507 13.4783 17.4065 13.8229C17.0622 14.1675 16.6378 14.3019 16.195 14.3614C15.7965 14.4151 15.3025 14.4169 14.7308 14.417C14.4373 15.4464 13.4905 16.2 12.3678 16.2C11.2451 16.2 10.2983 15.4464 10.0048 14.417H6.62518C6.33169 15.4464 5.38488 16.2 4.26219 16.2C3.11486 16.2 2.15119 15.4129 1.88083 14.3488C0.801782 14.0887 3.89902e-06 13.1164 3.6241e-06 11.9565L6.34677e-07 6.93502C-2.01572e-05 5.91384 -3.71486e-05 5.07931 0.088459 4.42048C0.180963 3.73181 0.381156 3.13474 0.857311 2.65815C1.33347 2.18156 1.92999 1.98118 2.61802 1.88859C3.27624 1.80001 4.11001 1.80003 5.13025 1.80005ZM1.93973 12.936C2.27274 11.973 3.18679 11.2815 4.26219 11.2815C5.38495 11.2815 6.33181 12.0352 6.62523 13.0648H10.0048C10.2982 12.0352 11.245 11.2815 12.3678 11.2815C13.4905 11.2815 14.4374 12.0352 14.7308 13.0647C15.3258 13.0645 15.7201 13.0609 16.015 13.0213C16.308 12.9818 16.3998 12.9182 16.4512 12.8667C16.5027 12.8152 16.5662 12.7234 16.6056 12.4301C16.6477 12.1174 16.6491 11.693 16.6491 11.0365V10.3181L15.3146 10.3182C14.9415 10.3182 14.6391 10.0154 14.6391 9.64202C14.6391 9.2687 14.9415 8.96597 15.3146 8.96597L16.6454 8.96596C16.6421 8.78958 16.6359 8.64249 16.6241 8.51366C16.6009 8.25975 16.5597 8.1336 16.51 8.04295C16.4581 7.94827 16.3928 7.86157 16.3162 7.78549C16.2428 7.71264 16.133 7.63837 15.8955 7.54604C15.6469 7.44933 15.3169 7.35397 14.8188 7.211L13.2881 6.77177V9.88988C13.2881 10.2633 12.9857 10.566 12.6127 10.566C12.2396 10.566 11.9372 10.2633 11.9372 9.88988V5.87459C11.9372 5.33171 11.9369 4.95895 11.9167 4.66853C11.8971 4.38432 11.8608 4.22949 11.8135 4.11696C11.6537 3.73774 11.3522 3.43601 10.9734 3.27613C10.8609 3.22869 10.7063 3.19244 10.4224 3.17274C10.1322 3.15261 9.75978 3.15224 9.21735 3.15224H5.17861C4.09811 3.15224 3.3557 3.15367 2.79803 3.22872C2.2598 3.30115 1.99588 3.4308 1.81257 3.61429C1.62926 3.79777 1.49971 4.06193 1.42735 4.60065C1.35238 5.15883 1.35094 5.90193 1.35094 6.98342V11.9565C1.35094 12.3812 1.58948 12.7499 1.93973 12.936ZM12.3678 14.8479C12.9787 14.8479 13.4739 14.3522 13.4739 13.7408C13.4739 13.1293 12.9787 12.6337 12.3678 12.6337C11.757 12.6337 11.2618 13.1293 11.2618 13.7408C11.2618 14.3522 11.757 14.8479 12.3678 14.8479ZM5.36827 13.7408C5.36827 14.3522 4.87307 14.8479 4.26219 14.8479C3.65133 14.8479 3.15611 14.3522 3.15611 13.7408C3.15611 13.1293 3.65133 12.6337 4.26219 12.6337C4.87307 12.6337 5.36827 13.1293 5.36827 13.7408Z" fill="#5F0080"/>
</svg>
