<svg width="18" height="18" viewBox="0 0 18 18" fill="none" xmlns="http://www.w3.org/2000/svg">
<path d="M15.7495 9.31776V8.24976C15.7495 6.45954 15.0384 4.74266 13.7725 3.47679C12.5066 2.21091 10.7897 1.49976 8.99954 1.49976C7.20932 1.49976 5.49243 2.21091 4.22656 3.47679C2.96069 4.74266 2.24954 6.45954 2.24954 8.24976V9.31776C1.4629 9.66413 0.819136 10.2702 0.426002 11.0346C0.0328677 11.7989 -0.0857686 12.6751 0.0899539 13.5164C0.265676 14.3578 0.725091 15.1133 1.39129 15.6563C2.05749 16.1994 2.89003 16.4972 3.74954 16.4998H5.24954V8.99976H3.74954V8.24976C3.74954 6.85737 4.30266 5.52201 5.28722 4.53744C6.27179 3.55288 7.60715 2.99976 8.99954 2.99976C10.3919 2.99976 11.7273 3.55288 12.7118 4.53744C13.6964 5.52201 14.2495 6.85737 14.2495 8.24976V8.99976H12.7495V14.9998H9.74954V16.4998H14.2495C15.109 16.4972 15.9416 16.1994 16.6078 15.6563C17.274 15.1133 17.7334 14.3578 17.9091 13.5164C18.0848 12.6751 17.9662 11.7989 17.5731 11.0346C17.1799 10.2702 16.5362 9.66413 15.7495 9.31776ZM3.74954 14.9998C3.1528 14.9998 2.5805 14.7627 2.15855 14.3407C1.73659 13.9188 1.49954 13.3465 1.49954 12.7498C1.49954 12.153 1.73659 11.5807 2.15855 11.1588C2.5805 10.7368 3.1528 10.4998 3.74954 10.4998V14.9998ZM14.2495 14.9998V10.4998C14.8463 10.4998 15.4186 10.7368 15.8405 11.1588C16.2625 11.5807 16.4995 12.153 16.4995 12.7498C16.4995 13.3465 16.2625 13.9188 15.8405 14.3407C15.4186 14.7627 14.8463 14.9998 14.2495 14.9998Z" fill="#5F0080"/>
</svg>
