<svg width="40" height="40" viewBox="0 0 40 40" fill="none" xmlns="http://www.w3.org/2000/svg">
<path d="M24.9425 6.96608C26.2044 5.76882 27.474 4.00143 26.7947 2.09493C26.5468 1.38356 26.0662 0.788017 25.4388 0.414737C24.8115 0.041458 24.0783 -0.0852336 23.3702 0.057304C22.3937 0.243165 21.3184 0.944419 20.6261 2.31386C19.9327 0.945559 18.8574 0.244305 17.8809 0.057304C17.1728 -0.0855974 16.4394 0.0407875 15.8119 0.413867C15.1843 0.786947 14.7035 1.3824 14.4553 2.09379C13.776 3.99687 15.0456 5.76768 16.3075 6.96494H11.5C10.6716 6.96494 10 7.63651 10 8.46494V9.75C10 10.5784 10.6716 11.25 11.5 11.25H29.75C30.5784 11.25 31.25 10.5784 31.25 9.75V8.46608C31.25 7.63765 30.5784 6.96608 29.75 6.96608H24.9425ZM15.8279 2.63883C15.9518 2.26408 16.2017 1.94977 16.5306 1.75494C16.8594 1.5601 17.2447 1.49813 17.6139 1.58068C18.6621 1.78022 19.885 3.01625 19.885 5.84407C19.8812 5.94817 19.8974 6.052 19.9327 6.14936C19.968 6.24671 20.0216 6.33558 20.0903 6.41064C20.1591 6.4857 20.2415 6.54541 20.3327 6.5862C20.424 6.62699 20.5221 6.64801 20.6212 6.64801C20.7203 6.64801 20.8184 6.62699 20.9097 6.5862C21.0009 6.54541 21.0833 6.4857 21.1521 6.41064C21.2208 6.33558 21.2744 6.24671 21.3097 6.14936C21.345 6.052 21.3612 5.94817 21.3574 5.84407C21.3574 3.01625 22.5814 1.78022 23.6274 1.57954C24.4358 1.43359 25.128 1.84294 25.4134 2.63883C26.0341 4.37885 23.418 6.34578 22.5076 6.97178H18.7283C17.5391 6.17019 15.2615 4.24088 15.8322 2.63883H15.8279Z" fill="#BD76FF"/>
<path d="M28.5 13H12.5C11.6716 13 11 13.6716 11 14.5V21.5C11 22.3284 11.6716 23 12.5 23H28.5C29.3284 23 30 22.3284 30 21.5V14.5C30 13.6716 29.3284 13 28.5 13Z" fill="#BD76FF"/>
<path d="M32.8938 26.7584C32.7557 26.7584 32.6268 26.7658 32.5106 26.7803C30.6999 27.0076 27.7897 28.177 26.2498 29.2925C25.8713 29.7969 25.0961 30.0498 23.9052 30.0498C22.7802 30.0498 21.2857 29.8249 19.4069 29.3754L19.272 29.3432C19.0908 29.3004 18.982 29.1318 19.0291 28.9667C19.0761 28.8017 19.2613 28.7027 19.4425 28.7455L19.5794 28.7781C24.191 29.8817 25.3955 29.3572 25.7001 28.9324C25.7139 28.9036 25.7288 28.8738 25.745 28.8423C25.82 28.6955 25.9048 28.5291 25.8805 28.3888C25.5946 26.7411 20.687 26 17.2936 26C16.4562 26 15.7449 26.045 15.2908 26.1267C13.6382 26.4236 11.3952 27.4691 10 28.1803C10.7434 28.983 11.8256 30.5712 12.6176 31.8645C12.6182 31.8657 12.6189 31.8667 12.6196 31.8678C12.6532 31.9228 12.6864 31.9773 12.719 32.0312C12.7203 32.0331 12.7215 32.0352 12.7226 32.0372C12.7543 32.0895 12.7854 32.1412 12.8159 32.1922C12.8169 32.1939 12.818 32.1958 12.819 32.1975C12.847 32.2445 12.8744 32.2906 12.9014 32.3364C12.908 32.3476 12.9146 32.3588 12.9211 32.3699C12.9457 32.4117 12.9698 32.4529 12.9935 32.4936C13.0014 32.5072 13.0091 32.5205 13.0168 32.5339C13.0351 32.5656 13.0531 32.5968 13.0708 32.6277C13.0818 32.6468 13.0925 32.6657 13.1033 32.6845C13.1193 32.7127 13.135 32.7406 13.1504 32.768C13.1602 32.7853 13.1699 32.8024 13.1793 32.8194C13.1968 32.8507 13.214 32.8815 13.2306 32.9118C13.2408 32.9301 13.2505 32.9482 13.2604 32.9661C13.2707 32.9849 13.2807 33.0033 13.2906 33.0218C13.3055 33.0491 13.3198 33.0759 13.3339 33.1024C13.3423 33.1182 13.3506 33.1339 13.3588 33.1494C13.3647 33.1606 13.3711 33.1725 13.3768 33.1834C14.5722 32.7863 15.6225 32.5929 16.5794 32.5929C17.8686 32.5929 18.8424 32.9437 19.7842 33.2831C20.7626 33.6355 21.7742 34 23.2043 34C23.404 34 23.611 33.9929 23.8193 33.9788C25.0136 33.8981 27.8057 32.8025 30.4583 31.3736C33.6383 29.6606 35.0412 28.3201 34.9991 27.7996C34.9379 27.0356 33.7065 26.7584 32.8938 26.7584Z" fill="#5F0080"/>
<path d="M7.5005 39.199C7.76778 39.047 8.07342 38.876 8.40024 38.6933C9.29667 38.1919 10.4123 37.568 11.3128 37.0106C12.7271 36.1353 12.9193 35.8454 12.9436 35.7962C13.0634 35.5079 12.9922 35.0241 12.7309 34.3605C12.5825 33.9836 12.3456 33.4692 12.058 32.8896C11.1311 31.0226 9.67588 28.4803 8.94806 27.6939C8.93804 27.6831 8.92802 27.6721 8.91822 27.6621C8.47848 27.2042 8.20985 27 8.04734 27C8.01779 27 7.9682 27.0055 7.87873 27.0538C7.22742 27.4038 5.19811 29.1498 5.0105 29.5781C4.98864 29.6279 4.97967 29.6485 5.20753 29.9158C5.40298 30.1451 5.67071 30.4592 5.78233 30.9418C6.10283 32.3344 5.92977 34.0119 5.76236 35.634C5.59578 37.2493 5.4384 38.7751 5.77352 39.8454C5.78686 39.8879 5.80193 39.9361 5.94936 39.9361C5.94936 40.0437 6.09038 39.9866 6.16108 39.9698C6.2155 40.0072 6.26081 39.9694 6.32985 39.9694L7.5005 39.199ZM9.13417 34.0226C9.54443 33.9722 9.91512 34.2926 9.96147 34.7382C10.0082 35.1835 9.71304 35.5858 9.3027 35.6364C8.89229 35.6865 8.5216 35.3663 8.47539 34.9209C8.42911 34.4753 8.72375 34.0732 9.13417 34.0226Z" fill="#5F0080"/>
</svg>
