<svg width="46" height="46" viewBox="0 0 46 46" fill="none" xmlns="http://www.w3.org/2000/svg">
<g clip-path="url(#clip0_2368_1075)">
<path d="M32.2528 7.40245V1.05762H6.87354V44.4139H38.5977V7.40245H32.2528Z" fill="white"/>
<path d="M34.8965 13.2183H10.5747V40.7125H34.8965V13.2183Z" fill="#BD76FF"/>
<path d="M42.8275 0.528809C44.288 0.528809 45.4712 1.71212 45.4712 3.17249C45.4712 4.63285 44.288 5.81616 42.8275 5.81616C41.3671 5.81616 40.1838 4.63285 40.1838 3.17249C40.1838 1.71212 41.3671 0.528809 42.8275 0.528809Z" fill="white"/>
<path d="M2.37938 33.3105C3.40196 33.3105 4.22996 34.1385 4.22996 35.1611C4.22996 36.1837 3.40196 37.0117 2.37938 37.0117C1.35787 37.0117 0.528809 36.1837 0.528809 35.1611C0.528809 34.1385 1.35787 33.3105 2.37938 33.3105Z" fill="white"/>
<path d="M15.3333 17.4482C16.2099 17.4482 16.9195 18.1589 16.9195 19.0344C16.9195 19.91 16.2099 20.6207 15.3333 20.6207C14.4577 20.6207 13.7471 19.91 13.7471 19.0344C13.7471 18.1589 14.4577 17.4482 15.3333 17.4482Z" fill="white"/>
<path d="M15.3333 22.7358C16.2099 22.7358 16.9195 23.4465 16.9195 24.322C16.9195 25.1976 16.2099 25.9083 15.3333 25.9083C14.4577 25.9083 13.7471 25.1976 13.7471 24.322C13.7471 23.4465 14.4577 22.7358 15.3333 22.7358Z" fill="white"/>
<path d="M15.3333 28.0229C16.2099 28.0229 16.9195 28.7336 16.9195 29.6092C16.9195 30.4847 16.2099 31.1954 15.3333 31.1954C14.4577 31.1954 13.7471 30.4847 13.7471 29.6092C13.7471 28.7336 14.4577 28.0229 15.3333 28.0229Z" fill="white"/>
<path d="M15.3333 33.3105C16.2099 33.3105 16.9195 34.0212 16.9195 34.8968C16.9195 35.7723 16.2099 36.483 15.3333 36.483C14.4577 36.483 13.7471 35.7723 13.7471 34.8968C13.7471 34.0212 14.4577 33.3105 15.3333 33.3105Z" fill="white"/>
<path d="M31.7241 33.3105H19.0344V36.483H31.7241V33.3105Z" fill="white"/>
<path d="M31.7241 28.0229H19.0344V31.1954H31.7241V28.0229Z" fill="white"/>
<path d="M31.7241 22.7358H19.0344V25.9083H31.7241V22.7358Z" fill="white"/>
<path d="M31.7241 17.4482H19.0344V20.6207H31.7241V17.4482Z" fill="white"/>
<path d="M32.2529 1.05762C34.2146 3.01923 36.6361 5.44084 38.5978 7.40244H32.2529V1.05762Z" fill="#BD76FF"/>
<path d="M43.6207 29.0803C44.0588 29.0803 44.4138 28.7253 44.4138 28.2872C44.4138 27.8492 44.0588 27.4941 43.6207 27.4941C43.1827 27.4941 42.8276 27.8492 42.8276 28.2872C42.8276 28.7253 43.1827 29.0803 43.6207 29.0803Z" fill="#5F0080"/>
<path d="M41.5057 11.1033C41.9438 11.1033 42.2989 10.7482 42.2989 10.3102C42.2989 9.87217 41.9438 9.51709 41.5057 9.51709C41.0677 9.51709 40.7126 9.87217 40.7126 10.3102C40.7126 10.7482 41.0677 11.1033 41.5057 11.1033Z" fill="#5F0080"/>
<path d="M3.4369 44.4138C3.87492 44.4138 4.23001 44.0588 4.23001 43.6207C4.23001 43.1827 3.87492 42.8276 3.4369 42.8276C2.99888 42.8276 2.6438 43.1827 2.6438 43.6207C2.6438 44.0588 2.99888 44.4138 3.4369 44.4138Z" fill="#5F0080"/>
<path d="M1.32191 6.8738C1.75993 6.8738 2.11502 6.51872 2.11502 6.0807C2.11502 5.64268 1.75993 5.2876 1.32191 5.2876C0.883893 5.2876 0.528809 5.64268 0.528809 6.0807C0.528809 6.51872 0.883893 6.8738 1.32191 6.8738Z" fill="#5F0080"/>
<path d="M0.793103 24.322C1.23112 24.322 1.58621 23.967 1.58621 23.5289C1.58621 23.0909 1.23112 22.7358 0.793103 22.7358C0.355085 22.7358 0 23.0909 0 23.5289C0 23.967 0.355085 24.322 0.793103 24.322Z" fill="#5F0080"/>
<path d="M38.5976 44.9426H6.87346C6.58149 44.9426 6.34473 44.7059 6.34473 44.4139V1.05754C6.34473 0.765576 6.58149 0.528809 6.87346 0.528809H32.2528C32.393 0.528809 32.5275 0.584537 32.6266 0.683622L38.9714 7.02845C39.0706 7.12764 39.1263 7.26205 39.1263 7.40237V44.4139C39.1263 44.7059 38.8897 44.9426 38.5976 44.9426ZM7.4022 43.8851H38.0689V7.62137L32.0338 1.58628H7.4022V43.8851Z" fill="#5F0080"/>
<path d="M38.5977 7.93111H32.2529C31.9608 7.93111 31.7241 7.69434 31.7241 7.40237V1.05754C31.7241 0.765576 31.9608 0.528809 32.2529 0.528809C32.5449 0.528809 32.7816 0.765576 32.7816 1.05754V6.87364H38.5977C38.8898 6.87364 39.1264 7.1104 39.1264 7.40237C39.1264 7.69434 38.8898 7.93111 38.5977 7.93111Z" fill="#5F0080"/>
<path d="M34.8965 41.2412H10.5746C10.2827 41.2412 10.0459 41.0045 10.0459 40.7124V13.2182C10.0459 12.9262 10.2827 12.6895 10.5746 12.6895H34.8965C35.1885 12.6895 35.4252 12.9262 35.4252 13.2182V40.7124C35.4252 41.0045 35.1885 41.2412 34.8965 41.2412ZM11.1034 40.1837H34.3677V13.7469H11.1034V40.1837Z" fill="#5F0080"/>
<path d="M15.3334 21.1493C14.1673 21.1493 13.2185 20.2006 13.2185 19.0344C13.2185 17.8682 14.1673 16.9194 15.3334 16.9194C16.4996 16.9194 17.4484 17.8682 17.4484 19.0344C17.4484 20.2006 16.4996 21.1493 15.3334 21.1493ZM15.3334 17.9769C14.7504 17.9769 14.276 18.4513 14.276 19.0344C14.276 19.6175 14.7504 20.0918 15.3334 20.0918C15.9165 20.0918 16.3909 19.6175 16.3909 19.0344C16.3909 18.4513 15.9165 17.9769 15.3334 17.9769Z" fill="#5F0080"/>
<path d="M31.7243 21.1493H19.0346C18.7426 21.1493 18.5059 20.9126 18.5059 20.6206V17.4482C18.5059 17.1562 18.7426 16.9194 19.0346 16.9194H31.7243C32.0163 16.9194 32.253 17.1562 32.253 17.4482V20.6206C32.253 20.9126 32.0163 21.1493 31.7243 21.1493ZM19.5633 20.0918H31.1955V17.9769H19.5633V20.0918Z" fill="#5F0080"/>
<path d="M15.3334 26.4369C14.1673 26.4369 13.2185 25.4882 13.2185 24.322C13.2185 23.1558 14.1673 22.207 15.3334 22.207C16.4996 22.207 17.4484 23.1558 17.4484 24.322C17.4484 25.4882 16.4996 26.4369 15.3334 26.4369ZM15.3334 23.2645C14.7504 23.2645 14.276 23.7389 14.276 24.322C14.276 24.9051 14.7504 25.3794 15.3334 25.3794C15.9165 25.3794 16.3909 24.9051 16.3909 24.322C16.3909 23.7389 15.9165 23.2645 15.3334 23.2645Z" fill="#5F0080"/>
<path d="M31.7243 26.4369H19.0346C18.7426 26.4369 18.5059 26.2003 18.5059 25.9082V22.7358C18.5059 22.4438 18.7426 22.207 19.0346 22.207H31.7243C32.0163 22.207 32.253 22.4438 32.253 22.7358V25.9082C32.253 26.2003 32.0163 26.4369 31.7243 26.4369ZM19.5633 25.3794H31.1955V23.2645H19.5633V25.3794Z" fill="#5F0080"/>
<path d="M15.3334 31.724C14.1673 31.724 13.2185 30.7753 13.2185 29.6091C13.2185 28.4429 14.1673 27.4941 15.3334 27.4941C16.4996 27.4941 17.4484 28.4429 17.4484 29.6091C17.4484 30.7753 16.4996 31.724 15.3334 31.724ZM15.3334 28.5516C14.7504 28.5516 14.276 29.026 14.276 29.6091C14.276 30.1922 14.7504 30.6666 15.3334 30.6666C15.9165 30.6666 16.3909 30.1922 16.3909 29.6091C16.3909 29.026 15.9165 28.5516 15.3334 28.5516Z" fill="#5F0080"/>
<path d="M31.7243 31.724H19.0346C18.7426 31.724 18.5059 31.4874 18.5059 31.1953V28.0229C18.5059 27.7308 18.7426 27.4941 19.0346 27.4941H31.7243C32.0163 27.4941 32.253 27.7308 32.253 28.0229V31.1953C32.253 31.4874 32.0163 31.724 31.7243 31.724ZM19.5633 30.6666H31.1955V28.5516H19.5633V30.6666Z" fill="#5F0080"/>
<path d="M15.3334 37.0116C14.1673 37.0116 13.2185 36.0629 13.2185 34.8967C13.2185 33.7305 14.1673 32.7817 15.3334 32.7817C16.4996 32.7817 17.4484 33.7305 17.4484 34.8967C17.4484 36.0629 16.4996 37.0116 15.3334 37.0116ZM15.3334 33.8392C14.7504 33.8392 14.276 34.3136 14.276 34.8967C14.276 35.4798 14.7504 35.9542 15.3334 35.9542C15.9165 35.9542 16.3909 35.4798 16.3909 34.8967C16.3909 34.3136 15.9165 33.8392 15.3334 33.8392Z" fill="#5F0080"/>
<path d="M31.7243 37.0116H19.0346C18.7426 37.0116 18.5059 36.775 18.5059 36.4829V33.3105C18.5059 33.0184 18.7426 32.7817 19.0346 32.7817H31.7243C32.0163 32.7817 32.253 33.0184 32.253 33.3105V36.4829C32.253 36.775 32.0163 37.0116 31.7243 37.0116ZM19.5633 35.9542H31.1955V33.8392H19.5633V35.9542Z" fill="#5F0080"/>
<path d="M42.8277 6.34483C41.0784 6.34483 39.6553 4.92168 39.6553 3.17241C39.6553 1.42314 41.0784 0 42.8277 0C44.577 0 46.0001 1.42314 46.0001 3.17241C46.0001 4.92168 44.577 6.34483 42.8277 6.34483ZM42.8277 1.05747C41.6616 1.05747 40.7127 2.00623 40.7127 3.17241C40.7127 4.33859 41.6616 5.28736 42.8277 5.28736C43.9938 5.28736 44.9426 4.33859 44.9426 3.17241C44.9426 2.00623 43.9938 1.05747 42.8277 1.05747Z" fill="#5F0080"/>
<path d="M2.37931 37.5404C1.06731 37.5404 0 36.4729 0 35.161C0 33.8491 1.06731 32.7817 2.37931 32.7817C3.69131 32.7817 4.75862 33.8491 4.75862 35.161C4.75862 36.4729 3.69131 37.5404 2.37931 37.5404ZM2.37931 33.8392C1.6504 33.8392 1.05747 34.4321 1.05747 35.161C1.05747 35.89 1.6504 36.4829 2.37931 36.4829C3.10823 36.4829 3.70115 35.89 3.70115 35.161C3.70115 34.4321 3.10823 33.8392 2.37931 33.8392Z" fill="#5F0080"/>
</g>
<defs>
<clipPath id="clip0_2368_1075">
<rect width="46" height="46" fill="white"/>
</clipPath>
</defs>
</svg>
