<svg width="46" height="46" viewBox="0 0 46 46" fill="none" xmlns="http://www.w3.org/2000/svg">
<path d="M27.8389 5.48047C28.5837 5.48047 29.1865 6.08422 29.1865 6.82812C29.1865 7.57176 28.5834 8.17578 27.8389 8.17578C24.5565 8.17578 22.9869 8.17578 19.7529 8.17578C19.009 8.17578 18.4053 7.57203 18.4053 6.82812C18.4053 6.08548 19.009 5.48047 19.7529 5.48047C21.4395 5.48047 26.0076 5.48047 27.8389 5.48047Z" fill="#BD76FF"/>
<path d="M27.3896 2.78516H20.2021V5.48047H27.3896V2.78516Z" fill="white"/>
<path d="M27.4797 15.4477L40.2043 37.1854C41.7765 39.8511 39.8539 43.2148 36.7596 43.2148H10.8334C7.73832 43.2148 5.81656 39.8511 7.38793 37.1854L20.2922 15.4477V8.17578H27.4797V15.4477Z" fill="white"/>
<path d="M32.4129 34.7433C33.2224 36.1466 32.2099 37.9004 30.59 37.9004H17.2068C15.587 37.9004 14.5744 36.1466 15.3839 34.7433L22.0755 23.1534C22.8859 21.7509 24.9109 21.7509 25.7213 23.1534L32.4129 34.7433Z" fill="#BD76FF"/>
<path d="M24.5336 34.4937C24.6963 34.6564 24.7969 34.881 24.7969 35.1289C24.7969 35.3768 24.6963 35.6015 24.5336 35.7641C24.371 35.9267 24.1464 36.0273 23.8984 36.0273C23.4025 36.0273 23 35.6248 23 35.1289C23 34.8809 23.1006 34.6563 23.2632 34.4937C23.4259 34.3311 23.6505 34.2305 23.8984 34.2305C24.1464 34.2305 24.371 34.3311 24.5336 34.4937Z" fill="white"/>
<path d="M24.7969 26.1445V31.5352C24.7969 32.0311 24.3944 32.4336 23.8984 32.4336C23.4025 32.4336 23 32.0311 23 31.5352V26.1445C23 25.6486 23.4025 25.2461 23.8984 25.2461C24.1464 25.2461 24.371 25.3467 24.5336 25.5093C24.6963 25.672 24.7969 25.8966 24.7969 26.1445Z" fill="white"/>
<path d="M40.0703 11.3203C41.0631 11.3203 41.8672 12.1244 41.8672 13.1172C41.8672 14.11 41.0631 14.9141 40.0703 14.9141C39.0775 14.9141 38.2734 14.11 38.2734 13.1172C38.2734 12.1244 39.0775 11.3203 40.0703 11.3203Z" fill="#BD76FF"/>
<path d="M7.27734 17.5015C8.51809 17.5015 9.52344 18.5068 9.52344 19.7476C9.52344 20.9883 8.51809 21.9937 7.27734 21.9937C6.0366 21.9937 5.03125 20.9883 5.03125 19.7476C5.03125 18.5068 6.0366 17.5015 7.27734 17.5015Z" fill="#BD76FF"/>
<path d="M40.7441 29.7383C41.1163 29.7383 41.418 29.4366 41.418 29.0645C41.418 28.6923 41.1163 28.3906 40.7441 28.3906C40.372 28.3906 40.0703 28.6923 40.0703 29.0645C40.0703 29.4366 40.372 29.7383 40.7441 29.7383Z" fill="#5F0080"/>
<path d="M38.9473 6.37891C39.3194 6.37891 39.6211 6.07722 39.6211 5.70508C39.6211 5.33293 39.3194 5.03125 38.9473 5.03125C38.5751 5.03125 38.2734 5.33293 38.2734 5.70508C38.2734 6.07722 38.5751 6.37891 38.9473 6.37891Z" fill="#5F0080"/>
<path d="M34.9043 18.0586C35.2764 18.0586 35.5781 17.7569 35.5781 17.3848C35.5781 17.0126 35.2764 16.7109 34.9043 16.7109C34.5322 16.7109 34.2305 17.0126 34.2305 17.3848C34.2305 17.7569 34.5322 18.0586 34.9043 18.0586Z" fill="#5F0080"/>
<path d="M16.0371 12.1108C16.4093 12.1108 16.7109 11.8092 16.7109 11.437C16.7109 11.0649 16.4093 10.7632 16.0371 10.7632C15.665 10.7632 15.3633 11.0649 15.3633 11.437C15.3633 11.8092 15.665 12.1108 16.0371 12.1108Z" fill="#5F0080"/>
<path d="M4.80664 28.9478C5.17879 28.9478 5.48047 28.6461 5.48047 28.2739C5.48047 27.9018 5.17879 27.6001 4.80664 27.6001C4.4345 27.6001 4.13281 27.9018 4.13281 28.2739C4.13281 28.6461 4.4345 28.9478 4.80664 28.9478Z" fill="#5F0080"/>
<path d="M4.35742 7.09766C4.72957 7.09766 5.03125 6.79597 5.03125 6.42383C5.03125 6.05168 4.72957 5.75 4.35742 5.75C3.98528 5.75 3.68359 6.05168 3.68359 6.42383C3.68359 6.79597 3.98528 7.09766 4.35742 7.09766Z" fill="#5F0080"/>
<path d="M40.2045 37.6348C40.0507 37.6348 39.9009 37.5558 39.8171 37.4137L38.499 35.1774C38.3731 34.9637 38.4442 34.6883 38.658 34.5623C38.8719 34.4363 39.1471 34.5075 39.2731 34.7211L40.5911 36.9573C40.7171 37.1711 40.646 37.4464 40.4322 37.5725C40.3606 37.6147 40.2821 37.6348 40.2045 37.6348Z" fill="#5F0080"/>
<path d="M32.8832 25.2148C32.7282 25.2148 32.5774 25.1345 32.4942 24.9908L27.091 15.6731C26.9665 15.4585 27.0396 15.1837 27.2542 15.0592C27.469 14.9348 27.7438 15.0078 27.8681 15.2225L33.2713 24.5402C33.3957 24.7549 33.3227 25.0297 33.1081 25.1542C33.0372 25.1953 32.9596 25.2148 32.8832 25.2148Z" fill="#5F0080"/>
<path d="M20.292 8.625H19.7529C18.7621 8.625 17.9561 7.81892 17.9561 6.82812C17.9561 6.34773 18.1434 5.89645 18.4835 5.55755C18.8213 5.21857 19.2726 5.03125 19.7529 5.03125H20.2021C20.4502 5.03125 20.6514 5.23241 20.6514 5.48047C20.6514 5.72853 20.4502 5.92969 20.2021 5.92969H19.7529C19.5131 5.92969 19.2879 6.02313 19.1187 6.19284C18.9479 6.36309 18.8545 6.58824 18.8545 6.82812C18.8545 7.32352 19.2575 7.72656 19.7529 7.72656H20.292C20.5401 7.72656 20.7412 7.92772 20.7412 8.17578C20.7412 8.42384 20.5401 8.625 20.292 8.625Z" fill="#5F0080"/>
<path d="M27.8389 8.625H27.4795C27.2314 8.625 27.0303 8.42384 27.0303 8.17578C27.0303 7.92772 27.2314 7.72656 27.4795 7.72656H27.8389C28.0793 7.72656 28.3048 7.63312 28.474 7.46341C28.644 7.29334 28.7373 7.06801 28.7373 6.82812C28.7373 6.33273 28.3343 5.92969 27.8389 5.92969H27.3896C27.1416 5.92969 26.9404 5.72853 26.9404 5.48047C26.9404 5.23241 27.1416 5.03125 27.3896 5.03125H27.8389C28.8297 5.03125 29.6357 5.83733 29.6357 6.82812C29.6357 7.30789 29.449 7.75891 29.1098 8.09816C28.7714 8.43768 28.3198 8.625 27.8389 8.625Z" fill="#5F0080"/>
<path d="M27.3896 5.92969H20.2021C19.9541 5.92969 19.7529 5.72853 19.7529 5.48047V2.78516C19.7529 2.5371 19.9541 2.33594 20.2021 2.33594H27.3896C27.6377 2.33594 27.8389 2.5371 27.8389 2.78516V5.48047C27.8389 5.72853 27.6377 5.92969 27.3896 5.92969ZM20.6514 5.03125H26.9404V3.23438H20.6514V5.03125Z" fill="#5F0080"/>
<path d="M36.7597 43.6641H10.8334C9.21662 43.6641 7.77256 42.8261 6.97062 41.4225C6.16876 40.019 6.18017 38.3498 7.00098 36.9573L19.843 15.3245V8.17578C19.843 7.92772 20.0441 7.72656 20.2922 7.72656H27.4797C27.7278 7.72656 27.9289 7.92772 27.9289 8.17578V15.3259L40.5919 36.9584C41.4123 38.3493 41.424 40.0184 40.6223 41.4219C39.8205 42.8259 38.3765 43.6641 36.7597 43.6641ZM20.7414 8.625V15.4477C20.7414 15.5284 20.7197 15.6077 20.6784 15.677L7.77418 37.4147C7.11985 38.5246 7.11086 39.8568 7.75073 40.9767C8.39069 42.0969 9.54311 42.7656 10.8334 42.7656H36.7597C38.0499 42.7656 39.2022 42.0967 39.8422 40.9763C40.4819 39.8563 40.4726 38.5246 39.8174 37.4136L27.092 15.6747C27.0517 15.6059 27.0305 15.5275 27.0305 15.4477V8.625H20.7414Z" fill="#5F0080"/>
<path d="M30.5899 38.3496H17.2068C16.2839 38.3496 15.4572 37.8724 14.9955 37.0731C14.5337 36.2736 14.5334 35.3187 14.9947 34.5189L21.6864 22.9288C22.1483 22.1295 22.9751 21.6523 23.8983 21.6523C24.8216 21.6523 25.6484 22.1295 26.1102 22.9287L32.8019 34.5187C33.2633 35.3187 33.263 36.2735 32.8011 37.0731C32.3395 37.8724 31.5129 38.3496 30.5899 38.3496ZM23.8983 22.5508C23.2998 22.5508 22.7637 22.8601 22.4643 23.3782L15.7729 34.9679C15.4739 35.4863 15.4741 36.1053 15.7735 36.6237C16.0728 37.1419 16.6086 37.4512 17.2068 37.4512H30.5899C31.1881 37.4512 31.7239 37.1419 32.0232 36.6237C32.3226 36.1053 32.3228 35.4863 32.0237 34.9677L25.3322 23.3781C25.033 22.8601 24.4969 22.5508 23.8983 22.5508Z" fill="#5F0080"/>
<path d="M23.8984 32.8828C23.1553 32.8828 22.5508 32.2783 22.5508 31.5352V26.1445C22.5508 25.4013 23.1553 24.7969 23.8984 24.7969C24.2582 24.7969 24.5966 24.937 24.8512 25.1916C25.1059 25.4463 25.2461 25.7847 25.2461 26.1445V31.5352C25.2461 32.2783 24.6415 32.8828 23.8984 32.8828ZM23.8984 25.6953C23.6507 25.6953 23.4492 25.8968 23.4492 26.1445V31.5352C23.4492 31.7829 23.6507 31.9844 23.8984 31.9844C24.1461 31.9844 24.3477 31.7829 24.3477 31.5352V26.1445C24.3477 26.0247 24.3008 25.9118 24.2159 25.8269C24.131 25.7421 24.0183 25.6953 23.8984 25.6953Z" fill="#5F0080"/>
<path d="M23.8984 36.4766C23.1553 36.4766 22.5508 35.8721 22.5508 35.1289C22.5508 34.7691 22.691 34.4307 22.9456 34.1761C23.2003 33.9214 23.5387 33.7812 23.8984 33.7812C24.2582 33.7812 24.5966 33.9214 24.8512 34.176C25.1059 34.4307 25.2461 34.7691 25.2461 35.1289C25.2461 35.4887 25.1059 35.8271 24.8513 36.0817C24.5966 36.3364 24.2582 36.4766 23.8984 36.4766ZM23.8984 34.6797C23.7786 34.6797 23.6658 34.7265 23.5808 34.8114C23.4959 34.8962 23.4492 35.0091 23.4492 35.1289C23.4492 35.3766 23.6507 35.5781 23.8984 35.5781C24.0183 35.5781 24.131 35.5313 24.216 35.4464C24.3009 35.3616 24.3477 35.2488 24.3477 35.1289C24.3477 35.0091 24.3008 34.8962 24.2159 34.8113C24.131 34.7265 24.0183 34.6797 23.8984 34.6797Z" fill="#5F0080"/>
<path d="M33.7818 32.4337C33.6272 32.4337 33.4768 32.3539 33.3933 32.2107L27.1043 21.4295C26.9792 21.2152 27.0516 20.9401 27.2659 20.8151C27.4804 20.6902 27.7554 20.7626 27.8802 20.9768L34.1693 31.758C34.2944 31.9724 34.222 32.2474 34.0077 32.3725C33.9365 32.414 33.8586 32.4337 33.7818 32.4337Z" fill="#5F0080"/>
<path d="M40.0703 15.3633C38.8318 15.3633 37.8242 14.3557 37.8242 13.1172C37.8242 11.8787 38.8318 10.8711 40.0703 10.8711C41.3088 10.8711 42.3164 11.8787 42.3164 13.1172C42.3164 14.3557 41.3088 15.3633 40.0703 15.3633ZM40.0703 11.7695C39.3272 11.7695 38.7227 12.3741 38.7227 13.1172C38.7227 13.8603 39.3272 14.4648 40.0703 14.4648C40.8134 14.4648 41.418 13.8603 41.418 13.1172C41.418 12.3741 40.8134 11.7695 40.0703 11.7695Z" fill="#5F0080"/>
<path d="M7.27734 22.4429C5.79115 22.4429 4.58203 21.2338 4.58203 19.7476C4.58203 18.2614 5.79115 17.0522 7.27734 17.0522C8.76354 17.0522 9.97266 18.2614 9.97266 19.7476C9.97266 21.2338 8.76354 22.4429 7.27734 22.4429ZM7.27734 17.9507C6.28655 17.9507 5.48047 18.7568 5.48047 19.7476C5.48047 20.7384 6.28655 21.5444 7.27734 21.5444C8.26814 21.5444 9.07422 20.7384 9.07422 19.7476C9.07422 18.7568 8.26814 17.9507 7.27734 17.9507Z" fill="#5F0080"/>
</svg>
