<svg width="46" height="46" viewBox="0 0 46 46" fill="none" xmlns="http://www.w3.org/2000/svg">
<path d="M22.7754 3.45898C13.279 3.45898 5.57935 11.1577 5.57935 20.6551C5.57935 30.1516 13.279 37.8512 22.7754 37.8512V43.4395C22.7754 43.4395 39.5699 36.0166 39.9715 20.6551C39.9715 11.1577 32.2729 3.45898 22.7754 3.45898Z" fill="white"/>
<path d="M22.7754 33.1074C29.7221 33.1074 35.3535 27.476 35.3535 20.5293C35.3535 13.5826 29.7221 7.95117 22.7754 7.95117C15.8287 7.95117 10.1973 13.5826 10.1973 20.5293C10.1973 27.476 15.8287 33.1074 22.7754 33.1074Z" fill="#BD76FF"/>
<path d="M39.8457 8.84961C41.5824 8.84961 42.9902 7.44175 42.9902 5.70508C42.9902 3.9684 41.5824 2.56055 39.8457 2.56055C38.109 2.56055 36.7012 3.9684 36.7012 5.70508C36.7012 7.44175 38.109 8.84961 39.8457 8.84961Z" fill="#BD76FF"/>
<path d="M7.50195 35.3535C8.7427 35.3535 9.74805 36.3589 9.74805 37.5996C9.74805 38.8404 8.7427 39.8457 7.50195 39.8457C6.26121 39.8457 5.25586 38.8404 5.25586 37.5996C5.25586 36.3589 6.26121 35.3535 7.50195 35.3535Z" fill="#BD76FF"/>
<path d="M30.4121 15.5879V21.877C30.4121 21.877 30.2773 24.2425 27.7168 25.4707L26.8184 24.5723C28.1957 23.5391 28.166 21.877 28.166 21.877H24.123V15.5879H30.4121Z" fill="white"/>
<path d="M21.4277 15.5879V21.877C21.4277 21.877 21.293 24.2425 18.7324 25.4707L17.834 24.5723C19.2113 23.5391 19.1816 21.877 19.1816 21.877H15.1387V15.5879H21.4277Z" fill="white"/>
<path d="M42.3164 38.9473C42.6886 38.9473 42.9902 38.6456 42.9902 38.2734C42.9902 37.9013 42.6886 37.5996 42.3164 37.5996C41.9443 37.5996 41.6426 37.9013 41.6426 38.2734C41.6426 38.6456 41.9443 38.9473 42.3164 38.9473Z" fill="#5F0080"/>
<path d="M33.7812 42.541C34.1534 42.541 34.4551 42.2393 34.4551 41.8672C34.4551 41.495 34.1534 41.1934 33.7812 41.1934C33.4091 41.1934 33.1074 41.495 33.1074 41.8672C33.1074 42.2393 33.4091 42.541 33.7812 42.541Z" fill="#5F0080"/>
<path d="M33.332 3.45898C33.7042 3.45898 34.0059 3.1573 34.0059 2.78516C34.0059 2.41301 33.7042 2.11133 33.332 2.11133C32.9599 2.11133 32.6582 2.41301 32.6582 2.78516C32.6582 3.1573 32.9599 3.45898 33.332 3.45898Z" fill="#5F0080"/>
<path d="M14.4648 40.7441C14.837 40.7441 15.1387 40.4425 15.1387 40.0703C15.1387 39.6982 14.837 39.3965 14.4648 39.3965C14.0927 39.3965 13.791 39.6982 13.791 40.0703C13.791 40.4425 14.0927 40.7441 14.4648 40.7441Z" fill="#5F0080"/>
<path d="M9.52344 4.35742C9.89558 4.35742 10.1973 4.05574 10.1973 3.68359C10.1973 3.31145 9.89558 3.00977 9.52344 3.00977C9.15129 3.00977 8.84961 3.31145 8.84961 3.68359C8.84961 4.05574 9.15129 4.35742 9.52344 4.35742Z" fill="#5F0080"/>
<path d="M6.37891 32.209C6.75105 32.209 7.05273 31.9073 7.05273 31.5352C7.05273 31.163 6.75105 30.8613 6.37891 30.8613C6.00676 30.8613 5.70508 31.163 5.70508 31.5352C5.70508 31.9073 6.00676 32.209 6.37891 32.209Z" fill="#5F0080"/>
<path d="M3.23438 14.2402C3.60652 14.2402 3.9082 13.9386 3.9082 13.5664C3.9082 13.1943 3.60652 12.8926 3.23438 12.8926C2.86223 12.8926 2.56055 13.1943 2.56055 13.5664C2.56055 13.9386 2.86223 14.2402 3.23438 14.2402Z" fill="#5F0080"/>
<path d="M22.7754 43.8887C22.6896 43.8887 22.6043 43.8641 22.5303 43.8158C22.4029 43.7329 22.3262 43.5913 22.3262 43.4395V38.2947C12.8034 38.0555 5.13013 30.2344 5.13013 20.6551C5.13013 10.9254 13.0457 3.00977 22.7754 3.00977C32.5051 3.00977 40.4208 10.9254 40.4208 20.6551C40.4208 20.6589 40.4208 20.6629 40.4206 20.6668C40.327 24.2456 39.3461 27.6948 37.5053 30.9186C36.0381 33.488 34.0248 35.9188 31.5214 38.1436C27.2689 41.9227 23.1311 43.7734 22.9571 43.8504C22.899 43.876 22.8371 43.8887 22.7754 43.8887ZM22.7754 3.9082C13.5412 3.9082 6.02856 11.4208 6.02856 20.6551C6.02856 29.8894 13.5412 37.402 22.7754 37.402C23.0235 37.402 23.2247 37.603 23.2247 37.8512V42.7239C24.5466 42.0574 27.7487 40.2986 30.944 37.4548C34.7445 34.0721 39.3172 28.4111 39.5223 20.6493C39.5195 11.4173 32.0081 3.9082 22.7754 3.9082Z" fill="#5F0080"/>
<path d="M22.7754 33.5566C15.5921 33.5566 9.74805 27.7126 9.74805 20.5293C9.74805 13.346 15.5921 7.50195 22.7754 7.50195C29.9587 7.50195 35.8027 13.346 35.8027 20.5293C35.8027 27.7126 29.9587 33.5566 22.7754 33.5566ZM22.7754 8.40039C16.0875 8.40039 10.6465 13.8414 10.6465 20.5293C10.6465 27.2172 16.0875 32.6582 22.7754 32.6582C29.4633 32.6582 34.9043 27.2172 34.9043 20.5293C34.9043 13.8414 29.4633 8.40039 22.7754 8.40039Z" fill="#5F0080"/>
<path d="M39.8457 9.29883C37.864 9.29883 36.252 7.68667 36.252 5.70508C36.252 3.72348 37.864 2.11133 39.8457 2.11133C41.8274 2.11133 43.4395 3.72348 43.4395 5.70508C43.4395 7.68667 41.8274 9.29883 39.8457 9.29883ZM39.8457 3.00977C38.3595 3.00977 37.1504 4.21888 37.1504 5.70508C37.1504 7.19127 38.3595 8.40039 39.8457 8.40039C41.3319 8.40039 42.541 7.19127 42.541 5.70508C42.541 4.21888 41.3319 3.00977 39.8457 3.00977Z" fill="#5F0080"/>
<path d="M7.50195 40.2949C6.01576 40.2949 4.80664 39.0858 4.80664 37.5996C4.80664 36.1134 6.01576 34.9043 7.50195 34.9043C8.98815 34.9043 10.1973 36.1134 10.1973 37.5996C10.1973 39.0858 8.98815 40.2949 7.50195 40.2949ZM7.50195 35.8027C6.51116 35.8027 5.70508 36.6088 5.70508 37.5996C5.70508 38.5904 6.51116 39.3965 7.50195 39.3965C8.49275 39.3965 9.29883 38.5904 9.29883 37.5996C9.29883 36.6088 8.49275 35.8027 7.50195 35.8027Z" fill="#5F0080"/>
<path d="M27.717 25.92C27.6003 25.92 27.4854 25.8746 27.3992 25.7884L26.5008 24.89C26.4087 24.798 26.3611 24.6705 26.3703 24.5405C26.3796 24.4106 26.4446 24.2911 26.5488 24.2129C27.3208 23.6338 27.5828 22.8222 27.6715 22.3262H24.123C23.8749 22.3262 23.6738 22.125 23.6738 21.877V15.5879C23.6738 15.3398 23.8749 15.1387 24.123 15.1387H30.4121C30.6603 15.1387 30.8613 15.3398 30.8613 15.5879V21.877C30.8613 21.8855 30.8611 21.8939 30.8606 21.9025C30.8545 22.0099 30.6789 24.5481 27.911 25.8757C27.8491 25.9055 27.7827 25.92 27.717 25.92ZM27.4769 24.5956L27.8024 24.9211C29.7542 23.8357 29.9484 22.038 29.9629 21.8608V16.0372H24.5723V21.4278H28.166C28.411 21.4278 28.6108 21.6241 28.6151 21.869C28.6165 21.9391 28.6286 23.4513 27.4769 24.5956Z" fill="#5F0080"/>
<path d="M18.7325 25.92C18.6159 25.92 18.5009 25.8746 18.4147 25.7884L17.5163 24.89C17.4242 24.798 17.3766 24.6705 17.3858 24.5405C17.3951 24.4106 17.4602 24.2911 17.5644 24.2129C18.3363 23.6338 18.5983 22.8222 18.6871 22.3262H15.1387C14.8906 22.3262 14.6895 22.125 14.6895 21.877V15.5879C14.6895 15.3398 14.8906 15.1387 15.1387 15.1387H21.4277C21.6758 15.1387 21.877 15.3398 21.877 15.5879V21.877C21.877 21.8855 21.8767 21.8939 21.8762 21.9025C21.8701 22.0099 21.6946 24.5481 18.9268 25.8757C18.8647 25.9055 18.7984 25.92 18.7325 25.92ZM18.4925 24.5956L18.818 24.9211C20.7698 23.8357 20.9641 22.038 20.9785 21.8608V16.0372H15.5879V21.4278H19.1816C19.4266 21.4278 19.6265 21.6241 19.6308 21.869C19.632 21.9391 19.6442 23.4513 18.4925 24.5956Z" fill="#5F0080"/>
</svg>
