<svg width="56" height="56" viewBox="0 0 56 56" fill="none" xmlns="http://www.w3.org/2000/svg">
<g clip-path="url(#clip0_10581_126937)">
<path d="M53.4477 35.8819C55.2434 38.7965 55.3342 42.4711 53.6866 45.4712C52.0389 48.4725 48.9067 50.3375 45.5118 50.3375H11.7326C8.33779 50.3375 5.20552 48.4725 3.55788 45.4712C1.91023 42.4711 2.00108 38.7965 3.79681 35.8819L20.6852 8.46585C22.405 5.67592 25.3717 4.00977 28.6222 4.00977C31.8727 4.00977 34.8395 5.67592 36.5593 8.46585L53.4477 35.8819Z" fill="white"/>
<path d="M51.0222 13.2133C53.4277 13.2133 55.3778 11.2413 55.3778 8.80879C55.3778 6.37626 53.4277 4.4043 51.0222 4.4043C48.6167 4.4043 46.6667 6.37626 46.6667 8.80879C46.6667 11.2413 48.6167 13.2133 51.0222 13.2133Z" fill="#BD76FF"/>
<path d="M4.66667 23.9096C6.55671 23.9096 8.08889 22.3602 8.08889 20.449C8.08889 18.5377 6.55671 16.9883 4.66667 16.9883C2.77663 16.9883 1.24445 18.5377 1.24445 20.449C1.24445 22.3602 2.77663 23.9096 4.66667 23.9096Z" fill="#BD76FF"/>
<path d="M48.6951 38.8769C50.2507 41.4025 48.4549 44.6744 45.5118 44.6744H11.7326C8.7895 44.6744 6.99377 41.4025 8.54932 38.8769L25.4389 11.4595C26.9074 9.0773 30.3371 9.0773 31.8055 11.4595L48.6951 38.8769Z" fill="#BD76FF"/>
<path d="M30.3819 36.6027C30.8324 37.0582 31.1111 37.6874 31.1111 38.3821C31.1111 39.0767 30.8324 39.706 30.3819 40.1615C29.9314 40.6171 29.3092 40.8989 28.6222 40.8989C27.2471 40.8989 26.1333 39.7727 26.1333 38.3821C26.1333 37.6874 26.4121 37.0582 26.8626 36.6027C27.3131 36.1471 27.9353 35.8652 28.6222 35.8652C29.3092 35.8652 29.9314 36.1471 30.3819 36.6027Z" fill="white"/>
<path d="M31.1111 19.5051V30.2018C31.1111 31.5923 29.9973 32.7186 28.6222 32.7186C27.2471 32.7186 26.1333 31.5923 26.1333 30.2018V19.5051C26.1333 18.1146 27.2471 16.9883 28.6222 16.9883C29.3092 16.9883 29.9314 17.2702 30.3819 17.7257C30.8324 18.1813 31.1111 18.8105 31.1111 19.5051Z" fill="white"/>
<path d="M50.0889 21.3935C50.6043 21.3935 51.0222 20.9709 51.0222 20.4497C51.0222 19.9284 50.6043 19.5059 50.0889 19.5059C49.5734 19.5059 49.1555 19.9284 49.1555 20.4497C49.1555 20.9709 49.5734 21.3935 50.0889 21.3935Z" fill="#5F0080"/>
<path d="M41.3778 5.66303C41.8933 5.66303 42.3111 5.24047 42.3111 4.71921C42.3111 4.19795 41.8933 3.77539 41.3778 3.77539C40.8623 3.77539 40.4445 4.19795 40.4445 4.71921C40.4445 5.24047 40.8623 5.66303 41.3778 5.66303Z" fill="#5F0080"/>
<path d="M37.6445 55.9999C38.1599 55.9999 38.5778 55.5774 38.5778 55.0561C38.5778 54.5349 38.1599 54.1123 37.6445 54.1123C37.129 54.1123 36.7111 54.5349 36.7111 55.0561C36.7111 55.5774 37.129 55.9999 37.6445 55.9999Z" fill="#5F0080"/>
<path d="M18.3555 1.88764C18.871 1.88764 19.2889 1.46508 19.2889 0.94382C19.2889 0.422563 18.871 0 18.3555 0C17.8401 0 17.4222 0.422563 17.4222 0.94382C17.4222 1.46508 17.8401 1.88764 18.3555 1.88764Z" fill="#5F0080"/>
<path d="M0.933333 52.2246C1.4488 52.2246 1.86667 51.802 1.86667 51.2807C1.86667 50.7595 1.4488 50.3369 0.933333 50.3369C0.417868 50.3369 0 50.7595 0 51.2807C0 51.802 0.417868 52.2246 0.933333 52.2246Z" fill="#5F0080"/>
<path d="M45.5118 50.966H11.7326C8.11252 50.966 4.77119 48.9777 3.01403 45.7763C1.25688 42.5761 1.35395 38.6574 3.26915 35.549L20.1575 8.13296C21.9918 5.15678 25.1564 3.37988 28.6222 3.37988C32.088 3.37988 35.2526 5.15678 37.0869 8.1317L53.9753 35.5478C55.8905 38.6561 55.9875 42.5748 54.2304 45.775C52.4732 48.9765 49.1319 50.9648 45.5118 50.9648V50.966ZM28.6222 4.63831C25.5883 4.63831 22.8194 6.19372 21.2128 8.79867L4.32443 36.2135C2.64817 38.933 2.56355 42.3634 4.10168 45.1647C5.63981 47.9672 8.56426 49.7076 11.7326 49.7076H45.5118C48.6802 49.7076 51.6046 47.9672 53.1427 45.1647C54.6809 42.3634 54.595 38.933 52.92 36.2135L36.0316 8.79741C34.4263 6.19247 31.6562 4.63831 28.6222 4.63831Z" fill="#5F0080"/>
<path d="M45.5118 45.303H11.7326C10.1211 45.303 8.69244 44.4523 7.90968 43.0278C7.12693 41.6032 7.16924 39.927 8.02044 38.5427L24.9113 11.1266C25.7152 9.82165 27.1027 9.04395 28.6222 9.04395C30.1417 9.04395 31.5292 9.82291 32.3331 11.1266L49.2228 38.544C50.0752 39.927 50.1163 41.6032 49.3335 43.029C48.5507 44.4536 47.1221 45.3043 45.5106 45.3043L45.5118 45.303ZM28.6222 10.3011C27.5346 10.3011 26.5427 10.8586 25.9666 11.7911L9.07697 39.2084C8.46719 40.1976 8.43733 41.3968 8.99733 42.4162C9.55733 43.4355 10.579 44.0433 11.7314 44.0433H45.5106C46.6629 44.0433 47.6859 43.4355 48.2446 42.4162C48.8046 41.3968 48.7747 40.1976 48.165 39.2084L31.2766 11.7911C30.7017 10.8586 29.7086 10.3011 28.6222 10.3011Z" fill="#5F0080"/>
<path d="M28.6222 33.3481C26.9061 33.3481 25.5111 31.9374 25.5111 30.2021V19.5054C25.5111 17.7701 26.9061 16.3594 28.6222 16.3594C29.4523 16.3594 30.2338 16.6866 30.8212 17.2805C31.4085 17.8745 31.7333 18.6648 31.7333 19.5054V30.2021C31.7333 31.9374 30.3383 33.3481 28.6222 33.3481ZM28.6222 17.6178C27.5931 17.6178 26.7556 18.4647 26.7556 19.5054V30.2021C26.7556 31.2428 27.5931 32.0897 28.6222 32.0897C29.6514 32.0897 30.4889 31.2428 30.4889 30.2021V19.5054C30.4889 19.0021 30.2948 18.5276 29.9413 18.1715C29.5892 17.8154 29.12 17.6178 28.6222 17.6178Z" fill="#5F0080"/>
<path d="M28.6222 41.5285C26.9061 41.5285 25.5111 40.1178 25.5111 38.3824C25.5111 37.543 25.8347 36.7527 26.422 36.1588C27.0094 35.5648 27.7909 35.2363 28.6222 35.2363C29.4535 35.2363 30.2338 35.5635 30.8224 36.1588C31.4098 36.7527 31.7333 37.543 31.7333 38.3824C31.7333 39.2218 31.4098 40.0121 30.8224 40.606C30.235 41.2 29.4535 41.5285 28.6222 41.5285ZM28.6222 36.4948C28.1244 36.4948 27.6553 36.6911 27.3031 37.0485C26.9509 37.4046 26.7556 37.879 26.7556 38.3824C26.7556 39.4231 27.5931 40.27 28.6222 40.27C29.12 40.27 29.5892 40.0737 29.9413 39.7163C30.2935 39.3602 30.4889 38.8858 30.4889 38.3824C30.4889 37.879 30.2948 37.4046 29.9413 37.0485C29.5892 36.6923 29.12 36.4948 28.6222 36.4948Z" fill="#5F0080"/>
<path d="M51.0222 13.8428C48.277 13.8428 46.0444 11.5852 46.0444 8.8091C46.0444 6.03301 48.277 3.77539 51.0222 3.77539C53.7675 3.77539 56 6.03301 56 8.8091C56 11.5852 53.7675 13.8428 51.0222 13.8428ZM51.0222 5.03382C48.9639 5.03382 47.2889 6.72766 47.2889 8.8091C47.2889 10.8905 48.9639 12.5844 51.0222 12.5844C53.0805 12.5844 54.7555 10.8905 54.7555 8.8091C54.7555 6.72766 53.0805 5.03382 51.0222 5.03382Z" fill="#5F0080"/>
<path d="M4.66667 24.5392C2.43662 24.5392 0.622223 22.7044 0.622223 20.4493C0.622223 18.1942 2.43662 16.3594 4.66667 16.3594C6.89671 16.3594 8.71111 18.1942 8.71111 20.4493C8.71111 22.7044 6.89671 24.5392 4.66667 24.5392ZM4.66667 17.6178C3.12231 17.6178 1.86667 18.8876 1.86667 20.4493C1.86667 22.011 3.12231 23.2807 4.66667 23.2807C6.21102 23.2807 7.46667 22.011 7.46667 20.4493C7.46667 18.8876 6.21102 17.6178 4.66667 17.6178Z" fill="#5F0080"/>
</g>
<defs>
<clipPath id="clip0_10581_126937">
<rect width="56" height="56" fill="white"/>
</clipPath>
</defs>
</svg>
