<svg width="56" height="56" viewBox="0 0 56 56" fill="none" xmlns="http://www.w3.org/2000/svg">
<g clip-path="url(#clip0_11414_148637)">
<path d="M40.2756 51.5977H30.5223H21.0836H3.46484V55.3729H21.0836H30.5223H51.2873V51.5977H40.2756Z" fill="#D8D8D8"/>
<path d="M3.46484 51.5963V33.1544L3.47114 33.1355C3.86253 33.2739 4.28412 33.3494 4.72333 33.3494C6.80864 33.3494 8.49879 31.6594 8.49879 29.5742C8.49879 31.6594 10.1889 33.3494 12.2742 33.3494C14.3596 33.3494 16.0497 31.6594 16.0497 29.5742C16.0497 31.6594 17.7398 33.3494 19.8252 33.3494C21.9105 33.3494 23.6006 31.6594 23.6006 29.5742C23.6006 31.6594 25.2908 33.3494 27.3761 33.3494C29.4614 33.3494 31.1515 31.6594 31.1515 29.5742C31.1515 31.6594 32.8417 33.3494 34.927 33.3494C37.0123 33.3494 38.7024 31.6594 38.7024 29.5742C38.7024 31.6594 40.3926 33.3494 42.4779 33.3494C44.5632 33.3494 46.2534 31.6594 46.2534 29.5742C46.2534 31.6594 47.9435 33.3494 50.0288 33.3494C50.4693 33.3494 50.8909 33.2739 51.2835 33.1355L51.2873 33.1456V51.5963H3.46484Z" fill="white"/>
<path d="M21.0767 41.5285V51.5958V55.371H9.12109V51.5958V39.0117H21.0767V41.5285Z" fill="white"/>
<path d="M50.338 8.17933C52.4231 8.17933 54.1134 6.48911 54.1134 4.40412C54.1134 2.31913 52.4231 0.628906 50.338 0.628906C48.2528 0.628906 46.5625 2.31913 46.5625 4.40412C46.5625 6.48911 48.2528 8.17933 50.338 8.17933Z" fill="white"/>
<path d="M6.91932 3.77734C8.30994 3.77734 9.43629 4.90362 9.43629 6.29415C9.43629 7.68469 8.30994 8.81096 6.91932 8.81096C5.52869 8.81096 4.40234 7.68469 4.40234 6.29415C4.40234 4.90362 5.52995 3.77734 6.91932 3.77734Z" fill="white"/>
<path d="M53.8009 26.4258V29.5718C53.8009 31.2165 52.7488 32.6159 51.2802 33.1331C50.8875 33.2715 50.4659 33.347 50.0255 33.347C47.9401 33.347 46.25 31.657 46.25 29.5718V26.4258H53.8009Z" fill="#D8D8D8"/>
<path d="M38.6994 26.4258V29.5718C38.6994 31.657 37.0092 33.347 34.9239 33.347C32.8386 33.347 31.1484 31.657 31.1484 29.5718V26.4258H38.6994Z" fill="#D8D8D8"/>
<path d="M23.5978 26.4258V29.5718C23.5978 31.657 21.9076 33.347 19.8223 33.347C17.737 33.347 16.0469 31.657 16.0469 29.5718V26.4258H23.5978Z" fill="#D8D8D8"/>
<path d="M8.50013 26.4258V29.5718C8.50013 31.657 6.80999 33.347 4.72468 33.347C4.28546 33.347 3.86387 33.2715 3.47248 33.1331C2.00257 32.6184 0.949219 31.2178 0.949219 29.5718V26.4258H8.50013Z" fill="#D8D8D8"/>
<path d="M46.2462 26.4258V29.5718C46.2462 31.657 44.5561 33.347 42.4708 33.347C40.3855 33.347 38.6953 31.657 38.6953 29.5718V26.4258H46.2462Z" fill="white"/>
<path d="M16.047 26.4258V29.5718C16.047 31.657 14.3569 33.347 12.2716 33.347C10.1862 33.347 8.49609 31.657 8.49609 29.5718V26.4258H16.047Z" fill="white"/>
<path d="M31.1486 26.4258V29.5718C31.1486 31.657 29.4584 33.347 27.3731 33.347C25.2878 33.347 23.5977 31.657 23.5977 29.5718V26.4258H31.1486Z" fill="white"/>
<path d="M48.7683 12.5859L53.8023 26.4284H46.2513L43.7344 12.5859H48.7683Z" fill="#D8D8D8"/>
<path d="M37.4409 12.5859L38.6994 26.4284H31.1484V12.5859H37.4409Z" fill="#D8D8D8"/>
<path d="M23.5978 12.5859V26.4284H16.0469L17.3054 12.5859H23.5978Z" fill="#D8D8D8"/>
<path d="M11.0171 12.5859L8.50013 26.4284H0.949219L5.98316 12.5859H11.0171Z" fill="#D8D8D8"/>
<path d="M43.7338 12.5859L46.2508 26.4284H38.6999L37.4414 12.5859H43.7338Z" fill="white"/>
<path d="M31.1486 12.5859H23.5977V26.4284H31.1486V12.5859Z" fill="white"/>
<path d="M17.3055 12.5859L16.047 26.4284H8.49609L11.0131 12.5859H17.3055Z" fill="white"/>
<path d="M55.0571 15.7275C55.5784 15.7275 56.001 15.3049 56.001 14.7836C56.001 14.2624 55.5784 13.8398 55.0571 13.8398C54.5359 13.8398 54.1133 14.2624 54.1133 14.7836C54.1133 15.3049 54.5359 15.7275 55.0571 15.7275Z" fill="#CCCCCC"/>
<path d="M40.5884 5.03604C41.1097 5.03604 41.5323 4.61349 41.5323 4.09224C41.5323 3.57099 41.1097 3.14844 40.5884 3.14844C40.0671 3.14844 39.6445 3.57099 39.6445 4.09224C39.6445 4.61349 40.0671 5.03604 40.5884 5.03604Z" fill="#CCCCCC"/>
<path d="M24.2251 3.14542C24.7464 3.14542 25.169 2.72286 25.169 2.20162C25.169 1.68037 24.7464 1.25781 24.2251 1.25781C23.7038 1.25781 23.2812 1.68037 23.2812 2.20162C23.2812 2.72286 23.7038 3.14542 24.2251 3.14542Z" fill="#CCCCCC"/>
<path d="M15.4126 8.18058C15.9339 8.18058 16.3565 7.75802 16.3565 7.23677C16.3565 6.71552 15.9339 6.29297 15.4126 6.29297C14.8913 6.29297 14.4688 6.71552 14.4688 7.23677C14.4688 7.75802 14.8913 8.18058 15.4126 8.18058Z" fill="#CCCCCC"/>
<path d="M0.943864 18.247C1.46515 18.247 1.88773 17.8244 1.88773 17.3032C1.88773 16.7819 1.46515 16.3594 0.943864 16.3594C0.422582 16.3594 0 16.7819 0 17.3032C0 17.8244 0.422582 18.247 0.943864 18.247Z" fill="#CCCCCC"/>
<path d="M4.72501 33.9765C4.22414 33.9765 3.73207 33.8922 3.26265 33.7261C1.50329 33.1095 0.320312 31.4408 0.320312 29.5721V26.4261C0.320312 26.0788 0.602213 25.7969 0.949555 25.7969C1.2969 25.7969 1.5788 26.0788 1.5788 26.4261V29.5721C1.5788 30.9073 2.42324 32.099 3.68047 32.5394C4.01649 32.6577 4.36634 32.7181 4.72501 32.7181C6.46047 32.7181 7.87123 31.3074 7.87123 29.5721C7.87123 29.2248 8.15313 28.9429 8.50047 28.9429C8.84781 28.9429 9.12971 29.2248 9.12971 29.5721C9.12971 32.0008 7.15389 33.9765 4.72501 33.9765Z" fill="#CCCCCC"/>
<path d="M12.2719 33.9765C9.84301 33.9765 7.86719 32.0008 7.86719 29.5721V26.4261C7.86719 26.0788 8.14909 25.7969 8.49643 25.7969C8.84377 25.7969 9.12567 26.0788 9.12567 26.4261V29.5721C9.12567 31.3074 10.5364 32.7181 12.2719 32.7181C14.0073 32.7181 15.4181 31.3074 15.4181 29.5721C15.4181 29.2248 15.7 28.9429 16.0473 28.9429C16.3947 28.9429 16.6766 29.2248 16.6766 29.5721C16.6766 32.0008 14.7008 33.9765 12.2719 33.9765Z" fill="#CCCCCC"/>
<path d="M19.8227 33.9765C17.3938 33.9765 15.418 32.0008 15.418 29.5721V26.4261C15.418 26.0788 15.6999 25.7969 16.0472 25.7969C16.3946 25.7969 16.6765 26.0788 16.6765 26.4261V29.5721C16.6765 31.3074 18.0872 32.7181 19.8227 32.7181C21.5581 32.7181 22.9689 31.3074 22.9689 29.5721C22.9689 29.2248 23.2508 28.9429 23.5981 28.9429C23.9455 28.9429 24.2274 29.2248 24.2274 29.5721C24.2274 32.0008 22.2515 33.9765 19.8227 33.9765Z" fill="#CCCCCC"/>
<path d="M27.3695 33.9765C24.9407 33.9765 22.9648 32.0008 22.9648 29.5721V26.4261C22.9648 26.0788 23.2467 25.7969 23.5941 25.7969C23.9414 25.7969 24.2233 26.0788 24.2233 26.4261V29.5721C24.2233 31.3074 25.6341 32.7181 27.3695 32.7181C29.105 32.7181 30.5158 31.3074 30.5158 29.5721C30.5158 29.2248 30.7977 28.9429 31.145 28.9429C31.4923 28.9429 31.7742 29.2248 31.7742 29.5721C31.7742 32.0008 29.7984 33.9765 27.3695 33.9765Z" fill="#CCCCCC"/>
<path d="M34.9242 33.9765C32.4954 33.9765 30.5195 32.0008 30.5195 29.5721V26.4261C30.5195 26.0788 30.8014 25.7969 31.1488 25.7969C31.4961 25.7969 31.778 26.0788 31.778 26.4261V29.5721C31.778 31.3074 33.1888 32.7181 34.9242 32.7181C36.6597 32.7181 38.0704 31.3074 38.0704 29.5721C38.0704 29.2248 38.3523 28.9429 38.6997 28.9429C39.047 28.9429 39.3289 29.2248 39.3289 29.5721C39.3289 32.0008 37.3531 33.9765 34.9242 33.9765Z" fill="#CCCCCC"/>
<path d="M42.475 33.9765C40.0461 33.9765 38.0703 32.0008 38.0703 29.5721V26.4261C38.0703 26.0788 38.3522 25.7969 38.6996 25.7969C39.0469 25.7969 39.3288 26.0788 39.3288 26.4261V29.5721C39.3288 31.3074 40.7396 32.7181 42.475 32.7181C44.2105 32.7181 45.6212 31.3074 45.6212 29.5721C45.6212 29.2248 45.9031 28.9429 46.2505 28.9429C46.5978 28.9429 46.8797 29.2248 46.8797 29.5721C46.8797 32.0008 44.9039 33.9765 42.475 33.9765Z" fill="#CCCCCC"/>
<path d="M50.0219 33.9765C47.593 33.9765 45.6172 32.0008 45.6172 29.5721V26.4261C45.6172 26.0788 45.8991 25.7969 46.2464 25.7969C46.5938 25.7969 46.8757 26.0788 46.8757 26.4261V29.5721C46.8757 31.3074 48.2864 32.7181 50.0219 32.7181C50.3806 32.7181 50.7317 32.6577 51.0677 32.5394C52.3249 32.0964 53.1681 30.9047 53.1681 29.5721V26.4261C53.1681 26.0788 53.45 25.7969 53.7973 25.7969C54.1447 25.7969 54.4266 26.0788 54.4266 26.4261V29.5721C54.4266 31.4383 53.2449 33.1069 51.4855 33.7273C51.0161 33.8934 50.5228 33.9765 50.0219 33.9765Z" fill="#CCCCCC"/>
<path d="M8.4893 27.0579H0.938387C0.733254 27.0579 0.540706 26.9585 0.422408 26.7898C0.30411 26.6212 0.276423 26.4073 0.346899 26.2135L5.38084 12.371C5.47145 12.1219 5.70805 11.957 5.97233 11.957H11.0063C11.3536 11.957 11.6355 12.2389 11.6355 12.5862C11.6355 12.9336 11.3536 13.2154 11.0063 13.2154H6.4128L1.83695 25.7995H8.4893C8.83664 25.7995 9.11855 26.0814 9.11855 26.4287C9.11855 26.776 8.83664 27.0579 8.4893 27.0579Z" fill="#CCCCCC"/>
<path d="M16.0477 27.0579H8.49676C8.3105 27.0579 8.13306 26.9748 8.0135 26.8314C7.89394 26.6879 7.84361 26.4992 7.87758 26.3154L10.3946 12.473C10.4487 12.1735 10.7092 11.957 11.0137 11.957H17.3062C17.6535 11.957 17.9354 12.2389 17.9354 12.5862C17.9354 12.9336 17.6535 13.2154 17.3062 13.2154H11.5385L9.25059 25.7995H16.0477C16.395 25.7995 16.6769 26.0814 16.6769 26.4287C16.6769 26.776 16.395 27.0579 16.0477 27.0579Z" fill="#CCCCCC"/>
<path d="M23.598 27.0579H16.0471C15.8709 27.0579 15.7022 26.9836 15.5827 26.8528C15.4631 26.7219 15.4052 26.547 15.4203 26.3721L16.6788 12.5296C16.7078 12.2049 16.9796 11.957 17.3055 11.957H23.598C23.9453 11.957 24.2272 12.2389 24.2272 12.5862C24.2272 12.9336 23.9453 13.2154 23.598 13.2154H17.8807L16.7367 25.7995H23.5992C23.9466 25.7995 24.2285 26.0814 24.2285 26.4287C24.2285 26.776 23.9466 27.0579 23.5992 27.0579H23.598Z" fill="#CCCCCC"/>
<path d="M31.145 27.0579H23.5941C23.2467 27.0579 22.9648 26.776 22.9648 26.4287V12.5862C22.9648 12.2389 23.2467 11.957 23.5941 11.957H31.145C31.4923 11.957 31.7742 12.2389 31.7742 12.5862C31.7742 12.9336 31.4923 13.2154 31.145 13.2154H24.2233V25.7995H31.145C31.4923 25.7995 31.7742 26.0814 31.7742 26.4287C31.7742 26.776 31.4923 27.0579 31.145 27.0579Z" fill="#CCCCCC"/>
<path d="M38.6997 27.0579H31.1488C30.8014 27.0579 30.5195 26.776 30.5195 26.4287V12.5862C30.5195 12.2389 30.8014 11.957 31.1488 11.957H37.4412C37.7885 11.957 38.0704 12.2389 38.0704 12.5862C38.0704 12.9336 37.7885 13.2154 37.4412 13.2154H31.778V25.7995H38.6997C39.047 25.7995 39.3289 26.0814 39.3289 26.4287C39.3289 26.776 39.047 27.0579 38.6997 27.0579Z" fill="#CCCCCC"/>
<path d="M46.2513 27.0579H38.7004C38.3744 27.0579 38.1039 26.81 38.0737 26.4853L36.8152 12.6429C36.7988 12.4667 36.858 12.2918 36.9775 12.1622C37.0971 12.0313 37.2657 11.957 37.4419 11.957H43.7343C44.0817 11.957 44.3636 12.2389 44.3636 12.5862C44.3636 12.9336 44.0817 13.2154 43.7343 13.2154H38.1316L39.2755 25.7995H46.2513C46.5986 25.7995 46.8805 26.0814 46.8805 26.4287C46.8805 26.776 46.5986 27.0579 46.2513 27.0579Z" fill="#CCCCCC"/>
<path d="M53.8029 27.0579H46.252C45.9475 27.0579 45.687 26.8402 45.6328 26.5419L43.1159 12.6995C43.0819 12.5158 43.1322 12.327 43.2518 12.1835C43.3713 12.0401 43.5488 11.957 43.735 11.957H48.769C49.0333 11.957 49.2699 12.1231 49.3605 12.371L54.3944 26.2135C54.4649 26.406 54.4359 26.6212 54.3189 26.7898C54.2019 26.9585 54.0093 27.0579 53.8042 27.0579H53.8029ZM46.7768 25.7995H52.9044L48.3285 13.2154H44.4889L46.7768 25.7995Z" fill="#CCCCCC"/>
<path d="M9.12446 55.999H3.46127C3.11393 55.999 2.83203 55.7171 2.83203 55.3698V33.1526C2.83203 32.8053 3.11393 32.5234 3.46127 32.5234C3.80862 32.5234 4.09052 32.8053 4.09052 33.1526V54.7406H9.12446C9.4718 54.7406 9.7537 55.0225 9.7537 55.3698C9.7537 55.7171 9.4718 55.999 9.12446 55.999Z" fill="#CCCCCC"/>
<path d="M51.2821 55.9961H21.0785C20.7311 55.9961 20.4492 55.7142 20.4492 55.3669C20.4492 55.0195 20.7311 54.7377 21.0785 54.7377H50.6529V33.1409C50.6529 32.7936 50.9348 32.5117 51.2821 32.5117C51.6295 32.5117 51.9114 32.7936 51.9114 33.1409V55.3669C51.9114 55.7142 51.6295 55.9961 51.2821 55.9961Z" fill="#CCCCCC"/>
<path d="M21.081 56.0005H9.12534C8.77799 56.0005 8.49609 55.7186 8.49609 55.3713V39.012C8.49609 38.6647 8.77799 38.3828 9.12534 38.3828H21.081C21.4283 38.3828 21.7102 38.6647 21.7102 39.012V55.3713C21.7102 55.7186 21.4283 56.0005 21.081 56.0005ZM9.75458 54.7421H20.4517V39.6412H9.75458V54.7421Z" fill="#CCCCCC"/>
<path d="M9.12446 52.2193H3.46127C3.11393 52.2193 2.83203 51.9375 2.83203 51.5901C2.83203 51.2428 3.11393 50.9609 3.46127 50.9609H9.12446C9.4718 50.9609 9.7537 51.2428 9.7537 51.5901C9.7537 51.9375 9.4718 52.2193 9.12446 52.2193Z" fill="#CCCCCC"/>
<path d="M51.2821 52.2193H21.0785C20.7311 52.2193 20.4492 51.9375 20.4492 51.5901C20.4492 51.2428 20.7311 50.9609 21.0785 50.9609H51.2821C51.6295 50.9609 51.9114 51.2428 51.9114 51.5901C51.9114 51.9375 51.6295 52.2193 51.2821 52.2193Z" fill="#CCCCCC"/>
<path d="M14.79 47.8229C14.6176 47.8229 14.4464 47.7524 14.3218 47.6152C14.089 47.3573 14.1104 46.9596 14.3684 46.7268L20.6608 41.064C20.9188 40.8312 21.3165 40.8526 21.5493 41.1105C21.7821 41.3685 21.7607 41.7662 21.5027 41.999L15.2103 47.6618C15.0895 47.77 14.9397 47.8229 14.79 47.8229Z" fill="#CCCCCC"/>
<path d="M11.6415 47.1928C11.4691 47.1928 11.298 47.1223 11.1734 46.9852C10.9406 46.7272 10.9619 46.3295 11.2199 46.0967L14.716 42.9507C14.974 42.7179 15.3717 42.7393 15.6045 42.9973C15.8373 43.2552 15.8159 43.6529 15.5579 43.8857L12.0619 47.0317C11.941 47.1399 11.7913 47.1928 11.6415 47.1928Z" fill="#CCCCCC"/>
<path d="M50.3383 8.80883C47.9094 8.80883 45.9336 6.83314 45.9336 4.40442C45.9336 1.9757 47.9094 0 50.3383 0C52.7672 0 54.743 1.9757 54.743 4.40442C54.743 6.83314 52.7672 8.80883 50.3383 8.80883ZM50.3383 1.2584C48.6028 1.2584 47.1921 2.67033 47.1921 4.40442C47.1921 6.1385 48.6028 7.55043 50.3383 7.55043C52.0737 7.55043 53.4845 6.13976 53.4845 4.40442C53.4845 2.66908 52.0737 1.2584 50.3383 1.2584Z" fill="#CCCCCC"/>
<path d="M6.92356 9.44046C5.18811 9.44046 3.77734 8.02979 3.77734 6.29445C3.77734 4.55911 5.18811 3.14844 6.92356 3.14844C8.65901 3.14844 10.0698 4.55911 10.0698 6.29445C10.0698 8.02979 8.65901 9.44046 6.92356 9.44046ZM6.92356 4.40684C5.88279 4.40684 5.03583 5.25375 5.03583 6.29445C5.03583 7.33515 5.88279 8.18206 6.92356 8.18206C7.96433 8.18206 8.81129 7.33515 8.81129 6.29445C8.81129 5.25375 7.96433 4.40684 6.92356 4.40684Z" fill="#CCCCCC"/>
<path d="M42.1557 48.4502H39.0097C38.6623 48.4502 38.3804 48.1683 38.3804 47.821V45.6188H35.8636C35.5163 45.6188 35.2344 45.3369 35.2344 44.9896V41.8435C35.2344 41.4962 35.5163 41.2143 35.8636 41.2143H38.3804V39.012C38.3804 38.6647 38.6623 38.3828 39.0097 38.3828H42.1557C42.503 38.3828 42.7849 38.6647 42.7849 39.012V41.2143H45.3018C45.6491 41.2143 45.931 41.4962 45.931 41.8435V44.9896C45.931 45.3369 45.6491 45.6188 45.3018 45.6188H42.7849V47.821C42.7849 48.1683 42.503 48.4502 42.1557 48.4502ZM39.6389 47.1918H41.5265V44.9896C41.5265 44.6422 41.8084 44.3603 42.1557 44.3603H44.6726V42.4727H42.1557C41.8084 42.4727 41.5265 42.1908 41.5265 41.8435V39.6412H39.6389V41.8435C39.6389 42.1908 39.357 42.4727 39.0097 42.4727H36.4928V44.3603H39.0097C39.357 44.3603 39.6389 44.6422 39.6389 44.9896V47.1918Z" fill="#CCCCCC"/>
</g>
<defs>
<clipPath id="clip0_11414_148637">
<rect width="56" height="56" fill="white"/>
</clipPath>
</defs>
</svg>
