<svg width="56" height="56" viewBox="0 0 56 56" fill="none" xmlns="http://www.w3.org/2000/svg">
<g clip-path="url(#clip0_2372_1365)">
<path d="M27.3488 52.6667C39.9358 52.6667 50.1395 42.22 50.1395 29.3333C50.1395 16.4467 39.9358 6 27.3488 6C14.7618 6 4.55811 16.4467 4.55811 29.3333C4.55811 42.22 14.7618 52.6667 27.3488 52.6667Z" fill="#BD76FF"/>
<path d="M27.3489 13.3333C18.7183 13.3333 11.7209 20.4973 11.7209 29.3333C11.7209 38.1693 18.7183 45.3333 27.3489 45.3333C35.9794 45.3333 42.9768 38.1693 42.9768 29.3333C42.9768 20.4973 35.9807 13.3333 27.3489 13.3333Z" fill="white"/>
<path d="M50.7908 10.0001C53.3082 10.0001 55.3489 7.91074 55.3489 5.33342C55.3489 2.75609 53.3082 0.666748 50.7908 0.666748C48.2734 0.666748 46.2327 2.75609 46.2327 5.33342C46.2327 7.91074 48.2734 10.0001 50.7908 10.0001Z" fill="white"/>
<path d="M5.20918 48.6667C7.00769 48.6667 8.465 50.1587 8.465 52.0001C8.465 53.8414 7.00769 55.3334 5.20918 55.3334C3.41067 55.3334 1.95337 53.8414 1.95337 52.0001C1.95337 50.1587 3.41067 48.6667 5.20918 48.6667Z" fill="white"/>
<path d="M32.2379 27.9999C33.2407 28.5919 33.2407 30.0746 32.2379 30.6666L24.3966 35.3026C23.3938 35.8946 22.1396 35.1546 22.1396 33.9693V24.6973C22.1396 23.5119 23.3938 22.7706 24.3966 23.3639L32.2379 27.9999Z" fill="#BD76FF"/>
<path d="M53.7209 16.6667C54.2603 16.6667 54.6976 16.219 54.6976 15.6667C54.6976 15.1145 54.2603 14.6667 53.7209 14.6667C53.1814 14.6667 52.7441 15.1145 52.7441 15.6667C52.7441 16.219 53.1814 16.6667 53.7209 16.6667Z" fill="#5F0080"/>
<path d="M52.4186 45.3333C52.9581 45.3333 53.3954 44.8855 53.3954 44.3333C53.3954 43.781 52.9581 43.3333 52.4186 43.3333C51.8792 43.3333 51.4419 43.781 51.4419 44.3333C51.4419 44.8855 51.8792 45.3333 52.4186 45.3333Z" fill="#5F0080"/>
<path d="M40.0466 56C40.586 56 41.0233 55.5523 41.0233 55C41.0233 54.4477 40.586 54 40.0466 54C39.5071 54 39.0698 54.4477 39.0698 55C39.0698 55.5523 39.5071 56 40.0466 56Z" fill="#5F0080"/>
<path d="M36.7907 2.66675C37.3301 2.66675 37.7675 2.21903 37.7675 1.66675C37.7675 1.11446 37.3301 0.666748 36.7907 0.666748C36.2513 0.666748 35.814 1.11446 35.814 1.66675C35.814 2.21903 36.2513 2.66675 36.7907 2.66675Z" fill="#5F0080"/>
<path d="M9.44183 3.33325C9.98127 3.33325 10.4186 2.88554 10.4186 2.33325C10.4186 1.78097 9.98127 1.33325 9.44183 1.33325C8.90239 1.33325 8.46509 1.78097 8.46509 2.33325C8.46509 2.88554 8.90239 3.33325 9.44183 3.33325Z" fill="#5F0080"/>
<path d="M2.27899 41.3333C2.81843 41.3333 3.25573 40.8855 3.25573 40.3333C3.25573 39.781 2.81843 39.3333 2.27899 39.3333C1.73955 39.3333 1.30225 39.781 1.30225 40.3333C1.30225 40.8855 1.73955 41.3333 2.27899 41.3333Z" fill="#5F0080"/>
<path d="M0.976744 20C1.51619 20 1.95349 19.5523 1.95349 19C1.95349 18.4477 1.51619 18 0.976744 18C0.437303 18 0 18.4477 0 19C0 19.5523 0.437303 20 0.976744 20Z" fill="#5F0080"/>
<path d="M23.6462 36.1774C22.4559 36.1774 21.4883 35.1867 21.4883 33.9694V24.6974C21.4883 23.48 22.4559 22.488 23.6462 22.488C24.02 22.488 24.3925 22.5907 24.722 22.7867L32.5633 27.4227C33.2379 27.8214 33.6403 28.5347 33.6403 29.3334C33.6403 30.1307 33.2366 30.8454 32.562 31.244L24.7207 35.88C24.3912 36.0747 24.0187 36.1774 23.6449 36.1774H23.6462ZM23.6462 23.8214C23.2347 23.8214 22.7906 24.156 22.7906 24.6974V33.9694C22.7906 34.5094 23.2347 34.844 23.6462 34.844C23.7934 34.844 23.9367 34.804 24.0708 34.7254L31.9121 30.0894C32.2976 29.8627 32.3393 29.4854 32.3393 29.3334C32.3393 29.1814 32.2976 28.8054 31.9134 28.5774L24.0721 23.9414C23.938 23.8614 23.7947 23.8214 23.6475 23.8214H23.6462Z" fill="#5F0080"/>
<path d="M27.3488 53.3333C14.4233 53.3333 3.90698 42.5666 3.90698 29.3333C3.90698 16.0999 14.4233 5.33325 27.3488 5.33325C40.2744 5.33325 50.7907 16.0999 50.7907 29.3333C50.7907 42.5666 40.2744 53.3333 27.3488 53.3333ZM27.3488 6.66659C15.1408 6.66659 5.20931 16.8346 5.20931 29.3333C5.20931 41.8319 15.1408 51.9999 27.3488 51.9999C39.5568 51.9999 49.4884 41.8319 49.4884 29.3333C49.4884 16.8346 39.5568 6.66659 27.3488 6.66659Z" fill="#5F0080"/>
<path d="M27.3489 46.0001C18.372 46.0001 11.0698 38.5227 11.0698 29.3334C11.0698 20.1441 18.372 12.6667 27.3489 12.6667C36.3258 12.6667 43.628 20.1427 43.628 29.3334C43.628 38.5241 36.3258 46.0001 27.3489 46.0001ZM27.3489 14.0001C19.0908 14.0001 12.3721 20.8787 12.3721 29.3334C12.3721 37.7881 19.0908 44.6667 27.3489 44.6667C35.6069 44.6667 42.3256 37.7881 42.3256 29.3334C42.3256 20.8787 35.6069 14.0001 27.3489 14.0001Z" fill="#5F0080"/>
<path d="M5.20922 56C3.05518 56 1.30225 54.2053 1.30225 52C1.30225 49.7947 3.05518 48 5.20922 48C7.36327 48 9.1162 49.7947 9.1162 52C9.1162 54.2053 7.36327 56 5.20922 56ZM5.20922 49.3333C3.77276 49.3333 2.60457 50.5293 2.60457 52C2.60457 53.4707 3.77276 54.6667 5.20922 54.6667C6.64569 54.6667 7.81387 53.4707 7.81387 52C7.81387 50.5293 6.64569 49.3333 5.20922 49.3333Z" fill="#5F0080"/>
<path d="M50.7906 10.6667C47.9177 10.6667 45.5813 8.27467 45.5813 5.33333C45.5813 2.392 47.9177 0 50.7906 0C53.6635 0 55.9999 2.392 55.9999 5.33333C55.9999 8.27467 53.6635 10.6667 50.7906 10.6667ZM50.7906 1.33333C48.6366 1.33333 46.8836 3.128 46.8836 5.33333C46.8836 7.53867 48.6366 9.33333 50.7906 9.33333C52.9446 9.33333 54.6976 7.53867 54.6976 5.33333C54.6976 3.128 52.9446 1.33333 50.7906 1.33333Z" fill="#5F0080"/>
</g>
<defs>
<clipPath id="clip0_2372_1365">
<rect width="56" height="56" fill="white"/>
</clipPath>
</defs>
</svg>
