<svg width="56" height="56" viewBox="0 0 56 56" fill="none" xmlns="http://www.w3.org/2000/svg">
<g clip-path="url(#clip0_2372_1169)">
<path d="M45.8182 36.9092V37.5455C45.8182 39.3045 47.2437 40.7274 49.0001 40.7274V53.3057C49.0001 54.4423 48.0786 55.3637 46.9421 55.3637H40.2399C39.1033 55.3637 38.1819 54.4423 38.1819 53.3057V40.7274C39.9395 40.7274 41.3637 39.3032 41.3637 37.5455V36.9092H45.8182Z" fill="#BD76FF"/>
<path d="M52.8182 4.45459C54.2245 4.45459 55.3636 5.59368 55.3636 7.00004C55.3636 8.40641 54.2245 9.5455 52.8182 9.5455C51.4118 9.5455 50.2727 8.40641 50.2727 7.00004C50.2727 5.59368 51.4118 4.45459 52.8182 4.45459Z" fill="white"/>
<path d="M3.50011 36.9092C5.08211 36.9092 6.36375 38.1908 6.36375 39.7728C6.36375 41.3548 5.08211 42.6365 3.50011 42.6365C1.91811 42.6365 0.636475 41.3548 0.636475 39.7728C0.636475 38.1908 1.91811 36.9092 3.50011 36.9092Z" fill="white"/>
<path d="M43.2728 43.9092H38.1819V52.1819H43.2728V43.9092Z" fill="white"/>
<path d="M48.3636 34.6601V35.3397C48.3636 36.2065 47.661 36.909 46.7943 36.909H40.3874C39.5207 36.909 38.8181 36.2065 38.8181 35.3397V34.6601C38.8181 33.7934 39.5207 33.0908 40.3874 33.0908H46.7943C47.661 33.0908 48.3636 33.7934 48.3636 34.6601Z" fill="#BD76FF"/>
<path d="M38.1818 52.8182H15.0818C12.7272 52.8182 10.8181 50.9091 10.8181 48.5545V12.5363C10.8181 10.1818 12.7272 8.27271 15.0818 8.27271H40.9181C43.2727 8.27271 45.1818 10.1818 45.1818 12.5363V33.0909H40.3874C39.5207 33.0909 38.8181 33.7934 38.8181 34.6602V35.3398C38.8181 36.2065 39.5207 36.9091 40.3874 36.9091H41.3636V37.5454C41.3636 39.3031 39.9394 40.7272 38.1818 40.7272V52.8182Z" fill="white"/>
<path d="M38.1818 9.76812V10.8181H17.8181V9.76812C17.8181 9.23993 17.9199 8.73593 18.1045 8.27266C18.6721 6.84721 20.0301 5.82139 21.6363 5.73357V3.81812H34.3636V5.73357C35.9698 5.82139 37.3278 6.84721 37.8954 8.27266C38.0799 8.73593 38.1818 9.23993 38.1818 9.76812Z" fill="#BD76FF"/>
<path d="M54.4091 51.5456C54.9363 51.5456 55.3637 51.1182 55.3637 50.591C55.3637 50.0638 54.9363 49.6365 54.4091 49.6365C53.882 49.6365 53.4546 50.0638 53.4546 50.591C53.4546 51.1182 53.882 51.5456 54.4091 51.5456Z" fill="#5F0080"/>
<path d="M51.8637 20.9999C52.3909 20.9999 52.8183 20.5725 52.8183 20.0454C52.8183 19.5182 52.3909 19.0908 51.8637 19.0908C51.3365 19.0908 50.9092 19.5182 50.9092 20.0454C50.9092 20.5725 51.3365 20.9999 51.8637 20.9999Z" fill="#5F0080"/>
<path d="M40.4091 1.90909C40.9363 1.90909 41.3637 1.48173 41.3637 0.954545C41.3637 0.427365 40.9363 0 40.4091 0C39.882 0 39.4546 0.427365 39.4546 0.954545C39.4546 1.48173 39.882 1.90909 40.4091 1.90909Z" fill="#5F0080"/>
<path d="M7.31807 3.1818C7.84525 3.1818 8.27262 2.75443 8.27262 2.22725C8.27262 1.70007 7.84525 1.27271 7.31807 1.27271C6.79089 1.27271 6.36353 1.70007 6.36353 2.22725C6.36353 2.75443 6.79089 3.1818 7.31807 3.1818Z" fill="#5F0080"/>
<path d="M5.40914 54.091C5.93632 54.091 6.36368 53.6636 6.36368 53.1364C6.36368 52.6092 5.93632 52.1819 5.40914 52.1819C4.88195 52.1819 4.45459 52.6092 4.45459 53.1364C4.45459 53.6636 4.88195 54.091 5.40914 54.091Z" fill="#5F0080"/>
<path d="M2.22725 23.5456C2.75443 23.5456 3.1818 23.1182 3.1818 22.591C3.1818 22.0638 2.75443 21.6365 2.22725 21.6365C1.70007 21.6365 1.27271 22.0638 1.27271 22.591C1.27271 23.1182 1.70007 23.5456 2.22725 23.5456Z" fill="#5F0080"/>
<path d="M46.7944 37.5455H45.8182C45.467 37.5455 45.1819 37.2604 45.1819 36.9091C45.1819 36.5579 45.467 36.2728 45.8182 36.2728H46.7944C47.3086 36.2728 47.7273 35.854 47.7273 35.3399V34.6602C47.7273 34.146 47.3086 33.7273 46.7944 33.7273H40.3875C39.8733 33.7273 39.4546 34.146 39.4546 34.6602V35.3399C39.4546 35.854 39.8733 36.2728 40.3875 36.2728H41.3637C41.715 36.2728 42.0001 36.5579 42.0001 36.9091C42.0001 37.2604 41.715 37.5455 41.3637 37.5455H40.3875C39.1708 37.5455 38.1819 36.5566 38.1819 35.3399V34.6602C38.1819 33.4435 39.1708 32.4546 40.3875 32.4546H46.7944C48.0112 32.4546 49.0001 33.4435 49.0001 34.6602V35.3399C49.0001 36.5566 48.0112 37.5455 46.7944 37.5455Z" fill="#5F0080"/>
<path d="M46.942 55.9999H40.2398C38.7545 55.9999 37.5454 54.7908 37.5454 53.3056V52.1817C37.5454 51.8305 37.8305 51.5454 38.1818 51.5454C38.533 51.5454 38.8181 51.8305 38.8181 52.1817V53.3056C38.8181 54.0896 39.4558 54.7272 40.2398 54.7272H46.942C47.726 54.7272 48.3636 54.0896 48.3636 53.3056V41.3114C47.586 41.1816 46.8681 40.815 46.2992 40.2461C45.5789 39.5257 45.1818 38.5661 45.1818 37.5467H42C42 39.4354 40.6216 41.0085 38.8181 41.3114V43.9103C38.8181 44.2616 38.533 44.5467 38.1818 44.5467C37.8305 44.5467 37.5454 44.2616 37.5454 43.9103V40.7285C37.5454 40.3772 37.8305 40.0921 38.1818 40.0921C39.5856 40.0921 40.7272 38.9505 40.7272 37.5467V36.9103C40.7272 36.559 41.0123 36.2739 41.3636 36.2739H45.8181C46.1694 36.2739 46.4545 36.559 46.4545 36.9103V37.5467C46.4545 38.2276 46.7192 38.8665 47.2003 39.3463C47.6814 39.8274 48.3203 40.0921 49 40.0921C49.3512 40.0921 49.6363 40.3772 49.6363 40.7285V53.3068C49.6363 54.7921 48.4272 56.0012 46.942 56.0012V55.9999Z" fill="#5F0080"/>
<path d="M43.2727 52.8182H38.1818C37.8305 52.8182 37.5454 52.5331 37.5454 52.1818V43.9091C37.5454 43.5578 37.8305 43.2727 38.1818 43.2727H43.2727C43.624 43.2727 43.909 43.5578 43.909 43.9091V52.1818C43.909 52.5331 43.624 52.8182 43.2727 52.8182ZM38.8181 51.5454H42.6363V44.5454H38.8181V51.5454Z" fill="#5F0080"/>
<path d="M45.1818 33.7274C44.8305 33.7274 44.5454 33.4423 44.5454 33.091V12.5365C44.5454 10.537 42.9176 8.9092 40.9181 8.9092H37.8954C37.5441 8.9092 37.259 8.62411 37.259 8.27284C37.259 7.92157 37.5441 7.63647 37.8954 7.63647H40.9181C43.6201 7.63647 45.8181 9.83447 45.8181 12.5365V33.091C45.8181 33.4423 45.533 33.7274 45.1818 33.7274Z" fill="#5F0080"/>
<path d="M38.1819 53.4547H15.0819C12.3799 53.4547 10.1819 51.2567 10.1819 48.5547V12.5365C10.1819 9.83447 12.3799 7.63647 15.0819 7.63647H18.1046C18.4559 7.63647 18.741 7.92157 18.741 8.27284C18.741 8.62411 18.4559 8.9092 18.1046 8.9092H15.0819C13.0824 8.9092 11.4546 10.537 11.4546 12.5365V48.5547C11.4546 50.5541 13.0824 52.1819 15.0819 52.1819H38.1819C38.5332 52.1819 38.8182 52.467 38.8182 52.8183C38.8182 53.1696 38.5332 53.4547 38.1819 53.4547Z" fill="#5F0080"/>
<path d="M38.1819 11.4546H17.8182C17.467 11.4546 17.1819 11.1695 17.1819 10.8182V9.76825C17.1819 9.17134 17.2939 8.5897 17.5128 8.03734C18.1084 6.54061 19.441 5.46388 21.0001 5.17116V3.81825C21.0001 3.46698 21.2852 3.18188 21.6364 3.18188H34.3637C34.715 3.18188 35.0001 3.46698 35.0001 3.81825V5.17116C36.5592 5.46388 37.8904 6.54061 38.4873 8.03734C38.7075 8.5897 38.8182 9.17134 38.8182 9.76825V10.8182C38.8182 11.1695 38.5332 11.4546 38.1819 11.4546ZM18.4546 10.1819H37.5455V9.76825C37.5455 9.33425 37.4641 8.91043 37.305 8.50825C36.8162 7.28134 35.6479 6.44134 34.3293 6.36879C33.9921 6.3497 33.7273 6.07098 33.7273 5.7337V4.45461H22.2728V5.7337C22.2728 6.07098 22.0081 6.35098 21.6708 6.36879C20.3522 6.44134 19.1839 7.28007 18.6952 8.50825C18.5348 8.91043 18.4533 9.33425 18.4533 9.76825V10.1819H18.4546Z" fill="#5F0080"/>
<path d="M52.8183 10.1818C51.0632 10.1818 49.6365 8.75502 49.6365 6.99993C49.6365 5.24484 51.0632 3.81812 52.8183 3.81812C54.5734 3.81812 56.0001 5.24484 56.0001 6.99993C56.0001 8.75502 54.5734 10.1818 52.8183 10.1818ZM52.8183 5.09084C51.7657 5.09084 50.9092 5.94739 50.9092 6.99993C50.9092 8.05248 51.7657 8.90902 52.8183 8.90902C53.8708 8.90902 54.7274 8.05248 54.7274 6.99993C54.7274 5.94739 53.8708 5.09084 52.8183 5.09084Z" fill="#5F0080"/>
<path d="M3.5 43.2727C1.57055 43.2727 0 41.7022 0 39.7727C0 37.8433 1.57055 36.2727 3.5 36.2727C5.42945 36.2727 7 37.8433 7 39.7727C7 41.7022 5.42945 43.2727 3.5 43.2727ZM3.5 37.5454C2.27182 37.5454 1.27273 38.5445 1.27273 39.7727C1.27273 41.0009 2.27182 42 3.5 42C4.72818 42 5.72727 41.0009 5.72727 39.7727C5.72727 38.5445 4.72818 37.5454 3.5 37.5454Z" fill="#5F0080"/>
<path d="M35.0001 49.0001H15.2728C14.9216 49.0001 14.6365 48.715 14.6365 48.3637V22.2728C14.6365 21.9216 14.9216 21.6365 15.2728 21.6365C15.6241 21.6365 15.9092 21.9216 15.9092 22.2728V47.7274H35.0001C35.3514 47.7274 35.6365 48.0125 35.6365 48.3637C35.6365 48.715 35.3514 49.0001 35.0001 49.0001Z" fill="#5F0080"/>
<path d="M35.6364 18.4546H20.3637C20.0124 18.4546 19.7273 18.1695 19.7273 17.8182C19.7273 17.467 20.0124 17.1819 20.3637 17.1819H35.6364C35.9877 17.1819 36.2727 17.467 36.2727 17.8182C36.2727 18.1695 35.9877 18.4546 35.6364 18.4546Z" fill="#5F0080"/>
<path d="M35.6364 21.6363H20.3637C20.0124 21.6363 19.7273 21.3512 19.7273 20.9999C19.7273 20.6486 20.0124 20.3635 20.3637 20.3635H35.6364C35.9877 20.3635 36.2727 20.6486 36.2727 20.9999C36.2727 21.3512 35.9877 21.6363 35.6364 21.6363Z" fill="#5F0080"/>
<path d="M35.6364 24.8181H20.3637C20.0124 24.8181 19.7273 24.533 19.7273 24.1818C19.7273 23.8305 20.0124 23.5454 20.3637 23.5454H35.6364C35.9877 23.5454 36.2727 23.8305 36.2727 24.1818C36.2727 24.533 35.9877 24.8181 35.6364 24.8181Z" fill="#5F0080"/>
<path d="M35.6364 28H20.3637C20.0124 28 19.7273 27.7149 19.7273 27.3637C19.7273 27.0124 20.0124 26.7273 20.3637 26.7273H35.6364C35.9877 26.7273 36.2727 27.0124 36.2727 27.3637C36.2727 27.7149 35.9877 28 35.6364 28Z" fill="#5F0080"/>
<path d="M35.6364 31.1819H20.3637C20.0124 31.1819 19.7273 30.8968 19.7273 30.5455C19.7273 30.1943 20.0124 29.9092 20.3637 29.9092H35.6364C35.9877 29.9092 36.2727 30.1943 36.2727 30.5455C36.2727 30.8968 35.9877 31.1819 35.6364 31.1819Z" fill="#5F0080"/>
</g>
<defs>
<clipPath id="clip0_2372_1169">
<rect width="56" height="56" fill="white"/>
</clipPath>
</defs>
</svg>
