<svg width="56" height="56" viewBox="0 0 56 56" fill="none" xmlns="http://www.w3.org/2000/svg">
<g clip-path="url(#clip0_2372_1591)">
<path d="M45.7012 23.6145V50.9627C45.7012 53.3714 43.8372 55.3253 41.5392 55.3253H16.392C14.0941 55.3253 12.23 53.3714 12.23 50.9627V23.6145H45.7012Z" fill="white"/>
<path d="M49.5631 2.69873C51.341 2.69873 52.7815 4.20871 52.7815 6.07222C52.7815 7.93574 51.341 9.44572 49.5631 9.44572C47.7853 9.44572 46.3447 7.93574 46.3447 6.07222C46.3447 4.20871 47.7853 2.69873 49.5631 2.69873Z" fill="#BD76FF"/>
<path d="M4.50587 53.976C6.63883 53.976 8.36794 52.1636 8.36794 49.9278C8.36794 47.6921 6.63883 45.8796 4.50587 45.8796C2.37291 45.8796 0.643799 47.6921 0.643799 49.9278C0.643799 52.1636 2.37291 53.976 4.50587 53.976Z" fill="#BD76FF"/>
<path d="M50.8507 18.959V21.5229C50.8507 22.6779 49.9573 23.6144 48.8553 23.6144H9.07597C7.97399 23.6144 7.08057 22.6779 7.08057 21.5229V18.959C7.08057 17.8039 7.97399 16.8674 9.07597 16.8674H48.8553C49.9573 16.8674 50.8507 17.8039 50.8507 18.959Z" fill="#BD76FF"/>
<path d="M36.6897 35.0844V40.4819H31.5403V45.8795H26.3909V40.4819H21.2415V35.0844H26.3909V29.9121H31.5403V35.0844H36.6897Z" fill="#BD76FF"/>
<path d="M55.0344 29.0121C55.5676 29.0121 55.9999 28.559 55.9999 28.0001C55.9999 27.4411 55.5676 26.988 55.0344 26.988C54.5011 26.988 54.0688 27.4411 54.0688 28.0001C54.0688 28.559 54.5011 29.0121 55.0344 29.0121Z" fill="#5F0080"/>
<path d="M50.5287 53.976C51.062 53.976 51.4943 53.5229 51.4943 52.964C51.4943 52.405 51.062 51.9519 50.5287 51.9519C49.9955 51.9519 49.5632 52.405 49.5632 52.964C49.5632 53.5229 49.9955 53.976 50.5287 53.976Z" fill="#5F0080"/>
<path d="M39.5861 6.747C40.1194 6.747 40.5516 6.29389 40.5516 5.73495C40.5516 5.17601 40.1194 4.7229 39.5861 4.7229C39.0529 4.7229 38.6206 5.17601 38.6206 5.73495C38.6206 6.29389 39.0529 6.747 39.5861 6.747Z" fill="#5F0080"/>
<path d="M21.2414 2.0241C21.7746 2.0241 22.2069 1.57099 22.2069 1.01205C22.2069 0.453109 21.7746 0 21.2414 0C20.7082 0 20.2759 0.453109 20.2759 1.01205C20.2759 1.57099 20.7082 2.0241 21.2414 2.0241Z" fill="#5F0080"/>
<path d="M6.43671 9.44573C6.96995 9.44573 7.40223 8.99262 7.40223 8.43368C7.40223 7.87474 6.96995 7.42163 6.43671 7.42163C5.90347 7.42163 5.47119 7.87474 5.47119 8.43368C5.47119 8.99262 5.90347 9.44573 6.43671 9.44573Z" fill="#5F0080"/>
<path d="M6.11493 31.7109C6.64817 31.7109 7.08045 31.2578 7.08045 30.6988C7.08045 30.1399 6.64817 29.6868 6.11493 29.6868C5.58169 29.6868 5.14941 30.1399 5.14941 30.6988C5.14941 31.2578 5.58169 31.7109 6.11493 31.7109Z" fill="#5F0080"/>
<path d="M41.5391 55.9999H16.3919C13.7425 55.9999 11.5862 53.7397 11.5862 50.9626V23.6144C11.5862 23.242 11.8745 22.9397 12.2299 22.9397C12.5852 22.9397 12.8735 23.242 12.8735 23.6144V50.9626C12.8735 52.9962 14.4518 54.6505 16.3919 54.6505H41.5391C43.4791 54.6505 45.0574 52.9962 45.0574 50.9626V23.6144C45.0574 23.242 45.3458 22.9397 45.7011 22.9397C46.0564 22.9397 46.3448 23.242 46.3448 23.6144V50.9626C46.3448 53.7397 44.1885 55.9999 41.5391 55.9999Z" fill="#5F0080"/>
<path d="M48.8552 24.2893H9.07585C7.62114 24.2893 6.43677 23.0478 6.43677 21.523V18.9591C6.43677 17.4343 7.62114 16.1929 9.07585 16.1929H21.885C22.2404 16.1929 22.5287 16.4951 22.5287 16.8676C22.5287 17.24 22.2404 17.5423 21.885 17.5423H9.07585C8.33047 17.5423 7.72412 18.1778 7.72412 18.9591V21.523C7.72412 22.3043 8.33047 22.9399 9.07585 22.9399H48.8552C49.6005 22.9399 50.2069 22.3043 50.2069 21.523V18.9591C50.2069 18.1778 49.6005 17.5423 48.8552 17.5423H36.046C35.6906 17.5423 35.4023 17.24 35.4023 16.8676C35.4023 16.4951 35.6906 16.1929 36.046 16.1929H48.8552C50.3099 16.1929 51.4942 17.4343 51.4942 18.9591V21.523C51.4942 23.0478 50.3099 24.2893 48.8552 24.2893Z" fill="#5F0080"/>
<path d="M36.0461 17.5422H21.8851C21.5298 17.5422 21.2415 17.2399 21.2415 16.8675V13.8758C21.2415 12.1769 22.5597 10.7952 24.1805 10.7952H33.7507C35.3715 10.7952 36.6897 12.1769 36.6897 13.8758V16.8675C36.6897 17.2399 36.4014 17.5422 36.0461 17.5422ZM22.5288 16.1928H35.4024V13.8758C35.4024 12.9218 34.6609 12.1446 33.7507 12.1446H24.1805C23.2703 12.1446 22.5288 12.9218 22.5288 13.8758V16.1928Z" fill="#5F0080"/>
<path d="M31.5402 46.5541H26.3908C26.0354 46.5541 25.7471 46.2519 25.7471 45.8794V41.1565H21.2413C20.886 41.1565 20.5977 40.8543 20.5977 40.4818V35.0842C20.5977 34.7118 20.886 34.4095 21.2413 34.4095H25.7471V29.912C25.7471 29.5396 26.0354 29.2373 26.3908 29.2373H31.5402C31.8955 29.2373 32.1839 29.5396 32.1839 29.912V34.4095H36.6896C37.0449 34.4095 37.3333 34.7118 37.3333 35.0842V40.4818C37.3333 40.8543 37.0449 41.1565 36.6896 41.1565H32.1839V45.8794C32.1839 46.2519 31.8955 46.5541 31.5402 46.5541ZM27.0344 45.2047H30.8965V40.4818C30.8965 40.1094 31.1849 39.8071 31.5402 39.8071H36.0459V35.7589H31.5402C31.1849 35.7589 30.8965 35.4567 30.8965 35.0842V30.5867H27.0344V35.0842C27.0344 35.4567 26.7461 35.7589 26.3908 35.7589H21.885V39.8071H26.3908C26.7461 39.8071 27.0344 40.1094 27.0344 40.4818V45.2047Z" fill="#5F0080"/>
<path d="M28.9656 51.9518C25.3545 51.9518 21.9598 50.4783 19.4069 47.8024C14.1365 42.278 14.1365 33.2897 19.4069 27.7652C19.658 27.5021 20.0661 27.5021 20.3171 27.7652C20.5681 28.0284 20.5681 28.4561 20.3171 28.7192C15.5487 33.7174 15.5487 41.8502 20.3171 46.8484C22.6266 49.2692 25.6982 50.6024 28.9643 50.6024C32.2303 50.6024 35.3019 49.2692 37.6114 46.8484C42.3798 41.8502 42.3798 33.7174 37.6114 28.7192C37.3604 28.4561 37.3604 28.0284 37.6114 27.7652C37.8625 27.5021 38.2706 27.5021 38.5216 27.7652C43.792 33.2897 43.792 42.278 38.5216 47.8024C35.9688 50.4783 32.574 51.9518 28.9643 51.9518H28.9656Z" fill="#5F0080"/>
<path d="M49.5632 10.1206C47.434 10.1206 45.7012 8.30427 45.7012 6.07236C45.7012 3.84046 47.434 2.02417 49.5632 2.02417C51.6925 2.02417 53.4253 3.84046 53.4253 6.07236C53.4253 8.30427 51.6925 10.1206 49.5632 10.1206ZM49.5632 3.37357C48.1433 3.37357 46.9885 4.58398 46.9885 6.07236C46.9885 7.56075 48.1433 8.77116 49.5632 8.77116C50.9832 8.77116 52.138 7.56075 52.138 6.07236C52.138 4.58398 50.9832 3.37357 49.5632 3.37357Z" fill="#5F0080"/>
<path d="M4.50575 54.6506C2.02115 54.6506 0 52.5321 0 49.9277C0 47.3234 2.02115 45.2048 4.50575 45.2048C6.99034 45.2048 9.01149 47.3234 9.01149 49.9277C9.01149 52.5321 6.99034 54.6506 4.50575 54.6506ZM4.50575 46.5542C2.73177 46.5542 1.28736 48.0669 1.28736 49.9277C1.28736 51.7885 2.73177 53.3012 4.50575 53.3012C6.27972 53.3012 7.72414 51.7885 7.72414 49.9277C7.72414 48.0669 6.28101 46.5542 4.50575 46.5542Z" fill="#5F0080"/>
</g>
<defs>
<clipPath id="clip0_2372_1591">
<rect width="56" height="56" fill="white"/>
</clipPath>
</defs>
</svg>
