<svg width="24" height="24" viewBox="0 0 24 24" fill="none" xmlns="http://www.w3.org/2000/svg">
<g opacity="0.5">
<g clip-path="url(#clip0_2391_1379)">
<path d="M1.30346 9.51465C0.584847 9.51465 0.000702961 10.1171 0.000702961 10.8573H0.000183105V14.437H0.434436V10.8573C0.433396 10.3641 0.822248 9.96338 1.30311 9.96231C1.30311 9.96231 1.30329 9.96231 1.30346 9.96231H22.695C23.1757 9.96338 23.5645 10.3638 23.5635 10.8567C23.5635 10.8567 23.5635 10.8571 23.5635 10.8573V14.437H23.9978V10.8573C23.9978 10.1173 23.4133 9.51465 22.695 9.51465H1.30346Z" fill="#999999"/>
<path d="M4.00081 13.4911C4.00081 13.5261 3.97811 13.5389 3.94155 13.5389H3.61906C3.58337 13.5389 3.57002 13.5261 3.57002 13.487V12.589C3.57002 12.5476 3.54213 12.5262 3.5021 12.5262H2.65681C2.6199 12.5262 2.59841 12.5476 2.59841 12.589V13.487C2.59841 13.5261 2.57641 13.5389 2.54227 13.5389H2.21476C2.1834 13.5389 2.17075 13.5261 2.17075 13.4911V11.259C2.17075 11.224 2.18322 11.2046 2.21476 11.2046H2.54227C2.57641 11.2046 2.59841 11.224 2.59841 11.259V12.1228C2.59841 12.1642 2.6199 12.1833 2.65681 12.1833H3.5021C3.54213 12.1833 3.57002 12.1644 3.57002 12.1228V11.259C3.57002 11.224 3.58337 11.2046 3.61906 11.2046H3.94155C3.97811 11.2046 4.00081 11.224 4.00081 11.259V13.4911Z" fill="#999999"/>
<path d="M4.77765 13.5779C4.58219 13.5827 4.41999 13.424 4.41531 13.2235C4.41531 13.2201 4.41531 13.2167 4.41531 13.2134V11.8261C4.41531 11.7851 4.43056 11.7666 4.46834 11.7666H4.77783C4.80884 11.7666 4.83033 11.7851 4.83033 11.8261V13.1663C4.83033 13.2038 4.84558 13.223 4.8896 13.223H5.45572C5.49176 13.223 5.51723 13.2036 5.51723 13.1663V11.8261C5.51723 11.7851 5.533 11.7666 5.56974 11.7666H5.87975C5.91302 11.7666 5.93502 11.7851 5.93502 11.8261V13.8482C5.93329 13.8992 5.92082 13.9491 5.89812 13.9946L5.68775 14.347C5.6725 14.3769 5.64287 14.3962 5.61012 14.3977H5.56974C5.53283 14.3977 5.51723 14.3751 5.51723 14.3401V13.4456C5.51723 13.4074 5.49523 13.3918 5.46196 13.4001L4.86724 13.572C4.83761 13.5766 4.80763 13.5786 4.77783 13.5777" fill="#999999"/>
<path d="M6.7058 13.5686C6.50947 13.5677 6.35039 13.4047 6.3497 13.2034V11.8197C6.3497 11.7783 6.3646 11.7593 6.40273 11.7593H6.71499C6.74289 11.7593 6.76489 11.7781 6.76489 11.8197V13.159C6.76489 13.1968 6.78378 13.2128 6.82641 13.2128H7.39253C7.42979 13.2128 7.45457 13.1966 7.45457 13.159V11.8197C7.45457 11.7783 7.46756 11.7593 7.50447 11.7593H7.81431C7.8481 11.7593 7.86924 11.7781 7.86924 11.8197V13.4925C7.86924 13.5275 7.8481 13.5403 7.81431 13.5403H7.5043C7.46739 13.5403 7.45439 13.5275 7.45439 13.4884V13.4385C7.45439 13.3971 7.42961 13.3806 7.396 13.3939L6.80198 13.5588C6.77061 13.5668 6.73821 13.57 6.7058 13.5684" fill="#999999"/>
<path d="M9.80378 12.102V13.4921C9.80378 13.5271 9.78177 13.5399 9.7485 13.5399H9.43867C9.40141 13.5399 9.38876 13.5271 9.38876 13.488V12.1495C9.39205 12.1178 9.36987 12.0894 9.33903 12.086C9.33521 12.0857 9.3314 12.0855 9.32759 12.086H8.76077C8.71763 12.086 8.69874 12.1077 8.69874 12.1497V13.4882C8.69874 13.5273 8.67725 13.5401 8.6497 13.5401H8.33623C8.29966 13.5401 8.28476 13.5273 8.28476 13.4923V11.8195C8.28476 11.7781 8.29966 11.759 8.33623 11.759H8.6497C8.67708 11.759 8.69874 11.7779 8.69874 11.8195V11.8733C8.69874 11.9083 8.71451 11.924 8.76077 11.9112L9.35272 11.7462C9.38165 11.7377 9.41163 11.7326 9.44178 11.731C9.64141 11.732 9.80291 11.8977 9.80395 12.1024" fill="#999999"/>
<path d="M10.1568 13.2014V12.402C10.1568 12.2298 10.2278 12.1002 10.3765 12.0174L10.7045 11.8211C10.7686 11.778 10.844 11.7558 10.9206 11.7571H11.2058C11.2462 11.7571 11.2651 11.7409 11.2651 11.7032V11.0462C11.2651 11.0112 11.2803 10.9863 11.311 10.9863H11.6273C11.6638 10.9863 11.6794 11.0112 11.6794 11.0462V13.4907C11.6794 13.5253 11.6637 13.5385 11.6273 13.5385H11.311C11.2803 13.5385 11.2651 13.5252 11.2651 13.4866V13.4366C11.2651 13.3949 11.2462 13.3784 11.2058 13.3915L10.6083 13.5568C10.578 13.5646 10.5467 13.5678 10.5153 13.5664C10.3541 13.5724 10.1568 13.4199 10.1568 13.201M11.2651 13.1569V12.1511C11.2651 12.1059 11.2462 12.0839 11.2031 12.0839H10.6304C10.5872 12.0839 10.5711 12.1061 10.5711 12.1511V13.1569C10.5711 13.1942 10.5872 13.2108 10.6304 13.2108H11.2031C11.2462 13.2108 11.2651 13.1942 11.2651 13.1569Z" fill="#999999"/>
<path d="M12.3909 13.5686C12.1936 13.569 12.0331 13.4057 12.0319 13.2034V12.4039C12.0319 12.2317 12.1033 12.1025 12.2485 12.0193L12.58 11.8229C12.6431 11.7803 12.7171 11.7581 12.7926 11.7593H13.5022C13.5355 11.7593 13.5544 11.7782 13.5544 11.8197V13.4926C13.5544 13.5276 13.5355 13.5404 13.5022 13.5404H13.186C13.1522 13.5404 13.14 13.5276 13.14 13.4885V13.4385C13.14 13.3971 13.1177 13.3803 13.078 13.3934L12.4833 13.5587C12.4531 13.5665 12.4218 13.5699 12.3908 13.5683M13.1402 13.159V12.1531C13.1402 12.108 13.1179 12.0863 13.0782 12.0863H12.5051C12.4623 12.0863 12.4462 12.108 12.4462 12.1531V13.159C12.4462 13.1969 12.4623 13.2129 12.5051 13.2129H13.0784C13.118 13.2129 13.1404 13.1967 13.1404 13.159" fill="#999999"/>
<path d="M14.3842 11.3056C14.3842 11.3438 14.3622 11.3563 14.3317 11.3563H14.0217C13.9813 11.3563 13.9687 11.3438 13.9687 11.3056V11.0453C13.9687 11.0103 13.9812 10.9849 14.0217 10.9849H14.3317C14.3615 10.9856 14.3853 11.0108 14.3846 11.0414C14.3846 11.0426 14.3846 11.0439 14.3844 11.0453V11.3056H14.3842ZM14.3842 13.4899C14.3842 13.5246 14.3622 13.5377 14.3317 13.5377H14.0217C13.9813 13.5377 13.9687 13.5244 13.9687 13.4899V11.8166C13.9687 11.7755 13.9812 11.7561 14.0217 11.7561H14.3317C14.3624 11.7561 14.3842 11.7755 14.3842 11.8166V13.4899Z" fill="#999999"/>
<path d="M15.252 13.0812V11.8786C15.252 11.7004 15.3265 11.5644 15.4783 11.4718L15.8405 11.2655C15.9051 11.2257 15.9789 11.2049 16.0543 11.2051H16.8216C16.8585 11.2051 16.8769 11.2245 16.8769 11.2627V11.4944C16.8769 11.5294 16.8585 11.5456 16.8216 11.5456H15.7476C15.7104 11.5456 15.6951 11.5676 15.6951 11.6092V13.1393C15.6951 13.18 15.7104 13.1989 15.7476 13.1989H16.8527C16.8864 13.1989 16.9088 13.2157 16.9088 13.2467C16.9088 13.2818 16.8894 13.314 16.8585 13.3295L16.5929 13.482C16.5255 13.5202 16.4498 13.5397 16.3728 13.539H15.7045C15.4844 13.539 15.2522 13.3769 15.2522 13.0812" fill="#999999"/>
<path d="M17.5245 13.5686C17.3271 13.569 17.1667 13.4057 17.1655 13.2034V12.4039C17.1655 12.2317 17.2369 12.1025 17.3821 12.0193L17.713 11.8229C17.7763 11.7805 17.8505 11.7582 17.926 11.7593H18.6356C18.6698 11.7593 18.6878 11.7782 18.6878 11.8197V13.4926C18.6878 13.5276 18.6698 13.5404 18.6356 13.5404H18.3194C18.2856 13.5404 18.2735 13.5276 18.2735 13.4885V13.4385C18.2735 13.3971 18.2514 13.3802 18.2111 13.3934L17.6167 13.5587C17.5865 13.5665 17.5552 13.5697 17.5242 13.5683M18.2738 13.159V12.1531C18.2738 12.108 18.2518 12.0863 18.2114 12.0863H17.6387C17.5952 12.0863 17.5794 12.108 17.5794 12.1531V13.159C17.5794 13.1968 17.5952 13.2128 17.6387 13.2128H18.2114C18.2518 13.2128 18.2738 13.1967 18.2738 13.159Z" fill="#999999"/>
<path d="M20.2423 12.0387C20.2423 12.0702 20.2207 12.0862 20.1862 12.0862H19.5766C19.5369 12.0862 19.5213 12.1078 19.5213 12.1498V13.4887C19.5213 13.5272 19.4965 13.5406 19.4657 13.5406H19.1531C19.1158 13.5406 19.1031 13.5272 19.1031 13.4922V11.8192C19.1031 11.7782 19.1156 11.7588 19.1531 11.7588H19.4657C19.4949 11.757 19.5199 11.78 19.5216 11.81C19.5218 11.813 19.5216 11.8162 19.5215 11.8192V11.8699C19.5215 11.9049 19.5372 11.9205 19.5767 11.9205C19.5885 11.9212 19.6003 11.9189 19.6109 11.9138L19.7902 11.7931C19.8562 11.7574 19.9297 11.7389 20.0044 11.7393H20.1864C20.2208 11.7393 20.2425 11.759 20.2425 11.7931V12.0385L20.2423 12.0387Z" fill="#999999"/>
<path d="M20.3045 13.2014V12.402C20.3045 12.2298 20.3759 12.1002 20.5246 12.0174L20.8521 11.8211C20.9164 11.7779 20.9919 11.7557 21.0687 11.7571H21.3536C21.3939 11.7571 21.4128 11.7409 21.4128 11.7032V11.0462C21.4128 11.0112 21.4281 10.9863 21.4591 10.9863H21.7753C21.8114 10.9863 21.8275 11.0112 21.8275 11.0462V13.4907C21.8275 13.5253 21.8114 13.5385 21.7753 13.5385H21.4593C21.4283 13.5385 21.413 13.5252 21.413 13.4866V13.4366C21.413 13.3949 21.3941 13.3784 21.3537 13.3915L20.7566 13.5568C20.7263 13.5646 20.6949 13.5678 20.6636 13.5664C20.5024 13.5724 20.3047 13.4199 20.3047 13.201M21.4128 13.1569V12.1511C21.4128 12.1059 21.3939 12.0839 21.3505 12.0839H20.7781C20.7353 12.0839 20.7185 12.1061 20.7185 12.1511V13.1569C20.7185 13.1942 20.7353 13.2108 20.7781 13.2108H21.3505C21.3939 13.2108 21.4128 13.1942 21.4128 13.1569Z" fill="#999999"/>
</g>
</g>
<defs>
<clipPath id="clip0_2391_1379">
<rect width="24" height="5" fill="white" transform="translate(0 9.5)"/>
</clipPath>
</defs>
</svg>
