<svg width="24" height="24" viewBox="0 0 24 24" fill="none" xmlns="http://www.w3.org/2000/svg">
<g clip-path="url(#clip0_7559_62450)">
<path fill-rule="evenodd" clip-rule="evenodd" d="M21.0973 8.62687C20.3219 7.48493 19.2917 6.55276 18.0939 5.90921C16.8961 5.26567 15.5659 4.92969 14.2159 4.92969C12.8658 4.92969 11.5356 5.26567 10.3378 5.90921C9.14003 6.55276 8.10984 7.48493 7.33442 8.62687L7.25391 8.74656H9.24567L9.26827 8.72175C9.90324 8.02355 10.6699 7.46713 11.5209 7.08677C12.3719 6.70642 13.2894 6.51019 14.2166 6.51019C15.1438 6.51019 16.0612 6.70642 16.9123 7.08677C17.7633 7.46713 18.5299 8.02355 19.1649 8.72175L19.1861 8.74656H21.1779L21.0973 8.62687Z" fill="#E60012"/>
<path d="M6.46296 16.3275L6.42623 16.367C5.81316 17.0106 5.10545 17.3522 4.37655 17.3522C2.85377 17.3522 1.74771 16.1714 1.74771 14.5439C1.74771 12.9164 2.85377 11.7312 4.37655 11.7312C5.10545 11.7312 5.81316 12.0727 6.42623 12.7179L6.46296 12.7573L7.44189 11.5341L7.41646 11.5006C6.60139 10.5066 5.62387 10.0234 4.42317 10.0234C3.22246 10.0234 2.11499 10.4423 1.31546 11.1911C0.452362 12.01 -0.00390625 13.1645 -0.00390625 14.5337C-0.00390625 15.9028 0.452362 17.0574 1.31546 17.8762C2.10934 18.6352 3.21116 19.0527 4.42317 19.0527C5.63518 19.0527 6.60139 18.5681 7.41646 17.5741L7.44189 17.5419L6.46296 16.3275Z" fill="#004187"/>
<path d="M10.1587 10.1719H8.42969V18.8989H10.1587V10.1719Z" fill="#004187"/>
<path d="M16.9392 16.9981C16.562 17.2611 16.1224 17.4126 15.6679 17.436C15.1028 17.436 14.8556 17.1309 14.8556 16.4522V11.8208H16.6185V10.1773H14.85V7.46094L13.1549 8.39948V10.1773H11.6914V11.8208H13.1549V16.747C13.1549 18.0884 13.9247 19.0065 15.0732 19.0299C15.6121 19.0572 16.1467 18.918 16.6087 18.63L16.6256 18.6168L17.0423 16.9353L16.9392 16.9981Z" fill="#004187"/>
<path d="M20.1015 10.1719H18.3711V18.8989H20.1015V10.1719Z" fill="#004187"/>
<path d="M23.85 9.08594C23.85 9.24392 23.8046 9.39834 23.7196 9.52967C23.6347 9.661 23.5139 9.76333 23.3726 9.82372C23.2314 9.8841 23.0759 9.89983 22.926 9.86891C22.7761 9.83798 22.6384 9.76179 22.5304 9.64999C22.4224 9.53818 22.3489 9.39578 22.3192 9.24081C22.2896 9.08584 22.3051 8.92525 22.3638 8.77939C22.4225 8.63352 22.5218 8.50893 22.649 8.42138C22.7763 8.33382 22.9258 8.28724 23.0787 8.28753C23.1806 8.28554 23.2819 8.30485 23.3764 8.34429C23.471 8.38373 23.5568 8.44248 23.6288 8.51704C23.7009 8.5916 23.7576 8.68043 23.7956 8.77818C23.8336 8.87594 23.8521 8.98062 23.85 9.08594V9.08594ZM23.9983 9.08594C23.9986 8.8976 23.9447 8.7134 23.8436 8.55667C23.7425 8.39995 23.5987 8.27774 23.4304 8.20553C23.262 8.13332 23.0767 8.11435 22.8979 8.15103C22.7191 8.1877 22.5549 8.27837 22.426 8.41155C22.2971 8.54473 22.2094 8.71444 22.1739 8.89918C22.1384 9.08392 22.1567 9.27539 22.2266 9.44935C22.2965 9.6233 22.4148 9.77192 22.5665 9.87638C22.7181 9.98084 22.8964 10.0364 23.0787 10.0362C23.2001 10.0385 23.3207 10.0156 23.4333 9.96867C23.5459 9.92176 23.6482 9.85186 23.7341 9.76314C23.8199 9.67443 23.8876 9.56873 23.933 9.45237C23.9784 9.33601 24.0006 9.21138 23.9983 9.08594V9.08594ZM23.4982 8.86116C23.4997 8.81743 23.4921 8.77389 23.4758 8.73351C23.4595 8.69313 23.4349 8.65686 23.4038 8.62719C23.3727 8.59753 23.3357 8.57516 23.2954 8.56163C23.2552 8.5481 23.2126 8.54373 23.1705 8.5488H22.7298V9.58513H22.8993V9.1852H23.0928L23.2892 9.58513H23.4912L23.2849 9.16622C23.3496 9.14954 23.4065 9.10978 23.4455 9.05395C23.4845 8.99813 23.5032 8.92984 23.4982 8.86116V8.86116ZM23.3259 8.86116C23.3259 8.96479 23.2567 9.00712 23.1648 9.00712H22.8993V8.7152H23.1648C23.185 8.71225 23.2055 8.71384 23.225 8.71985C23.2445 8.72585 23.2625 8.73614 23.2778 8.75C23.2931 8.76385 23.3053 8.78096 23.3136 8.80015C23.3219 8.81933 23.3261 8.84014 23.3259 8.86116Z" fill="#004187"/>
</g>
<defs>
<clipPath id="clip0_7559_62450">
<rect width="24" height="14.135" fill="white" transform="translate(0 4.92969)"/>
</clipPath>
</defs>
</svg>
