<svg width="24" height="24" viewBox="0 0 24 24" fill="none" xmlns="http://www.w3.org/2000/svg">
<g clip-path="url(#clip0_7559_62429)">
<mask id="mask0_7559_62429" style="mask-type:luminance" maskUnits="userSpaceOnUse" x="0" y="0" width="24" height="24">
<path d="M24 0H0V23.9954H24V0Z" fill="white"/>
</mask>
<g mask="url(#mask0_7559_62429)">
<path d="M23.9967 12.0114C23.9967 18.6332 18.6212 24.0039 12.0003 24.0039C5.37943 24.0039 0.00390625 18.6332 0.00390625 12.0114C0.00390625 5.38964 5.37511 0.015625 12.0001 0.015625C18.625 0.015625 23.9965 5.38557 23.9965 12.0114" fill="#E73D44"/>
</g>
<mask id="mask1_7559_62429" style="mask-type:luminance" maskUnits="userSpaceOnUse" x="0" y="0" width="24" height="24">
<path d="M24 0H0V23.9954H24V0Z" fill="white"/>
</mask>
<g mask="url(#mask1_7559_62429)">
<path d="M5.81888 9.16377C5.44112 8.93798 5.0144 8.87391 4.58336 8.9363C5.3696 8.09886 5.7968 7.18799 5.7968 6.2692C5.79776 6.1845 5.79368 6.10004 5.78456 6.01605C5.74376 5.444 5.48024 5.01544 5.07152 4.87051C4.66328 4.71742 3.91376 4.79468 2.72288 6.01197L2.00816 6.81246C1.81016 7.05337 1.05848 8.19076 0.91952 9.37541C0.68672 11.3891 0.835519 13.3982 1.3484 15.1802C1.40768 15.3882 1.59968 15.8909 2.06096 16.0769C2.55152 16.2767 3.01688 16.0358 3.42968 15.8232L3.5396 15.768L3.96464 15.5782L4.37696 15.3966L4.87952 15.1758C5.2412 15.0287 5.58008 14.892 5.9108 14.6141C6.3512 14.24 6.67328 13.7459 6.83792 13.1919C6.92936 12.8787 6.98816 12.5572 7.01384 12.2321C7.04024 11.9544 7.06904 11.415 6.96488 10.9416C6.73832 9.89803 6.21944 9.39941 5.81912 9.16377M2.00192 10.6678C2.00192 10.676 2.02424 10.9322 2.02424 10.9322C2.01776 11.0064 2.07248 11.0717 2.14664 11.0781C2.18624 11.0815 2.22512 11.0676 2.2532 11.0395C2.70008 10.6635 3.37856 10.3278 3.92384 10.5154C4.35056 10.6635 4.64048 11.1036 4.79168 11.8256C5.10224 13.339 4.06472 14.0677 3.4172 14.365L3.39464 14.3753L2.56544 14.7818C2.53352 14.7936 2.49824 14.7921 2.46752 14.7777C2.4164 14.7511 2.40248 14.7185 2.36744 14.6287C1.80392 12.5486 1.61168 10.3635 1.82216 8.32369C1.85048 8.14541 1.92272 7.97696 2.03264 7.83371L2.72912 7.09105L2.80664 7.00634C3.18464 6.63897 3.53984 6.45493 3.73208 6.53483C3.8912 6.60202 3.93032 6.85733 3.932 7.05745C3.96488 8.14181 3.35816 9.24992 2.08808 10.4432C2.02592 10.5006 1.99424 10.5838 2.0024 10.668" fill="white"/>
<path d="M15.2337 2.84557C15.0009 2.047 14.6208 1.87951 14.5106 1.8428C13.5302 1.52822 12.4879 1.45671 11.4739 1.63428C9.96477 1.91214 8.65989 2.70447 7.79373 3.86441C6.88509 5.08482 6.53373 6.60685 6.80325 8.14664C7.07709 9.69243 7.85733 10.9447 9.07029 11.7635C10.4918 12.7214 12.383 13.0132 14.405 12.5882C15.5995 12.329 16.5859 11.8645 17.3501 11.2058C17.6911 10.9097 17.7561 10.5332 17.7561 10.2686C17.7561 10.2686 17.7746 10.055 17.609 9.38241C17.5644 9.219 17.4929 9.17005 17.3784 9.17005C17.2949 9.17005 17.207 9.26603 17.1905 9.28618C16.6207 9.94582 15.7526 10.4053 14.6681 10.6189C11.8845 11.1537 9.74445 9.85392 9.21309 7.30536C8.98653 6.20157 9.17445 5.14265 9.75021 4.32369C10.3284 3.49056 11.2759 2.93915 12.4176 2.76782C13.2799 2.63945 14.1607 2.74743 14.9664 3.08048C14.9664 3.08048 15.3074 3.1791 15.234 2.84533" fill="white"/>
</g>
</g>
<defs>
<clipPath id="clip0_7559_62429">
<rect width="24" height="24" fill="white"/>
</clipPath>
</defs>
</svg>
