<svg width="24" height="24" viewBox="0 0 24 24" fill="none" xmlns="http://www.w3.org/2000/svg">
<path d="M24 12C24 14.3726 23.2967 16.692 21.9789 18.665C20.6611 20.638 18.7881 22.1761 16.5964 23.0848C14.4048 23.9936 11.9929 24.2323 9.66564 23.7708C7.33837 23.3092 5.20014 22.1681 3.52119 20.4917C1.84223 18.8153 0.697904 16.6789 0.232819 14.3523C-0.232266 12.0257 0.00275371 9.61352 0.908203 7.42049C1.81365 5.22746 3.34888 3.35204 5.31986 2.03127C7.29085 0.7105 9.60913 0.00362793 11.9817 1.39227e-05C13.5591 -0.00238882 15.1215 0.306225 16.5795 0.908206C18.0375 1.51019 19.3626 2.39373 20.4788 3.50828C21.5951 4.62282 22.4806 5.94649 23.0848 7.40359C23.689 8.86069 24 10.4226 24 12Z" fill="white"/>
<path d="M11.9842 23.4397C14.2477 23.4415 16.4608 22.7719 18.3438 21.5157C20.2267 20.2595 21.6947 18.4731 22.5622 16.3824C23.4296 14.2917 23.6575 11.9907 23.217 9.77047C22.7766 7.55024 21.6875 5.51054 20.0876 3.90936C18.4877 2.30818 16.4489 1.21748 14.229 0.77523C12.0091 0.332978 9.70794 0.559029 7.61657 1.42482C5.52519 2.2906 3.73757 3.75721 2.47985 5.63912C1.22213 7.52102 0.550786 9.73368 0.550785 11.9972C0.549584 13.4994 0.844437 14.9871 1.41848 16.3753C1.99252 17.7636 2.8345 19.0251 3.8963 20.0877C4.95811 21.1504 6.21894 21.9933 7.60669 22.5685C8.99445 23.1436 10.4819 23.4397 11.9842 23.4397Z" fill="#0083CA"/>
<mask id="mask0_7559_62357" style="mask-type:luminance" maskUnits="userSpaceOnUse" x="0" y="0" width="24" height="24">
<path d="M11.9842 23.4526C14.2455 23.4526 16.456 22.7821 18.3362 21.5258C20.2164 20.2695 21.6818 18.4838 22.5472 16.3946C23.4126 14.3055 23.639 12.0066 23.1978 9.78877C22.7567 7.57091 21.6678 5.53367 20.0688 3.93469C18.4698 2.3357 16.4325 1.24679 14.2147 0.805633C11.9968 0.364474 9.69796 0.590886 7.60878 1.45625C5.51961 2.32161 3.73398 3.78705 2.47767 5.66726C1.22136 7.54747 0.550781 9.758 0.550781 12.0193C0.553202 15.0509 1.75857 17.9576 3.90221 20.1012C6.04586 22.2449 8.95258 23.4502 11.9842 23.4526Z" fill="white"/>
</mask>
<g mask="url(#mask0_7559_62357)">
<path d="M12.1099 17.5223C17.1457 17.5223 21.4412 18.9297 23.2964 20.913C23.913 19.4498 24.224 17.8761 24.2104 16.2884C24.1236 13.1283 22.8074 10.1268 20.5415 7.9223C18.2757 5.71781 15.2392 4.48438 12.0779 4.48438C8.91657 4.48438 5.88003 5.71781 3.6142 7.9223C1.34837 10.1268 0.0320535 13.1283 -0.0546875 16.2884C-0.04741 17.8609 0.27908 19.4156 0.904964 20.8581C2.78768 18.9297 7.09233 17.5223 12.1099 17.5223Z" fill="#0083CA"/>
<path d="M12.1084 17.5335C17.126 17.5335 21.4123 18.9318 23.2676 20.8968C23.8785 19.4512 24.1895 17.8965 24.1816 16.3271C24.1816 13.1179 22.9067 10.04 20.6374 7.77075C18.3681 5.50146 15.2903 4.22656 12.081 4.22656C8.87174 4.22656 5.79392 5.50146 3.52463 7.77075C1.25534 10.04 -0.0195312 13.1179 -0.0195312 16.3271C-0.0182015 17.9002 0.308539 19.4561 0.94012 20.8968C2.84111 18.9318 7.10006 17.5335 12.1084 17.5335Z" fill="#0085CB"/>
<path d="M12.109 17.5529C17.1082 17.5529 21.3946 18.933 23.2316 20.8888C23.8503 19.4456 24.1615 17.8893 24.1455 16.3191C24.059 13.1758 22.7496 10.1903 20.4957 7.99764C18.2418 5.80496 15.2214 4.57812 12.077 4.57812C8.93249 4.57812 5.91207 5.80496 3.65821 7.99764C1.40435 10.1903 0.0949081 13.1758 0.00840026 16.3191C-0.00761055 17.8893 0.303647 19.4456 0.922338 20.8888C2.84161 18.933 7.10972 17.5529 12.109 17.5529Z" fill="#0086CD"/>
<path d="M12.1074 17.5642C17.0975 17.5642 21.3656 18.9351 23.2026 20.8727C23.8146 19.4466 24.1257 17.9096 24.1165 16.3578C23.9953 13.2467 22.6741 10.3033 20.43 8.14506C18.186 5.98679 15.1934 4.78125 12.0799 4.78125C8.96645 4.78125 5.97391 5.98679 3.72988 8.14506C1.48585 10.3033 0.164654 13.2467 0.0433926 16.3578C0.0298449 17.9071 0.341185 19.442 0.957331 20.8635C2.84004 18.9351 7.12642 17.5642 12.1074 17.5642Z" fill="#0088CE"/>
<path d="M12.1112 17.5829C17.083 17.5829 21.342 18.9355 23.179 20.8639C23.7901 19.4504 24.1013 17.9255 24.0929 16.3856C23.9718 13.2817 22.6536 10.3452 20.4147 8.19191C18.1757 6.03867 15.1901 4.83594 12.0838 4.83594C8.97744 4.83594 5.99179 6.03867 3.75288 8.19191C1.51398 10.3452 0.195744 13.2817 0.074624 16.3856C0.0613824 17.926 0.37279 19.4519 0.988562 20.8639C2.84386 18.9355 7.13938 17.5829 12.1112 17.5829Z" fill="#008ACF"/>
<path d="M12.1019 17.5891C17.0738 17.5891 21.3144 18.9326 23.1423 20.8427C23.7583 19.4436 24.0698 17.9296 24.0562 16.4009C24.0562 10.1039 18.6914 4.92188 12.0745 4.92188C5.45761 4.92188 0.101929 10.1039 0.101929 16.4101C0.0893453 17.9357 0.400862 19.4465 1.01587 20.8427C2.89858 18.9326 7.1484 17.5891 12.1019 17.5891Z" fill="#008CD0"/>
<path d="M12.1004 17.5992C17.0539 17.5992 21.2946 18.9427 23.1133 20.8254C23.724 19.4407 24.0355 17.9427 24.0272 16.4294C24.0272 10.178 18.6716 5.02344 12.0729 5.02344C5.47432 5.02344 0.136923 10.1872 0.136923 16.4294C0.127573 17.9428 0.439061 19.4411 1.05086 20.8254C2.91529 18.9427 7.15596 17.5992 12.1004 17.5992Z" fill="#008ED2"/>
<path d="M12.1 17.6172C17.0444 17.6172 21.2394 18.9424 23.0672 20.816C23.679 19.4413 23.9905 17.952 23.9812 16.4474C23.9812 10.2509 18.6438 5.13281 12.1 5.13281C5.55618 5.13281 0.218787 10.26 0.218787 16.4565C0.214857 17.9576 0.526222 19.4428 1.13272 20.816C2.94232 18.9424 7.17385 17.6172 12.1 17.6172Z" fill="#008FD3"/>
<path d="M12.1 17.6274C17.0261 17.6274 21.2394 18.9434 23.0672 20.7987C23.6788 19.4401 23.9905 17.9657 23.9812 16.4758C23.9812 10.3342 18.6529 5.23438 12.1 5.23438C5.54705 5.23438 0.218788 10.3342 0.218788 16.4758C0.214791 17.9652 0.526271 19.4385 1.13273 20.7987C2.9606 18.9434 7.183 17.6274 12.1 17.6274Z" fill="#0091D4"/>
<path d="M12.0988 17.6467C17.0067 17.6467 21.2382 18.9445 23.0204 20.7906C23.6311 19.4414 23.9429 17.9761 23.9343 16.4951C23.9343 10.4083 18.6243 5.33594 12.0531 5.33594C5.48189 5.33594 0.171913 10.4083 0.171913 16.4951C0.167905 17.9756 0.479472 19.44 1.08585 20.7906C2.98684 18.9445 7.19097 17.6467 12.0988 17.6467Z" fill="#0093D5"/>
<path d="M12.0986 17.649C16.9973 17.649 21.1922 18.9377 22.9927 20.7656C23.5989 19.431 23.9106 17.9815 23.9066 16.5158C23.9066 10.4746 18.6058 5.42969 12.0803 5.42969C5.55476 5.42969 0.253944 10.4838 0.253944 16.5158C0.249957 17.9815 0.561668 19.431 1.16788 20.7656C3.0049 18.9377 7.19986 17.649 12.0986 17.649Z" fill="#0095D7"/>
<path d="M12.0919 17.6617C16.9815 17.6617 21.1674 18.9412 22.9587 20.7508C23.5692 19.4306 23.8812 17.9921 23.8726 16.5376C23.8726 10.5513 18.5901 5.57031 12.0737 5.57031C5.5573 5.57031 0.293 10.597 0.293 16.5376C0.289385 17.9916 0.601199 19.429 1.20694 20.7508C3.03481 18.9412 7.22065 17.6617 12.0919 17.6617Z" fill="#0097D8"/>
<path d="M12.0905 17.676C16.971 17.676 21.1385 18.9372 22.9298 20.7377C23.5351 19.4287 23.8471 18.0032 23.8438 16.561C23.8438 10.6295 18.5795 5.59375 12.0814 5.59375C5.58328 5.59375 0.328151 10.593 0.328151 16.561C0.324873 18.0032 0.636795 19.4287 1.24209 20.7377C3.05169 18.9372 7.22838 17.676 12.0905 17.676Z" fill="#0099D9"/>
<path d="M12.0905 17.6887C16.9526 17.6887 21.1111 18.9499 22.9024 20.723C23.5084 19.4271 23.8205 18.0133 23.8163 16.5828C23.8163 10.7062 18.5611 5.73438 12.0813 5.73438C5.6015 5.73438 0.35551 10.7062 0.35551 16.5828C0.351332 18.0133 0.663423 19.4271 1.26945 20.723C3.07905 18.9499 7.23746 17.6887 12.0905 17.6887Z" fill="#009BDA"/>
<path d="M12.0904 17.708C16.9342 17.708 21.0927 18.9509 22.8657 20.7148C23.4707 19.4284 23.7828 18.0237 23.7796 16.6021C23.7796 10.7803 18.5428 5.83594 12.0812 5.83594C5.61968 5.83594 0.382823 10.7803 0.382823 16.6113C0.380717 18.0298 0.692838 19.4313 1.29676 20.7148C3.09722 18.9509 7.24649 17.708 12.0904 17.708Z" fill="#009DDC"/>
<path d="M12.0929 17.7103C16.9276 17.7103 21.0677 18.9442 22.8408 20.6898C23.4455 19.4194 23.7578 18.0297 23.7547 16.6227C23.7547 10.8467 18.527 5.92969 12.0837 5.92969C5.64044 5.92969 0.421875 10.8558 0.421875 16.6227C0.422746 18.0292 0.734854 19.4181 1.33581 20.6898C3.12713 18.9442 7.26726 17.7103 12.0929 17.7103Z" fill="#009FDD"/>
<path d="M12.0914 17.7205C16.9079 17.7205 21.0389 18.9452 22.8119 20.6725C23.4179 19.4156 23.7304 18.0375 23.7259 16.6421C23.7259 10.93 18.5164 6.03125 12.0914 6.03125C5.66646 6.03125 0.457031 10.93 0.457031 16.6421C0.456906 18.037 0.769195 19.4141 1.37097 20.6725C3.14401 18.9452 7.27499 17.7205 12.0914 17.7205Z" fill="#00A1DE"/>
<path d="M12.0836 17.7463C16.9 17.7463 21.0127 18.9527 22.7766 20.6709C23.3796 19.4259 23.6921 18.0603 23.6906 16.677C23.6906 11.0106 18.4903 6.14844 12.0744 6.14844C5.65859 6.14844 0.476562 11.0106 0.476562 16.677C0.478489 18.0599 0.790812 19.4248 1.3905 20.6709C3.16354 18.9527 7.28538 17.7463 12.0836 17.7463Z" fill="#00A3DF"/>
<path d="M12.0821 17.7487C16.8803 17.7487 20.9839 18.9459 22.7478 20.6458C23.3524 19.4144 23.6651 18.0603 23.6618 16.6885C23.6618 11.0769 18.4797 6.24219 12.0821 6.24219C5.68458 6.24219 0.511719 11.0769 0.511719 16.6885C0.512855 18.0598 0.825357 19.4129 1.42566 20.6458C3.18956 18.9459 7.30225 17.7487 12.0821 17.7487Z" fill="#00A5E1"/>
<path d="M12.0821 17.768C16.862 17.768 20.9656 18.947 22.7203 20.6378C23.3198 19.4175 23.6324 18.0765 23.6343 16.717C23.6343 11.1511 18.4614 6.34375 12.0821 6.34375C5.70279 6.34375 0.539062 11.1602 0.539062 16.717C0.540944 18.0765 0.853551 19.4175 1.453 20.6378C3.20776 18.947 7.31132 17.768 12.0821 17.768Z" fill="#00A7E2"/>
<path d="M12.0833 17.7781C16.854 17.7781 20.9393 18.9571 22.6941 20.6205C23.2933 19.4132 23.6061 18.084 23.608 16.7362C23.608 11.2526 18.4534 6.44531 12.0924 6.44531C5.7314 6.44531 0.585938 11.2343 0.585938 16.7362C0.58788 18.084 0.90063 19.4132 1.49988 20.6205C3.23636 19.0028 7.32165 17.7781 12.0833 17.7781Z" fill="#00A9E3"/>
<path d="M12.0793 17.7883C16.8318 17.7883 20.9079 18.9582 22.6536 20.6032C23.2528 19.4123 23.5658 18.0979 23.5675 16.7647C23.5675 11.2811 18.4312 6.54688 12.0884 6.54688C5.7457 6.54688 0.609375 11.3085 0.609375 16.7647C0.611069 18.0979 0.924021 19.4123 1.52331 20.6032C3.25066 19.0039 7.32681 17.7883 12.0793 17.7883Z" fill="#00ABE5"/>
<path d="M12.0831 17.8076C16.8265 17.8076 20.8843 18.9592 22.63 20.5951C23.2289 19.4139 23.542 18.1084 23.5439 16.784C23.5439 11.3826 18.4167 6.64844 12.0923 6.64844C5.76782 6.64844 0.640625 11.3826 0.640625 16.784C0.642532 18.1084 0.95559 19.4139 1.55456 20.5951C3.28191 19.0049 7.34892 17.8076 12.0831 17.8076Z" fill="#00ADE6"/>
<path d="M12.0726 17.8204C16.8068 17.8204 20.8647 18.9629 22.6011 20.5623C23.1962 19.3926 23.5092 18.1 23.5151 16.7877C23.5151 11.4412 18.4062 6.73438 12.0909 6.73438C5.77555 6.73438 0.675781 11.4503 0.675781 16.7877C0.682041 18.0999 0.995016 19.3925 1.58972 20.5623C3.29878 19.0086 7.35667 17.8204 12.0726 17.8204Z" fill="#00AFE7"/>
<path d="M12.0739 17.8344C16.7989 17.8344 20.8385 18.9586 22.5658 20.5763C23.1643 19.4243 23.4777 18.1456 23.4798 16.8474C23.4798 11.5557 18.38 6.86719 12.083 6.86719C5.78594 6.86719 0.695312 11.5557 0.695312 16.8474C0.701557 18.145 1.01473 19.4228 1.60925 20.5763C3.32745 19.0043 7.41277 17.8344 12.0739 17.8344Z" fill="#00B2E9"/>
<path d="M12.0711 17.842C16.7779 17.842 20.8083 18.957 22.5357 20.5838C23.1303 19.4402 23.4436 18.1712 23.4496 16.8823C23.4496 11.6454 18.3681 6.98438 12.0894 6.98438C5.81062 6.98438 0.738281 11.6454 0.738281 16.8823C0.744333 18.1712 1.05764 19.4402 1.65222 20.5838C3.343 19.0027 7.41002 17.842 12.0711 17.842Z" fill="#00B4EA"/>
<path d="M12.071 17.8496C16.7595 17.8496 20.7808 18.9555 22.5082 20.5275C23.1014 19.3997 23.4148 18.1459 23.4221 16.8717C23.4221 11.6805 18.3498 7.04688 12.0893 7.04688C5.82883 7.04688 0.765625 11.6805 0.765625 16.8717C0.772943 18.1459 1.08639 19.3997 1.67956 20.5275C3.37035 19.0012 7.40995 17.8496 12.071 17.8496Z" fill="#00B6EB"/>
<path d="M12.071 17.8716C16.7503 17.8716 20.7534 18.9683 22.4716 20.522C23.0734 19.3976 23.3874 18.1416 23.3855 16.8662C23.3855 11.7299 18.3223 7.13281 12.0892 7.13281C5.85617 7.13281 0.792969 11.7025 0.792969 16.8662C0.795571 18.141 1.1093 19.3959 1.70691 20.522C3.38855 19.0049 7.40988 17.8716 12.071 17.8716Z" fill="#00B8ED"/>
<path d="M12.0656 17.8856C16.7359 17.8856 20.7389 18.9732 22.448 20.5086C23.041 19.4071 23.3548 18.1769 23.3619 16.926C23.3619 11.8445 18.3078 7.26562 12.0839 7.26562C5.86 7.26562 0.824219 11.8353 0.824219 16.926C0.831336 18.1769 1.14515 19.4071 1.73816 20.5086C3.41066 19.0097 7.4137 17.8856 12.0656 17.8856Z" fill="#01BBEE"/>
<path d="M12.0629 17.8971C16.724 17.8971 20.7088 18.9664 22.4179 20.4835C23.0107 19.3951 23.3247 18.1768 23.3318 16.9374C23.3318 11.9108 18.296 7.35938 12.0903 7.35938C5.88471 7.35938 0.867188 11.929 0.867188 16.9374C0.874295 18.1768 1.18829 19.3951 1.78113 20.4835C3.43535 19.0029 7.41098 17.8971 12.0629 17.8971Z" fill="#11BDF0"/>
<path d="M12.0629 17.9072C16.7057 17.9072 20.6813 18.9674 22.3812 20.4754C22.9729 19.3997 23.287 18.1935 23.2952 16.9659C23.2952 11.9849 18.2776 7.46094 12.0903 7.46094C5.90291 7.46094 0.894531 11.9849 0.894531 16.9568C0.901589 18.1874 1.21573 19.3969 1.80847 20.4754C3.45356 19.004 7.41091 17.9072 12.0629 17.9072Z" fill="#1AC0F1"/>
<path d="M12.0628 17.9096C16.6873 17.9096 20.6538 18.9606 22.3537 20.4503C22.9453 19.3878 23.2596 18.1934 23.2677 16.9774C23.2677 12.0513 18.2593 7.55469 12.0902 7.55469C5.92112 7.55469 0.921875 12.0513 0.921875 16.9774C0.928766 18.1936 1.24316 19.3883 1.83581 20.4503C3.4809 18.9972 7.41084 17.9096 12.0628 17.9096Z" fill="#1FC4F4"/>
<path d="M12.064 17.9563C16.6885 17.9563 20.6459 18.9982 22.3367 20.4788C22.9282 19.4229 23.2426 18.2344 23.2506 17.0241C23.2506 12.1345 18.2514 7.65625 12.0914 7.65625C5.93149 7.65625 0.941406 12.1345 0.941406 17.0241C0.955615 18.2335 1.26964 19.4206 1.85534 20.4788C3.49129 19.0074 7.41207 17.9563 12.064 17.9563Z" fill="#32C5F4"/>
<path d="M12.0627 17.9783C16.6781 17.9783 20.6355 19.011 22.3262 20.4825C22.9133 19.4347 23.2276 18.2562 23.2402 17.0552C23.2402 12.1931 18.2501 7.74219 12.0901 7.74219C5.93018 7.74219 0.949219 12.1931 0.949219 17.0552C0.961814 18.2562 1.27609 19.4347 1.86316 20.4825C3.49911 19.0019 7.45646 17.9783 12.0627 17.9783Z" fill="#3FC7F4"/>
<path d="M12.0639 18.0067C16.6336 18.0067 20.6275 19.0303 22.3092 20.4926C22.9 19.4563 23.2147 18.2857 23.2231 17.0928C23.2231 12.2581 18.2422 7.84375 12.0914 7.84375C5.94056 7.84375 0.96875 12.2581 0.96875 17.0928C0.981221 18.2851 1.29566 19.4548 1.88269 20.4926C3.51864 19.0029 7.46683 18.0067 12.0639 18.0067Z" fill="#4AC8F5"/>
<path d="M12.0678 18.0287C16.6375 18.0287 20.6131 19.0523 22.3039 20.5055C22.8898 19.4738 23.2043 18.3103 23.2178 17.1239C23.2178 12.3257 18.246 7.92969 12.1043 7.92969C5.96268 7.92969 1 12.3257 1 17.1148C1.01242 18.3042 1.32691 19.4709 1.91394 20.5055C3.53161 19.0523 7.47981 18.0287 12.0678 18.0287Z" fill="#54CAF5"/>
<path d="M12.0651 18.091C16.6348 18.091 20.6013 19.1055 22.283 20.5495C22.8738 19.5266 23.1888 18.3676 23.1969 17.1863C23.1969 12.4246 18.2251 8.04688 12.0925 8.04688C5.96003 8.04688 1.01562 12.3972 1.01562 17.1771C1.03227 18.3573 1.34663 19.5141 1.92956 20.5404C3.53809 19.0781 7.47716 18.091 12.0651 18.091Z" fill="#5CCCF5"/>
<path d="M12.0651 18.0883C16.6348 18.0883 20.5922 19.1027 22.2738 20.5376C22.8594 19.519 23.174 18.3674 23.1878 17.1926C23.1878 12.4584 18.2251 8.11719 12.1017 8.11719C5.97831 8.11719 1.01562 12.4584 1.01562 17.1743C1.02936 18.3491 1.34402 19.5008 1.92956 20.5193C3.54723 19.1027 7.4863 18.0883 12.0651 18.0883Z" fill="#64CDF6"/>
<path d="M12.0651 18.0881C16.6347 18.0881 20.583 19.0843 22.2555 20.51C22.8411 19.5015 23.1559 18.3586 23.1694 17.1924C23.1694 12.4948 18.2159 8.17188 12.1016 8.17188C5.98738 8.17188 1.04297 12.4948 1.04297 17.1924C1.0454 18.3542 1.34425 19.4961 1.91122 20.51C3.55631 19.1209 7.49537 18.0881 12.0651 18.0881Z" fill="#6CCFF6"/>
<path d="M12.0651 18.1478C16.6348 18.1478 20.5648 19.144 22.2464 20.5515C22.8317 19.5528 23.1467 18.4188 23.1604 17.2613C23.1604 12.5911 18.2068 8.30469 12.1017 8.30469C5.99659 8.30469 1.01562 12.6002 1.01562 17.2613C1.02801 18.419 1.34309 19.5533 1.92956 20.5515C3.57465 19.144 7.49544 18.1478 12.0651 18.1478Z" fill="#73D1F6"/>
<path d="M12.0651 18.1854C16.6348 18.1854 20.5556 19.1724 22.2281 20.5799C22.8131 19.5877 23.1282 18.4597 23.1421 17.308C23.1421 12.6652 18.1977 8.40625 12.1017 8.40625C6.00573 8.40625 1.01562 12.6652 1.01562 17.308C1.0295 18.4597 1.34458 19.5877 1.92956 20.5799C3.58379 19.1724 7.50458 18.1854 12.0651 18.1854Z" fill="#7AD2F7"/>
<path d="M12.0649 18.2074C16.6346 18.2074 20.5463 19.1944 22.2188 20.5836C22.784 19.5954 23.0831 18.4775 23.087 17.3391C23.087 12.7694 18.1517 8.49219 12.0649 8.49219C5.97809 8.49219 1.09766 12.7329 1.09766 17.3391C1.10155 18.4775 1.40072 19.5954 1.96591 20.5836C3.59272 19.1944 7.5135 18.2074 12.0649 18.2074Z" fill="#81D4F7"/>
<path d="M12.0635 18.2371C16.6332 18.2371 20.5357 19.215 22.1991 20.5951C22.7836 19.6227 23.099 18.5124 23.113 17.378C23.113 12.8083 18.1778 8.58594 12.1001 8.58594C6.02238 8.58594 1.13281 12.7992 1.13281 17.3689C1.14665 18.5091 1.46197 19.6253 2.04675 20.6042C3.60044 19.215 7.51209 18.2371 12.0635 18.2371Z" fill="#88D6F8"/>
<path d="M12.0648 18.276C16.6345 18.276 20.5188 19.2448 22.1913 20.6157C22.7562 19.6407 23.0556 18.5346 23.0595 17.4078C23.0595 12.8381 18.1334 8.67969 12.0923 8.67969C6.05113 8.67969 1.125 12.8655 1.125 17.4078C1.12892 18.5346 1.42831 19.6407 1.99325 20.6157C3.62006 19.2448 7.52257 18.276 12.0648 18.276Z" fill="#8ED8F8"/>
<path d="M12.0648 18.3045C16.6345 18.3045 20.5096 19.2184 22.1729 20.6259C22.7536 19.6653 23.069 18.5678 23.0869 17.4454C23.0869 12.9397 18.1699 8.78125 12.1196 8.78125C6.06933 8.78125 1.15234 12.9397 1.15234 17.4454C1.16576 18.5684 1.48147 19.6671 2.06628 20.6259C3.62912 19.2641 7.53163 18.3045 12.0648 18.3045Z" fill="#94DAF8"/>
<path d="M12.0649 18.3265C16.6346 18.3265 20.5006 19.2404 22.1182 20.6387C22.7011 19.6858 23.0168 18.5935 23.0322 17.4765C23.0322 12.9982 18.1152 8.86719 12.0649 8.86719C6.01464 8.86719 1.09766 12.9982 1.09766 17.4765C1.10315 18.5887 1.4027 19.6796 1.96591 20.6387C3.63842 19.2769 7.53178 18.3265 12.0649 18.3265Z" fill="#9BDCF9"/>
<path d="M12.0637 18.3562C16.6334 18.3562 20.4902 19.2701 22.117 20.6502C22.68 19.701 22.9798 18.6189 22.9853 17.5154C22.9853 13.0645 18.0774 8.96094 12.018 8.96094C5.95863 8.96094 1.05078 13.0736 1.05078 17.5154C1.05631 18.6189 1.35601 19.701 1.91901 20.6502C3.64635 19.3067 7.53973 18.3562 12.0637 18.3562Z" fill="#A1DDF9"/>
<path d="M12.0637 18.386C16.6334 18.386 20.472 19.2999 22.117 20.6617C22.6799 19.7225 22.9798 18.6492 22.9853 17.5543C22.9853 13.14 18.0866 9.05469 12.018 9.05469C5.94949 9.05469 1.05078 13.14 1.05078 17.5543C1.05735 18.652 1.35709 19.7279 1.91901 20.6709C3.66463 19.3274 7.54887 18.386 12.0637 18.386Z" fill="#A7DFF9"/>
<path d="M12.0648 18.4158C16.6345 18.4158 20.4639 19.3297 22.1181 20.6823C22.6959 19.754 23.0117 18.6865 23.032 17.5932C23.032 13.2063 18.1425 9.14844 12.0648 9.14844C5.98708 9.14844 1.15234 13.2063 1.15234 17.5932C1.17176 18.6867 1.48764 19.7543 2.06628 20.6823C3.67481 19.3571 7.54991 18.4249 12.0648 18.4158Z" fill="#ADE1FA"/>
<path d="M12.0634 18.4455C16.5782 18.4455 20.4533 19.3595 22.1167 20.6847C22.6791 19.7621 22.9793 18.7035 22.9849 17.623C22.9849 13.2635 18.1045 9.24219 12.0816 9.24219C6.05877 9.24219 1.1875 13.2727 1.1875 17.6139C1.18866 18.6966 1.48573 19.7585 2.0466 20.6847C3.68255 19.3686 7.55764 18.4455 12.0634 18.4455Z" fill="#B3E3FA"/>
<path d="M12.0607 18.4753C16.5664 18.4753 20.4415 19.3892 22.114 20.6962C22.6732 19.7827 22.9704 18.733 22.9731 17.6619C22.9731 13.339 18.1018 9.33594 12.0881 9.33594C6.07442 9.33594 1.20312 13.339 1.20312 17.6527C1.20898 18.7304 1.50922 19.7859 2.07138 20.7053C3.68905 19.3984 7.56414 18.4753 12.0607 18.4753Z" fill="#B8E5FA"/>
<path d="M12.0632 18.4998C16.5689 18.4998 20.4257 19.4137 22.1165 20.7115C22.6786 19.8022 22.9791 18.7554 22.9848 17.6864C22.9848 13.4 18.1135 9.46094 12.1089 9.46094C6.10435 9.46094 1.24219 13.4366 1.24219 17.6864C1.24934 18.7539 1.54627 19.7995 2.10129 20.7115C3.75552 19.4137 7.56663 18.4998 12.0632 18.4998Z" fill="#BEE7FB"/>
<path d="M12.0672 18.5219C16.5638 18.5219 20.4206 19.4358 22.0657 20.7153C22.6206 19.8134 22.9177 18.7766 22.9248 17.7176C22.9248 13.4587 18.0626 9.49219 12.0672 9.49219C6.07176 9.49219 1.21875 13.4495 1.21875 17.7176C1.22154 18.7772 1.51899 19.8151 2.07785 20.7153C3.7595 19.4358 7.57975 18.5219 12.0672 18.5219Z" fill="#C4E9FB"/>
<path d="M12.0619 18.5568C16.5494 18.5568 20.4062 19.4708 22.0422 20.7411C22.6 19.8472 22.8975 18.8154 22.9013 17.7617C22.9013 13.5393 18.0482 9.60938 12.0619 9.60938C6.07565 9.60938 1.22266 13.5393 1.22266 17.7617C1.23118 18.8147 1.52832 19.8452 2.08176 20.7411C3.75427 19.4616 7.58365 18.566 12.0619 18.5568Z" fill="#CAEBFC"/>
<path d="M12.0632 18.5957C16.5506 18.5957 20.3983 19.5097 22.0343 20.7526C22.5877 19.8668 22.885 18.845 22.8934 17.8006C22.8934 13.6056 18.0404 9.70312 12.0632 9.70312C6.08605 9.70312 1.24219 13.6056 1.24219 17.8006C1.25055 18.845 1.54791 19.8668 2.10129 20.7526C3.75552 19.4914 7.58491 18.5957 12.0632 18.5957Z" fill="#CFEDFC"/>
<path d="M12.0645 18.6164C16.5428 18.6164 20.3813 19.5303 22.0173 20.755C22.5702 19.8791 22.8677 18.8662 22.8764 17.8304C22.8764 13.6628 18.0325 9.79688 12.0645 9.79688C6.09646 9.79688 1.26172 13.672 1.26172 17.8304C1.26833 18.8681 1.56257 19.8836 2.1117 20.7641C3.75679 19.5029 7.59532 18.6164 12.0645 18.6164Z" fill="#D5EFFC"/>
<path d="M12.0631 18.6539C16.5323 18.6539 20.3708 19.5679 22.0068 20.7834C22.5573 19.9136 22.8518 18.9065 22.8567 17.8771C22.8567 13.7461 18.022 9.89844 12.0631 9.89844C6.10426 9.89844 1.26953 13.7461 1.26953 17.8771C1.27719 18.9074 1.57493 19.9146 2.12864 20.7834C3.75544 19.5313 7.60312 18.6539 12.0631 18.6539Z" fill="#DAF1FD"/>
<path d="M12.0644 18.6759C16.5336 18.6759 20.363 19.5899 21.9898 20.7871C22.5422 19.9278 22.84 18.9297 22.8489 17.9082C22.8489 13.8046 18.0141 9.98438 12.0644 9.98438C6.11466 9.98438 1.28906 13.8046 1.28906 17.8991C1.29346 18.9228 1.58821 19.9242 2.13905 20.7871C3.75672 19.5533 7.61352 18.6759 12.0644 18.6759Z" fill="#E0F3FD"/>
<path d="M12.0656 18.7057C16.5256 18.7057 20.3459 19.5739 21.9819 20.8077C22.5258 19.9485 22.8201 18.9549 22.8318 17.938C22.8318 13.8801 18.0062 10.0781 12.0656 10.0781C6.12504 10.0781 1.30859 13.8801 1.30859 17.938C1.31444 18.9557 1.60919 19.9509 2.15855 20.8077C3.75794 19.5739 7.61476 18.7148 12.0656 18.7057Z" fill="#E6F5FD"/>
<path d="M12.0643 18.7446C16.5152 18.7446 20.3355 19.6037 21.9623 20.8193C22.5113 19.9725 22.8063 18.9861 22.8122 17.9769C22.8122 13.9464 17.9958 10.1719 12.0643 10.1719C6.13287 10.1719 1.31641 13.9464 1.31641 17.9769C1.32643 18.9855 1.62107 19.9708 2.16639 20.8193C3.80234 19.6037 7.62259 18.7446 12.0643 18.7446Z" fill="#EBF7FE"/>
<path d="M12.0617 18.773C16.5125 18.773 20.2871 19.623 21.9413 20.8294C22.4928 19.9934 22.7911 19.016 22.8004 18.0145C22.8004 14.0114 17.984 10.2734 12.0617 10.2734C6.13934 10.2734 1.33203 14.0114 1.33203 18.0145C1.33896 19.0178 1.63398 19.9981 2.18199 20.8386C3.8088 19.623 7.62905 18.773 12.0617 18.773Z" fill="#F1FAFE"/>
<path d="M12.0668 18.795C16.5086 18.795 20.2923 19.645 21.9374 20.8422C22.4808 20.0098 22.7757 19.0397 22.7873 18.0456C22.7873 14.0791 17.98 10.3594 12.0668 10.3594C6.15364 10.3594 1.35547 14.0791 1.35547 18.0456C1.36388 19.0388 1.65559 20.009 2.1963 20.8422C3.82311 19.645 7.63422 18.795 12.0668 18.795Z" fill="#F7FCFE"/>
<path d="M12.0616 18.8208C16.4942 18.8208 20.287 19.6616 21.9138 20.8497C22.4557 20.0369 22.7509 19.0847 22.7638 18.1079C22.7638 14.1688 17.9656 10.4766 12.0616 10.4766C6.15754 10.4766 1.35938 14.1323 1.35938 18.1079C1.37226 19.0847 1.66744 20.0369 2.20933 20.8497C3.827 19.6616 7.63812 18.8208 12.0616 18.8208Z" fill="white"/>
</g>
<path d="M11.9815 14.884C8.42189 14.8524 4.88495 15.4527 1.53516 16.657C2.43381 18.6771 3.89888 20.3933 5.75294 21.5977C7.60701 22.8022 9.77052 23.4432 11.9815 23.4432C14.1924 23.4432 16.3559 22.8022 18.21 21.5977C20.064 20.3933 21.5291 18.6771 22.4278 16.657C19.078 15.4527 15.541 14.8524 11.9815 14.884Z" fill="#0083CA"/>
</svg>
