<svg width="24" height="24" viewBox="0 0 24 24" fill="none" xmlns="http://www.w3.org/2000/svg">
<path d="M12.7803 13.1164C14.2275 12.795 15.8883 11.6344 15.8883 9.45312H12.7376V9.85004H15.0377C15.0256 10.8129 14.3131 12.2697 12.5234 12.772L12.7803 13.1164Z" fill="#2C2A26"/>
<path d="M17.4584 9.24219H16.6016V14.7601H17.4584V9.24219Z" fill="#2C2A26"/>
<path d="M17.168 11.3362V10.9375H18.3526V11.3362H17.168Z" fill="#2C2A26"/>
<path d="M12.7383 11.209V10.8125H15.1036V11.209H12.7383Z" fill="#2C2A26"/>
<path d="M20.1439 11.9398C20.1181 11.9399 20.0925 11.9348 20.0686 11.925C20.0447 11.9151 20.0231 11.9005 20.0048 11.8822C19.9866 11.8639 19.9721 11.8421 19.9623 11.8182C19.9525 11.7942 19.9475 11.7686 19.9476 11.7427V9.84916H23.4593V9.45312H19.0977V11.9423C19.0977 12.0465 19.139 12.1465 19.2124 12.2204C19.2859 12.2942 19.3855 12.3359 19.4896 12.3363H23.5269V11.9398H20.1439Z" fill="#2C2A26"/>
<path d="M18.6289 14.0134V13.6172H23.999V14.0134H18.6289Z" fill="#2C2A26"/>
<path d="M11.4085 9.25H10.5859V14.7626H11.4085V9.25Z" fill="#2C2A26"/>
<path d="M5.37782 12.5562V12.1597H3.10891V11.5156H2.2552V12.1597H0V12.5562H5.37782Z" fill="#2C2A26"/>
<path d="M1.31001 10.6778H4.84445V9.34375H0.460938V9.74045H3.99405V10.2809H0.460938V11.2238C0.461113 11.3285 0.502695 11.4288 0.576572 11.5029C0.65045 11.5769 0.750599 11.6185 0.855078 11.6187H4.91806V11.2247H1.50852C1.45575 11.2247 1.40515 11.2037 1.36784 11.1663C1.33053 11.1289 1.30957 11.0782 1.30957 11.0253L1.31001 10.6778Z" fill="#2C2A26"/>
<path d="M7.45235 12.7968C7.39959 12.7968 7.34898 12.7758 7.31167 12.7384C7.27436 12.701 7.2534 12.6503 7.2534 12.5975V9.8538H8.75657V9.4571H6.40234V12.799C6.40252 12.9037 6.44415 13.004 6.51808 13.078C6.59202 13.152 6.69223 13.1935 6.7967 13.1935H8.62306C8.90048 13.1935 9.12507 13.1448 9.27053 13.0526V14.7628H10.094V9.25H9.27031V11.0155H8.24019V11.5062H9.27031V12.6739C9.06517 12.7589 8.84479 12.8007 8.62284 12.7968H7.45235Z" fill="#2C2A26"/>
<path d="M3.13306 12.8125H2.17966C1.92699 13.8597 0.6882 14.3452 0.234375 14.4117L0.471788 14.763C0.936002 14.7061 1.99463 14.3683 2.65735 13.6438C3.32052 14.3683 4.37782 14.7069 4.84248 14.763L5.07945 14.4117C4.62408 14.3452 3.38462 13.8597 3.13306 12.8125Z" fill="#2C2A26"/>
</svg>
