<svg width="24" height="24" viewBox="0 0 24 24" fill="none" xmlns="http://www.w3.org/2000/svg">
<g clip-path="url(#clip0_7559_62288)">
<mask id="mask0_7559_62288" style="mask-type:luminance" maskUnits="userSpaceOnUse" x="0" y="0" width="24" height="24">
<path d="M11.484 0.169145C5.10309 0.459519 0.154752 5.96539 0.445803 12.4642C0.743415 18.9627 6.13934 23.9965 12.5181 23.7037C18.91 23.4076 23.8365 17.901 23.5509 11.4039C23.2762 5.0852 18.1575 0.156966 12.0232 0.15625C11.8441 0.15625 11.6646 0.160787 11.484 0.169145Z" fill="white"/>
</mask>
<g mask="url(#mask0_7559_62288)">
<path d="M23.8378 0.15625H0.15625V23.9965H23.8378V0.15625Z" fill="white"/>
</g>
<mask id="mask1_7559_62288" style="mask-type:luminance" maskUnits="userSpaceOnUse" x="0" y="0" width="24" height="24">
<path d="M9.36207 22.0536C8.06054 21.9316 6.51343 21.5058 5.16831 20.3285C3.9256 19.2334 3.16564 17.7383 2.7921 16.4216C2.40684 15.0691 2.25311 13.4962 2.88044 13.6113C3.07752 13.6588 3.40841 14.5213 3.77188 15.1524C4.14307 15.8043 4.45545 16.173 4.73642 16.3837C4.86836 16.488 5.31431 15.4817 5.95593 14.9134C6.32689 14.5972 6.73863 14.4929 6.80237 15.4261C6.87994 16.5816 6.67653 17.9487 7.00882 17.9487C7.31604 17.9487 8.01227 17.7147 9.53431 17.58C10.1138 17.5277 10.4398 17.6419 9.88817 18.422C9.62008 18.8222 9.24982 19.371 8.38159 20.0043C9.6789 21.2386 11.2459 21.0963 11.2616 21.6199C11.2837 21.9201 10.718 22.0865 9.96573 22.0865C9.76397 22.0863 9.56243 22.0753 9.36184 22.0538M13.7206 10.9418C12.5308 10.6808 12.2866 9.58711 12.2866 9.58711C12.1922 9.19477 12.1718 8.70261 12.2447 8.08748C12.4158 6.77984 12.7542 6.17235 13.1455 5.15819C13.6735 3.80829 12.3888 3.00928 12.6065 2.50853C12.8877 1.83657 13.8087 2.69646 14.8431 2.75377C15.7162 2.80488 16.2475 2.75927 16.935 2.85335C17.841 2.97752 18.9386 3.29727 19.4235 3.8804C19.8772 4.4036 19.1906 5.05838 18.3767 4.65553C17.774 4.35083 17.0208 4.53852 17.4665 5.16989C17.9884 5.77022 18.2525 5.79052 18.7915 5.93499C20.2873 6.33282 20.3137 7.79424 19.304 8.5474C18.1548 9.40156 16.9896 9.04743 16.5193 7.36059C16.2843 6.52481 15.7115 6.09713 15.1163 6.34237C14.5201 6.57376 14.8695 7.67795 15.3185 8.70237C16.1073 10.7481 14.5056 10.9494 13.908 10.9494C13.8199 10.9494 13.7534 10.9449 13.7203 10.9415M12.8629 22.4395C12.8537 22.1706 13.2376 22.0994 13.2376 22.0994C16.7105 21.4096 15.6944 19.0866 14.4658 17.9062C13.9502 17.4141 9.12305 13.1716 9.12305 13.1716C4.53301 9.13459 4.89648 5.9849 4.89648 5.9849C5.1184 2.10593 8.44838 1.15099 10.9743 1.36877C11.2586 1.39718 11.428 1.57509 11.3781 1.82463C11.3132 2.09757 10.9261 2.11906 10.9261 2.11906C10.1246 2.17374 9.40894 2.24777 8.8648 2.63223C6.83002 4.02105 7.43907 6.38679 10.1382 9.0226C10.4818 9.35834 10.8422 9.70483 11.2164 10.0575C11.2164 10.0575 11.7601 10.5497 12.8378 11.5956C14.9272 13.5547 16.0623 14.6099 16.0623 14.6099C19.7342 17.718 18.4821 20.5678 17.0752 21.5567C16.0066 22.3146 14.8246 22.6692 13.2779 22.7561C13.2657 22.7576 13.2533 22.7583 13.2411 22.7583C13.0935 22.7583 12.8732 22.6709 12.8629 22.4397M11.4681 0.0126561C5.00404 0.312104 -0.000305812 5.89248 0.293557 12.4815C0.577813 18.8719 5.74573 23.8656 11.9546 23.8794H12.0094C12.1803 23.8792 12.3506 23.8749 12.5229 23.8668C18.9935 23.5628 23.9997 17.9802 23.7028 11.396C23.4192 4.99342 18.2363 0 12.0078 0C11.8287 0 11.6488 0.00429829 11.4681 0.0126561Z" fill="white"/>
</mask>
<g mask="url(#mask1_7559_62288)">
<path d="M0 0H24V23.8794H0V0Z" fill="#0046FF"/>
</g>
</g>
<defs>
<clipPath id="clip0_7559_62288">
<rect width="24" height="24" fill="white"/>
</clipPath>
</defs>
</svg>
