<svg width="24" height="24" viewBox="0 0 24 24" fill="none" xmlns="http://www.w3.org/2000/svg">
<g opacity="0.5">
<path d="M23.6127 12.2247L23.4037 12.0929C22.696 11.391 21.7105 11.0852 20.3925 11.1623C19.2963 11.2295 18.4257 11.6616 17.7615 12.0635C17.7615 12.0529 17.76 12.043 17.76 12.0331C17.76 11.6917 17.7995 11.3213 17.8379 10.9608C17.8763 10.5948 17.9155 10.2237 17.9155 9.8709C17.9155 9.51813 17.8756 9.17086 17.7504 8.88012C17.7194 8.80487 17.6441 8.75678 17.5621 8.76045C17.2066 8.76816 16.515 9.01044 16.3478 9.15581L16.2566 9.35551C16.2496 9.74462 16.1643 10.8349 16.0772 10.967C16.0805 10.9623 16.0292 11.0981 16.0292 11.0981C15.8811 12.656 15.8767 14.0231 16.0159 15.1989C16.031 15.3163 16.2584 15.4937 16.4346 15.5575C16.6258 15.6276 17.2298 15.468 17.5765 15.3354C17.5725 15.3387 17.7083 15.3167 17.7083 15.3167C17.8183 15.3046 17.883 15.2136 17.8771 15.0887C17.8759 15.0862 17.8848 14.7507 17.8848 14.7507C18.1362 13.7364 19.1523 12.5268 20.3533 12.3444C21.0319 12.2375 21.568 12.4093 21.9915 12.8708C22.0484 12.9515 22.1728 13.6813 21.7246 14.5201C21.3919 15.1412 20.7255 15.6636 19.849 15.9918C19.0186 16.3053 18.1052 16.4327 16.9773 16.3927C16.9319 16.3622 15.9217 15.6838 15.9217 15.6838C15.029 15.0601 13.9184 14.2826 12.9105 13.9023C12.7355 13.8359 12.4157 13.5738 12.2256 13.4159L12.1229 13.3311C11.5418 12.8693 10.4368 12.1359 9.54809 11.5478C9.54809 11.5478 9.1475 11.2813 9.06996 11.2302C9.07033 11.1968 9.07255 11.13 9.07255 11.13C9.09729 11.1021 9.65479 10.7699 9.65479 10.7699C10.4357 10.3147 10.7968 10.0926 10.8732 9.97663C10.858 9.99498 10.9777 9.91569 10.9777 9.91569C10.9836 9.91239 12.9134 8.82726 12.9134 8.82726C14.7705 7.81078 16.8769 6.65848 17.9823 5.52086L18.0362 5.34796L18.0605 5.19232C18.1333 4.94857 18.1385 4.76135 18.0775 4.54587C18.0583 4.47355 18.0004 4.41739 17.9273 4.3994C17.0641 4.3135 15.9505 4.8289 14.9371 5.77342C14.7081 5.98744 14.5158 6.09096 14.3127 6.20182L14.158 6.28698C13.0401 6.91728 10.5221 8.47155 9.20473 9.30999C9.29186 7.90146 9.55326 5.8964 9.87595 4.22576L9.84013 4.02533C9.83644 4.01836 9.70463 3.77314 9.70463 3.77314L9.60125 3.59216L9.57172 3.58335C9.30847 3.4512 9.09359 3.50626 8.93631 3.54554L8.67122 3.64209L8.32195 3.76873C8.25438 3.78121 8.19863 3.8282 8.17464 3.89244C7.54661 5.40486 7.02086 7.89191 6.89754 9.88412C5.63965 9.08716 4.47591 8.51633 3.90696 8.23881L3.89071 8.2311L3.82278 8.21532C3.61861 8.18999 3.36718 8.03985 3.12572 7.89448C3.10209 7.87943 2.64907 7.58612 2.64907 7.58612L1.91693 7.12065C1.92394 7.12542 1.72494 7.07733 1.72494 7.07733C1.41074 7.13019 0.808566 7.53363 0.629869 7.80711C0.606978 7.84235 0.595532 7.88347 0.59664 7.92495C0.599963 7.98332 0.611039 8.04095 0.629869 8.09638L0.66199 8.24469L0.696326 8.33499C1.04634 8.69107 1.92948 9.28686 2.79749 9.7505L3.8021 10.2795L5.33986 11.1146C5.34023 11.122 5.60384 11.3217 5.60384 11.3217L5.78401 11.4259C5.78401 11.4259 5.80358 11.438 5.81503 11.4465C5.40594 11.7181 3.01938 13.3043 3.01938 13.3043L1.54735 14.2731C1.40927 14.367 0.827026 14.6269 0.700018 14.6769C0.381022 14.8054 0.139561 15.004 0.039136 15.2202L0 15.3042L0.039136 15.3608L0.151006 15.4456C0.146945 15.4445 0.30275 15.5425 0.30275 15.5425L0.464463 15.6541C0.467786 15.6555 0.618054 15.6761 0.618054 15.6761C0.875761 15.6875 1.25974 15.541 1.97563 15.2282C2.63208 14.9382 4.41942 13.8682 5.18294 13.4097L5.50969 13.2158C5.64371 13.2269 5.79287 13.1134 5.92357 13.0128C6.13956 12.8532 6.37105 12.7148 6.61436 12.6002C6.61916 12.598 6.73731 12.5331 6.84438 12.4732C6.84401 12.5074 6.84216 12.5602 6.84216 12.5602C6.87761 14.8832 7.01237 16.5725 7.26675 17.8742L7.27155 17.8977L7.29592 17.9495C7.42182 18.1334 7.5647 18.684 7.69208 19.1693L7.98375 20.1392C7.98855 20.1491 8.06535 20.2299 8.06535 20.2299C8.23149 20.3415 8.73657 20.5349 9.0755 20.4945L9.16042 20.4857L9.21359 20.3672C9.24091 20.2211 9.25383 20.0724 9.25198 19.9237C9.25198 19.7449 9.23869 19.55 9.22245 19.3114L9.19993 18.9616C9.09286 17.3394 8.98579 14.9977 8.98579 13.439C8.98579 13.395 8.98615 13.3572 8.98615 13.3164C9.26306 13.4893 10.4763 14.2492 10.4763 14.2492C12.5383 15.5792 15.6548 17.5897 17.5378 18.122C17.6334 18.1525 17.7379 18.1286 17.811 18.0604C17.8147 18.0567 18.1012 17.8746 18.1012 17.8746L18.1551 17.8526C18.2644 17.8016 18.3363 17.6202 18.3496 17.4253C19.9361 17.3453 22.1503 16.7374 23.3347 15.2565C23.7596 14.7202 23.9937 14.0591 24 13.3766C24 12.884 23.8619 12.4582 23.6123 12.2247" fill="#999999"/>
</g>
</svg>
