<svg width="24" height="24" viewBox="0 0 24 24" fill="none" xmlns="http://www.w3.org/2000/svg">
<g clip-path="url(#clip0_7559_62319)">
<path d="M1.30328 9.51562C0.584664 9.51562 0.000519856 10.1181 0.000519856 10.8583H0V14.438H0.434253V10.8583C0.433213 10.3651 0.822065 9.96435 1.30293 9.96329C1.30293 9.96329 1.3031 9.96329 1.30328 9.96329H22.6948C23.1755 9.96435 23.5644 10.3647 23.5633 10.8577C23.5633 10.8577 23.5633 10.8581 23.5633 10.8583V14.438H23.9976V10.8583C23.9976 10.1183 23.4131 9.51562 22.6948 9.51562H1.30328Z" fill="#221E1F"/>
<path d="M4.00194 13.4896C4.00194 13.5246 3.97924 13.5374 3.94268 13.5374H3.62019C3.5845 13.5374 3.57115 13.5246 3.57115 13.4855V12.5875C3.57115 12.5461 3.54325 12.5248 3.50323 12.5248H2.65794C2.62103 12.5248 2.59954 12.5461 2.59954 12.5875V13.4855C2.59954 13.5246 2.57754 13.5374 2.5434 13.5374H2.21589C2.18452 13.5374 2.17188 13.5246 2.17188 13.4896V11.2575C2.17188 11.2225 2.18435 11.2031 2.21589 11.2031H2.5434C2.57754 11.2031 2.59954 11.2225 2.59954 11.2575V12.1214C2.59954 12.1628 2.62103 12.1818 2.65794 12.1818H3.50323C3.54325 12.1818 3.57115 12.163 3.57115 12.1214V11.2575C3.57115 11.2225 3.5845 11.2031 3.62019 11.2031H3.94268C3.97924 11.2031 4.00194 11.2225 4.00194 11.2575V13.4896Z" fill="#221E1F"/>
<path d="M4.7764 13.5769C4.58094 13.5817 4.41874 13.423 4.41406 13.2225C4.41406 13.2191 4.41406 13.2158 4.41406 13.2124V11.8252C4.41406 11.7841 4.42931 11.7656 4.46709 11.7656H4.77658C4.80759 11.7656 4.82908 11.7841 4.82908 11.8252V13.1653C4.82908 13.2028 4.84433 13.222 4.88834 13.222H5.45447C5.49051 13.222 5.51598 13.2026 5.51598 13.1653V11.8252C5.51598 11.7841 5.53175 11.7656 5.56849 11.7656H5.8785C5.91177 11.7656 5.93377 11.7841 5.93377 11.8252V13.8472C5.93204 13.8982 5.91956 13.9481 5.89686 13.9936L5.6865 14.346C5.67125 14.3759 5.64161 14.3953 5.60886 14.3967H5.56849C5.53158 14.3967 5.51598 14.3741 5.51598 14.3391V13.4447C5.51598 13.4065 5.49398 13.3908 5.46071 13.3992L4.86599 13.571C4.83636 13.5756 4.80638 13.5776 4.77658 13.5767" fill="#221E1F"/>
<path d="M6.70376 13.5671C6.50743 13.5662 6.34835 13.4033 6.34766 13.2019V11.8182C6.34766 11.7768 6.36256 11.7578 6.40068 11.7578H6.71294C6.74084 11.7578 6.76285 11.7767 6.76285 11.8182V13.1575C6.76285 13.1953 6.78174 13.2113 6.82436 13.2113H7.39049C7.42774 13.2113 7.45252 13.1952 7.45252 13.1575V11.8182C7.45252 11.7768 7.46552 11.7578 7.50243 11.7578H7.81226C7.84605 11.7578 7.86719 11.7767 7.86719 11.8182V13.4911C7.86719 13.5261 7.84605 13.5389 7.81226 13.5389H7.50226C7.46535 13.5389 7.45235 13.5261 7.45235 13.487V13.437C7.45235 13.3956 7.42757 13.3791 7.39395 13.3924L6.79993 13.5573C6.76857 13.5653 6.73616 13.5685 6.70376 13.5669" fill="#221E1F"/>
<path d="M9.80417 12.1054V13.4955C9.80417 13.5305 9.78217 13.5433 9.7489 13.5433H9.43906C9.40181 13.5433 9.38916 13.5305 9.38916 13.4914V12.1529C9.39245 12.1213 9.37027 12.0928 9.33942 12.0894C9.33561 12.0891 9.3318 12.0889 9.32799 12.0894H8.76117C8.71802 12.0894 8.69913 12.1111 8.69913 12.1531V13.4916C8.69913 13.5307 8.67765 13.5435 8.65009 13.5435H8.33662C8.30006 13.5435 8.28516 13.5307 8.28516 13.4957V11.8229C8.28516 11.7815 8.30006 11.7625 8.33662 11.7625H8.65009C8.67747 11.7625 8.69913 11.7813 8.69913 11.8229V11.8767C8.69913 11.9117 8.7149 11.9274 8.76117 11.9146L9.35311 11.7497C9.38205 11.7411 9.41203 11.736 9.44218 11.7344C9.64181 11.7354 9.80331 11.9011 9.80435 12.1058" fill="#221E1F"/>
<path d="M10.1562 13.1994V12.4C10.1562 12.2278 10.2273 12.0983 10.376 12.0155L10.704 11.8191C10.7681 11.7761 10.8435 11.7539 10.9201 11.7551H11.2053C11.2457 11.7551 11.2646 11.7389 11.2646 11.7013V11.0443C11.2646 11.0093 11.2798 10.9844 11.3105 10.9844H11.6267C11.6633 10.9844 11.6789 11.0093 11.6789 11.0443V13.4887C11.6789 13.5234 11.6631 13.5365 11.6267 13.5365H11.3105C11.2798 13.5365 11.2646 13.5232 11.2646 13.4846V13.4347C11.2646 13.3929 11.2457 13.3764 11.2053 13.3896L10.6078 13.5548C10.5775 13.5627 10.5461 13.5659 10.5148 13.5644C10.3536 13.5705 10.1562 13.418 10.1562 13.199M11.2646 13.155V12.1491C11.2646 12.104 11.2457 12.0819 11.2025 12.0819H10.6298C10.5867 12.0819 10.5706 12.1042 10.5706 12.1491V13.155C10.5706 13.1923 10.5867 13.2088 10.6298 13.2088H11.2025C11.2457 13.2088 11.2646 13.1923 11.2646 13.155Z" fill="#221E1F"/>
<path d="M12.3903 13.5672C12.1929 13.5675 12.0325 13.4042 12.0312 13.202V12.4024C12.0312 12.2302 12.1026 12.101 12.2479 12.0179L12.5794 11.8215C12.6424 11.7788 12.7164 11.7566 12.792 11.7579H13.5016C13.5348 11.7579 13.5537 11.7767 13.5537 11.8183V13.4911C13.5537 13.5261 13.5348 13.5389 13.5016 13.5389H13.1853C13.1515 13.5389 13.1394 13.5261 13.1394 13.487V13.4371C13.1394 13.3957 13.1171 13.3788 13.0774 13.3919L12.4827 13.5572C12.4525 13.565 12.4211 13.5684 12.3901 13.5668M13.1396 13.1575V12.1517C13.1396 12.1065 13.1172 12.0849 13.0775 12.0849H12.5045C12.4617 12.0849 12.4456 12.1065 12.4456 12.1517V13.1575C12.4456 13.1954 12.4617 13.2114 12.5045 13.2114H13.0777C13.1174 13.2114 13.1398 13.1952 13.1398 13.1575" fill="#221E1F"/>
<path d="M14.3843 11.3051C14.3843 11.3434 14.3623 11.3558 14.3318 11.3558H14.0218C13.9814 11.3558 13.9688 11.3434 13.9688 11.3051V11.0448C13.9688 11.0098 13.9812 10.9844 14.0218 10.9844H14.3318C14.3616 10.9851 14.3853 11.0103 14.3846 11.0409C14.3846 11.0421 14.3846 11.0434 14.3845 11.0448V11.3051H14.3843ZM14.3843 13.4894C14.3843 13.5241 14.3623 13.5372 14.3318 13.5372H14.0218C13.9814 13.5372 13.9688 13.5239 13.9688 13.4894V11.8161C13.9688 11.775 13.9812 11.7557 14.0218 11.7557H14.3318C14.3625 11.7557 14.3843 11.775 14.3843 11.8161V13.4894Z" fill="#221E1F"/>
<path d="M15.25 13.0793V11.8767C15.25 11.6984 15.3245 11.5625 15.4763 11.4699L15.8385 11.2635C15.9031 11.2237 15.9769 11.2029 16.0523 11.2031H16.8196C16.8565 11.2031 16.8749 11.2225 16.8749 11.2607V11.4924C16.8749 11.5275 16.8565 11.5436 16.8196 11.5436H15.7456C15.7083 11.5436 15.6931 11.5657 15.6931 11.6072V13.1374C15.6931 13.1781 15.7083 13.1969 15.7456 13.1969H16.8506C16.8844 13.1969 16.9068 13.2138 16.9068 13.2447C16.9068 13.2799 16.8874 13.3121 16.8565 13.3275L16.5909 13.48C16.5235 13.5182 16.4477 13.5378 16.3708 13.537H15.7024C15.4824 13.537 15.2502 13.375 15.2502 13.0793" fill="#221E1F"/>
<path d="M17.5231 13.5672C17.3257 13.5675 17.1653 13.4042 17.1641 13.202V12.4024C17.1641 12.2302 17.2355 12.101 17.3807 12.0178L17.7116 11.8215C17.7749 11.779 17.8491 11.7568 17.9246 11.7578H18.6342C18.6684 11.7578 18.6864 11.7767 18.6864 11.8183V13.4911C18.6864 13.5261 18.6684 13.5389 18.6342 13.5389H18.318C18.2842 13.5389 18.272 13.5261 18.272 13.487V13.4371C18.272 13.3957 18.25 13.3788 18.2097 13.3919L17.6153 13.5572C17.5851 13.565 17.5538 13.5682 17.5228 13.5668M18.2724 13.1575V12.1517C18.2724 12.1065 18.2504 12.0848 18.21 12.0848H17.6373C17.5938 12.0848 17.578 12.1065 17.578 12.1517V13.1575C17.578 13.1954 17.5938 13.2114 17.6373 13.2114H18.21C18.2504 13.2114 18.2724 13.1952 18.2724 13.1575Z" fill="#221E1F"/>
<path d="M20.2407 12.0416C20.2407 12.0731 20.2191 12.0891 20.1846 12.0891H19.575C19.5353 12.0891 19.5197 12.1108 19.5197 12.1527V13.4916C19.5197 13.5302 19.4949 13.5435 19.4641 13.5435H19.1515C19.1142 13.5435 19.1016 13.5302 19.1016 13.4952V11.8222C19.1016 11.7811 19.114 11.7617 19.1515 11.7617H19.4641C19.4934 11.76 19.5183 11.7829 19.52 11.8129C19.5202 11.8159 19.52 11.8191 19.5199 11.8222V11.8728C19.5199 11.9078 19.5356 11.9235 19.5752 11.9235C19.5869 11.9242 19.5987 11.9219 19.6093 11.9167L19.7886 11.796C19.8547 11.7603 19.9281 11.7418 20.0028 11.7422H20.1848C20.2193 11.7422 20.2409 11.7619 20.2409 11.796V12.0415L20.2407 12.0416Z" fill="#221E1F"/>
<path d="M20.3047 13.1994V12.4C20.3047 12.2278 20.3761 12.0983 20.5248 12.0155L20.8523 11.8191C20.9166 11.7759 20.9921 11.7537 21.0689 11.7551H21.3538C21.3941 11.7551 21.413 11.7389 21.413 11.7013V11.0443C21.413 11.0093 21.4283 10.9844 21.4593 10.9844H21.7755C21.8116 10.9844 21.8277 11.0093 21.8277 11.0443V13.4887C21.8277 13.5234 21.8116 13.5365 21.7755 13.5365H21.4595C21.4284 13.5365 21.4132 13.5232 21.4132 13.4846V13.4347C21.4132 13.3929 21.3943 13.3764 21.3539 13.3896L20.7568 13.5548C20.7265 13.5627 20.6951 13.5659 20.6637 13.5644C20.5026 13.5705 20.3049 13.418 20.3049 13.199M21.413 13.155V12.1491C21.413 12.104 21.3941 12.0819 21.3506 12.0819H20.7783C20.7355 12.0819 20.7187 12.1042 20.7187 12.1491V13.155C20.7187 13.1923 20.7355 13.2088 20.7783 13.2088H21.3506C21.3941 13.2088 21.413 13.1923 21.413 13.155Z" fill="#221E1F"/>
</g>
<defs>
<clipPath id="clip0_7559_62319">
<rect width="24" height="5" fill="white" transform="translate(0 9.5)"/>
</clipPath>
</defs>
</svg>
