<svg width="24" height="24" viewBox="0 0 24 24" fill="none" xmlns="http://www.w3.org/2000/svg">
<g opacity="0.5">
<path d="M12.7807 13.1169C14.228 12.7955 15.8888 11.6349 15.8888 9.45361H12.7381V9.85053H15.0381C15.026 10.8134 14.3135 12.2701 12.5239 12.7725L12.7807 13.1169Z" fill="#999999"/>
<path d="M17.4596 9.24023H16.6028V14.7581H17.4596V9.24023Z" fill="#999999"/>
<path d="M17.1663 11.3333V10.9346H18.3509V11.3333H17.1663Z" fill="#999999"/>
<path d="M12.7379 11.209V10.8125H15.1032V11.209H12.7379Z" fill="#999999"/>
<path d="M20.1442 11.9418C20.1183 11.9419 20.0927 11.9368 20.0689 11.9269C20.045 11.917 20.0233 11.9025 20.0051 11.8842C19.9868 11.8658 19.9724 11.8441 19.9626 11.8201C19.9527 11.7962 19.9477 11.7706 19.9479 11.7447V9.85111H23.4595V9.45508H19.0979V11.9442C19.098 12.0485 19.1392 12.1485 19.2127 12.2223C19.2861 12.2962 19.3858 12.3379 19.4898 12.3383H23.5272V11.9418H20.1442Z" fill="#999999"/>
<path d="M18.6299 14.013V13.6167H24V14.013H18.6299Z" fill="#999999"/>
<path d="M11.4101 9.24658H10.5875V14.7591H11.4101V9.24658Z" fill="#999999"/>
<path d="M5.37782 12.5547V12.1583H3.10891V11.5142H2.2552V12.1583H0V12.5547H5.37782Z" fill="#999999"/>
<path d="M1.30961 10.6749H4.84405V9.34082H0.460541V9.73752H3.99366V10.278H0.460541V11.2209C0.460716 11.3256 0.502298 11.4259 0.576176 11.4999C0.650053 11.574 0.750202 11.6156 0.854681 11.6158H4.91766V11.2218H1.50812C1.45535 11.2218 1.40475 11.2008 1.36744 11.1634C1.33013 11.126 1.30917 11.0753 1.30917 11.0224L1.30961 10.6749Z" fill="#999999"/>
<path d="M7.45177 12.7934C7.39901 12.7934 7.3484 12.7724 7.31109 12.735C7.27378 12.6976 7.25282 12.6469 7.25282 12.594V9.85038H8.75599V9.45368H6.40176V12.7956C6.40194 12.9003 6.44357 13.0006 6.5175 13.0746C6.59144 13.1485 6.69165 13.1901 6.79613 13.1901H8.62248C8.8999 13.1901 9.12449 13.1414 9.26995 13.0492V14.7594H10.0934V9.24658H9.26973V11.0121H8.23961V11.5027H9.26973V12.6705C9.06459 12.7555 8.84421 12.7973 8.62226 12.7934H7.45177Z" fill="#999999"/>
<path d="M3.13248 12.8086H2.17908C1.92641 13.8558 0.68762 14.3413 0.233795 14.4078L0.471208 14.7591C0.935422 14.7022 1.99405 14.3644 2.65677 13.6399C3.31994 14.3644 4.37724 14.703 4.8419 14.7591L5.07887 14.4078C4.6235 14.3413 3.38404 13.8558 3.13248 12.8086Z" fill="#999999"/>
</g>
</svg>
