<svg width="24" height="24" viewBox="0 0 24 24" fill="none" xmlns="http://www.w3.org/2000/svg">
<g clip-path="url(#clip0_7559_62446)">
<path d="M23.325 6.91406H21.7545V10.9687H15.3346V6.91406H13.7641C13.394 6.91406 13.0898 7.27176 13.0898 7.71451V16.2851C13.0898 16.7245 13.3906 17.0862 13.7641 17.0862H15.3346V12.7313H21.7545V17.0862H23.325C23.6979 17.0862 24.0004 16.7245 24.0004 16.2851V7.71451C24.0004 7.27176 23.7024 6.91406 23.325 6.91406Z" fill="#004B9E"/>
<path d="M10.4723 6.91406H8.90072V14.7023L4.178 8.48173C3.39332 7.57369 2.85368 6.91406 1.59921 6.91406H0V16.2851C0 16.7245 0.300239 17.0862 0.677651 17.0862H2.24644V9.26077L6.99676 15.4396C7.79946 16.3685 8.51429 17.0862 9.67751 17.0862H11.1449V7.71451C11.1449 7.27176 10.8435 6.91406 10.4718 6.91406" fill="#004B9E"/>
</g>
<defs>
<clipPath id="clip0_7559_62446">
<rect width="24" height="10.1715" fill="white" transform="translate(0 6.91406)"/>
</clipPath>
</defs>
</svg>
