<svg width="24" height="24" viewBox="0 0 24 24" fill="none" xmlns="http://www.w3.org/2000/svg">
<g opacity="0.5">
<g clip-path="url(#clip0_2391_1345)">
<mask id="mask0_2391_1345" style="mask-type:luminance" maskUnits="userSpaceOnUse" x="0" y="0" width="24" height="24">
<path d="M11.4846 0.172563C5.1037 0.462936 0.155362 5.96881 0.446413 12.4676C0.744026 18.9661 6.13995 23.9999 12.5187 23.7072C18.9106 23.411 23.8371 17.9045 23.5515 11.4073C23.2768 5.08862 18.1581 0.160384 12.0238 0.159668C11.8447 0.159668 11.6652 0.164205 11.4846 0.172563Z" fill="white"/>
</mask>
<g mask="url(#mask0_2391_1345)">
<path d="M23.8369 0.159668H0.155334V23.9999H23.8369V0.159668Z" fill="white"/>
</g>
<mask id="mask1_2391_1345" style="mask-type:luminance" maskUnits="userSpaceOnUse" x="0" y="0" width="24" height="24">
<path d="M9.36238 22.0536C8.06085 21.9316 6.51373 21.5058 5.16862 20.3285C3.92591 19.2334 3.16594 17.7383 2.7924 16.4216C2.40715 15.0691 2.25342 13.4962 2.88075 13.6113C3.07783 13.6588 3.40872 14.5213 3.77218 15.1524C4.14338 15.8043 4.45575 16.173 4.73673 16.3837C4.86866 16.488 5.31461 15.4817 5.95624 14.9134C6.3272 14.5972 6.73893 14.4929 6.80268 15.4261C6.88024 16.5816 6.67683 17.9487 7.00913 17.9487C7.31635 17.9487 8.01258 17.7147 9.53462 17.58C10.1141 17.5277 10.4401 17.6419 9.88847 18.422C9.62039 18.8222 9.25013 19.371 8.3819 20.0043C9.67921 21.2386 11.2462 21.0963 11.2619 21.6199C11.284 21.9201 10.7183 22.0865 9.96604 22.0865C9.76427 22.0863 9.56274 22.0753 9.36214 22.0538M13.7209 10.9418C12.5311 10.6808 12.2869 9.58711 12.2869 9.58711C12.1925 9.19477 12.1721 8.70261 12.245 8.08748C12.4161 6.77984 12.7545 6.17235 13.1458 5.15819C13.6738 3.80829 12.3891 3.00928 12.6068 2.50853C12.888 1.83657 13.809 2.69646 14.8434 2.75377C15.7165 2.80488 16.2478 2.75927 16.9353 2.85335C17.8413 2.97752 18.9389 3.29727 19.4238 3.8804C19.8775 4.4036 19.1909 5.05838 18.377 4.65553C17.7743 4.35083 17.0211 4.53852 17.4668 5.16989C17.9887 5.77022 18.2528 5.79052 18.7918 5.93499C20.2876 6.33282 20.3141 7.79424 19.3043 8.5474C18.1551 9.40156 16.9899 9.04743 16.5196 7.36059C16.2846 6.52481 15.7118 6.09713 15.1166 6.34237C14.5204 6.57376 14.8699 7.67795 15.3188 8.70237C16.1076 10.7481 14.5059 10.9494 13.9084 10.9494C13.8202 10.9494 13.7537 10.9449 13.7206 10.9415M12.8632 22.4395C12.8541 22.1706 13.2379 22.0994 13.2379 22.0994C16.7108 21.4096 15.6947 19.0866 14.4661 17.9062C13.9505 17.4141 9.12335 13.1716 9.12335 13.1716C4.53332 9.13459 4.89678 5.9849 4.89678 5.9849C5.1187 2.10593 8.44868 1.15099 10.9746 1.36877C11.2589 1.39718 11.4283 1.57509 11.3784 1.82463C11.3135 2.09757 10.9264 2.11906 10.9264 2.11906C10.1249 2.17374 9.40925 2.24777 8.86511 2.63223C6.83033 4.02105 7.43938 6.38679 10.1385 9.0226C10.4821 9.35834 10.8425 9.70483 11.2167 10.0575C11.2167 10.0575 11.7604 10.5497 12.8381 11.5956C14.9275 13.5547 16.0626 14.6099 16.0626 14.6099C19.7345 17.718 18.4824 20.5678 17.0755 21.5567C16.0069 22.3146 14.8249 22.6692 13.2782 22.7561C13.266 22.7576 13.2536 22.7583 13.2414 22.7583C13.0938 22.7583 12.8735 22.6709 12.8632 22.4397M11.4684 0.0126561C5.00434 0.312104 -6.36018e-07 5.89248 0.293863 12.4815C0.578118 18.8719 5.74603 23.8656 11.9549 23.8794H12.0097C12.1806 23.8792 12.3509 23.8749 12.5232 23.8668C18.9938 23.5628 24 17.9802 23.7031 11.396C23.4195 4.99342 18.2366 0 12.0081 0C11.829 0 11.6491 0.00429829 11.4684 0.0126561Z" fill="white"/>
</mask>
<g mask="url(#mask1_2391_1345)">
<path d="M0 0H24V23.8794H0V0Z" fill="#999999"/>
</g>
</g>
</g>
<defs>
<clipPath id="clip0_2391_1345">
<rect width="24" height="24" fill="white"/>
</clipPath>
</defs>
</svg>
