<svg width="24" height="24" viewBox="0 0 24 24" fill="none" xmlns="http://www.w3.org/2000/svg">
<g opacity="0.5">
<g clip-path="url(#clip0_2391_1441)">
<path fill-rule="evenodd" clip-rule="evenodd" d="M21.0957 8.62687C20.3203 7.48493 19.2901 6.55276 18.0923 5.90921C16.8945 5.26567 15.5643 4.92969 14.2143 4.92969C12.8642 4.92969 11.534 5.26567 10.3362 5.90921C9.13841 6.55276 8.10822 7.48493 7.33281 8.62687L7.25229 8.74656H9.24405L9.26665 8.72175C9.90162 8.02355 10.6683 7.46713 11.5193 7.08677C12.3703 6.70642 13.2877 6.51019 14.215 6.51019C15.1422 6.51019 16.0596 6.70642 16.9107 7.08677C17.7617 7.46713 18.5283 8.02355 19.1633 8.72175L19.1845 8.74656H21.1762L21.0957 8.62687Z" fill="#999999"/>
<path d="M6.46143 16.329L6.4247 16.3684C5.81164 17.0121 5.10393 17.3537 4.37503 17.3537C2.85225 17.3537 1.74619 16.1728 1.74619 14.5453C1.74619 12.9179 2.85225 11.7327 4.37503 11.7327C5.10393 11.7327 5.81164 12.0742 6.4247 12.7194L6.46143 12.7588L7.44036 11.5356L7.41493 11.502C6.59987 10.508 5.62235 10.0249 4.42164 10.0249C3.22094 10.0249 2.11346 10.4438 1.31393 11.1926C0.450836 12.0114 -0.00543213 13.166 -0.00543213 14.5351C-0.00543213 15.9043 0.450836 17.0588 1.31393 17.8777C2.10781 18.6367 3.20964 19.0541 4.42164 19.0541C5.63365 19.0541 6.59987 18.5695 7.41493 17.5755L7.44036 17.5434L6.46143 16.329Z" fill="#999999"/>
<path d="M10.1594 10.1709H8.43042V18.898H10.1594V10.1709Z" fill="#999999"/>
<path d="M16.9385 16.9986C16.5613 17.2616 16.1216 17.4131 15.6671 17.4365C15.1021 17.4365 14.8549 17.1314 14.8549 16.4527V11.8213H16.6178V10.1778H14.8492V7.46143L13.1541 8.39997V10.1778H11.6907V11.8213H13.1541V16.7475C13.1541 18.0889 13.924 19.007 15.0724 19.0304C15.6113 19.0577 16.1459 18.9185 16.6079 18.6304L16.6249 18.6173L17.0416 16.9358L16.9385 16.9986Z" fill="#999999"/>
<path d="M20.1012 10.1709H18.3708V18.898H20.1012V10.1709Z" fill="#999999"/>
<path d="M23.8516 9.08594C23.8516 9.24392 23.8062 9.39834 23.7213 9.52967C23.6363 9.661 23.5155 9.76333 23.3742 9.82372C23.233 9.8841 23.0775 9.89983 22.9276 9.86891C22.7777 9.83798 22.64 9.76179 22.532 9.64999C22.424 9.53818 22.3505 9.39578 22.3209 9.24081C22.2912 9.08584 22.3067 8.92525 22.3654 8.77939C22.4241 8.63352 22.5234 8.50893 22.6506 8.42138C22.7779 8.33382 22.9274 8.28724 23.0803 8.28753C23.1822 8.28554 23.2835 8.30485 23.378 8.34429C23.4726 8.38373 23.5584 8.44248 23.6305 8.51704C23.7025 8.5916 23.7592 8.68043 23.7972 8.77818C23.8352 8.87594 23.8537 8.98062 23.8516 9.08594V9.08594ZM23.9999 9.08594C24.0002 8.8976 23.9464 8.7134 23.8453 8.55667C23.7442 8.39995 23.6003 8.27774 23.432 8.20553C23.2636 8.13332 23.0783 8.11435 22.8995 8.15103C22.7208 8.1877 22.5565 8.27837 22.4276 8.41155C22.2987 8.54473 22.211 8.71444 22.1755 8.89918C22.14 9.08392 22.1584 9.27539 22.2282 9.44935C22.2981 9.6233 22.4164 9.77192 22.5681 9.87638C22.7197 9.98084 22.898 10.0364 23.0803 10.0362C23.2017 10.0385 23.3223 10.0156 23.4349 9.96867C23.5475 9.92176 23.6498 9.85186 23.7357 9.76314C23.8215 9.67443 23.8892 9.56873 23.9346 9.45237C23.98 9.33601 24.0022 9.21138 23.9999 9.08594V9.08594ZM23.4998 8.86116C23.5013 8.81743 23.4937 8.77389 23.4774 8.73351C23.4611 8.69313 23.4365 8.65686 23.4054 8.62719C23.3743 8.59753 23.3373 8.57516 23.2971 8.56163C23.2568 8.5481 23.2142 8.54373 23.1721 8.5488H22.7314V9.58513H22.9009V9.1852H23.0944L23.2908 9.58513H23.4928L23.2865 9.16622C23.3512 9.14954 23.4081 9.10978 23.4471 9.05395C23.4861 8.99813 23.5048 8.92984 23.4998 8.86116V8.86116ZM23.3275 8.86116C23.3275 8.96479 23.2583 9.00712 23.1665 9.00712H22.9009V8.7152H23.1665C23.1866 8.71225 23.2071 8.71384 23.2266 8.71985C23.2461 8.72585 23.2641 8.73614 23.2794 8.75C23.2947 8.76385 23.3069 8.78096 23.3152 8.80015C23.3235 8.81933 23.3277 8.84014 23.3275 8.86116Z" fill="#999999"/>
</g>
</g>
<defs>
<clipPath id="clip0_2391_1441">
<rect width="24" height="14.135" fill="white" transform="translate(0 4.92969)"/>
</clipPath>
</defs>
</svg>
