<svg width="24" height="24" viewBox="0 0 24 24" fill="none" xmlns="http://www.w3.org/2000/svg">
<g opacity="0.5">
<g clip-path="url(#clip0_2391_1418)">
<mask id="mask0_2391_1418" style="mask-type:luminance" maskUnits="userSpaceOnUse" x="0" y="0" width="24" height="24">
<path d="M24 0H0V23.9954H24V0Z" fill="white"/>
</mask>
<g mask="url(#mask0_2391_1418)">
<path d="M23.9969 12.0075C23.9969 18.6293 18.6214 24 12.0005 24C5.37961 24 0.00408936 18.6293 0.00408936 12.0075C0.00408936 5.38574 5.37529 0.0117188 12.0002 0.0117188C18.6252 0.0117188 23.9966 5.38166 23.9966 12.0075" fill="#999999"/>
</g>
<mask id="mask1_2391_1418" style="mask-type:luminance" maskUnits="userSpaceOnUse" x="0" y="0" width="24" height="24">
<path d="M24 0H0V23.9954H24V0Z" fill="white"/>
</mask>
<g mask="url(#mask1_2391_1418)">
<path d="M5.82047 9.16573C5.44271 8.93993 5.01599 8.87586 4.58495 8.93825C5.37119 8.10081 5.79839 7.18994 5.79839 6.27116C5.79935 6.18645 5.79527 6.10199 5.78615 6.018C5.74535 5.44595 5.48183 5.01739 5.07311 4.87246C4.66487 4.71937 3.91535 4.79664 2.72447 6.01393L2.00975 6.81441C1.81175 7.05533 1.06007 8.19271 0.921106 9.37737C0.688306 11.3911 0.837106 13.4002 1.34999 15.1821C1.40927 15.3901 1.60127 15.8928 2.06255 16.0788C2.55311 16.2787 3.01847 16.0378 3.43127 15.8252L3.54119 15.77L3.96623 15.5802L4.37855 15.3985L4.88111 15.1778C5.24279 15.0307 5.58167 14.8939 5.91239 14.6161C6.35279 14.242 6.67487 13.7479 6.83951 13.1938C6.93095 12.8807 6.98975 12.5592 7.01543 12.234C7.04183 11.9564 7.07063 11.417 6.96647 10.9435C6.73991 9.89999 6.22103 9.40136 5.82071 9.16573M2.00351 10.6698C2.00351 10.6779 2.02583 10.9342 2.02583 10.9342C2.01935 11.0083 2.07407 11.0736 2.14823 11.0801C2.18783 11.0834 2.22671 11.0695 2.25479 11.0415C2.70167 10.6654 3.38015 10.3297 3.92543 10.5174C4.35215 10.6654 4.64207 11.1055 4.79327 11.8275C5.10383 13.3409 4.06631 14.0697 3.41879 14.367L3.39623 14.3773L2.56703 14.7838C2.53511 14.7955 2.49983 14.7941 2.46911 14.7797C2.41799 14.7531 2.40407 14.7204 2.36903 14.6307C1.80551 12.5505 1.61327 10.3655 1.82375 8.32565C1.85207 8.14736 1.92431 7.97891 2.03423 7.83566L2.73071 7.093L2.80823 7.0083C3.18623 6.64093 3.54143 6.45688 3.73367 6.53679C3.89279 6.60397 3.93191 6.85928 3.93359 7.05941C3.96647 8.14376 3.35975 9.25187 2.08967 10.4452C2.02751 10.5025 1.99583 10.5858 2.00399 10.67" fill="white"/>
<path d="M15.2352 2.8441C15.0024 2.04553 14.6222 1.87805 14.5121 1.84133C13.5317 1.52675 12.4894 1.45525 11.4754 1.63281C9.96624 1.91068 8.66136 2.70301 7.7952 3.86295C6.88656 5.08336 6.5352 6.60539 6.80472 8.14518C7.07856 9.69096 7.8588 10.9433 9.07176 11.762C10.4933 12.7199 12.3845 13.0117 14.4065 12.5867C15.601 12.3276 16.5874 11.863 17.3515 11.2044C17.6926 10.9082 17.7576 10.5318 17.7576 10.2671C17.7576 10.2671 17.7761 10.0535 17.6105 9.38094C17.5658 9.21753 17.4943 9.16858 17.3798 9.16858C17.2963 9.16858 17.2085 9.26456 17.1919 9.28472C16.6222 9.94435 15.7541 10.4039 14.6695 10.6174C11.886 11.1523 9.74592 9.85245 9.21456 7.3039C8.988 6.20011 9.17592 5.14119 9.75168 4.32222C10.3298 3.4891 11.2774 2.93768 12.419 2.76636C13.2814 2.63798 14.1622 2.74596 14.9678 3.07902C14.9678 3.07902 15.3089 3.17764 15.2354 2.84386" fill="white"/>
</g>
</g>
</g>
<defs>
<clipPath id="clip0_2391_1418">
<rect width="24" height="24" fill="white"/>
</clipPath>
</defs>
</svg>
