<svg width="24" height="24" viewBox="0 0 24 24" fill="none" xmlns="http://www.w3.org/2000/svg">
<g opacity="0.5">
<path d="M1.8077 12.8823C0.727319 12.8823 6.10352e-05 13.7298 6.10352e-05 15.0001C6.10352e-05 16.2704 0.727529 17.1178 1.8077 17.1178C2.66948 17.1178 3.37067 16.5379 3.52957 15.6414H2.71088C2.59171 16.1037 2.28588 16.434 1.83166 16.434C1.18133 16.434 0.782599 15.8406 0.782599 14.9737C0.782599 14.1068 1.18196 13.5134 1.83166 13.5134C2.28588 13.5134 2.59171 13.8444 2.71088 14.306H3.51864C3.34229 13.4406 2.6535 12.8823 1.8077 12.8823Z" fill="#999999"/>
<path d="M10.544 7.93994C9.99488 7.93994 9.65987 8.21624 9.51555 8.3778C9.31734 8.06599 8.98941 7.93994 8.60437 7.93994C8.20343 7.93994 7.92919 8.1086 7.7707 8.24775V8.01495H7.05945V11.1166H7.7707V9.34383C7.7707 8.90642 7.96806 8.51983 8.41023 8.50052C8.83973 8.48188 8.99865 8.82098 8.99865 9.1441V11.1157H9.70969V9.34294C9.70969 8.90553 9.90726 8.51894 10.3494 8.49963C10.7716 8.48121 10.9325 8.81032 10.9372 9.12856V11.1152H11.6478V9.06487C11.6482 8.2837 11.1298 7.93994 10.544 7.93994Z" fill="#999999"/>
<path d="M16.884 9.56053C16.884 9.91758 16.7983 10.5638 16.2026 10.5638C15.6924 10.5638 15.589 10.1519 15.589 9.87209V7.93994H14.8247V9.98815C14.8247 10.7167 15.2874 11.1166 15.9692 11.1166C16.3641 11.1166 16.6782 10.975 16.884 10.7591V11.0418H17.6483V7.93994H16.884V9.56053Z" fill="#999999"/>
<path d="M19.6469 7.93994C19.2063 7.93994 18.9276 8.10883 18.7584 8.26595V8.01473H18.0007V11.1163H18.7584V9.34361C18.7584 8.9062 18.9832 8.51916 19.4543 8.5003C19.9035 8.48232 20.0607 8.82098 20.066 9.13988V11.1166H20.8243V9.0449C20.8243 8.32698 20.2721 7.93994 19.6469 7.93994Z" fill="#999999"/>
<path d="M13.5326 9.26452C12.9873 9.12086 12.7832 9.01758 12.7832 8.81591C12.7832 8.58895 13.0279 8.46144 13.2799 8.47738C13.5814 8.49629 13.7464 8.65653 13.7862 8.87988H14.4223C14.376 8.3486 13.935 7.93994 13.246 7.93994C12.6095 7.93994 12.072 8.29568 12.0817 8.85714C12.0885 9.25156 12.3488 9.49807 12.7301 9.64853C13.1467 9.8128 13.7084 9.87336 13.7575 10.1543C13.8066 10.4352 13.5295 10.5919 13.2157 10.5562C12.9441 10.5251 12.7898 10.3862 12.718 10.1462H12.0005C12.1198 10.7721 12.5946 11.1166 13.2688 11.1166C13.9792 11.1166 14.483 10.6915 14.4709 10.139C14.4574 9.52867 13.8207 9.34081 13.5326 9.26452Z" fill="#999999"/>
<path d="M23.2957 8.27428V8.28123C23.0948 8.07081 22.8249 7.93994 22.482 7.93994C21.641 7.93994 21.1765 8.54296 21.1765 9.46575C21.1765 10.3885 21.641 10.9918 22.482 10.9918C22.8293 10.9918 23.1018 10.8572 23.3034 10.6422V10.779C23.3034 11.192 23.1508 11.5576 22.6689 11.5857C22.1476 11.6159 21.9957 11.2642 21.9756 11.1881H21.2824C21.3729 11.6646 21.7719 12.1754 22.6212 12.1754C23.5256 12.1754 24.0001 11.532 24.0001 10.6755V8.04515H23.2957V8.27428ZM22.5725 10.4231C22.1186 10.4148 21.8815 10.0201 21.8815 9.46662C21.8815 8.90642 22.1235 8.5084 22.5869 8.5084C23.0503 8.5084 23.2862 8.91099 23.2862 9.46249C23.2853 10.0077 23.0275 10.4148 22.5725 10.4231Z" fill="#999999"/>
<path d="M5.67552 8.26853V8.27533C5.48253 8.06853 5.20258 7.93994 4.87277 7.93994C4.06414 7.93994 3.52917 8.59052 3.52917 9.52825C3.52917 10.466 4.06414 11.1166 4.87277 11.1166C5.20258 11.1166 5.48253 10.9878 5.67552 10.7812V10.788V11.0133H6.35278V8.04324H5.67552V8.26853ZM4.94574 10.5586C4.49977 10.5586 4.20624 10.1463 4.20624 9.52825C4.20624 8.91018 4.50018 8.49764 4.94574 8.49764C5.39131 8.49764 5.66477 8.95907 5.66477 9.52825C5.66477 10.0974 5.39192 10.5586 4.94635 10.5586H4.94574Z" fill="#999999"/>
<path d="M11.5908 14.1552V14.1622C11.3737 13.9471 11.0588 13.8133 10.6877 13.8133C9.77815 13.8133 9.17627 14.4901 9.17627 15.4656C9.17627 16.441 9.77815 17.1178 10.6877 17.1178C11.0588 17.1178 11.3737 16.9838 11.5908 16.7689V16.776V17.0104H12.3528V12.8823H11.5908V14.1552ZM10.7698 16.5374C10.268 16.5374 9.93802 16.1085 9.93802 15.4656C9.93802 14.8226 10.2685 14.3935 10.7698 14.3935C11.2711 14.3935 11.5788 14.8735 11.5788 15.4656C11.5788 16.0577 11.272 16.5374 10.7705 16.5374H10.7698Z" fill="#999999"/>
<path d="M6.02863 14.269V14.2758C5.83565 14.069 5.5557 13.9404 5.22589 13.9404C4.41726 13.9404 3.88229 14.591 3.88229 15.5287C3.88229 16.4665 4.41726 17.117 5.22589 17.117C5.5557 17.117 5.83565 16.9882 6.02863 16.7817V16.7885V17.0137H6.7059V14.0437H6.02863V14.269ZM5.29886 16.5591C4.85289 16.5591 4.55936 16.1468 4.55936 15.5287C4.55936 14.9107 4.8533 14.4981 5.29886 14.4981C5.74443 14.4981 6.01789 14.9596 6.01789 15.5287C6.01789 16.0979 5.74504 16.5591 5.29947 16.5591H5.29886Z" fill="#999999"/>
<path d="M1.82545 8.66222C1.11535 8.45097 0.98221 8.26059 0.954694 8.02783C0.925624 7.78453 1.11003 7.46078 1.58646 7.46078C2.06288 7.46078 2.22576 7.80389 2.2626 7.99686H3.07344C2.9718 7.23663 2.3427 6.88232 1.58934 6.88232C0.835975 6.88232 0.108795 7.28266 0.108795 8.04827C0.108795 8.77967 0.744994 9.03782 1.44022 9.2609C2.09883 9.473 2.34515 9.60509 2.34515 9.93529C2.34515 10.2386 2.07354 10.4959 1.64814 10.4959C1.22275 10.4959 0.929841 10.33 0.818889 9.9624H6.10352e-05C0.0666323 10.3875 0.475824 11.1178 1.57736 11.1178C2.65958 11.1178 3.17662 10.5155 3.17662 9.87011C3.17729 9.13699 2.50802 8.86615 1.82545 8.66222Z" fill="#999999"/>
<path d="M8.53967 14.0574C8.36636 14.1352 8.23591 14.24 8.1483 14.372V13.9816H7.41238V17.117H8.1483C8.1483 17.117 8.15182 15.9959 8.14962 15.8157C8.14677 15.5796 8.13138 15.3392 8.23598 15.1199C8.40694 14.761 8.7972 14.5645 9.17714 14.5752V13.946C9.1399 13.9422 9.1025 13.9404 9.06507 13.9404C8.88367 13.9401 8.70438 13.98 8.53967 14.0574Z" fill="#999999"/>
</g>
</svg>
