<svg width="24" height="24" viewBox="0 0 24 24" fill="none" xmlns="http://www.w3.org/2000/svg">
<path d="M15.685 14.0298C15.6319 13.7007 15.5378 13.3796 15.4048 13.0739C15.0249 12.1588 14.3627 11.389 13.5148 10.8763C12.8502 10.4772 12.0886 10.2687 11.3133 10.2735C10.538 10.2784 9.77906 10.4964 9.11946 10.9038C8.50579 11.2726 8.00726 11.8053 7.67998 12.4421C7.5719 12.6596 7.48186 12.8856 7.41076 13.1178C7.20961 13.7216 7.13221 14.3597 7.18319 14.994C7.23416 15.6283 7.41246 16.2459 7.70745 16.8098C7.90996 17.1562 8.22078 17.4265 8.59201 17.5789C8.77604 17.6549 8.97538 17.6866 9.1739 17.6713C9.37243 17.656 9.56458 17.5943 9.73481 17.491C9.92491 17.344 10.0671 17.1439 10.1434 16.916C10.2197 16.6881 10.2266 16.4428 10.1634 16.2109C10.0134 15.623 10.0286 15.0052 10.2073 14.4254C10.2735 14.2361 10.3804 14.0636 10.5205 13.92C10.6093 13.8345 10.7113 13.764 10.8227 13.7112C11.0565 13.5925 11.3217 13.5503 11.5809 13.5903C11.8024 13.6384 12.0094 13.7381 12.185 13.8813C12.3607 14.0245 12.5001 14.2072 12.5918 14.4144C12.7711 14.8329 12.8645 15.2832 12.8665 15.7384C12.8737 17.7438 12.5774 19.7387 11.9874 21.6554C11.938 21.8532 11.8831 22.0455 11.8281 22.2378C11.7732 22.4301 11.7072 22.5784 11.8281 22.7267C11.8737 22.7858 11.9345 22.8314 12.0039 22.8586C12.3006 22.9794 12.5533 22.7981 12.7347 22.6004C13.8538 21.4043 14.6779 19.9631 15.1411 18.392C15.3335 17.8149 15.4877 17.2258 15.6026 16.6285C15.7811 15.7682 15.8108 14.8837 15.6905 14.0134" fill="#008485"/>
<path d="M23.978 4.90729C23.9753 4.83892 23.9587 4.77181 23.9293 4.71003C23.8999 4.64825 23.8582 4.59308 23.8069 4.54788C23.7555 4.50267 23.6955 4.46837 23.6305 4.44705C23.5654 4.42572 23.4968 4.41782 23.4286 4.42382C23.1452 4.46451 22.8704 4.55176 22.6155 4.68204C17.5223 6.6159 11.7809 6.98399 6.413 6.20935C5.49547 6.0775 4.56695 5.8962 3.66589 5.74786C3.11647 5.65996 2.5176 5.52811 1.93521 5.48416C1.41111 5.38273 0.86807 5.487 0.418813 5.77533C0.18683 6.02839 0.0427883 6.3496 0.0081381 6.69113C-0.0265121 7.03267 0.0500837 7.37625 0.226516 7.67074C0.619723 8.34268 1.18986 8.89379 1.87478 9.26398C2.50735 9.71463 3.25788 9.97052 4.03401 10.0002C6.08335 9.8738 8.1327 9.67053 10.1711 9.40682C13.6489 8.95632 17.3135 8.52779 20.5551 7.18178C21.6402 6.75397 22.6623 6.18105 23.5934 5.47867C23.7583 5.3523 24 5.14354 24 4.92927" fill="#008485"/>
<path d="M9.37109 3.15784C9.39797 3.67081 9.62068 4.1539 9.99331 4.50749C10.3659 4.86108 10.86 5.0582 11.3737 5.0582C11.8874 5.0582 12.3815 4.86108 12.7542 4.50749C13.1268 4.1539 13.3495 3.67081 13.3764 3.15784C13.3779 2.9927 13.3423 2.82932 13.272 2.67987C13.1017 2.31177 12.9039 2.13047 12.9258 1.70195C12.9258 1.1141 12.1951 1.10311 11.7885 1.10311C11.3363 1.0884 10.8869 1.17866 10.4754 1.36682C10.1515 1.53155 9.87824 1.781 9.68475 2.08862C9.49126 2.39625 9.38476 2.75057 9.37658 3.11389V3.15784" fill="#E90061"/>
</svg>
