<svg width="24" height="24" viewBox="0 0 24 24" fill="none" xmlns="http://www.w3.org/2000/svg">
<g opacity="0.5">
<path d="M15.6868 14.0303C15.6337 13.7012 15.5395 13.3801 15.4066 13.0744C15.0266 12.1593 14.3645 11.3895 13.5166 10.8768C12.852 10.4777 12.0903 10.2692 11.3151 10.274C10.5398 10.2789 9.78083 10.4969 9.12123 10.9043C8.50756 11.2731 8.00903 11.8058 7.68175 12.4426C7.57367 12.6601 7.48363 12.8861 7.41253 13.1183C7.21138 13.7221 7.13398 14.3602 7.18496 14.9945C7.23593 15.6288 7.41423 16.2464 7.70922 16.8103C7.91173 17.1567 8.22255 17.427 8.59378 17.5794C8.77781 17.6554 8.97715 17.6871 9.17567 17.6718C9.3742 17.6565 9.56635 17.5948 9.73658 17.4915C9.92668 17.3445 10.0689 17.1444 10.1452 16.9165C10.2214 16.6886 10.2284 16.4432 10.1651 16.2114C10.0152 15.6235 10.0304 15.0057 10.2091 14.4259C10.2753 14.2366 10.3822 14.064 10.5223 13.9204C10.6111 13.835 10.7131 13.7645 10.8244 13.7117C11.0583 13.593 11.3235 13.5507 11.5826 13.5908C11.8041 13.6389 12.0111 13.7386 12.1868 13.8818C12.3625 14.025 12.5018 14.2077 12.5936 14.4149C12.7729 14.8334 12.8663 15.2837 12.8683 15.7389C12.8755 17.7443 12.5791 19.7392 11.9892 21.6559C11.9398 21.8537 11.8848 22.046 11.8299 22.2383C11.7749 22.4305 11.709 22.5789 11.8299 22.7272C11.8755 22.7863 11.9362 22.8318 12.0057 22.8591C12.3024 22.9799 12.5551 22.7986 12.7364 22.6009C13.8556 21.4048 14.6797 19.9636 15.1429 18.3925C15.3353 17.8154 15.4894 17.2263 15.6044 16.6289C15.7829 15.7687 15.8126 14.8842 15.6923 14.0138" fill="#999999"/>
<path d="M23.978 4.90534C23.9753 4.83697 23.9587 4.76986 23.9293 4.70808C23.8999 4.6463 23.8582 4.59113 23.8069 4.54592C23.7555 4.50072 23.6955 4.46642 23.6305 4.44509C23.5654 4.42377 23.4968 4.41587 23.4286 4.42187C23.1452 4.46256 22.8704 4.54981 22.6155 4.68009C17.5223 6.61395 11.7809 6.98204 6.413 6.2074C5.49547 6.07554 4.56695 5.89425 3.66589 5.74591C3.11647 5.65801 2.5176 5.52615 1.93521 5.4822C1.41111 5.38077 0.86807 5.48505 0.418813 5.77338C0.18683 6.02643 0.0427883 6.34765 0.0081381 6.68918C-0.0265121 7.03071 0.0500837 7.3743 0.226516 7.66878C0.619723 8.34073 1.18986 8.89184 1.87478 9.26203C2.50735 9.71267 3.25788 9.96856 4.03401 9.99821C6.08335 9.87185 8.1327 9.66857 10.1711 9.40487C13.6489 8.95436 17.3135 8.52584 20.5551 7.17982C21.6402 6.75201 22.6623 6.1791 23.5934 5.47671C23.7583 5.35035 24 5.14158 24 4.92732" fill="#999999"/>
<path d="M9.37018 3.15784C9.39706 3.67081 9.61977 4.1539 9.99239 4.50749C10.365 4.86108 10.8591 5.0582 11.3728 5.0582C11.8865 5.0582 12.3806 4.86108 12.7532 4.50749C13.1259 4.1539 13.3486 3.67081 13.3755 3.15784C13.377 2.9927 13.3413 2.82932 13.2711 2.67987C13.1008 2.31177 12.903 2.13047 12.9249 1.70195C12.9249 1.1141 12.1942 1.10311 11.7876 1.10311C11.3354 1.0884 10.886 1.17866 10.4745 1.36682C10.1506 1.53155 9.87732 1.781 9.68383 2.08862C9.49035 2.39625 9.38385 2.75057 9.37567 3.11389V3.15784" fill="#999999"/>
</g>
</svg>
