<svg width="24" height="24" viewBox="0 0 24 24" fill="none" xmlns="http://www.w3.org/2000/svg">
<path d="M1.80764 12.8828C0.727258 12.8828 0 13.7303 0 15.0006C0 16.2709 0.727468 17.1183 1.80764 17.1183C2.66941 17.1183 3.37061 16.5384 3.52951 15.6419H2.71082C2.59164 16.1042 2.28582 16.4345 1.8316 16.4345C1.18127 16.4345 0.782538 15.8411 0.782538 14.9742C0.782538 14.1073 1.1819 13.5139 1.8316 13.5139C2.28582 13.5139 2.59164 13.8449 2.71082 14.3065H3.51858C3.34223 13.4411 2.65344 12.8828 1.80764 12.8828Z" fill="#1666FF"/>
<path d="M10.5431 7.9375C9.99402 7.9375 9.65901 8.21379 9.5147 8.37535C9.31648 8.06355 8.98856 7.9375 8.60351 7.9375C8.20257 7.9375 7.92833 8.10616 7.76985 8.24531V8.01251H7.05859V11.1141H7.76985V9.34139C7.76985 8.90398 7.9672 8.51739 8.40938 8.49808C8.83888 8.47944 8.99779 8.81854 8.99779 9.14166V11.1132H9.70883V9.3405C9.70883 8.90309 9.9064 8.5165 10.3486 8.49719C10.7708 8.47877 10.9316 8.80788 10.9363 9.12612V11.1128H11.647V9.06243C11.6474 8.28126 11.129 7.9375 10.5431 7.9375Z" fill="#1666FF"/>
<path d="M16.8835 9.55809C16.8835 9.91514 16.7978 10.5613 16.2021 10.5613C15.6919 10.5613 15.5885 10.1495 15.5885 9.86965V7.9375H14.8242V9.98571C14.8242 10.7142 15.2869 11.1141 15.9687 11.1141C16.3636 11.1141 16.6777 10.9725 16.8835 10.7566V11.0393H17.6478V7.9375H16.8835V9.55809Z" fill="#1666FF"/>
<path d="M19.6462 7.9375C19.2056 7.9375 18.9269 8.10638 18.7577 8.26351V8.01229H18V11.1139H18.7577V9.34116C18.7577 8.90375 18.9825 8.51672 19.4536 8.49786C19.9028 8.47988 20.06 8.81854 20.0653 9.13744V11.1141H20.8236V9.04246C20.8236 8.32453 20.2714 7.9375 19.6462 7.9375Z" fill="#1666FF"/>
<path d="M13.5321 9.26208C12.9868 9.11842 12.7827 9.01514 12.7827 8.81347C12.7827 8.58651 13.0274 8.459 13.2794 8.47494C13.5809 8.49385 13.7459 8.65409 13.7857 8.87743H14.4218C14.3755 8.34616 13.9345 7.9375 13.2455 7.9375C12.609 7.9375 12.0715 8.29324 12.0812 8.8547C12.088 9.24912 12.3483 9.49563 12.7296 9.64609C13.1462 9.81036 13.7079 9.87092 13.757 10.1519C13.8061 10.4328 13.529 10.5894 13.2152 10.5537C12.9436 10.5227 12.7894 10.3837 12.7175 10.1438H12C12.1193 10.7696 12.5941 11.1141 13.2683 11.1141C13.9787 11.1141 14.4826 10.6891 14.4704 10.1366C14.4569 9.52623 13.8202 9.33837 13.5321 9.26208Z" fill="#1666FF"/>
<path d="M23.295 8.27183V8.27879C23.0941 8.06836 22.8242 7.9375 22.4813 7.9375C21.6403 7.9375 21.1758 8.54052 21.1758 9.46331C21.1758 10.3861 21.6403 10.9893 22.4813 10.9893C22.8286 10.9893 23.1011 10.8548 23.3027 10.6398V10.7765C23.3027 11.1895 23.1501 11.5552 22.6682 11.5832C22.1469 11.6134 21.995 11.2617 21.9749 11.1856H21.2817C21.3722 11.6621 21.7712 12.173 22.6205 12.173C23.5249 12.173 23.9994 11.5295 23.9994 10.673V8.04271H23.295V8.27183ZM22.5718 10.4207C22.1179 10.4124 21.8808 10.0176 21.8808 9.46418C21.8808 8.90398 22.1228 8.50595 22.5862 8.50595C23.0496 8.50595 23.2855 8.90855 23.2855 9.46005C23.2846 10.0052 23.0268 10.4124 22.5718 10.4207Z" fill="#1666FF"/>
<path d="M5.67368 8.26609V8.27289C5.4807 8.06609 5.20075 7.9375 4.87094 7.9375C4.06231 7.9375 3.52734 8.58808 3.52734 9.52581C3.52734 10.4635 4.06231 11.1141 4.87094 11.1141C5.20075 11.1141 5.4807 10.9853 5.67368 10.7787V10.7855V11.0108H6.35095V8.04079H5.67368V8.26609ZM4.94391 10.5562C4.49794 10.5562 4.20441 10.1439 4.20441 9.52581C4.20441 8.90774 4.49835 8.4952 4.94391 8.4952C5.38948 8.4952 5.66294 8.95663 5.66294 9.52581C5.66294 10.095 5.39009 10.5562 4.94452 10.5562H4.94391Z" fill="#1666FF"/>
<path d="M11.5904 14.1556V14.1627C11.3732 13.9476 11.0583 13.8138 10.6872 13.8138C9.77766 13.8138 9.17578 14.4906 9.17578 15.4661C9.17578 16.4415 9.77766 17.1183 10.6872 17.1183C11.0583 17.1183 11.3732 16.9843 11.5904 16.7694V16.7765V17.0108H12.3523V12.8828H11.5904V14.1556ZM10.7693 16.5379C10.2676 16.5379 9.93753 16.109 9.93753 15.4661C9.93753 14.8231 10.268 14.394 10.7693 14.394C11.2706 14.394 11.5783 14.874 11.5783 15.4661C11.5783 16.0582 11.2715 16.5379 10.77 16.5379H10.7693Z" fill="#1666FF"/>
<path d="M6.02915 14.2661V14.2729C5.83617 14.0661 5.55622 13.9375 5.2264 13.9375C4.41778 13.9375 3.88281 14.5881 3.88281 15.5258C3.88281 16.4635 4.41778 17.1141 5.2264 17.1141C5.55622 17.1141 5.83617 16.9853 6.02915 16.7787V16.7855V17.0108H6.70642V14.0408H6.02915V14.2661ZM5.29938 16.5562C4.85341 16.5562 4.55988 16.1439 4.55988 15.5258C4.55988 14.9077 4.85381 14.4952 5.29938 14.4952C5.74495 14.4952 6.01841 14.9566 6.01841 15.5258C6.01841 16.095 5.74556 16.5562 5.29999 16.5562H5.29938Z" fill="#1666FF"/>
<path d="M1.82539 8.66271C1.11529 8.45146 0.982149 8.26108 0.954633 8.02832C0.925563 7.78502 1.10997 7.46127 1.5864 7.46127C2.06282 7.46127 2.2257 7.80438 2.26254 7.99734H3.07338C2.97174 7.23711 2.34264 6.88281 1.58928 6.88281C0.835913 6.88281 0.108734 7.28315 0.108734 8.04876C0.108734 8.78016 0.744933 9.0383 1.44016 9.26138C2.09877 9.47349 2.34509 9.60557 2.34509 9.93578C2.34509 10.2391 2.07347 10.4964 1.64808 10.4964C1.22269 10.4964 0.92978 10.3305 0.818828 9.96289H0C0.0665713 10.388 0.475763 11.1183 1.5773 11.1183C2.65952 11.1183 3.17656 10.516 3.17656 9.8706C3.17723 9.13747 2.50796 8.86664 1.82539 8.66271Z" fill="#1666FF"/>
<path d="M8.54134 14.0544C8.36804 14.1323 8.23759 14.2371 8.14998 14.369V13.9786H7.41406V17.1141H8.14998C8.14998 17.1141 8.1535 15.993 8.1513 15.8128C8.14844 15.5767 8.13306 15.3363 8.23766 15.117C8.40862 14.7581 8.79888 14.5616 9.17882 14.5723V13.9431C9.14158 13.9393 9.10418 13.9374 9.06675 13.9375C8.88535 13.9372 8.70606 13.9771 8.54134 14.0544Z" fill="#1666FF"/>
</svg>
