<svg width="56" height="56" viewBox="0 0 56 56" fill="none" xmlns="http://www.w3.org/2000/svg">
<g id="_&#235;&#160;&#136;&#236;&#157;&#180;&#236;&#150;&#180;_1" clip-path="url(#clip0_9738_122399)">
<g id="32, Microsoft, Tasks">
<g id="Group">
<path id="Vector" d="M3.27718 50.5811C4.72524 50.5811 5.8981 51.6589 5.8981 52.9897C5.8981 54.3204 4.72524 55.3983 3.27718 55.3983C1.82911 55.3983 0.65625 54.3204 0.65625 52.9897C0.65625 51.6589 1.82911 50.5811 3.27718 50.5811Z" fill="#BD76FF"/>
<path id="Vector_2" d="M45.2137 0.602539C47.0234 0.602539 48.4898 1.95015 48.4898 3.61329C48.4898 5.27643 47.0234 6.62404 45.2137 6.62404C43.4039 6.62404 41.9375 5.27643 41.9375 3.61329C41.9375 1.95015 43.4039 0.602539 45.2137 0.602539Z" fill="#BD76FF"/>
<path id="Vector_3" d="M49.8 26.4948V47.5701H6.55469V7.82812H39.3163V12.6453H11.7965V42.7529H44.5581V26.4948H49.8Z" fill="#BD76FF"/>
<path id="Vector_4" d="M55.3478 11.7218L32.1028 33.0837L27.393 37.412L22.6832 33.0837L15.6172 26.5901L20.3283 22.2619L27.393 28.7542L50.638 7.39355L55.3478 11.7218Z" fill="white"/>
<path id="Vector_5" d="M54.7094 21.6775C55.2522 21.6775 55.6923 21.2732 55.6923 20.7743C55.6923 20.2755 55.2522 19.8711 54.7094 19.8711C54.1666 19.8711 53.7266 20.2755 53.7266 20.7743C53.7266 21.2732 54.1666 21.6775 54.7094 21.6775Z" fill="#5F0080"/>
<path id="Vector_6" d="M53.4047 36.1287C53.9475 36.1287 54.3876 35.7243 54.3876 35.2255C54.3876 34.7267 53.9475 34.3223 53.4047 34.3223C52.8619 34.3223 52.4219 34.7267 52.4219 35.2255C52.4219 35.7243 52.8619 36.1287 53.4047 36.1287Z" fill="#5F0080"/>
<path id="Vector_7" d="M38.9828 53.5916C39.5257 53.5916 39.9657 53.1872 39.9657 52.6884C39.9657 52.1895 39.5257 51.7852 38.9828 51.7852C38.44 51.7852 38 52.1895 38 52.6884C38 53.1872 38.44 53.5916 38.9828 53.5916Z" fill="#5F0080"/>
<path id="Vector_8" d="M35.0532 2.40899C35.596 2.40899 36.036 2.0046 36.036 1.50576C36.036 1.00693 35.596 0.602539 35.0532 0.602539C34.5103 0.602539 34.0703 1.00693 34.0703 1.50576C34.0703 2.0046 34.5103 2.40899 35.0532 2.40899Z" fill="#5F0080"/>
<path id="Vector_9" d="M11.4672 1.80645C12.01 1.80645 12.4501 1.40206 12.4501 0.903226C12.4501 0.404388 12.01 0 11.4672 0C10.9244 0 10.4844 0.404388 10.4844 0.903226C10.4844 1.40206 10.9244 1.80645 11.4672 1.80645Z" fill="#5F0080"/>
<path id="Vector_10" d="M2.9516 37.3338C3.49441 37.3338 3.93444 36.9294 3.93444 36.4306C3.93444 35.9317 3.49441 35.5273 2.9516 35.5273C2.40879 35.5273 1.96875 35.9317 1.96875 36.4306C1.96875 36.9294 2.40879 37.3338 2.9516 37.3338Z" fill="#5F0080"/>
<path id="Vector_11" d="M1.6391 15.0535C2.18191 15.0535 2.62194 14.6491 2.62194 14.1503C2.62194 13.6515 2.18191 13.2471 1.6391 13.2471C1.09629 13.2471 0.65625 13.6515 0.65625 14.1503C0.65625 14.6491 1.09629 15.0535 1.6391 15.0535Z" fill="#5F0080"/>
<path id="Vector_12" d="M27.392 38.014C27.2177 38.014 27.0513 37.9502 26.9281 37.8382L15.1523 27.0163C15.0291 26.9031 14.9609 26.7502 14.9609 26.59C14.9609 26.4299 15.0304 26.2769 15.1523 26.1637L19.8634 21.8354C20.1189 21.6006 20.5343 21.6006 20.7899 21.8354L27.3907 27.9027L50.1731 6.96714C50.4286 6.73231 50.844 6.73231 51.0996 6.96714L55.8094 11.2954C55.9326 11.4086 56.0007 11.5616 56.0007 11.7217C56.0007 11.8819 55.9312 12.0348 55.8094 12.148L27.8546 37.8382C27.7314 37.9514 27.565 38.014 27.3907 38.014H27.392ZM16.5427 26.59L27.392 36.5604L54.4203 11.7217L50.637 8.24491L27.8546 29.1793C27.599 29.4141 27.1836 29.4141 26.9281 29.1793L20.326 23.1132L16.5414 26.59H16.5427Z" fill="#5F0080"/>
<path id="Vector_13" d="M49.7989 48.1718H6.55367C6.19198 48.1718 5.89844 47.9021 5.89844 47.5697V7.82774C5.89844 7.49535 6.19198 7.22559 6.55367 7.22559H39.3152C39.6769 7.22559 39.9705 7.49535 39.9705 7.82774V12.6449C39.9705 12.9773 39.6769 13.2471 39.3152 13.2471H12.4508V42.1503H43.9019V26.4944C43.9019 26.162 44.1954 25.8923 44.5571 25.8923H49.7989C50.1606 25.8923 50.4542 26.162 50.4542 26.4944V47.5697C50.4542 47.9021 50.1606 48.1718 49.7989 48.1718ZM7.2089 46.9675H49.1437V27.0966H45.2123V42.7525C45.2123 43.0849 44.9188 43.3546 44.5571 43.3546H11.7955C11.4338 43.3546 11.1403 43.0849 11.1403 42.7525V12.6449C11.1403 12.3126 11.4338 12.0428 11.7955 12.0428H38.66V8.42989H7.2089V46.9675Z" fill="#5F0080"/>
<path id="Vector_14" d="M45.2126 7.22581C43.0451 7.22581 41.2812 5.60482 41.2812 3.6129C41.2812 1.62099 43.0451 0 45.2126 0C47.3801 0 49.144 1.62099 49.144 3.6129C49.144 5.60482 47.3801 7.22581 45.2126 7.22581ZM45.2126 1.2043C43.7672 1.2043 42.5917 2.28456 42.5917 3.6129C42.5917 4.94125 43.7672 6.02151 45.2126 6.02151C46.6581 6.02151 47.8336 4.94125 47.8336 3.6129C47.8336 2.28456 46.6581 1.2043 45.2126 1.2043Z" fill="#5F0080"/>
<path id="Vector_15" d="M3.27616 56C1.47034 56 0 54.65 0 52.9893C0 51.3285 1.47034 49.9785 3.27616 49.9785C5.08197 49.9785 6.55231 51.3285 6.55231 52.9893C6.55231 54.65 5.08328 56 3.27616 56ZM3.27616 51.1828C2.1924 51.1828 1.31046 51.9933 1.31046 52.9893C1.31046 53.9852 2.1924 54.7957 3.27616 54.7957C4.35991 54.7957 5.24185 53.9852 5.24185 52.9893C5.24185 51.9933 4.35991 51.1828 3.27616 51.1828Z" fill="#5F0080"/>
</g>
</g>
</g>
<defs>
<clipPath id="clip0_9738_122399">
<rect width="56" height="56" fill="white"/>
</clipPath>
</defs>
</svg>
