<svg width="56" height="56" viewBox="0 0 56 56" fill="none" xmlns="http://www.w3.org/2000/svg">
<path d="M50.7641 24.4776L50.0054 11.5864C49.7525 7.29661 46.1889 3.93652 41.8918 3.93652H13.7466C9.44957 3.93652 5.88595 7.29661 5.63304 11.5864L4.87431 24.4776C4.15099 32.4976 7.67751 40.3862 14.2862 45.1788L27.8192 54.9905L41.3535 45.1788C47.9231 40.4127 51.4914 32.542 50.7641 24.4776Z" fill="#BD76FF"/>
<path d="M52.3858 41.1406C54.049 41.1406 55.3967 42.4883 55.3967 44.1515C55.3967 45.8146 54.049 47.1623 52.3858 47.1623C50.7226 47.1623 49.375 45.8146 49.375 44.1515C49.375 42.4883 50.7226 41.1406 52.3858 41.1406Z" fill="#BD76FF"/>
<path d="M7.82453 54.9909C10.1525 54.9909 12.0397 53.1037 12.0397 50.7757C12.0397 48.4477 10.1525 46.5605 7.82453 46.5605C5.49657 46.5605 3.60938 48.4477 3.60938 50.7757C3.60938 53.1037 5.49657 54.9909 7.82453 54.9909Z" fill="#BD76FF"/>
<path d="M47.2793 24.7407C47.9188 31.6078 44.885 38.3027 39.3018 42.3517L36.8184 44.1521H18.8197L16.3352 42.3517C10.7519 38.3027 7.7182 31.6078 8.3577 24.7407L9.11883 11.793C11.5733 11.793 13.6026 9.8793 13.7471 7.42969H41.8911C42.0344 9.8793 44.0637 11.793 46.5181 11.793L47.2793 24.7407Z" fill="white"/>
<path d="M53.8954 36.3236C54.3943 36.3236 54.7987 35.9192 54.7987 35.4203C54.7987 34.9215 54.3943 34.5171 53.8954 34.5171C53.3966 34.5171 52.9922 34.9215 52.9922 35.4203C52.9922 35.9192 53.3966 36.3236 53.8954 36.3236Z" fill="#5F0080"/>
<path d="M50.8837 5.0106C51.3826 5.0106 51.787 4.6062 51.787 4.10735C51.787 3.6085 51.3826 3.2041 50.8837 3.2041C50.3849 3.2041 49.9805 3.6085 49.9805 4.10735C49.9805 4.6062 50.3849 5.0106 50.8837 5.0106Z" fill="#5F0080"/>
<path d="M43.6572 51.3778C44.156 51.3778 44.5604 50.9734 44.5604 50.4745C44.5604 49.9757 44.156 49.5713 43.6572 49.5713C43.1583 49.5713 42.7539 49.9757 42.7539 50.4745C42.7539 50.9734 43.1583 51.3778 43.6572 51.3778Z" fill="#5F0080"/>
<path d="M36.8229 44.1514L27.823 50.6764L18.8242 44.1514H36.8229Z" fill="white"/>
<path d="M36.5232 18.1621C37.2181 18.857 37.2181 19.9843 36.5232 20.6792L35.4779 21.7245L29.602 27.6004L27.0861 30.1163L24.5691 27.6004L23.3105 26.3419C22.9637 25.9951 22.7891 25.5386 22.7891 25.0834C22.7891 24.6282 22.9637 24.1717 23.3105 23.8249C24.0054 23.13 25.1327 23.13 25.8276 23.8249L27.0861 25.0834L33.1812 18.9883L34.0074 18.1621C34.3543 17.8153 34.8095 17.6406 35.2647 17.6406C35.72 17.6406 36.1752 17.8153 36.5232 18.1621Z" fill="white"/>
<path d="M35.4769 21.7246C36.1585 22.9819 36.5475 24.4211 36.5475 25.947C36.5475 30.8245 32.5516 34.8205 27.674 34.8205C22.7772 34.8205 18.7812 30.8245 18.7812 25.947C18.7812 21.0502 22.7772 17.0542 27.674 17.0542C29.7491 17.0542 31.664 17.7792 33.1802 18.9884L27.0851 25.0835L25.8266 23.8249C25.1317 23.13 24.0044 23.13 23.3095 23.8249C22.9627 24.1718 22.7881 24.6282 22.7881 25.0835C22.7881 25.5387 22.9627 25.9951 23.3095 26.342L24.5681 27.6005L27.0851 30.1164L29.601 27.6005L35.4769 21.7246Z" fill="#BD76FF"/>
<path d="M19.5673 53.786C20.0662 53.786 20.4706 53.3816 20.4706 52.8827C20.4706 52.3839 20.0662 51.9795 19.5673 51.9795C19.0685 51.9795 18.6641 52.3839 18.6641 52.8827C18.6641 53.3816 19.0685 53.786 19.5673 53.786Z" fill="#5F0080"/>
<path d="M4.51262 3.8065C5.01147 3.8065 5.41587 3.4021 5.41587 2.90325C5.41587 2.4044 5.01147 2 4.51262 2C4.01377 2 3.60938 2.4044 3.60938 2.90325C3.60938 3.4021 4.01377 3.8065 4.51262 3.8065Z" fill="#5F0080"/>
<path d="M3.3095 40.5384C3.80835 40.5384 4.21275 40.134 4.21275 39.6352C4.21275 39.1363 3.80835 38.7319 3.3095 38.7319C2.81065 38.7319 2.40625 39.1363 2.40625 39.6352C2.40625 40.134 2.81065 40.5384 3.3095 40.5384Z" fill="#5F0080"/>
<path d="M0.903248 23.6781C1.4021 23.6781 1.8065 23.2737 1.8065 22.7748C1.8065 22.276 1.4021 21.8716 0.903248 21.8716C0.404398 21.8716 0 22.276 0 22.7748C0 23.2737 0.404398 23.6781 0.903248 23.6781Z" fill="#5F0080"/>
<path d="M27.8232 55.5923C27.6991 55.5923 27.5751 55.5541 27.4697 55.4776L13.9366 45.666C10.6216 43.2618 7.97676 40.0204 6.28805 36.2919C4.60897 32.5856 3.91383 28.4851 4.27778 24.4323L5.03591 11.5507C5.30748 6.94312 9.13545 3.33398 13.7506 3.33398H41.8958C46.5109 3.33398 50.3388 6.94312 50.6104 11.5507L51.3686 24.4324C51.7325 28.4851 51.0374 32.5856 49.3582 36.2922C47.6688 40.0207 45.0244 43.2621 41.7109 45.666L28.1765 55.4778C28.0713 55.5541 27.9472 55.5923 27.8232 55.5923ZM13.7506 4.53832C9.77218 4.53832 6.47219 7.64958 6.23807 11.6215L5.47934 24.5126C5.47898 24.5189 5.4785 24.5251 5.47802 24.5313C5.13093 28.3801 5.7903 32.275 7.38495 35.795C8.98756 39.3334 11.4975 42.4095 14.6436 44.6909L27.8232 54.2463L41.004 44.6909C44.1483 42.4097 46.6581 39.3335 48.2613 35.795C49.8559 32.275 50.5154 28.3801 50.1683 24.5313C50.1678 24.525 50.1674 24.5188 50.167 24.5126L49.4083 11.6215C49.1741 7.6497 45.8742 4.53832 41.8958 4.53832H13.7506Z" fill="#5F0080"/>
<path d="M52.3864 47.7646C50.3942 47.7646 48.7734 46.1438 48.7734 44.1516C48.7734 42.1594 50.3942 40.5386 52.3864 40.5386C54.3786 40.5386 55.9994 42.1594 55.9994 44.1516C55.9994 46.1438 54.3786 47.7646 52.3864 47.7646ZM52.3864 41.7429C51.0583 41.7429 49.9778 42.8234 49.9778 44.1516C49.9778 45.4797 51.0583 46.5602 52.3864 46.5602C53.7146 46.5602 54.7951 45.4797 54.7951 44.1516C54.7951 42.8234 53.7146 41.7429 52.3864 41.7429Z" fill="#5F0080"/>
<path d="M7.82904 55.5927C5.17277 55.5927 3.01172 53.4316 3.01172 50.7753C3.01172 48.1191 5.17277 45.958 7.82904 45.958C10.4853 45.958 12.6464 48.1191 12.6464 50.7753C12.6464 53.4316 10.4853 55.5927 7.82904 55.5927ZM7.82904 47.1623C5.83684 47.1623 4.21605 48.7831 4.21605 50.7753C4.21605 52.7675 5.83684 54.3883 7.82904 54.3883C9.82125 54.3883 11.442 52.7675 11.442 50.7753C11.442 48.7831 9.82125 47.1623 7.82904 47.1623Z" fill="#5F0080"/>
<path d="M36.8196 44.7536H18.8209C18.4884 44.7536 18.2188 44.4841 18.2188 44.1515C18.2188 43.8188 18.4884 43.5493 18.8209 43.5493H36.8196C37.1522 43.5493 37.4218 43.8188 37.4218 44.1515C37.4218 44.4841 37.1522 44.7536 36.8196 44.7536Z" fill="#5F0080"/>
<path d="M27.8223 51.2789C27.6983 51.2789 27.5742 51.2407 27.4689 51.1642L15.9857 42.8388C13.1614 40.7906 10.9078 38.0286 9.46834 34.8511C8.03 31.6762 7.43976 28.1646 7.76108 24.6948L8.52161 11.7572C8.54028 11.4389 8.80391 11.1903 9.12269 11.1903C11.2552 11.1903 13.0242 9.52268 13.1499 7.39379C13.1686 7.07548 13.4321 6.82715 13.7509 6.82715H41.8949C42.2138 6.82715 42.4775 7.07572 42.4961 7.39415C42.6207 9.52292 44.389 11.1904 46.522 11.1904C46.8408 11.1904 47.1044 11.4389 47.1231 11.7573L47.8836 24.695C48.2049 28.1648 47.6147 31.6763 46.1763 34.8512C44.7368 38.0287 42.4833 40.7907 39.6591 42.8388L28.1757 51.1643C28.0704 51.2406 27.9464 51.2789 27.8223 51.2789ZM9.69234 12.3638L8.96264 24.7755C8.96228 24.7824 8.96179 24.7891 8.96107 24.796C8.34433 31.418 11.3069 37.958 16.6925 41.8637L27.8223 49.9329L38.9522 41.8637C44.3377 37.958 47.3002 31.4181 46.6835 24.796C46.6829 24.7891 46.6823 24.7824 46.6819 24.7755L45.9522 12.3638C43.6306 12.1113 41.7455 10.3338 41.3577 8.03136H14.2878C13.8989 10.3337 12.0134 12.1113 9.69234 12.3638Z" fill="#5F0080"/>
<path d="M27.6746 35.4228C22.439 35.4228 18.1797 31.172 18.1797 25.9471C18.1797 20.7115 22.439 16.4521 27.6746 16.4521C29.7971 16.4521 31.8861 17.1857 33.5563 18.5177C33.8164 18.7251 33.859 19.104 33.6517 19.364C33.4445 19.624 33.0656 19.6667 32.8054 19.4592C31.3265 18.2798 29.5523 17.6565 27.6746 17.6565C23.1032 17.6565 19.384 21.3756 19.384 25.9471C19.384 30.5079 23.1031 34.2184 27.6746 34.2184C32.2356 34.2184 35.946 30.5079 35.946 25.9471C35.946 24.5767 35.6009 23.2158 34.9481 22.0117C34.7896 21.7194 34.8981 21.3539 35.1905 21.1954C35.4829 21.0369 35.8484 21.1454 36.0068 21.4378C36.7548 22.8176 37.1503 24.377 37.1503 25.9472C37.1503 31.172 32.8995 35.4228 27.6746 35.4228Z" fill="#5F0080"/>
<path d="M27.0867 30.7189C26.9327 30.7189 26.7785 30.6602 26.661 30.5426L22.8853 26.7682C22.4354 26.3182 22.1875 25.72 22.1875 25.0839C22.1875 24.4477 22.4354 23.8496 22.8853 23.3996C23.3351 22.9498 23.9333 22.7021 24.5697 22.7021C25.2059 22.7021 25.8041 22.9498 26.2539 23.3996L27.0867 24.2324L33.5822 17.7369C34.0321 17.2869 34.6298 17.0391 35.2652 17.0391C35.8999 17.0391 36.4977 17.2867 36.9489 17.7362C37.3994 18.1868 37.6471 18.785 37.6471 19.4213C37.6471 20.0576 37.3994 20.6558 36.9496 21.1056L27.5124 30.5426C27.3949 30.6602 27.2409 30.7189 27.0867 30.7189ZM24.5697 23.9064C24.255 23.9064 23.9593 24.0289 23.7369 24.2512C23.5143 24.4738 23.3917 24.7694 23.3917 25.0839C23.3917 25.3983 23.5143 25.6941 23.7369 25.9167L27.0866 29.2653L36.098 20.2539C36.3203 20.0316 36.4428 19.7358 36.4428 19.4212C36.4428 19.1065 36.3203 18.8109 36.098 18.5884C35.875 18.3661 35.5789 18.2433 35.2652 18.2433C34.9515 18.2433 34.6562 18.3659 34.4337 18.5883L27.5124 25.5096C27.2772 25.7447 26.8961 25.7447 26.6609 25.5096L25.4023 24.2511C25.18 24.0289 24.8844 23.9064 24.5697 23.9064Z" fill="#5F0080"/>
</svg>
