<svg width="56" height="57" viewBox="0 0 56 57" fill="none" xmlns="http://www.w3.org/2000/svg">
<g id="_&#235;&#160;&#136;&#236;&#157;&#180;&#236;&#150;&#180;_1" clip-path="url(#clip0_9738_122458)">
<g id="2, Messages">
<g id="Group">
<path id="Vector" d="M26.9877 7.73145C14.6907 7.73145 4.72266 17.4649 4.72266 29.4726C4.72266 41.4803 14.6907 51.2138 26.9877 51.2138C39.2848 51.2138 49.2528 41.4803 49.2528 29.4726C49.2528 17.4649 39.2848 7.73145 26.9877 7.73145Z" fill="#BD76FF"/>
<path id="Vector_2" d="M50.6018 11.6845C53.2102 11.6845 55.3247 9.61971 55.3247 7.0727C55.3247 4.5257 53.2102 2.46094 50.6018 2.46094C47.9934 2.46094 45.8789 4.5257 45.8789 7.0727C45.8789 9.61971 47.9934 11.6845 50.6018 11.6845Z" fill="white"/>
<path id="Vector_3" d="M5.39693 49.2373C7.26045 49.2373 8.77043 50.7118 8.77043 52.5314C8.77043 54.3511 7.26045 55.8255 5.39693 55.8255C3.53341 55.8255 2.02344 54.3511 2.02344 52.5314C2.02344 50.7118 3.53341 49.2373 5.39693 49.2373Z" fill="white"/>
<path id="Vector_4" d="M40.4836 23.4552V38.1259C40.4836 39.5318 39.3164 40.6729 37.8752 40.6729H18.1282C16.6883 40.6729 15.5198 39.5318 15.5198 38.1259V25.939L10.7969 20.9082H37.8752C39.3164 20.9082 40.4836 22.0493 40.4836 23.4552Z" fill="white"/>
<path id="Vector_5" d="M54.9886 20.2489C55.5475 20.2489 56.0007 19.8065 56.0007 19.2607C56.0007 18.7149 55.5475 18.2725 54.9886 18.2725C54.4297 18.2725 53.9766 18.7149 53.9766 19.2607C53.9766 19.8065 54.4297 20.2489 54.9886 20.2489Z" fill="#5F0080"/>
<path id="Vector_6" d="M54.3128 43.9667C54.8718 43.9667 55.3249 43.5243 55.3249 42.9785C55.3249 42.4327 54.8718 41.9902 54.3128 41.9902C53.7539 41.9902 53.3008 42.4327 53.3008 42.9785C53.3008 43.5243 53.7539 43.9667 54.3128 43.9667Z" fill="#5F0080"/>
<path id="Vector_7" d="M44.1917 55.1669C44.7507 55.1669 45.2038 54.7245 45.2038 54.1787C45.2038 53.6329 44.7507 53.1904 44.1917 53.1904C43.6328 53.1904 43.1797 53.6329 43.1797 54.1787C43.1797 54.7245 43.6328 55.1669 44.1917 55.1669Z" fill="#5F0080"/>
<path id="Vector_8" d="M40.1449 5.75479C40.7038 5.75479 41.1569 5.31234 41.1569 4.76656C41.1569 4.22077 40.7038 3.77832 40.1449 3.77832C39.5859 3.77832 39.1328 4.22077 39.1328 4.76656C39.1328 5.31234 39.5859 5.75479 40.1449 5.75479Z" fill="#5F0080"/>
<path id="Vector_9" d="M16.5316 55.8251C17.0905 55.8251 17.5436 55.3827 17.5436 54.8369C17.5436 54.2911 17.0905 53.8486 16.5316 53.8486C15.9726 53.8486 15.5195 54.2911 15.5195 54.8369C15.5195 55.3827 15.9726 55.8251 16.5316 55.8251Z" fill="#5F0080"/>
<path id="Vector_10" d="M13.8324 2.46085C14.3913 2.46085 14.8444 2.0184 14.8444 1.47261C14.8444 0.926823 14.3913 0.484375 13.8324 0.484375C13.2734 0.484375 12.8203 0.926823 12.8203 1.47261C12.8203 2.0184 13.2734 2.46085 13.8324 2.46085Z" fill="#5F0080"/>
<path id="Vector_11" d="M2.3597 14.3192C2.91864 14.3192 3.37175 13.8768 3.37175 13.331C3.37175 12.7852 2.91864 12.3428 2.3597 12.3428C1.80077 12.3428 1.34766 12.7852 1.34766 13.331C1.34766 13.8768 1.80077 14.3192 2.3597 14.3192Z" fill="#5F0080"/>
<path id="Vector_12" d="M1.01205 43.3075C1.57099 43.3075 2.0241 42.8651 2.0241 42.3193C2.0241 41.7735 1.57099 41.3311 1.01205 41.3311C0.453109 41.3311 0 41.7735 0 42.3193C0 42.8651 0.453109 43.3075 1.01205 43.3075Z" fill="#5F0080"/>
<path id="Vector_13" d="M26.9866 51.8723C14.3374 51.8723 4.04688 41.8239 4.04688 29.4723C4.04688 17.1206 14.3374 7.07227 26.9866 7.07227C39.6359 7.07227 49.9264 17.1206 49.9264 29.4723C49.9264 41.8239 39.6359 51.8723 26.9866 51.8723ZM26.9866 8.38991C15.0822 8.38991 5.39627 17.848 5.39627 29.4723C5.39627 41.0965 15.0822 50.5546 26.9866 50.5546C38.891 50.5546 48.577 41.0979 48.577 29.4723C48.577 17.8467 38.8924 8.38991 26.9866 8.38991Z" fill="#5F0080"/>
<path id="Vector_14" d="M5.39585 56.484C3.16395 56.484 1.34766 54.7105 1.34766 52.5311C1.34766 50.3517 3.16395 48.5781 5.39585 48.5781C7.62775 48.5781 9.44404 50.3517 9.44404 52.5311C9.44404 54.7105 7.62775 56.484 5.39585 56.484ZM5.39585 49.8958C3.90746 49.8958 2.69705 51.0777 2.69705 52.5311C2.69705 53.9844 3.90746 55.1664 5.39585 55.1664C6.88423 55.1664 8.09464 53.9844 8.09464 52.5311C8.09464 51.0777 6.88423 49.8958 5.39585 49.8958Z" fill="#5F0080"/>
<path id="Vector_15" d="M50.6007 12.3429C47.6239 12.3429 45.2031 9.97908 45.2031 7.07235C45.2031 4.16562 47.6239 1.80176 50.6007 1.80176C53.5775 1.80176 55.9983 4.16562 55.9983 7.07235C55.9983 9.97908 53.5775 12.3429 50.6007 12.3429ZM50.6007 3.1194C48.3688 3.1194 46.5525 4.89296 46.5525 7.07235C46.5525 9.25173 48.3688 11.0253 50.6007 11.0253C52.8326 11.0253 54.6489 9.25173 54.6489 7.07235C54.6489 4.89296 52.8326 3.1194 50.6007 3.1194Z" fill="#5F0080"/>
<path id="Vector_16" d="M37.8747 41.3314H18.1277C16.3168 41.3314 14.8446 39.8938 14.8446 38.1255V26.1956L10.2985 21.3532C10.1176 21.1608 10.0704 20.8815 10.1784 20.643C10.2863 20.4045 10.5279 20.249 10.7964 20.249H37.8747C39.6856 20.249 41.1578 21.6866 41.1578 23.4549V38.1255C41.1578 39.8938 39.6856 41.3314 37.8747 41.3314ZM12.3306 21.5667L16.0172 25.4933C16.1319 25.6145 16.194 25.7739 16.194 25.9386V38.1255C16.194 39.1665 17.0616 40.0137 18.1277 40.0137H37.8747C38.9408 40.0137 39.8084 39.1665 39.8084 38.1255V23.4549C39.8084 22.4139 38.9408 21.5667 37.8747 21.5667H12.3306Z" fill="#5F0080"/>
<path id="Vector_17" d="M30.3605 35.4016H19.5653C19.1929 35.4016 18.8906 35.1065 18.8906 34.7428C18.8906 34.3791 19.1929 34.084 19.5653 34.084H30.3605C30.7329 34.084 31.0352 34.3791 31.0352 34.7428C31.0352 35.1065 30.7329 35.4016 30.3605 35.4016Z" fill="#5F0080"/>
<path id="Vector_18" d="M36.4328 32.7669H19.5653C19.1929 32.7669 18.8906 32.4717 18.8906 32.108C18.8906 31.7444 19.1929 31.4492 19.5653 31.4492H36.4328C36.8052 31.4492 37.1075 31.7444 37.1075 32.108C37.1075 32.4717 36.8052 32.7669 36.4328 32.7669Z" fill="#5F0080"/>
<path id="Vector_19" d="M36.4328 30.1311H19.5653C19.1929 30.1311 18.8906 29.836 18.8906 29.4723C18.8906 29.1086 19.1929 28.8135 19.5653 28.8135H36.4328C36.8052 28.8135 37.1075 29.1086 37.1075 29.4723C37.1075 29.836 36.8052 30.1311 36.4328 30.1311Z" fill="#5F0080"/>
<path id="Vector_20" d="M36.4328 27.4964H19.5653C19.1929 27.4964 18.8906 27.2012 18.8906 26.8375C18.8906 26.4739 19.1929 26.1787 19.5653 26.1787H36.4328C36.8052 26.1787 37.1075 26.4739 37.1075 26.8375C37.1075 27.2012 36.8052 27.4964 36.4328 27.4964Z" fill="#5F0080"/>
</g>
</g>
</g>
<defs>
<clipPath id="clip0_9738_122458">
<rect width="56" height="56" fill="white" transform="translate(0 0.484375)"/>
</clipPath>
</defs>
</svg>
