<svg width="56" height="56" viewBox="0 0 56 56" fill="none" xmlns="http://www.w3.org/2000/svg">
<path d="M26.1345 50.9554H3.02344V7.04443C16.3891 7.04443 12.6015 7.04443 26.1345 7.04443C26.1345 8.93307 26.1345 48.6734 26.1345 50.9554Z" fill="#BD76FF"/>
<path d="M51.6431 43.8821C49.7711 43.8821 48.2285 42.4816 48.0043 40.6709C47.9858 40.5218 47.9766 40.3704 47.9766 40.2167V35.0295V31.5096C47.9766 30.4974 48.3868 29.5811 49.0501 28.9177C49.7134 28.2545 50.6309 27.8442 51.6431 27.8442C53.6677 27.8442 55.3085 29.4851 55.3085 31.5096V40.2168C55.3085 42.2412 53.6677 43.8821 51.6431 43.8821Z" fill="white"/>
<path d="M43.8569 42.9658C42.3096 42.9658 40.9253 42.269 40.002 41.1712C39.2613 40.2942 38.8164 39.1617 38.8164 37.9253C38.8164 36.6888 39.2613 35.5564 40.002 34.6793C40.9253 33.5816 42.3096 32.8848 43.8569 32.8848C45.5625 32.8848 47.0693 33.7329 47.9811 35.0295V40.2169C47.9811 40.3705 47.9903 40.5219 48.0088 40.671L47.9811 40.6745C47.9811 40.723 47.9834 40.7704 47.9845 40.8165C47.0728 42.1153 45.5648 42.9658 43.8569 42.9658Z" fill="#BD76FF"/>
<path d="M46.0103 20.3335C47.2872 20.3335 48.3214 21.3677 48.3214 22.6446C48.3214 23.9215 47.2872 24.9557 46.0103 24.9557C44.7334 24.9557 43.6992 23.9215 43.6992 22.6446C43.6992 21.3677 44.7334 20.3335 46.0103 20.3335Z" fill="white"/>
<path d="M18.6233 26.1113H15.7344V31.3113H18.6233V26.1113Z" fill="white"/>
<path d="M13.424 41.1333H10.5352V46.3333H13.424V41.1333Z" fill="white"/>
<path d="M23.8186 26.1113H20.9297V31.3113H23.8186V26.1113Z" fill="white"/>
<path d="M13.424 18.5996H10.5352V23.7996H13.424V18.5996Z" fill="white"/>
<path d="M23.8186 41.1333H20.9297V46.3333H23.8186V41.1333Z" fill="white"/>
<path d="M23.8186 11.0889H20.9297V16.2888H23.8186V11.0889Z" fill="white"/>
<path d="M8.22091 11.0889H5.33203V16.2888H8.22091V11.0889Z" fill="white"/>
<path d="M13.424 33.6221H10.5352V38.822H13.424V33.6221Z" fill="white"/>
<path d="M8.22091 41.1333H5.33203V46.3333H8.22091V41.1333Z" fill="white"/>
<path d="M13.424 11.0889H10.5352V16.2888H13.424V11.0889Z" fill="white"/>
<path d="M18.6233 41.1333H15.7344V46.3333H18.6233V41.1333Z" fill="white"/>
<path d="M8.22091 18.5996H5.33203V23.7996H8.22091V18.5996Z" fill="white"/>
<path d="M23.8186 33.6221H20.9297V38.822H23.8186V33.6221Z" fill="white"/>
<path d="M8.22091 33.6221H5.33203V38.822H8.22091V33.6221Z" fill="white"/>
<path d="M18.6233 11.0889H15.7344V16.2888H18.6233V11.0889Z" fill="white"/>
<path d="M18.6233 33.6221H15.7344V38.822H18.6233V33.6221Z" fill="white"/>
<path d="M8.22091 26.1113H5.33203V31.3113H8.22091V26.1113Z" fill="white"/>
<path d="M18.6233 18.5996H15.7344V23.7996H18.6233V18.5996Z" fill="white"/>
<path d="M13.424 26.1113H10.5352V31.3113H13.424V26.1113Z" fill="white"/>
<path d="M23.8186 18.5996H20.9297V23.7996H23.8186V18.5996Z" fill="white"/>
<path d="M39.9994 41.1711V54.4218H26.1328V50.9552V13.9775L39.9994 22.6442V34.6792C39.2587 35.5563 38.8138 36.6887 38.8138 37.9252C38.8138 39.1616 39.2587 40.294 39.9994 41.1711Z" fill="white"/>
<path d="M26.1345 50.9556H3.02344V54.4222H26.1345V50.9556Z" fill="white"/>
<path d="M23.2431 3.57764H5.33203V7.04429H23.2431V3.57764Z" fill="white"/>
<path d="M51.8432 23.8002C52.3219 23.8002 52.7099 23.4122 52.7099 22.9336C52.7099 22.4549 52.3219 22.0669 51.8432 22.0669C51.3646 22.0669 50.9766 22.4549 50.9766 22.9336C50.9766 23.4122 51.3646 23.8002 51.8432 23.8002Z" fill="#5F0080"/>
<path d="M49.2456 48.0663C49.7242 48.0663 50.1122 47.6783 50.1122 47.1997C50.1122 46.721 49.7242 46.333 49.2456 46.333C48.7669 46.333 48.3789 46.721 48.3789 47.1997C48.3789 47.6783 48.7669 48.0663 49.2456 48.0663Z" fill="#5F0080"/>
<path d="M31.6206 11.6664C32.0992 11.6664 32.4872 11.2784 32.4872 10.7998C32.4872 10.3211 32.0992 9.93311 31.6206 9.93311C31.1419 9.93311 30.7539 10.3211 30.7539 10.7998C30.7539 11.2784 31.1419 11.6664 31.6206 11.6664Z" fill="#5F0080"/>
<path d="M3.01918 54.9999C2.70013 54.9999 2.44141 54.7413 2.44141 54.4221V7.04457C2.44141 6.72552 2.70013 6.4668 3.01918 6.4668H5.33028C5.64933 6.4668 5.90806 6.72552 5.90806 7.04457C5.90806 7.36362 5.64933 7.62235 5.33028 7.62235H3.59696V54.4221C3.59696 54.7413 3.33823 54.9999 3.01918 54.9999Z" fill="#5F0080"/>
<path d="M26.1346 54.9999C25.8156 54.9999 25.5568 54.7413 25.5568 54.4221V7.62235H23.2457C22.9267 7.62235 22.668 7.36362 22.668 7.04457C22.668 6.72552 22.9267 6.4668 23.2457 6.4668H26.1346C26.4537 6.4668 26.7124 6.72552 26.7124 7.04457V54.4221C26.7124 54.7413 26.4537 54.9999 26.1346 54.9999Z" fill="#5F0080"/>
<path d="M8.22056 16.8668C7.90151 16.8668 7.64278 16.608 7.64278 16.289V11.6668H5.90946V16.289C5.90946 16.608 5.65073 16.8668 5.33168 16.8668C5.01263 16.8668 4.75391 16.608 4.75391 16.289V11.089C4.75391 10.77 5.01263 10.5112 5.33168 10.5112H8.22056C8.53961 10.5112 8.79833 10.77 8.79833 11.089V16.289C8.79833 16.608 8.53961 16.8668 8.22056 16.8668Z" fill="#5F0080"/>
<path d="M13.4198 16.8668C13.1007 16.8668 12.842 16.608 12.842 16.289V11.6668H11.1087V16.289C11.1087 16.608 10.8499 16.8668 10.5309 16.8668C10.2119 16.8668 9.95312 16.608 9.95312 16.289V11.089C9.95312 10.77 10.2119 10.5112 10.5309 10.5112H13.4198C13.7388 10.5112 13.9976 10.77 13.9976 11.089V16.289C13.9976 16.608 13.7388 16.8668 13.4198 16.8668Z" fill="#5F0080"/>
<path d="M18.6229 16.8668C18.3039 16.8668 18.0451 16.608 18.0451 16.289V11.6668H16.3118V16.289C16.3118 16.608 16.0531 16.8668 15.734 16.8668C15.415 16.8668 15.1562 16.608 15.1562 16.289V11.089C15.1562 10.77 15.415 10.5112 15.734 10.5112H18.6229C18.942 10.5112 19.2007 10.77 19.2007 11.089V16.289C19.2007 16.608 18.942 16.8668 18.6229 16.8668Z" fill="#5F0080"/>
<path d="M23.8221 16.8668C23.5031 16.8668 23.2443 16.608 23.2443 16.289V11.6668H21.511V16.289C21.511 16.608 21.2523 16.8668 20.9332 16.8668C20.6142 16.8668 20.3555 16.608 20.3555 16.289V11.089C20.3555 10.77 20.6142 10.5112 20.9332 10.5112H23.8221C24.1412 10.5112 24.3999 10.77 24.3999 11.089V16.289C24.3999 16.608 24.1412 16.8668 23.8221 16.8668Z" fill="#5F0080"/>
<path d="M8.22056 24.378C7.90151 24.378 7.64278 24.1193 7.64278 23.8002V19.178H5.90946V23.8002C5.90946 24.1193 5.65073 24.378 5.33168 24.378C5.01263 24.378 4.75391 24.1193 4.75391 23.8002V18.6002C4.75391 18.2812 5.01263 18.0225 5.33168 18.0225H8.22056C8.53961 18.0225 8.79833 18.2812 8.79833 18.6002V23.8002C8.79833 24.1193 8.53961 24.378 8.22056 24.378Z" fill="#5F0080"/>
<path d="M13.4198 24.378C13.1007 24.378 12.842 24.1193 12.842 23.8002V19.178H11.1087V23.8002C11.1087 24.1193 10.8499 24.378 10.5309 24.378C10.2119 24.378 9.95312 24.1193 9.95312 23.8002V18.6002C9.95312 18.2812 10.2119 18.0225 10.5309 18.0225H13.4198C13.7388 18.0225 13.9976 18.2812 13.9976 18.6002V23.8002C13.9976 24.1193 13.7388 24.378 13.4198 24.378Z" fill="#5F0080"/>
<path d="M18.6229 24.378C18.3039 24.378 18.0451 24.1193 18.0451 23.8002V19.178H16.3118V23.8002C16.3118 24.1193 16.0531 24.378 15.734 24.378C15.415 24.378 15.1562 24.1193 15.1562 23.8002V18.6002C15.1562 18.2812 15.415 18.0225 15.734 18.0225H18.6229C18.942 18.0225 19.2007 18.2812 19.2007 18.6002V23.8002C19.2007 24.1193 18.942 24.378 18.6229 24.378Z" fill="#5F0080"/>
<path d="M23.8221 24.378C23.5031 24.378 23.2443 24.1193 23.2443 23.8002V19.178H21.511V23.8002C21.511 24.1193 21.2523 24.378 20.9332 24.378C20.6142 24.378 20.3555 24.1193 20.3555 23.8002V18.6002C20.3555 18.2812 20.6142 18.0225 20.9332 18.0225H23.8221C24.1412 18.0225 24.3999 18.2812 24.3999 18.6002V23.8002C24.3999 24.1193 24.1412 24.378 23.8221 24.378Z" fill="#5F0080"/>
<path d="M8.22056 31.8887C7.90151 31.8887 7.64278 31.6301 7.64278 31.311V26.6888H5.90946V31.311C5.90946 31.6301 5.65073 31.8887 5.33168 31.8887C5.01263 31.8887 4.75391 31.6301 4.75391 31.311V26.111C4.75391 25.7919 5.01263 25.5332 5.33168 25.5332H8.22056C8.53961 25.5332 8.79833 25.7919 8.79833 26.111V31.311C8.79833 31.6301 8.53961 31.8887 8.22056 31.8887Z" fill="#5F0080"/>
<path d="M13.4198 31.8887C13.1007 31.8887 12.842 31.6301 12.842 31.311V26.6888H11.1087V31.311C11.1087 31.6301 10.8499 31.8887 10.5309 31.8887C10.2119 31.8887 9.95312 31.6301 9.95312 31.311V26.111C9.95312 25.7919 10.2119 25.5332 10.5309 25.5332H13.4198C13.7388 25.5332 13.9976 25.7919 13.9976 26.111V31.311C13.9976 31.6301 13.7388 31.8887 13.4198 31.8887Z" fill="#5F0080"/>
<path d="M18.6229 31.8887C18.3039 31.8887 18.0451 31.6301 18.0451 31.311V26.6888H16.3118V31.311C16.3118 31.6301 16.0531 31.8887 15.734 31.8887C15.415 31.8887 15.1562 31.6301 15.1562 31.311V26.111C15.1562 25.7919 15.415 25.5332 15.734 25.5332H18.6229C18.942 25.5332 19.2007 25.7919 19.2007 26.111V31.311C19.2007 31.6301 18.942 31.8887 18.6229 31.8887Z" fill="#5F0080"/>
<path d="M23.8221 31.8887C23.5031 31.8887 23.2443 31.6301 23.2443 31.311V26.6888H21.511V31.311C21.511 31.6301 21.2523 31.8887 20.9332 31.8887C20.6142 31.8887 20.3555 31.6301 20.3555 31.311V26.111C20.3555 25.7919 20.6142 25.5332 20.9332 25.5332H23.8221C24.1412 25.5332 24.3999 25.7919 24.3999 26.111V31.311C24.3999 31.6301 24.1412 31.8887 23.8221 31.8887Z" fill="#5F0080"/>
<path d="M8.22056 39.4C7.90151 39.4 7.64278 39.1414 7.64278 38.8222V34.2H5.90946V38.8222C5.90946 39.1414 5.65073 39.4 5.33168 39.4C5.01263 39.4 4.75391 39.1414 4.75391 38.8222V33.6222C4.75391 33.303 5.01263 33.0444 5.33168 33.0444H8.22056C8.53961 33.0444 8.79833 33.303 8.79833 33.6222V38.8222C8.79833 39.1414 8.53961 39.4 8.22056 39.4Z" fill="#5F0080"/>
<path d="M13.4198 39.4C13.1007 39.4 12.842 39.1414 12.842 38.8222V34.2H11.1087V38.8222C11.1087 39.1414 10.8499 39.4 10.5309 39.4C10.2119 39.4 9.95312 39.1414 9.95312 38.8222V33.6222C9.95312 33.303 10.2119 33.0444 10.5309 33.0444H13.4198C13.7388 33.0444 13.9976 33.303 13.9976 33.6222V38.8222C13.9976 39.1414 13.7388 39.4 13.4198 39.4Z" fill="#5F0080"/>
<path d="M18.6229 39.4C18.3039 39.4 18.0451 39.1414 18.0451 38.8222V34.2H16.3118V38.8222C16.3118 39.1414 16.0531 39.4 15.734 39.4C15.415 39.4 15.1562 39.1414 15.1562 38.8222V33.6222C15.1562 33.303 15.415 33.0444 15.734 33.0444H18.6229C18.942 33.0444 19.2007 33.303 19.2007 33.6222V38.8222C19.2007 39.1414 18.942 39.4 18.6229 39.4Z" fill="#5F0080"/>
<path d="M23.8221 39.4C23.5031 39.4 23.2443 39.1414 23.2443 38.8222V34.2H21.511V38.8222C21.511 39.1414 21.2523 39.4 20.9332 39.4C20.6142 39.4 20.3555 39.1414 20.3555 38.8222V33.6222C20.3555 33.303 20.6142 33.0444 20.9332 33.0444H23.8221C24.1412 33.0444 24.3999 33.303 24.3999 33.6222V38.8222C24.3999 39.1414 24.1412 39.4 23.8221 39.4Z" fill="#5F0080"/>
<path d="M8.22056 46.9107C7.90151 46.9107 7.64278 46.6521 7.64278 46.3329V41.7107H5.90946V46.3329C5.90946 46.6521 5.65073 46.9107 5.33168 46.9107C5.01263 46.9107 4.75391 46.6521 4.75391 46.3329V41.133C4.75391 40.8138 5.01263 40.5552 5.33168 40.5552H8.22056C8.53961 40.5552 8.79833 40.8138 8.79833 41.133V46.3329C8.79833 46.6521 8.53961 46.9107 8.22056 46.9107Z" fill="#5F0080"/>
<path d="M13.4198 46.9107C13.1007 46.9107 12.842 46.6521 12.842 46.3329V41.7107H11.1087V46.3329C11.1087 46.6521 10.8499 46.9107 10.5309 46.9107C10.2119 46.9107 9.95312 46.6521 9.95312 46.3329V41.133C9.95312 40.8138 10.2119 40.5552 10.5309 40.5552H13.4198C13.7388 40.5552 13.9976 40.8138 13.9976 41.133V46.3329C13.9976 46.6521 13.7388 46.9107 13.4198 46.9107Z" fill="#5F0080"/>
<path d="M18.6229 46.9107C18.3039 46.9107 18.0451 46.6521 18.0451 46.3329V41.7107H16.3118V46.3329C16.3118 46.6521 16.0531 46.9107 15.734 46.9107C15.415 46.9107 15.1562 46.6521 15.1562 46.3329V41.133C15.1562 40.8138 15.415 40.5552 15.734 40.5552H18.6229C18.942 40.5552 19.2007 40.8138 19.2007 41.133V46.3329C19.2007 46.6521 18.942 46.9107 18.6229 46.9107Z" fill="#5F0080"/>
<path d="M23.8221 46.9107C23.5031 46.9107 23.2443 46.6521 23.2443 46.3329V41.7107H21.511V46.3329C21.511 46.6521 21.2523 46.9107 20.9332 46.9107C20.6142 46.9107 20.3555 46.6521 20.3555 46.3329V41.133C20.3555 40.8138 20.6142 40.5552 20.9332 40.5552H23.8221C24.1412 40.5552 24.3999 40.8138 24.3999 41.133V46.3329C24.3999 46.6521 24.1412 46.9107 23.8221 46.9107Z" fill="#5F0080"/>
<path d="M26.1302 51.5335H3.01918C2.70013 51.5335 2.44141 51.2749 2.44141 50.9557C2.44141 50.6365 2.70013 50.3779 3.01918 50.3779H26.1302C26.4492 50.3779 26.708 50.6365 26.708 50.9557C26.708 51.2749 26.4492 51.5335 26.1302 51.5335Z" fill="#5F0080"/>
<path d="M23.2427 7.6222H5.33168C5.01263 7.6222 4.75391 7.36347 4.75391 7.04443V3.57778C4.75391 3.25873 5.01263 3 5.33168 3H23.2427C23.5618 3 23.8205 3.25873 23.8205 3.57778V7.04443C23.8205 7.36347 23.5618 7.6222 23.2427 7.6222ZM5.90946 6.46665H22.6649V4.15555H5.90946V6.46665Z" fill="#5F0080"/>
<path d="M23.8205 16.8665H5.33168C5.01263 16.8665 4.75391 16.6078 4.75391 16.2887C4.75391 15.9697 5.01263 15.7109 5.33168 15.7109H23.8205C24.1395 15.7109 24.3983 15.9697 24.3983 16.2887C24.3983 16.6078 24.1395 16.8665 23.8205 16.8665Z" fill="#5F0080"/>
<path d="M23.8205 24.3777H5.33168C5.01263 24.3777 4.75391 24.119 4.75391 23.7999C4.75391 23.4809 5.01263 23.2222 5.33168 23.2222H23.8205C24.1395 23.2222 24.3983 23.4809 24.3983 23.7999C24.3983 24.119 24.1395 24.3777 23.8205 24.3777Z" fill="#5F0080"/>
<path d="M23.8205 31.8889H5.33168C5.01263 31.8889 4.75391 31.6303 4.75391 31.3112C4.75391 30.992 5.01263 30.7334 5.33168 30.7334H23.8205C24.1395 30.7334 24.3983 30.992 24.3983 31.3112C24.3983 31.6303 24.1395 31.8889 23.8205 31.8889Z" fill="#5F0080"/>
<path d="M23.8205 39.3997H5.33168C5.01263 39.3997 4.75391 39.1411 4.75391 38.8219C4.75391 38.5028 5.01263 38.2441 5.33168 38.2441H23.8205C24.1395 38.2441 24.3983 38.5028 24.3983 38.8219C24.3983 39.1411 24.1395 39.3997 23.8205 39.3997Z" fill="#5F0080"/>
<path d="M23.8205 46.9109H5.33168C5.01263 46.9109 4.75391 46.6523 4.75391 46.3331C4.75391 46.014 5.01263 45.7554 5.33168 45.7554H23.8205C24.1395 45.7554 24.3983 46.014 24.3983 46.3331C24.3983 46.6523 24.1395 46.9109 23.8205 46.9109Z" fill="#5F0080"/>
<path d="M51.6467 44.46C49.5078 44.46 47.6969 42.8616 47.4345 40.7419C47.4131 40.5703 47.4023 40.3935 47.4023 40.2169V31.5098C47.4023 30.3763 47.8436 29.3109 48.645 28.5094C49.4464 27.7079 50.5124 27.2666 51.6467 27.2666C53.9864 27.2666 55.8899 29.1701 55.8899 31.5098V40.217C55.8899 42.5565 53.9863 44.46 51.6467 44.46ZM51.6467 28.4222C50.8212 28.4222 50.0453 28.7433 49.4622 29.3264C48.8791 29.9096 48.5579 30.685 48.5579 31.5098V40.217C48.5579 40.3462 48.5658 40.475 48.5812 40.5998C48.7721 42.1419 50.09 43.3045 51.6467 43.3045C53.3492 43.3045 54.7343 41.9194 54.7343 40.2169V31.5098C54.7343 29.8072 53.3492 28.4222 51.6467 28.4222Z" fill="#5F0080"/>
<path d="M43.8512 54.9999C43.5322 54.9999 43.2734 54.7412 43.2734 54.4221V37.9254C43.2734 37.6063 43.5322 37.3477 43.8512 37.3477C44.1703 37.3477 44.429 37.6063 44.429 37.9254V54.4221C44.429 54.7412 44.1703 54.9999 43.8512 54.9999Z" fill="#5F0080"/>
<path d="M51.6442 54.9998C51.3251 54.9998 51.0664 54.7412 51.0664 54.4221V32.8849C51.0664 32.5657 51.3251 32.3071 51.6442 32.3071C51.9632 32.3071 52.222 32.5657 52.222 32.8849V54.4221C52.222 54.7412 51.9632 54.9998 51.6442 54.9998Z" fill="#5F0080"/>
<path d="M51.6438 37.5873C51.5231 37.5873 51.4016 37.5497 51.2976 37.4717C51.0423 37.2803 50.9905 36.9181 51.182 36.6628L53.0147 34.2189C53.2061 33.9637 53.5682 33.9119 53.8236 34.1034C54.0788 34.2947 54.1306 34.657 53.9391 34.9123L52.1064 37.3561C51.993 37.5074 51.8194 37.5873 51.6438 37.5873Z" fill="#5F0080"/>
<path d="M51.6488 39.8788C51.4525 39.8788 51.2613 39.7788 51.1529 39.5983L49.7778 37.3068C49.6136 37.0332 49.7023 36.6783 49.9758 36.5141C50.2493 36.3498 50.6043 36.4388 50.7685 36.7122L52.1436 39.0036C52.3078 39.2773 52.2191 39.6321 51.9456 39.7963C51.8524 39.8521 51.7499 39.8788 51.6488 39.8788Z" fill="#5F0080"/>
<path d="M43.8545 41.252C43.6788 41.252 43.5053 41.1722 43.3918 41.0208L42.0179 39.1881C41.8264 38.9328 41.8783 38.5705 42.1336 38.3792C42.3887 38.1878 42.7511 38.2396 42.9425 38.4949L44.3164 40.3277C44.5079 40.5829 44.456 40.9452 44.2006 41.1365C44.0967 41.2144 43.9751 41.252 43.8545 41.252Z" fill="#5F0080"/>
<path d="M43.8508 42.17C43.7302 42.17 43.6086 42.1325 43.5046 42.0545C43.2493 41.8631 43.1976 41.501 43.389 41.2456L44.7641 39.4117C44.9557 39.1566 45.3178 39.1048 45.573 39.2962C45.8282 39.4875 45.88 39.8497 45.6886 40.1051L44.3135 41.9389C44.2001 42.0902 44.0265 42.17 43.8508 42.17Z" fill="#5F0080"/>
<path d="M51.6437 40.7944C51.5231 40.7944 51.4015 40.7569 51.2977 40.679C51.0423 40.4875 50.9905 40.1253 51.182 39.8701L52.5559 38.0374C52.7472 37.782 53.1093 37.7304 53.3648 37.9216C53.6201 38.1131 53.672 38.4752 53.4805 38.7305L52.1065 40.5632C51.993 40.7147 51.8194 40.7944 51.6437 40.7944Z" fill="#5F0080"/>
<path d="M55.3109 54.9998H1.57778C1.25873 54.9998 1 54.7412 1 54.422C1 54.1029 1.25873 53.8442 1.57778 53.8442H55.3109C55.6299 53.8442 55.8887 54.1029 55.8887 54.422C55.8887 54.7412 55.6299 54.9998 55.3109 54.9998Z" fill="#5F0080"/>
<path d="M39.9997 54.9995C39.6806 54.9995 39.4219 54.7409 39.4219 54.4217V41.171C39.4219 40.8519 39.6806 40.5933 39.9997 40.5933C40.3187 40.5933 40.5774 40.8519 40.5774 41.171V54.4217C40.5774 54.7409 40.3187 54.9995 39.9997 54.9995Z" fill="#5F0080"/>
<path d="M40.0031 35.2571C39.684 35.2571 39.4253 34.9985 39.4253 34.6794V22.9645L25.8303 14.4676C25.5596 14.2986 25.4774 13.9421 25.6465 13.6715C25.8157 13.4011 26.1722 13.3187 26.4427 13.4877L40.3093 22.1544C40.4782 22.2599 40.5809 22.4451 40.5809 22.6443V34.6794C40.5809 34.9985 40.3221 35.2571 40.0031 35.2571Z" fill="#5F0080"/>
<path d="M43.8527 43.5438C42.1911 43.5438 40.6249 42.8147 39.5555 41.5433C38.7039 40.5348 38.2344 39.2497 38.2344 37.9254C38.2344 36.6012 38.7039 35.3161 39.5563 34.3067C40.6249 33.0363 42.1911 32.3071 43.8527 32.3071C45.6787 32.3071 47.3971 33.2006 48.4494 34.6973C48.6329 34.9583 48.5702 35.3187 48.3092 35.5022C48.0481 35.6858 47.6877 35.623 47.5042 35.3619C46.6679 34.1728 45.3029 33.4627 43.8527 33.4627C42.533 33.4627 41.2891 34.0417 40.44 35.0514C39.7626 35.8534 39.39 36.8738 39.39 37.9254C39.39 38.9771 39.7627 39.9974 40.4393 40.7985C41.2892 41.8091 42.5331 42.3882 43.8528 42.3882C45.2444 42.3882 46.5575 41.7343 47.4009 40.6302C47.4234 40.3319 47.6727 40.0967 47.9769 40.0967C48.296 40.0967 48.5547 40.3553 48.5547 40.6745C48.5547 40.7012 48.5556 40.7274 48.5566 40.7533L48.5581 40.8018C48.5612 40.9256 48.5246 41.0471 48.4534 41.1486C47.4003 42.6484 45.6806 43.5438 43.8527 43.5438Z" fill="#5F0080"/>
<path d="M36.5303 26.1111H29.0192C28.7001 26.1111 28.4414 25.8524 28.4414 25.5333C28.4414 25.2143 28.7001 24.9556 29.0192 24.9556H36.5303C36.8493 24.9556 37.108 25.2143 37.108 25.5333C37.108 25.8524 36.8493 26.1111 36.5303 26.1111Z" fill="#5F0080"/>
<path d="M36.5303 30.7332H29.0192C28.7001 30.7332 28.4414 30.4746 28.4414 30.1554C28.4414 29.8362 28.7001 29.5776 29.0192 29.5776H36.5303C36.8493 29.5776 37.108 29.8362 37.108 30.1554C37.108 30.4746 36.8493 30.7332 36.5303 30.7332Z" fill="#5F0080"/>
<path d="M36.5303 35.3553H29.0192C28.7001 35.3553 28.4414 35.0966 28.4414 34.7775C28.4414 34.4583 28.7001 34.1997 29.0192 34.1997H36.5303C36.8493 34.1997 37.108 34.4583 37.108 34.7775C37.108 35.0966 36.8493 35.3553 36.5303 35.3553Z" fill="#5F0080"/>
<path d="M36.5303 39.9778H29.0192C28.7001 39.9778 28.4414 39.7192 28.4414 39.4C28.4414 39.0809 28.7001 38.8223 29.0192 38.8223H36.5303C36.8493 38.8223 37.108 39.0809 37.108 39.4C37.108 39.7192 36.8493 39.9778 36.5303 39.9778Z" fill="#5F0080"/>
<path d="M36.5303 44.5999H29.0192C28.7001 44.5999 28.4414 44.3413 28.4414 44.0221C28.4414 43.7029 28.7001 43.4443 29.0192 43.4443H36.5303C36.8493 43.4443 37.108 43.7029 37.108 44.0221C37.108 44.3413 36.8493 44.5999 36.5303 44.5999Z" fill="#5F0080"/>
<path d="M36.5303 49.2224H29.0192C28.7001 49.2224 28.4414 48.9638 28.4414 48.6447C28.4414 48.3255 28.7001 48.0669 29.0192 48.0669H36.5303C36.8493 48.0669 37.108 48.3255 37.108 48.6447C37.108 48.9638 36.8493 49.2224 36.5303 49.2224Z" fill="#5F0080"/>
<path d="M46.0061 25.5336C44.4131 25.5336 43.1172 24.2377 43.1172 22.6447C43.1172 21.0518 44.4131 19.7559 46.0061 19.7559C47.599 19.7559 48.8949 21.0518 48.8949 22.6447C48.8949 24.2377 47.599 25.5336 46.0061 25.5336ZM46.0061 20.9114C45.0503 20.9114 44.2727 21.689 44.2727 22.6447C44.2727 23.6005 45.0503 24.3781 46.0061 24.3781C46.9618 24.3781 47.7394 23.6005 47.7394 22.6447C47.7394 21.689 46.9618 20.9114 46.0061 20.9114Z" fill="#5F0080"/>
</svg>
