<svg width="56" height="56" viewBox="0 0 56 56" fill="none" xmlns="http://www.w3.org/2000/svg">
<path d="M8.76863 11.1924C10.0436 11.1924 11.0763 12.2251 11.0763 13.5001C11.0763 14.7751 10.0436 15.8078 8.76863 15.8078C7.49363 15.8078 6.46094 14.7751 6.46094 13.5001C6.46094 12.2251 7.49363 11.1924 8.76863 11.1924Z" fill="white"/>
<path d="M50.3104 11.1924C51.904 11.1924 53.195 12.4835 53.195 14.077C53.195 15.6705 51.904 16.9616 50.3104 16.9616C48.7168 16.9616 47.4258 15.6705 47.4258 14.077C47.4258 12.4835 48.7168 11.1924 50.3104 11.1924Z" fill="white"/>
<path d="M38.3567 15.9473L30.6064 23.6988L28.1579 26.1461L25.7106 23.6988L22.0391 20.0273L24.4864 17.58L28.1579 21.2515L35.9094 13.5L38.3567 15.9473Z" fill="#BD76FF"/>
<path d="M13.0367 36.8077C15.3308 36.8077 17.1905 34.9479 17.1905 32.6538C17.1905 30.3597 15.3308 28.5 13.0367 28.5C10.7426 28.5 8.88281 30.3597 8.88281 32.6538C8.88281 34.9479 10.7426 36.8077 13.0367 36.8077Z" fill="white"/>
<path d="M28.6734 40.2691C30.9675 40.2691 32.8272 38.4094 32.8272 36.1153C32.8272 33.8212 30.9675 31.9614 28.6734 31.9614C26.3793 31.9614 24.5195 33.8212 24.5195 36.1153C24.5195 38.4094 26.3793 40.2691 28.6734 40.2691Z" fill="#BD76FF"/>
<path d="M44.1929 36.8077C46.487 36.8077 48.3467 34.9479 48.3467 32.6538C48.3467 30.3597 46.487 28.5 44.1929 28.5C41.8988 28.5 40.0391 30.3597 40.0391 32.6538C40.0391 34.9479 41.8988 36.8077 44.1929 36.8077Z" fill="white"/>
<path d="M53.653 43.9615V46.9615H38.1222C38.0044 44.5072 36.9521 42.2988 35.3125 40.6857C36.014 38.7852 37.3075 37.1722 38.9702 36.0703C40.0017 37.8876 41.953 39.1153 44.1915 39.1153C46.4299 39.1153 48.3812 37.8876 49.4126 36.0703C51.9684 37.7642 53.653 40.6661 53.653 43.9615Z" fill="white"/>
<path d="M19.2224 46.9613C19.3377 44.5498 20.3566 42.376 21.9466 40.7698C22.4035 40.3071 22.9077 39.8919 23.4512 39.5319C24.4827 41.349 26.4339 42.5767 28.6724 42.5767C30.9108 42.5767 32.8621 41.349 33.8935 39.5317C34.4035 39.8698 34.8789 40.2562 35.3127 40.6856C36.9523 42.2985 38.0047 44.5071 38.1225 46.9613C38.1304 47.1137 38.134 47.2683 38.134 47.4229V50.4229H19.2109V47.4229C19.2108 47.2683 19.2143 47.1137 19.2224 46.9613Z" fill="#BD76FF"/>
<path d="M18.2569 36.0703C19.9438 37.1883 21.2511 38.8337 21.9446 40.7698C20.3546 42.3761 19.3357 44.5499 19.2204 46.9615H3.57422V43.9615C3.57422 40.6661 5.25999 37.7642 7.8146 36.0703C8.84614 37.8876 10.7973 39.1153 13.0357 39.1153C15.2742 39.1153 17.2254 37.8876 18.2569 36.0703Z" fill="white"/>
<path d="M52.9044 28.4998C53.3824 28.4998 53.7698 28.1124 53.7698 27.6344C53.7698 27.1565 53.3824 26.769 52.9044 26.769C52.4265 26.769 52.0391 27.1565 52.0391 27.6344C52.0391 28.1124 52.4265 28.4998 52.9044 28.4998Z" fill="#5F0080"/>
<path d="M41.3654 7.73077C41.8433 7.73077 42.2308 7.34332 42.2308 6.86538C42.2308 6.38745 41.8433 6 41.3654 6C40.8874 6 40.5 6.38745 40.5 6.86538C40.5 7.34332 40.8874 7.73077 41.3654 7.73077Z" fill="#5F0080"/>
<path d="M37.9044 23.8846C38.3824 23.8846 38.7698 23.4971 38.7698 23.0192C38.7698 22.5413 38.3824 22.1538 37.9044 22.1538C37.4265 22.1538 37.0391 22.5413 37.0391 23.0192C37.0391 23.4971 37.4265 23.8846 37.9044 23.8846Z" fill="#5F0080"/>
<path d="M21.174 7.73077C21.6519 7.73077 22.0394 7.34332 22.0394 6.86538C22.0394 6.38745 21.6519 6 21.174 6C20.696 6 20.3086 6.38745 20.3086 6.86538C20.3086 7.34332 20.696 7.73077 21.174 7.73077Z" fill="#5F0080"/>
<path d="M16.5607 20.4232C17.0386 20.4232 17.4261 20.0357 17.4261 19.5578C17.4261 19.0798 17.0386 18.6924 16.5607 18.6924C16.0828 18.6924 15.6953 19.0798 15.6953 19.5578C15.6953 20.0357 16.0828 20.4232 16.5607 20.4232Z" fill="#5F0080"/>
<path d="M6.17398 27.9232C6.65192 27.9232 7.03936 27.5357 7.03936 27.0578C7.03936 26.5798 6.65192 26.1924 6.17398 26.1924C5.69604 26.1924 5.30859 26.5798 5.30859 27.0578C5.30859 27.5357 5.69604 27.9232 6.17398 27.9232Z" fill="#5F0080"/>
<path d="M28.6722 40.8458C26.0637 40.8458 23.9414 38.7235 23.9414 36.115C23.9414 33.5065 26.0637 31.3843 28.6722 31.3843C31.2807 31.3843 33.4029 33.5065 33.4029 36.115C33.4029 38.7235 31.2807 40.8458 28.6722 40.8458ZM28.6722 32.5381C26.6999 32.5381 25.0953 34.1427 25.0953 36.115C25.0953 38.0874 26.6999 39.692 28.6722 39.692C30.6446 39.692 32.2491 38.0874 32.2491 36.115C32.2491 34.1427 30.6446 32.5381 28.6722 32.5381Z" fill="#5F0080"/>
<path d="M44.1917 37.3844C41.5832 37.3844 39.4609 35.2621 39.4609 32.6536C39.4609 30.0451 41.5832 27.9229 44.1917 27.9229C46.8002 27.9229 48.9225 30.0451 48.9225 32.6536C48.9225 35.2621 46.8002 37.3844 44.1917 37.3844ZM44.1917 29.0767C42.2193 29.0767 40.6148 30.6812 40.6148 32.6536C40.6148 34.626 42.2193 36.2305 44.1917 36.2305C46.1641 36.2305 47.7686 34.626 47.7686 32.6536C47.7686 30.6812 46.1641 29.0767 44.1917 29.0767Z" fill="#5F0080"/>
<path d="M53.6519 47.5381H38.1212C37.8025 47.5381 37.5435 47.2799 37.5435 46.9612C37.5435 46.6425 37.8013 46.3843 38.1199 46.3843H53.075V43.9612C53.075 41.1706 51.7762 38.5699 49.5728 36.8922C48.348 38.6334 46.3392 39.692 44.1904 39.692C42.042 39.692 40.0331 38.6336 38.8082 36.8928C37.4723 37.9136 36.4334 39.3123 35.8527 40.8853C35.7424 41.1843 35.4105 41.3371 35.1117 41.2267C34.8127 41.1164 34.6598 40.7847 34.7703 40.4857C35.503 38.5009 36.881 36.7619 38.6505 35.5891C38.7838 35.5009 38.9478 35.4718 39.1033 35.509C39.2588 35.5461 39.392 35.6461 39.4709 35.7854C40.4347 37.4833 42.2431 38.5381 44.1904 38.5381C46.1376 38.5381 47.946 37.4833 48.9098 35.7854C48.9888 35.6463 49.1219 35.5462 49.2774 35.509C49.4332 35.4719 49.5971 35.501 49.7302 35.5891C52.5472 37.4561 54.2288 40.5858 54.2288 43.9612V46.9612C54.2288 47.2799 53.9706 47.5381 53.6519 47.5381Z" fill="#5F0080"/>
<path d="M19.2242 47.5382H3.57692C3.25835 47.5382 3 47.2799 3 46.9612V43.9612C3 40.5867 4.68173 37.457 7.4985 35.5893C7.63188 35.5008 7.79584 35.4718 7.95138 35.509C8.10692 35.5461 8.24007 35.6462 8.31899 35.7854C9.2828 37.4833 11.0912 38.5382 13.0385 38.5382C14.9857 38.5382 16.7941 37.4833 17.7579 35.7854C17.8368 35.6463 17.97 35.5462 18.1255 35.509C18.2813 35.4719 18.4451 35.501 18.5784 35.5892C20.3763 36.7807 21.7657 38.5515 22.4905 40.5752C22.5979 40.8752 22.4419 41.2054 22.1419 41.3128C21.8419 41.4204 21.5117 41.2642 21.4043 40.9642C20.8289 39.3576 19.7798 37.9311 18.4208 36.8928C17.1959 38.6337 15.187 39.692 13.0385 39.692C10.8896 39.692 8.8808 38.6336 7.656 36.8923C5.45273 38.5706 4.15385 41.1715 4.15385 43.9612V46.3843H19.2231C19.5416 46.3843 19.8006 46.6425 19.8006 46.9612C19.8006 47.2799 19.5428 47.5382 19.2242 47.5382Z" fill="#5F0080"/>
<path d="M13.0394 37.3844C10.4309 37.3844 8.30859 35.2621 8.30859 32.6536C8.30859 30.0451 10.4309 27.9229 13.0394 27.9229C15.6479 27.9229 17.7701 30.0451 17.7701 32.6536C17.7701 35.2621 15.6479 37.3844 13.0394 37.3844ZM13.0394 29.0767C11.0671 29.0767 9.46244 30.6812 9.46244 32.6536C9.46244 34.626 11.0671 36.2305 13.0394 36.2305C15.0116 36.2305 16.6163 34.626 16.6163 32.6536C16.6163 30.6812 15.0116 29.0767 13.0394 29.0767Z" fill="#5F0080"/>
<path d="M38.1328 51.0001H19.2097C18.8912 51.0001 18.6328 50.7419 18.6328 50.4232V47.4232C18.6328 47.2507 18.637 47.085 18.6452 46.9309C18.7633 44.4607 19.7899 42.1275 21.5355 40.3642C22.0202 39.8733 22.5573 39.4314 23.1315 39.0511C23.2649 38.9626 23.4289 38.9338 23.5843 38.9709C23.7398 39.0081 23.8729 39.1081 23.9518 39.2474C24.9156 40.9453 26.724 42.0001 28.6713 42.0001C30.6185 42.0001 32.4269 40.9453 33.3907 39.2474C33.4696 39.1082 33.6028 39.0082 33.7583 38.9709C33.9139 38.9339 34.0778 38.9629 34.2111 39.0511C34.7513 39.4091 35.2581 39.8212 35.7174 40.2758C37.5179 42.0469 38.5766 44.412 38.6976 46.9339C38.7056 47.086 38.7097 47.2516 38.7097 47.4231V50.4231C38.7097 50.7419 38.4515 51.0001 38.1328 51.0001ZM19.7867 49.8462H37.5559V47.4232C37.5559 47.2719 37.5523 47.127 37.545 46.9921C37.4379 44.758 36.5011 42.6655 34.907 41.0972C34.6391 40.8321 34.3535 40.5838 34.0536 40.3546C32.8287 42.0956 30.8198 43.1539 28.6713 43.1539C26.5227 43.1539 24.5137 42.0955 23.2889 40.3545C22.9596 40.6058 22.6472 40.8806 22.356 41.1754C20.8107 42.7364 19.9023 44.8009 19.7976 46.9892C19.7903 47.1261 19.7868 47.271 19.7868 47.4232V49.8462H19.7867Z" fill="#5F0080"/>
<path d="M28.1568 26.7227C28.0091 26.7227 27.8615 26.6664 27.7488 26.5538L21.6299 20.435C21.4046 20.2096 21.4046 19.8443 21.6299 19.6191L24.0773 17.1718C24.1855 17.0635 24.3321 17.0028 24.4853 17.0028C24.6384 17.0028 24.785 17.0637 24.8933 17.1718L28.1568 20.4354L35.5003 13.0918C35.7257 12.8665 36.091 12.8665 36.3163 13.0918L38.7635 15.5391C38.9889 15.7644 38.9889 16.1296 38.7635 16.355L28.5646 26.554C28.4519 26.6664 28.3044 26.7227 28.1568 26.7227ZM22.8538 20.027L28.1569 25.33L37.5399 15.9471L35.9083 14.3157L28.5647 21.6593C28.4564 21.7675 28.3098 21.8282 28.1567 21.8282C28.0036 21.8282 27.8569 21.7674 27.7487 21.6593L24.4851 18.3957L22.8538 20.027Z" fill="#5F0080"/>
<path d="M8.77133 16.3845C7.18076 16.3845 5.88672 15.0904 5.88672 13.4998C5.88672 11.9093 7.18076 10.6152 8.77133 10.6152C10.3619 10.6152 11.6559 11.9093 11.6559 13.4998C11.6559 15.0904 10.3619 16.3845 8.77133 16.3845ZM8.77133 11.7691C7.81699 11.7691 7.04056 12.5455 7.04056 13.4998C7.04056 14.4542 7.81699 15.2306 8.77133 15.2306C9.72568 15.2306 10.5021 14.4542 10.5021 13.4998C10.5021 12.5455 9.72568 11.7691 8.77133 11.7691Z" fill="#5F0080"/>
<path d="M50.3053 17.5383C48.3966 17.5383 46.8438 15.9855 46.8438 14.0768C46.8438 12.1681 48.3966 10.6152 50.3053 10.6152C52.214 10.6152 53.7668 12.1681 53.7668 14.0768C53.7668 15.9855 52.214 17.5383 50.3053 17.5383ZM50.3053 11.7691C49.0329 11.7691 47.9976 12.8043 47.9976 14.0768C47.9976 15.3492 49.0329 16.3845 50.3053 16.3845C51.5776 16.3845 52.613 15.3492 52.613 14.0768C52.613 12.8043 51.5776 11.7691 50.3053 11.7691Z" fill="#5F0080"/>
</svg>
