<svg width="20" height="20" viewBox="0 0 20 20" fill="none" xmlns="http://www.w3.org/2000/svg">
<path d="M19.3023 1.93555C19.6877 1.93555 20 2.27133 20 2.68554C20 3.09976 19.6877 3.43555 19.3023 3.43555H0.697674C0.312357 3.43555 0 3.09977 0 2.68555C0 2.27134 0.312357 1.93555 0.697674 1.93555H19.3023Z" fill="white"/>
<path d="M16.2791 10C16.2791 9.58579 15.9667 9.25 15.5814 9.25H0.697674C0.312359 9.25 0 9.58579 0 10C0 10.4142 0.312359 10.75 0.697674 10.75H15.5814C15.9667 10.75 16.2791 10.4142 16.2791 10Z" fill="white"/>
<path d="M20 17.3145C20 16.9002 19.6877 16.5645 19.3023 16.5645H0.697674C0.312357 16.5645 0 16.9002 0 17.3145C0 17.7287 0.312357 18.0645 0.697674 18.0645H19.3023C19.6877 18.0645 20 17.7287 20 17.3145Z" fill="white"/>
</svg>
