<svg width="20" height="20" viewBox="0 0 20 20" fill="none" xmlns="http://www.w3.org/2000/svg">
<path d="M16.7093 16.149C16.9818 16.4215 16.9652 16.8798 16.6723 17.1727C16.3795 17.4656 15.9212 17.4822 15.6487 17.2097L2.49322 4.05423C2.22076 3.78177 2.23732 3.32347 2.53021 3.03058C2.82311 2.73768 3.28142 2.72111 3.55388 2.99357L16.7093 16.149Z" fill="white"/>
<path d="M16.6725 3.15505C16.3796 2.86216 15.9213 2.84555 15.6488 3.11807L2.49333 16.2735C2.22087 16.546 2.23744 17.0043 2.53033 17.2972C2.82322 17.5901 3.28153 17.6066 3.55399 17.3342L16.7094 4.17873C16.982 3.90621 16.9653 3.44795 16.6725 3.15505Z" fill="white"/>
</svg>
