<svg width="20" height="20" viewBox="0 0 20 20" fill="none" xmlns="http://www.w3.org/2000/svg">
<g id="cart">
<path id="Vector" fill-rule="evenodd" clip-rule="evenodd" d="M3.26009 2.60942C3.28802 2.61288 3.30938 2.61643 3.32533 2.61959C3.33014 2.63397 3.33587 2.65306 3.3422 2.67789C3.38072 2.82898 3.40803 3.04563 3.45434 3.43595L4.15441 9.33613C4.23687 10.0313 4.30755 10.6273 4.42849 11.1016C4.55801 11.6096 4.76767 12.0777 5.19655 12.4472C5.62486 12.8161 6.12864 12.9633 6.66391 13.0294C7.16478 13.0913 7.78515 13.0913 8.51038 13.0913H14.2037C14.8946 13.0913 15.487 13.0913 15.9677 13.0334C16.482 12.9714 16.9669 12.8337 17.3874 12.4897C17.8084 12.1453 18.0296 11.7047 18.1781 11.2231C18.3165 10.774 18.414 10.209 18.5275 9.55143L18.6972 8.56822C18.8518 7.67226 18.9823 6.91642 18.9975 6.30917C19.0136 5.6661 18.9071 5.04474 18.4497 4.52334C17.9932 4.00289 17.3785 3.80043 16.7215 3.71039C16.0998 3.62516 15.3072 3.62519 14.3657 3.62521L5.12286 3.62522L5.07371 3.21095C5.0343 2.87842 4.99636 2.55826 4.92947 2.29589C4.85408 2.0002 4.71983 1.67985 4.41985 1.42145C4.12043 1.16354 3.77726 1.07192 3.46655 1.03351C3.1899 0.999312 2.85696 0.999353 2.50988 0.999392L1.81664 0.999402C1.36965 0.999402 0.999023 1.35053 0.999023 1.79371C0.999023 2.23689 1.36965 2.58802 1.81664 2.58802H2.46566C2.87209 2.58802 3.09917 2.58953 3.26009 2.60942ZM5.77287 9.10348L5.31136 5.21384H14.3045C15.3227 5.21384 15.9991 5.21571 16.4931 5.28342C16.9648 5.34808 17.1185 5.45501 17.2051 5.55379C17.291 5.65163 17.3742 5.81311 17.3627 6.27057C17.3507 6.75104 17.2417 7.39442 17.0742 8.36483L16.9231 9.2401C16.7991 9.95904 16.7171 10.4249 16.6116 10.7673C16.5127 11.0879 16.4202 11.2041 16.334 11.2746C16.2474 11.3455 16.1119 11.4152 15.7662 11.4569C15.3982 11.5013 14.9078 11.5027 14.1534 11.5027H8.56247C7.77153 11.5027 7.25587 11.5012 6.87038 11.4535C6.50762 11.4087 6.36886 11.3338 6.28145 11.2585C6.1946 11.1837 6.10269 11.0606 6.01576 10.7196C5.92311 10.3562 5.86295 9.86269 5.77287 9.10348Z" fill="#000000"/>
<path id="Vector_2" fill-rule="evenodd" clip-rule="evenodd" d="M7.0457 14.7852C5.88192 14.7852 4.93848 15.7286 4.93848 16.8924C4.93848 18.0562 5.88192 18.9996 7.0457 18.9996C8.20949 18.9996 9.15292 18.0562 9.15292 16.8924C9.15292 15.7286 8.20949 14.7852 7.0457 14.7852ZM6.5271 16.8924C6.5271 16.606 6.75929 16.3738 7.0457 16.3738C7.33212 16.3738 7.5643 16.606 7.5643 16.8924C7.5643 17.1788 7.33212 17.411 7.0457 17.411C6.75929 17.411 6.5271 17.1788 6.5271 16.8924Z" fill="#000000"/>
<path id="Vector_3" fill-rule="evenodd" clip-rule="evenodd" d="M14.9226 14.7852C13.7588 14.7852 12.8154 15.7286 12.8154 16.8924C12.8154 18.0562 13.7588 18.9996 14.9226 18.9996C16.0864 18.9996 17.0298 18.0562 17.0298 16.8924C17.0298 15.7286 16.0864 14.7852 14.9226 14.7852ZM14.404 16.8924C14.404 16.606 14.6362 16.3738 14.9226 16.3738C15.209 16.3738 15.4412 16.606 15.4412 16.8924C15.4412 17.1788 15.209 17.411 14.9226 17.411C14.6362 17.411 14.404 17.1788 14.404 16.8924Z" fill="#000000"/>
</g>
</svg>
