<svg width="25" height="25" viewBox="0 0 25 25" fill="none" xmlns="http://www.w3.org/2000/svg">
<g id="user-circle">
<path id="Icon" d="M5.53773 20.2484C6.1714 18.7555 7.65088 17.7084 9.37492 17.7084H15.6249C17.349 17.7084 18.8284 18.7555 19.4621 20.2484M16.6666 9.89587C16.6666 12.1971 14.8011 14.0625 12.4999 14.0625C10.1987 14.0625 8.33325 12.1971 8.33325 9.89587C8.33325 7.59469 10.1987 5.72921 12.4999 5.72921C14.8011 5.72921 16.6666 7.59469 16.6666 9.89587ZM22.9166 12.5C22.9166 18.253 18.2529 22.9167 12.4999 22.9167C6.74695 22.9167 2.08325 18.253 2.08325 12.5C2.08325 6.74707 6.74695 2.08337 12.4999 2.08337C18.2529 2.08337 22.9166 6.74707 22.9166 12.5Z" stroke="#333333" stroke-width="1.4" stroke-linecap="round" stroke-linejoin="round"/>
</g>
</svg>
