<svg width="20" height="21" viewBox="0 0 20 21" fill="none" xmlns="http://www.w3.org/2000/svg">
<g clip-path="url(#clip0_11705_113578)">
<path d="M12.1027 10.9508C12.9838 10.4186 13.7072 9.66647 14.1999 8.77027C14.6926 7.87406 14.9372 6.86546 14.9091 5.84615C14.9091 4.56087 14.3919 3.32824 13.4713 2.41941C12.5506 1.51058 11.302 1 10 1C8.69803 1 7.44938 1.51058 6.52875 2.41941C5.60812 3.32824 5.09091 4.56087 5.09091 5.84615C5.06279 6.86546 5.30741 7.87406 5.80012 8.77027C6.29282 9.66647 7.01619 10.4186 7.89727 10.9508C5.93407 11.4165 4.18651 12.5203 2.93554 14.0848C1.68457 15.6494 1.00286 17.5837 1 19.5769V22H2.63636V19.5769C2.63543 17.9291 3.20169 16.3298 4.2423 15.0413C5.2829 13.7528 6.7361 12.8516 8.36364 12.4854C8.39807 12.6318 8.4683 12.7677 8.56818 12.8812L9.11636 13.4142L8.36364 19.4962C8.35137 19.6158 8.36631 19.7366 8.40736 19.8497C8.44841 19.9629 8.51453 20.0656 8.60091 20.1504L9.41909 20.9581C9.49515 21.0338 9.58564 21.0939 9.68535 21.1349C9.78505 21.1759 9.89199 21.197 10 21.197C10.108 21.197 10.215 21.1759 10.3147 21.1349C10.4144 21.0939 10.5048 21.0338 10.5809 20.9581L11.3991 20.1504C11.4855 20.0656 11.5516 19.9629 11.5926 19.8497C11.6337 19.7366 11.6486 19.6158 11.6364 19.4962L10.8182 13.4142L11.3664 12.8812C11.4662 12.7677 11.5365 12.6318 11.5709 12.4854C13.2105 12.8388 14.6787 13.7346 15.7322 15.0243C16.7856 16.3139 17.3612 17.9202 17.3636 19.5769V22H19V19.5769C18.9971 17.5837 18.3154 15.6494 17.0645 14.0848C15.8135 12.5203 14.0659 11.4165 12.1027 10.9508ZM6.72727 5.84615C6.72727 4.9893 7.07208 4.16754 7.68583 3.56165C8.29959 2.95577 9.13202 2.61538 10 2.61538C10.868 2.61538 11.7004 2.95577 12.3142 3.56165C12.9279 4.16754 13.2727 4.9893 13.2727 5.84615C13.2727 8.07538 11.8082 9.88461 10 9.88461C8.19182 9.88461 6.72727 8.07538 6.72727 5.84615Z" fill="#5F0080"/>
</g>
<defs>
<clipPath id="clip0_11705_113578">
<rect width="20" height="20" fill="white" transform="translate(0 0.5)"/>
</clipPath>
</defs>
</svg>
