<svg width="20" height="21" viewBox="0 0 20 21" fill="none" xmlns="http://www.w3.org/2000/svg">
<path fill-rule="evenodd" clip-rule="evenodd" d="M10.7862 2.5H5.00457C2.6454 2.5 1.46581 2.5 0.732903 3.23223C0.0198369 3.94465 0.000536448 5.07951 1.40472e-05 7.31119C0.0126359 7.31038 0.0253521 7.30997 0.0381529 7.30997H5.65455C6.02111 7.30997 6.31827 7.64575 6.31827 8.05997C6.31827 8.47418 6.02111 8.80997 5.65455 8.80997H0.0381528C0.0253472 8.80997 0.0126264 8.80956 0 8.80875L2.02372e-06 14.26C2.26721e-06 15.401 0.853908 16.3428 1.9581 16.4822C2.27096 17.6445 3.33309 18.5 4.59524 18.5C5.85093 18.5 6.90866 17.6532 7.22753 16.5H11.1084C11.4273 17.6532 12.485 18.5 13.7407 18.5C14.9884 18.5 16.0406 17.664 16.3668 16.522C17.0022 16.522 17.5512 16.5199 17.994 16.4604C18.4861 16.3943 18.9578 16.2452 19.3404 15.863C19.723 15.4807 19.8722 15.0095 19.9383 14.5178C20.0001 14.0591 20 13.4863 20 12.8214V11.1921C20 10.6585 20 10.2081 19.966 9.83657C19.93 9.44406 19.852 9.07827 19.6601 8.72912C19.5331 8.49806 19.3734 8.28645 19.1861 8.10079C18.9031 7.82022 18.5726 7.64452 18.2049 7.50179C17.8569 7.36669 17.4236 7.24258 16.9102 7.09555L15.0137 6.5523C15.0133 5.05406 15.0008 4.28463 14.6557 3.71144C14.445 3.36137 14.1516 3.06822 13.8012 2.85766C13.206 2.5 12.3994 2.5 10.7862 2.5ZM15.0137 8.11274V13.3578C15.6653 13.7014 16.1609 14.3007 16.3668 15.022C17.028 15.0217 17.4662 15.0178 17.794 14.9738C18.1196 14.93 18.2216 14.8594 18.2788 14.8023C18.3359 14.7452 18.4066 14.6433 18.4504 14.318C18.497 13.9711 18.4986 13.5003 18.4986 12.772V11.9751H17.0156C16.601 11.9751 16.2649 11.6393 16.2649 11.2251C16.2649 10.8109 16.601 10.4751 17.0155 10.4751L18.4945 10.4751C18.4909 10.2794 18.484 10.1163 18.4709 9.97338C18.445 9.69172 18.3994 9.55178 18.3441 9.45121C18.2864 9.34619 18.2138 9.25 18.1287 9.16561C18.0472 9.0848 17.9251 9.0024 17.6612 8.89998C17.3848 8.7927 17.0182 8.68691 16.4645 8.52832L15.0137 8.11274ZM4.59524 17C4.18915 17 3.82905 16.8033 3.60522 16.5C3.45486 16.2963 3.36599 16.0444 3.36599 15.7719C3.36599 15.0936 3.91634 14.5438 4.59524 14.5438C5.27413 14.5438 5.82449 15.0936 5.82449 15.7719C5.82449 16.0444 5.73562 16.2963 5.58525 16.5C5.36143 16.8033 5.00133 17 4.59524 17ZM13.7407 17C13.3332 17 12.9721 16.8019 12.7484 16.4969C12.5994 16.2937 12.5114 16.0431 12.5114 15.7719C12.5114 15.0936 13.0618 14.5438 13.7407 14.5438C14.2905 14.5438 14.756 14.9044 14.9131 15.4018C14.95 15.5186 14.9699 15.6429 14.9699 15.7719C14.9699 16.4502 14.4196 17 13.7407 17ZM2.31461 5.54956C2.31461 5.13535 2.58825 4.79956 2.92579 4.79956H6.80456C7.1421 4.79956 7.41573 5.13535 7.41573 5.54956C7.41573 5.96377 7.1421 6.29956 6.80456 6.29956H2.92579C2.58825 6.29956 2.31461 5.96377 2.31461 5.54956Z" fill="#5F0080"/>
</svg>
