<svg width="20" height="21" viewBox="0 0 20 21" fill="none" xmlns="http://www.w3.org/2000/svg">
<path fill-rule="evenodd" clip-rule="evenodd" d="M1 10.9361C1 8.98765 1 8.01344 1.33354 7.1521C1.5017 6.71784 1.73042 6.3092 2.01299 5.93817C2.57345 5.20225 3.40637 4.68835 5.0722 3.66056L5.25249 3.54932C7.29915 2.28656 8.32248 1.65517 9.44549 1.53065C9.81402 1.48978 10.186 1.48978 10.5545 1.53065C11.6775 1.65517 12.7009 2.28656 14.7475 3.54932L14.9278 3.66056C16.5936 4.68835 17.4265 5.20225 17.987 5.93817C18.2696 6.3092 18.4983 6.71784 18.6665 7.1521C19 8.01344 19 8.98765 19 10.9361C19 14.3006 19 15.9829 18.2139 17.2059C17.823 17.8141 17.3034 18.3304 16.6913 18.7188C15.4605 19.5 13.7675 19.5 10.3816 19.5H9.61843C6.23249 19.5 4.53951 19.5 3.30866 18.7188C2.6966 18.3304 2.17705 17.8141 1.78613 17.2059C1 15.9829 1 14.3006 1 10.9361ZM7 14C6.58579 14 6.25 14.3358 6.25 14.75C6.25 15.1642 6.58579 15.5 7 15.5H13C13.4142 15.5 13.75 15.1642 13.75 14.75C13.75 14.3358 13.4142 14 13 14H7Z" fill="#5F0080"/>
</svg>
