<svg width="20" height="21" viewBox="0 0 20 21" fill="none" xmlns="http://www.w3.org/2000/svg">
<path fill-rule="evenodd" clip-rule="evenodd" d="M10.2415 4.00243C10.8442 4.00243 11.258 4.00285 11.5804 4.02521C11.8959 4.0471 12.0677 4.08738 12.1927 4.14009C12.6136 4.31772 12.9486 4.65298 13.1261 5.07434C13.1787 5.19937 13.219 5.37141 13.2408 5.6872C13.2632 6.00989 13.2636 6.42407 13.2636 7.02727V11.4887C13.2636 11.9036 13.5996 12.2399 14.0141 12.2399C14.4286 12.2399 14.7646 11.9036 14.7646 11.4887V8.02413L16.4653 8.51217C17.0188 8.67101 17.3854 8.77697 17.6617 8.88443C17.9256 8.98702 18.0476 9.06955 18.1291 9.15049C18.2142 9.23502 18.2868 9.33136 18.3445 9.43656C18.3997 9.53728 18.4454 9.67745 18.4712 9.95957C18.4843 10.1027 18.4912 10.2661 18.4949 10.4621L17.0162 10.4621C16.6017 10.4621 16.2657 10.7985 16.2657 11.2133C16.2657 11.6282 16.6017 11.9646 17.0162 11.9646L18.499 11.9645V12.7627C18.499 13.4922 18.4974 13.9637 18.4507 14.3112C18.4069 14.637 18.3363 14.7391 18.2791 14.7963C18.222 14.8535 18.12 14.9242 17.7944 14.968C17.4668 15.0121 17.0287 15.016 16.3676 15.0163C16.0416 13.8724 14.9895 13.0349 13.742 13.0349C12.4945 13.0349 11.4425 13.8724 11.1164 15.0164H7.22418C6.89816 13.8724 5.84608 13.0349 4.59858 13.0349C3.4291 13.0349 2.43136 13.771 2.04254 14.8055C1.7158 14.5841 1.50104 14.2097 1.50104 13.785V11.4887C1.50104 11.0738 1.16502 10.7375 0.750522 10.7375C0.33602 10.7375 0 11.0738 0 11.4887V13.785C0 15.0205 0.818775 16.0645 1.94282 16.4032C2.22908 17.6057 3.30949 18.5 4.59858 18.5C5.846 18.5 6.89802 17.6626 7.22411 16.5188H11.1165C11.4426 17.6626 12.4946 18.5 13.742 18.5C14.9895 18.5 16.0415 17.6626 16.3676 16.5188C17.0028 16.5187 17.5517 16.5167 17.9945 16.4571C18.4864 16.3909 18.958 16.2416 19.3405 15.8587C19.723 15.4758 19.8722 15.0038 19.9383 14.5114C20.0001 14.0519 20 13.4781 20 12.8122V11.1802C20 10.6457 20 10.1946 19.966 9.82254C19.93 9.42939 19.852 9.06301 19.6601 8.71329C19.5332 8.48186 19.3736 8.26991 19.1863 8.08395C18.9033 7.80293 18.573 7.62694 18.2053 7.48398C17.8573 7.34866 17.4241 7.22434 16.9108 7.07706L14.7636 6.46088C14.7617 6.12702 14.7558 5.83628 14.7383 5.58332C14.711 5.18974 14.653 4.83215 14.5092 4.49069C14.1796 3.70818 13.5576 3.08555 12.7758 2.75566C12.4346 2.61171 12.0774 2.55366 11.6841 2.52638C11.3037 2.49999 10.8377 2.49999 10.268 2.5H0.750522C0.33602 2.5 0 2.83633 0 3.25121C0 3.6661 0.33602 4.00243 0.750522 4.00243H10.2415ZM4.59858 16.9976C5.27733 16.9976 5.82756 16.4468 5.82756 15.7675C5.82756 15.0881 5.27733 14.5374 4.59858 14.5374C3.91983 14.5374 3.3696 15.0881 3.3696 15.7675C3.3696 16.4468 3.91983 16.9976 4.59858 16.9976ZM13.742 16.9976C14.4208 16.9976 14.971 16.4468 14.971 15.7675C14.971 15.0881 14.4208 14.5374 13.742 14.5374C13.0633 14.5374 12.5131 15.0881 12.5131 15.7675C12.5131 16.4468 13.0633 16.9976 13.742 16.9976Z" fill="#333333"/>
<path d="M1.5498 5.97973C1.5498 5.56485 1.88582 5.22852 2.30032 5.22852H6.00806C6.42256 5.22852 6.75858 5.56485 6.75858 5.97973C6.75858 6.39461 6.42256 6.73094 6.00806 6.73094H2.30032C1.88582 6.73094 1.5498 6.39461 1.5498 5.97973Z" fill="#333333"/>
<path d="M0.750522 7.76392C0.33602 7.76392 0 8.10025 0 8.51513C0 8.93002 0.33602 9.26635 0.750522 9.26635H5.69418C6.10868 9.26635 6.4447 8.93002 6.4447 8.51513C6.4447 8.10025 6.10868 7.76392 5.69418 7.76392H0.750522Z" fill="#333333"/>
</svg>
