<svg width="20" height="21" viewBox="0 0 20 21" fill="none" xmlns="http://www.w3.org/2000/svg">
<path d="M5.25 4.8038C5.25 2.33479 7.47385 0.5 10 0.5C12.5261 0.5 14.75 2.33479 14.75 4.8038C14.75 7.27281 12.5261 9.1076 10 9.1076C7.47385 9.1076 5.25 7.27281 5.25 4.8038Z" fill="#5F0080"/>
<path d="M3.78199 20.4884C3.89067 20.5005 4.01982 20.5005 4.27814 20.5005H15.7219C15.9802 20.5005 16.1093 20.5005 16.218 20.4884C17.15 20.3849 17.8859 19.6397 17.9881 18.6959C18 18.5859 18 18.4551 18 18.1935V17.6834C18 15.5892 16.9238 13.646 15.1592 12.554C11.992 10.594 8.00799 10.594 4.84083 12.554C3.07623 13.646 2 15.5892 2 17.6834V18.1935C2 18.4551 2 18.5859 2.01192 18.6959C2.11412 19.6397 2.85001 20.3849 3.78199 20.4884Z" fill="#5F0080"/>
</svg>
