<svg width="20" height="21" viewBox="0 0 20 21" fill="none" xmlns="http://www.w3.org/2000/svg">
<path fill-rule="evenodd" clip-rule="evenodd" d="M5.29102 4.8038C5.29102 2.33478 7.49558 0.5 9.99982 0.5C12.5041 0.5 14.7086 2.33478 14.7086 4.8038C14.7086 7.27281 12.5041 9.10759 9.99982 9.10759C7.49558 9.10759 5.29102 7.27281 5.29102 4.8038ZM9.99982 2.01899C8.1241 2.01899 6.77801 3.35788 6.77801 4.8038C6.77801 6.24971 8.1241 7.58861 9.99982 7.58861C11.8756 7.58861 13.2217 6.24971 13.2217 4.8038C13.2217 3.35788 11.8756 2.01899 9.99982 2.01899Z" fill="#333333"/>
<path fill-rule="evenodd" clip-rule="evenodd" d="M4.93265 11.7083C8.04335 9.74145 11.9566 9.74145 15.0673 11.7083C16.8895 12.8604 18 14.91 18 17.1178V17.6317C18 17.8337 18.0001 17.9947 17.9847 18.1395C17.854 19.3726 16.9125 20.3484 15.7176 20.484C15.5773 20.4999 15.4215 20.4998 15.2263 20.4998H4.77366C4.57853 20.4998 4.4227 20.4999 4.28242 20.484C3.08748 20.3484 2.14596 19.3726 2.01526 18.1395C1.99991 17.9947 1.99995 17.8337 2.00001 17.6316V17.1178C2.00001 14.91 3.11054 12.8604 4.93265 11.7083ZM14.2847 13.0272C11.6543 11.364 8.34571 11.364 5.71529 13.0272C4.33869 13.8976 3.49833 15.4471 3.49833 17.1178V17.5901C3.49833 17.8531 3.49946 17.9219 3.50469 17.9713C3.55925 18.4861 3.95169 18.8905 4.44614 18.9466C4.4935 18.952 4.55969 18.9531 4.81397 18.9531H15.186C15.4403 18.9531 15.5065 18.952 15.5539 18.9466C16.0483 18.8905 16.4407 18.4861 16.4953 17.9713C16.5005 17.9219 16.5017 17.8531 16.5017 17.5901V17.1178C16.5017 15.4471 15.6613 13.8976 14.2847 13.0272Z" fill="#333333"/>
</svg>
