<svg width="20" height="21" viewBox="0 0 20 21" fill="none" xmlns="http://www.w3.org/2000/svg">
<path fill-rule="evenodd" clip-rule="evenodd" d="M9.61843 17.8952H10.3816C12.1046 17.8952 13.288 17.8935 14.198 17.8047C15.0844 17.7182 15.5498 17.5604 15.8839 17.3484C16.3124 17.0765 16.6761 16.7151 16.9497 16.2893C17.1631 15.9573 17.3218 15.4948 17.4089 14.614C17.4983 13.7098 17.5 12.5339 17.5 10.8218C17.5 8.75545 17.4763 8.11488 17.2665 7.57311C17.1488 7.26913 16.9887 6.98308 16.7909 6.72336C16.4384 6.26047 15.9032 5.90258 14.1365 4.81257L13.9563 4.70133C12.9121 4.05711 12.2055 3.62255 11.6218 3.32601C11.0608 3.04099 10.7049 2.93283 10.3882 2.89771C10.1302 2.8691 9.86981 2.8691 9.61184 2.89771C9.29509 2.93283 8.9392 3.04099 8.37818 3.32601C7.79446 3.62255 7.08787 4.05711 6.04374 4.70133L5.86345 4.81257C4.09679 5.90258 3.56162 6.26047 3.20909 6.72336C3.01129 6.98308 2.85119 7.26913 2.73348 7.57311C2.52369 8.11488 2.5 8.75545 2.5 10.8218C2.5 12.5339 2.50169 13.7098 2.59108 14.614C2.67816 15.4948 2.83688 15.9573 3.05029 16.2893C3.32393 16.7151 3.68762 17.0765 4.11606 17.3484C4.45021 17.5604 4.91563 17.7182 5.80203 17.8047C6.71202 17.8935 7.89539 17.8952 9.61843 17.8952ZM1.33354 7.03784C1 7.89917 1 8.87339 1 10.8218C1 14.1863 1 15.8686 1.78613 17.0916C2.17705 17.6998 2.6966 18.2161 3.30866 18.6045C4.53951 19.3857 6.23249 19.3857 9.61843 19.3857H10.3816C13.7675 19.3857 15.4605 19.3857 16.6913 18.6045C17.3034 18.2161 17.823 17.6998 18.2139 17.0916C19 15.8686 19 14.1863 19 10.8218C19 8.87339 19 7.89917 18.6665 7.03784C18.4983 6.60358 18.2696 6.19494 17.987 5.82391C17.4265 5.08799 16.5936 4.57409 14.9278 3.54629L14.7475 3.43506C12.7009 2.17229 11.6775 1.54091 10.5545 1.41639C10.186 1.37553 9.81402 1.37553 9.44549 1.41639C8.32248 1.54091 7.29915 2.17229 5.25249 3.43506L5.0722 3.54629C3.40637 4.57409 2.57345 5.08799 2.01299 5.82391C1.73042 6.19494 1.5017 6.60358 1.33354 7.03784Z" fill="#333333"/>
<path fill-rule="evenodd" clip-rule="evenodd" d="M6.25 14.5C6.25 14.0857 6.58579 13.75 7 13.75H13C13.4142 13.75 13.75 14.0857 13.75 14.5C13.75 14.9142 13.4142 15.25 13 15.25H7C6.58579 15.25 6.25 14.9142 6.25 14.5Z" fill="#333333"/>
</svg>
