<svg width="20" height="21" viewBox="0 0 20 21" fill="none" xmlns="http://www.w3.org/2000/svg">
<path d="M19.3023 2.43555C19.6877 2.43555 20 2.77133 20 3.18554C20 3.59976 19.6877 3.93555 19.3023 3.93555H0.697674C0.312357 3.93555 0 3.59977 0 3.18555C0 2.77134 0.312357 2.43555 0.697674 2.43555H19.3023Z" fill="#333333"/>
<path d="M16.2791 10.5C16.2791 10.0858 15.9667 9.75 15.5814 9.75H0.697674C0.312359 9.75 0 10.0858 0 10.5C0 10.9142 0.312359 11.25 0.697674 11.25H15.5814C15.9667 11.25 16.2791 10.9142 16.2791 10.5Z" fill="#333333"/>
<path d="M20 17.8145C20 17.4002 19.6877 17.0645 19.3023 17.0645H0.697674C0.312357 17.0645 0 17.4002 0 17.8145C0 18.2287 0.312357 18.5645 0.697674 18.5645H19.3023C19.6877 18.5645 20 18.2287 20 17.8145Z" fill="#333333"/>
</svg>
