<svg width="20" height="20" viewBox="0 0 20 20" fill="none" xmlns="http://www.w3.org/2000/svg">
<g id="type/heart">
<path id="Vector" d="M14.125 3.19873C14.5713 3.19873 15.0143 3.27528 15.4336 3.42529L15.6123 3.49463C16.0244 3.66544 16.4036 3.90564 16.7334 4.20459L16.8721 4.33643C17.1878 4.65197 17.4462 5.01977 17.6367 5.42236L17.7148 5.59717C17.91 6.06833 18.0107 6.57351 18.0107 7.0835C18.0107 7.52996 17.9333 7.97263 17.7832 8.39209L17.7148 8.56982C17.5439 8.98227 17.3031 9.36186 17.0039 9.69189L16.8721 9.82959V9.83057L15.9893 10.7134L10 16.7017L3.12891 9.83057C2.40046 9.10212 1.99124 8.11367 1.99121 7.0835L1.99609 6.89111C2.04048 5.99483 2.39372 5.14124 2.99609 4.47607L3.12891 4.33643C3.85725 3.6082 4.84505 3.19884 5.875 3.19873C6.84073 3.19873 7.76989 3.55852 8.48242 4.20361L8.62207 4.33643L9.50586 5.22021C9.63701 5.35121 9.81464 5.42518 10 5.42529C10.1393 5.42529 10.2745 5.38328 10.3887 5.30713L10.4951 5.22021L11.3789 4.33643C11.6943 4.02086 12.0614 3.76227 12.4639 3.57178L12.6387 3.49463C13.0511 3.32375 13.4897 3.22551 13.9346 3.20361L14.125 3.19873Z" fill="#5F0080" stroke="#5F0080" stroke-width="1.4" stroke-linecap="round" stroke-linejoin="round"/>
</g>
</svg>
