<svg width="26" height="25" viewBox="0 0 26 25" fill="none" xmlns="http://www.w3.org/2000/svg">
<g id="type/heart">
<path id="Vector" d="M18.1562 3.82324C18.7343 3.82324 19.3075 3.92284 19.8506 4.11719L20.0811 4.20605C20.615 4.42731 21.1068 4.73859 21.5342 5.12598L21.7129 5.29688H21.7139C22.1228 5.7056 22.4573 6.18164 22.7041 6.70312L22.8047 6.92871C23.0576 7.53903 23.1875 8.19385 23.1875 8.85449C23.1875 9.51497 23.0575 10.1691 22.8047 10.7793C22.5834 11.3133 22.2712 11.8041 21.8838 12.2314L21.7139 12.4111L20.6094 13.5156L13 21.124L5.39062 13.5156L4.28711 12.4111C3.34379 11.4678 2.81358 10.1885 2.81348 8.85449L2.81934 8.60449C2.87694 7.44413 3.33448 6.33877 4.11426 5.47754L4.28711 5.29688C5.17161 4.41252 6.35137 3.89167 7.59473 3.83008L7.84375 3.82324C9.09444 3.82324 10.297 4.28956 11.2197 5.125L11.4014 5.29688L12.5049 6.40137C12.7439 6.64042 13.1131 6.67027 13.3848 6.49121L13.4951 6.40137L14.5996 5.29688C15.0082 4.88815 15.4836 4.55335 16.0049 4.30664L16.2314 4.20605C16.8417 3.95324 17.4957 3.82325 18.1562 3.82324Z" stroke="#333333" stroke-width="1.4" stroke-linecap="round" stroke-linejoin="round"/>
</g>
</svg>
