<svg xmlns="http://www.w3.org/2000/svg" version="1.1" xmlns:xlink="http://www.w3.org/1999/xlink" width="16" height="16"><svg width="16" height="16" viewBox="0 0 16 16" fill="none" xmlns="http://www.w3.org/2000/svg">
<g clip-path="url(#clip0_12473_169180)">
<path d="M12 0H4C1.79086 0 0 1.79086 0 4V12C0 14.2091 1.79086 16 4 16H12C14.2091 16 16 14.2091 16 12V4C16 1.79086 14.2091 0 12 0Z" fill="#571D78"></path>
<path d="M8.9249 2.875H6.8999V7.325H8.9249V2.875Z" fill="white"></path>
<path d="M12.35 5.75039C11.925 5.00039 11.325 4.42539 10.55 4.00039C10.15 3.77539 9.75 3.62539 9.325 3.52539V5.55039C9.375 5.55039 9.425 5.60039 9.475 5.62539C9.9 5.87539 10.25 6.25039 10.5 6.70039C10.75 7.15039 10.875 7.67539 10.875 8.27539C10.875 8.87539 10.75 9.37539 10.5 9.85039C10.25 10.3004 9.9 10.6754 9.475 10.9254C9.05 11.1754 8.55 11.3004 8 11.3004C7.45 11.3004 6.975 11.1754 6.525 10.9254C6.1 10.6754 5.75 10.3004 5.5 9.85039C5.25 9.40039 5.125 8.87539 5.125 8.27539C5.125 7.67539 5.25 7.17539 5.5 6.70039C5.75 6.25039 6.075 5.90039 6.5 5.65039V3.57539C6.125 3.67539 5.75 3.82539 5.425 4.02539C4.675 4.45039 4.075 5.02539 3.65 5.77539C3.225 6.52539 3 7.35039 3 8.27539C3 9.20039 3.225 10.0254 3.65 10.7754C4.075 11.5254 4.675 12.1004 5.425 12.5254C6.175 12.9504 7.05 13.1504 8 13.1504C8.95 13.1504 9.8 12.9504 10.55 12.5254C11.3 12.1004 11.9 11.5254 12.35 10.7754C12.775 10.0254 13 9.20039 13 8.27539C13 7.35039 12.775 6.52539 12.35 5.77539V5.75039Z" fill="white"></path>
<path d="M6.9001 3.25H6.3501V6.3H6.9001V3.25Z" fill="#571D78"></path>
<path d="M9.4748 3.25H8.9248V6.3H9.4748V3.25Z" fill="#571D78"></path>
</g>
<defs>
<clipPath id="SvgjsClipPath1005">
<rect width="16" height="16" fill="white"></rect>
</clipPath>
</defs>
</svg><style>@media (prefers-color-scheme: light) { :root { filter: none; } }
@media (prefers-color-scheme: dark) { :root { filter: none; } }
</style></svg>