<svg width="20" height="20" viewBox="0 0 20 20" fill="none" xmlns="http://www.w3.org/2000/svg">
<path fill-rule="evenodd" clip-rule="evenodd" d="M10.0001 20C15.5229 20 20.0001 15.5228 20.0001 10C20.0001 4.47715 15.5229 0 10.0001 0C4.47721 0 6.10352e-05 4.47715 6.10352e-05 10C6.10352e-05 15.5228 4.47721 20 10.0001 20ZM15.231 7.70711C15.6215 7.31658 15.6215 6.68342 15.231 6.29289C14.8405 5.90237 14.2073 5.90237 13.8168 6.29289L7.97625 12.1334L5.70717 9.86432C5.31664 9.4738 4.68348 9.4738 4.29295 9.86432C3.90243 10.2548 3.90243 10.888 4.29295 11.2785L7.26915 14.2547C7.45668 14.4423 7.71103 14.5476 7.97625 14.5476C8.24147 14.5476 8.49582 14.4423 8.68336 14.2547L15.231 7.70711Z" fill="#5F0080"/>
</svg>
