<svg width="24" height="24" viewBox="0 0 24 24" fill="none" xmlns="http://www.w3.org/2000/svg">
<path d="M21.0007 12.424V11C21.0007 8.61305 20.0525 6.32387 18.3646 4.63604C16.6768 2.94821 14.3876 2 12.0007 2C9.61373 2 7.32455 2.94821 5.63672 4.63604C3.94889 6.32387 3.00068 8.61305 3.00068 11V12.424C1.95184 12.8858 1.09348 13.694 0.569305 14.7131C0.0451257 15.7322 -0.113056 16.9004 0.121241 18.0222C0.355537 19.1441 0.96809 20.1513 1.85635 20.8755C2.74462 21.5996 3.85467 21.9966 5.00068 22H7.00068V12H5.00068V11C5.00068 9.14348 5.73818 7.36301 7.05094 6.05025C8.36369 4.7375 10.1442 4 12.0007 4C13.8572 4 15.6377 4.7375 16.9504 6.05025C18.2632 7.36301 19.0007 9.14348 19.0007 11V12H17.0007V20H13.0007V22H19.0007C20.1467 21.9966 21.2568 21.5996 22.145 20.8755C23.0333 20.1513 23.6458 19.1441 23.8801 18.0222C24.1144 16.9004 23.9562 15.7322 23.4321 14.7131C22.9079 13.694 22.0495 12.8858 21.0007 12.424ZM5.00068 20C4.20503 20 3.44197 19.6839 2.87936 19.1213C2.31675 18.5587 2.00068 17.7956 2.00068 17C2.00068 16.2044 2.31675 15.4413 2.87936 14.8787C3.44197 14.3161 4.20503 14 5.00068 14V20ZM19.0007 20V14C19.7963 14 20.5594 14.3161 21.122 14.8787C21.6846 15.4413 22.0007 16.2044 22.0007 17C22.0007 17.7956 21.6846 18.5587 21.122 19.1213C20.5594 19.6839 19.7963 20 19.0007 20Z" fill="#333333"/>
</svg>
