<svg width="24" height="24" viewBox="0 0 24 24" fill="none" xmlns="http://www.w3.org/2000/svg">
<g clip-path="url(#clip0_9265_133144)">
<path d="M16.5002 24.0013C9.25223 24.0013 0.000232378 14.7493 0.000232378 7.50133C-0.00669965 6.72114 0.141524 5.94736 0.436285 5.22496C0.731047 4.50256 1.16647 3.84596 1.71723 3.29333L4.88723 0.123338L11.1512 6.38833L7.74523 9.79433C8.97262 12.7088 11.2884 15.0296 14.2002 16.2633L17.6142 12.8493L23.8802 19.1143L20.7082 22.2863C20.1554 22.8367 19.4987 23.2717 18.7763 23.5661C18.054 23.8605 17.2803 24.0084 16.5002 24.0013ZM4.88723 2.95233L3.13023 4.70933C2.76619 5.07656 2.47882 5.51252 2.28482 5.99184C2.09083 6.47116 1.99409 6.98428 2.00023 7.50133C2.00023 13.7353 10.2662 22.0013 16.5002 22.0013C17.0171 22.0073 17.53 21.9107 18.0092 21.717C18.4885 21.5234 18.9246 21.2366 19.2922 20.8733L21.0512 19.1143L17.6132 15.6773L14.6862 18.6013L14.0802 18.3693C12.1504 17.6511 10.3975 16.5265 8.94034 15.0717C7.48312 13.6169 6.35562 11.8659 5.63423 9.93733L5.38823 9.32433L8.32323 6.38833L4.88723 2.95233ZM17.1872 10.6903L18.5602 9.31933L17.0002 7.75933V5.00133H15.0002V8.50133L17.1872 10.6903ZM11.5652 3.97433C12.1099 3.37222 12.7713 2.88711 13.5092 2.54846C14.2471 2.20981 15.0462 2.02468 15.8579 2.00432C16.6695 1.98396 17.4769 2.1288 18.2308 2.43003C18.9848 2.73127 19.6697 3.18261 20.2439 3.75666C20.818 4.3307 21.2695 5.01547 21.571 5.76937C21.8724 6.52327 22.0174 7.33056 21.9972 8.14223C21.9771 8.9539 21.7921 9.753 21.4536 10.491C21.1152 11.229 20.6302 11.8905 20.0282 12.4353L21.4412 13.8493C22.2282 13.1186 22.8597 12.2367 23.298 11.2563C23.7364 10.276 23.9725 9.21733 23.9924 8.14363C24.0123 7.06993 23.8154 6.00325 23.4137 5.00735C23.0119 4.01146 22.4135 3.10679 21.6541 2.34744C20.8948 1.58809 19.9901 0.98965 18.9942 0.587891C17.9983 0.186133 16.9316 -0.010693 15.8579 0.00918061C14.7842 0.0290543 13.7256 0.265219 12.7452 0.703557C11.7649 1.14189 10.883 1.77341 10.1522 2.56034L11.5652 3.97433Z" fill="#333333"/>
</g>
<defs>
<clipPath id="clip0_9265_133144">
<rect width="24" height="24" fill="white"/>
</clipPath>
</defs>
</svg>
