<svg width="56" height="56" viewBox="0 0 56 56" fill="none" xmlns="http://www.w3.org/2000/svg">
<g id="_&#235;&#160;&#136;&#236;&#157;&#180;&#236;&#150;&#180;_1" clip-path="url(#clip0_9738_122602)">
<g id="4, Error, notice, warning, virus">
<g id="Group">
<path id="Vector" d="M53.4473 35.8819C55.2431 38.7965 55.3339 42.4711 53.6863 45.4712C52.0386 48.4725 48.9064 50.3375 45.5115 50.3375H11.7323C8.33748 50.3375 5.20522 48.4725 3.55757 45.4712C1.90993 42.4711 2.00077 38.7965 3.79651 35.8819L20.6849 8.46585C22.4047 5.67592 25.3714 4.00977 28.6219 4.00977C31.8724 4.00977 34.8392 5.67592 36.559 8.46585L53.4473 35.8819Z" fill="white"/>
<path id="Vector_2" d="M51.0235 13.2133C53.429 13.2133 55.3791 11.2413 55.3791 8.80879C55.3791 6.37626 53.429 4.4043 51.0235 4.4043C48.618 4.4043 46.668 6.37626 46.668 8.80879C46.668 11.2413 48.618 13.2133 51.0235 13.2133Z" fill="#BD76FF"/>
<path id="Vector_3" d="M4.66832 23.9096C6.55836 23.9096 8.09054 22.3602 8.09054 20.449C8.09054 18.5377 6.55836 16.9883 4.66832 16.9883C2.77827 16.9883 1.24609 18.5377 1.24609 20.449C1.24609 22.3602 2.77827 23.9096 4.66832 23.9096Z" fill="#BD76FF"/>
<path id="Vector_4" d="M48.6952 38.8759C50.2507 41.4015 48.455 44.6735 45.5119 44.6735H11.7327C8.78956 44.6735 6.99383 41.4015 8.54938 38.8759L25.439 11.4585C26.9074 9.07632 30.3371 9.07632 31.8056 11.4585L48.6952 38.8759Z" fill="#BD76FF"/>
<path id="Vector_5" d="M30.3813 36.6027C30.8318 37.0582 31.1106 37.6874 31.1106 38.3821C31.1106 39.0767 30.8318 39.706 30.3813 40.1615C29.9309 40.6171 29.3086 40.8989 28.6217 40.8989C27.2466 40.8989 26.1328 39.7727 26.1328 38.3821C26.1328 37.6874 26.4116 37.0582 26.8621 36.6027C27.3125 36.1471 27.9348 35.8652 28.6217 35.8652C29.3086 35.8652 29.9309 36.1471 30.3813 36.6027Z" fill="white"/>
<path id="Vector_6" d="M31.1106 19.5051V30.2018C31.1106 31.5923 29.9968 32.7186 28.6217 32.7186C27.2466 32.7186 26.1328 31.5923 26.1328 30.2018V19.5051C26.1328 18.1146 27.2466 16.9883 28.6217 16.9883C29.3086 16.9883 29.9309 17.2702 30.3813 17.7257C30.8318 18.1813 31.1106 18.8105 31.1106 19.5051Z" fill="white"/>
<path id="Vector_7" d="M50.0896 21.3935C50.605 21.3935 51.0229 20.9709 51.0229 20.4497C51.0229 19.9284 50.605 19.5059 50.0896 19.5059C49.5741 19.5059 49.1562 19.9284 49.1562 20.4497C49.1562 20.9709 49.5741 21.3935 50.0896 21.3935Z" fill="#5F0080"/>
<path id="Vector_8" d="M41.3786 5.66303C41.8941 5.66303 42.312 5.24047 42.312 4.71921C42.312 4.19795 41.8941 3.77539 41.3786 3.77539C40.8632 3.77539 40.4453 4.19795 40.4453 4.71921C40.4453 5.24047 40.8632 5.66303 41.3786 5.66303Z" fill="#5F0080"/>
<path id="Vector_9" d="M37.6443 56.0009C38.1597 56.0009 38.5776 55.5784 38.5776 55.0571C38.5776 54.5358 38.1597 54.1133 37.6443 54.1133C37.1288 54.1133 36.7109 54.5358 36.7109 55.0571C36.7109 55.5784 37.1288 56.0009 37.6443 56.0009Z" fill="#5F0080"/>
<path id="Vector_10" d="M18.3552 1.88764C18.8707 1.88764 19.2885 1.46508 19.2885 0.94382C19.2885 0.422563 18.8707 0 18.3552 0C17.8397 0 17.4219 0.422563 17.4219 0.94382C17.4219 1.46508 17.8397 1.88764 18.3552 1.88764Z" fill="#5F0080"/>
<path id="Vector_11" d="M0.933333 52.2255C1.4488 52.2255 1.86667 51.803 1.86667 51.2817C1.86667 50.7605 1.4488 50.3379 0.933333 50.3379C0.417868 50.3379 0 50.7605 0 51.2817C0 51.803 0.417868 52.2255 0.933333 52.2255Z" fill="#5F0080"/>
<path id="Vector_12" d="M45.5122 50.967H11.733C8.11295 50.967 4.77162 48.9787 3.01446 45.7773C1.25731 42.5771 1.35437 38.6583 3.26957 35.55L20.1579 8.13394C21.9922 5.15776 25.1569 3.38086 28.6226 3.38086C32.0884 3.38086 35.253 5.15776 37.0873 8.13268L53.9757 35.5488C55.8909 38.6571 55.988 42.5758 54.2308 45.776C52.4737 48.9774 49.1323 50.9658 45.5122 50.9658V50.967ZM28.6226 4.63929C25.5887 4.63929 22.8198 6.1947 21.2132 8.79965L4.32486 36.2145C2.6486 38.9339 2.56397 42.3644 4.10211 45.1657C5.64024 47.9682 8.56468 49.7086 11.733 49.7086H45.5122C48.6806 49.7086 51.605 47.9682 53.1432 45.1657C54.6813 42.3644 54.5954 38.9339 52.9204 36.2145L36.0321 8.79839C34.4267 6.19344 31.6566 4.63929 28.6226 4.63929Z" fill="#5F0080"/>
<path id="Vector_13" d="M45.5124 45.304H11.7332C10.1216 45.304 8.69302 44.4533 7.91026 43.0287C7.12751 41.6042 7.16982 39.928 8.02102 38.5437L24.9119 11.1276C25.7158 9.82263 27.1033 9.04492 28.6228 9.04492C30.1423 9.04492 31.5298 9.82389 32.3337 11.1276L49.2233 38.545C50.0758 39.928 50.1168 41.6042 49.3341 43.03C48.5513 44.4545 47.1227 45.3052 45.5112 45.3052L45.5124 45.304ZM28.6228 10.3021C27.5352 10.3021 26.5433 10.8596 25.9672 11.7921L9.07755 39.2094C8.46777 40.1985 8.43791 41.3978 8.99791 42.4171C9.55791 43.4365 10.5796 44.0443 11.732 44.0443H45.5112C46.6635 44.0443 47.6864 43.4365 48.2452 42.4171C48.8052 41.3978 48.7753 40.1985 48.1656 39.2094L31.2772 11.7921C30.7023 10.8596 29.7092 10.3021 28.6228 10.3021Z" fill="#5F0080"/>
<path id="Vector_14" d="M28.6228 33.3481C26.9067 33.3481 25.5117 31.9374 25.5117 30.2021V19.5054C25.5117 17.7701 26.9067 16.3594 28.6228 16.3594C29.4529 16.3594 30.2344 16.6866 30.8218 17.2805C31.4091 17.8745 31.7339 18.6648 31.7339 19.5054V30.2021C31.7339 31.9374 30.3389 33.3481 28.6228 33.3481ZM28.6228 17.6178C27.5937 17.6178 26.7562 18.4647 26.7562 19.5054V30.2021C26.7562 31.2428 27.5937 32.0897 28.6228 32.0897C29.652 32.0897 30.4895 31.2428 30.4895 30.2021V19.5054C30.4895 19.0021 30.2954 18.5276 29.9419 18.1715C29.5898 17.8154 29.1206 17.6178 28.6228 17.6178Z" fill="#5F0080"/>
<path id="Vector_15" d="M28.6228 41.5285C26.9067 41.5285 25.5117 40.1178 25.5117 38.3824C25.5117 37.543 25.8353 36.7527 26.4227 36.1588C27.01 35.5648 27.7915 35.2363 28.6228 35.2363C29.4541 35.2363 30.2344 35.5635 30.823 36.1588C31.4104 36.7527 31.7339 37.543 31.7339 38.3824C31.7339 39.2218 31.4104 40.0121 30.823 40.606C30.2356 41.2 29.4541 41.5285 28.6228 41.5285ZM28.6228 36.4948C28.1251 36.4948 27.6559 36.6911 27.3037 37.0485C26.9515 37.4046 26.7562 37.879 26.7562 38.3824C26.7562 39.4231 27.5937 40.27 28.6228 40.27C29.1206 40.27 29.5898 40.0737 29.9419 39.7163C30.2941 39.3602 30.4895 38.8858 30.4895 38.3824C30.4895 37.879 30.2954 37.4046 29.9419 37.0485C29.5898 36.6923 29.1206 36.4948 28.6228 36.4948Z" fill="#5F0080"/>
<path id="Vector_16" d="M51.0207 13.8428C48.2755 13.8428 46.043 11.5852 46.043 8.8091C46.043 6.03301 48.2755 3.77539 51.0207 3.77539C53.766 3.77539 55.9985 6.03301 55.9985 8.8091C55.9985 11.5852 53.766 13.8428 51.0207 13.8428ZM51.0207 5.03382C48.9624 5.03382 47.2874 6.72766 47.2874 8.8091C47.2874 10.8905 48.9624 12.5844 51.0207 12.5844C53.0791 12.5844 54.7541 10.8905 54.7541 8.8091C54.7541 6.72766 53.0791 5.03382 51.0207 5.03382Z" fill="#5F0080"/>
<path id="Vector_17" d="M4.66554 24.5392C2.43549 24.5392 0.621094 22.7044 0.621094 20.4493C0.621094 18.1942 2.43549 16.3594 4.66554 16.3594C6.89558 16.3594 8.70998 18.1942 8.70998 20.4493C8.70998 22.7044 6.89558 24.5392 4.66554 24.5392ZM4.66554 17.6178C3.12118 17.6178 1.86554 18.8876 1.86554 20.4493C1.86554 22.011 3.12118 23.2807 4.66554 23.2807C6.20989 23.2807 7.46554 22.011 7.46554 20.4493C7.46554 18.8876 6.20989 17.6178 4.66554 17.6178Z" fill="#5F0080"/>
</g>
</g>
</g>
<defs>
<clipPath id="clip0_9738_122602">
<rect width="56" height="56" fill="white"/>
</clipPath>
</defs>
</svg>
