<svg width="90" height="44" viewBox="0 0 90 44" fill="none" xmlns="http://www.w3.org/2000/svg">
<path d="M63.1045 0.25C63.2336 1.06349 63.873 1.71479 64.6875 1.71484C65.502 1.71484 66.1413 1.06351 66.2705 0.25H89.75V43.75H66.2852C66.197 42.8868 65.5375 42.1787 64.6875 42.1787C63.8376 42.1788 63.1779 42.8868 63.0898 43.75H0.25V26.3486C2.61023 26.2135 4.46853 24.1783 4.46875 21.707C4.46875 19.2355 2.6104 17.1986 0.25 17.0635V0.25H63.1045Z" fill="white" stroke="#5F0080" stroke-width="0.5"/>
<path d="M22.5582 20.4199C22.4215 19.4082 21.6969 18.7656 20.5895 18.7656C19.1266 18.7656 18.2379 19.873 18.2379 21.8008C18.2379 23.7969 19.1539 24.8359 20.5758 24.8359C21.6422 24.8359 22.3805 24.2617 22.5582 23.291L24.9098 23.3047C24.7184 25.0684 23.2145 26.8867 20.5348 26.8867C17.8551 26.8867 15.859 25.0547 15.859 21.8008C15.859 18.5332 17.8961 16.7148 20.5348 16.7148C22.9137 16.7148 24.6637 18.0547 24.9098 20.4199H22.5582ZM35.2665 21.8008C35.2665 25.0684 33.2157 26.8867 30.5634 26.8867C27.8973 26.8867 25.8602 25.0547 25.8602 21.8008C25.8602 18.5332 27.8973 16.7148 30.5634 16.7148C33.2157 16.7148 35.2665 18.5332 35.2665 21.8008ZM32.8876 21.8008C32.8876 19.832 32.0126 18.7656 30.5634 18.7656C29.1141 18.7656 28.2391 19.832 28.2391 21.8008C28.2391 23.7695 29.1141 24.8359 30.5634 24.8359C32.0126 24.8359 32.8876 23.7695 32.8876 21.8008ZM42.3693 16.8516H44.7072V23.2363C44.7072 25.4512 43.0255 26.8867 40.5373 26.8867C38.0353 26.8867 36.3673 25.4512 36.3673 23.2363V16.8516H38.6916V23.0449C38.6916 24.0977 39.4435 24.8496 40.5373 24.8496C41.631 24.8496 42.3693 24.0977 42.3693 23.0449V16.8516ZM45.9311 26.75V16.8516H49.978C52.2065 16.8516 53.5737 18.2461 53.5737 20.2559C53.5737 22.3066 52.1791 23.6465 49.9096 23.6465H48.2553V26.75H45.9311ZM48.2553 21.8008H49.4858C50.5795 21.8008 51.1674 21.1855 51.1674 20.2559C51.1674 19.3262 50.5795 18.7383 49.4858 18.7383H48.2553V21.8008ZM63.7527 21.8008C63.7527 25.0684 61.7019 26.8867 59.0495 26.8867C56.3835 26.8867 54.3464 25.0547 54.3464 21.8008C54.3464 18.5332 56.3835 16.7148 59.0495 16.7148C61.7019 16.7148 63.7527 18.5332 63.7527 21.8008ZM61.3738 21.8008C61.3738 19.832 60.4988 18.7656 59.0495 18.7656C57.6003 18.7656 56.7253 19.832 56.7253 21.8008C56.7253 23.7695 57.6003 24.8359 59.0495 24.8359C60.4988 24.8359 61.3738 23.7695 61.3738 21.8008ZM73.248 16.8516V26.75H71.2656L67.2461 20.9395H67.1777V26.75H64.8535V16.8516H66.8633L70.8418 22.6621H70.9238V16.8516H73.248Z" fill="#5F0080"/>
</svg>
