<svg width="16" height="17" viewBox="0 0 16 17" fill="none" xmlns="http://www.w3.org/2000/svg">
<path d="M12.6667 7.83203H3.33333C2.59695 7.83203 2 8.42898 2 9.16536V13.832C2 14.5684 2.59695 15.1654 3.33333 15.1654H12.6667C13.403 15.1654 14 14.5684 14 13.832V9.16536C14 8.42898 13.403 7.83203 12.6667 7.83203Z" stroke="#333333" stroke-width="1.3" stroke-linecap="round" stroke-linejoin="round"/>
<path d="M4.66406 7.83203V5.16536C4.66406 4.28131 5.01525 3.43346 5.64037 2.80834C6.26549 2.18322 7.11334 1.83203 7.9974 1.83203C8.88145 1.83203 9.7293 2.18322 10.3544 2.80834C10.9795 3.43346 11.3307 4.28131 11.3307 5.16536V7.83203" stroke="#333333" stroke-width="1.3" stroke-linecap="round" stroke-linejoin="round"/>
</svg>
