<svg width="56" height="56" viewBox="0 0 56 56" fill="none" xmlns="http://www.w3.org/2000/svg">
<g clip-path="url(#clip0_9738_122789)">
<path d="M27.6936 1.80469C14.6844 1.80469 4.13672 12.1243 4.13672 24.855C4.13672 37.5857 14.6844 47.9053 27.6936 47.9053V55.3961C27.6936 55.3961 50.7004 45.4461 51.2506 24.855C51.2506 12.1243 40.7041 1.80469 27.6936 1.80469Z" fill="#E1D0FB"/>
<path d="M51.0772 9.03167C53.4563 9.03167 55.3849 7.14453 55.3849 4.81662C55.3849 2.48871 53.4563 0.601562 51.0772 0.601562C48.6982 0.601562 46.7695 2.48871 46.7695 4.81662C46.7695 7.14453 48.6982 9.03167 51.0772 9.03167Z" fill="white"/>
<path d="M6.76833 44.5586C8.46802 44.5586 9.84525 45.9062 9.84525 47.5693C9.84525 49.2325 8.46802 50.5801 6.76833 50.5801C5.06864 50.5801 3.69141 49.2325 3.69141 47.5693C3.69141 45.9062 5.06864 44.5586 6.76833 44.5586Z" fill="white"/>
<path d="M27.6196 33.2227H22.875V37.9363H27.6196V33.2227Z" fill="white"/>
<path d="M34.6477 17.4886C35.1056 18.3858 35.3345 19.4733 35.3345 20.7487C35.3345 22.0951 35.0514 23.2235 34.484 24.1328C33.9166 25.0432 33.0772 25.8405 31.9671 26.5245C31.46 26.8557 30.9468 27.1507 30.4274 27.4109C29.908 27.671 29.4317 27.9432 28.9972 28.2262C28.5628 28.5092 28.212 28.8283 27.9462 29.1824C27.6803 29.5377 27.5486 29.9628 27.5486 30.459H22.7671C22.7671 29.9146 22.804 29.3956 22.8754 28.8994C22.948 28.4032 23.0871 27.9239 23.2926 27.4639C23.4969 27.0026 23.7936 26.5727 24.18 26.1704C24.5652 25.7682 25.0723 25.4033 25.7012 25.0721C26.0139 24.9071 26.4311 24.6879 26.9505 24.4158C27.4686 24.1448 27.9757 23.8317 28.4717 23.4764C28.9665 23.1223 29.3948 22.7153 29.7566 22.254C30.1197 21.794 30.3006 21.2798 30.3006 20.7125C30.3006 19.9334 30.0114 19.3252 29.4317 18.888C28.852 18.4509 28.1874 18.2317 27.4391 18.2317C26.9566 18.2317 26.5283 18.3208 26.1542 18.4978C25.7788 18.6749 25.4415 18.888 25.14 19.1361C24.8372 19.3842 24.5788 19.6624 24.3609 19.9683C24.1431 20.2766 23.9499 20.5476 23.7812 20.7836L20.0508 18.2317C20.6785 16.7913 21.6742 15.6689 23.0391 14.8657C24.4028 14.0624 25.9425 13.6602 27.6569 13.6602C28.5739 13.6602 29.492 13.7902 30.4089 14.0504C31.3271 14.3105 32.148 14.7236 32.8717 15.2908C33.5966 15.858 34.1874 16.5902 34.6477 17.4886Z" fill="white"/>
<path d="M54.4621 49.3768C54.9719 49.3768 55.3852 48.9724 55.3852 48.4735C55.3852 47.9747 54.9719 47.5703 54.4621 47.5703C53.9523 47.5703 53.5391 47.9747 53.5391 48.4735C53.5391 48.9724 53.9523 49.3768 54.4621 49.3768Z" fill="#5F0080"/>
<path d="M42.7707 54.1932C43.2805 54.1932 43.6938 53.7888 43.6938 53.2899C43.6938 52.7911 43.2805 52.3867 42.7707 52.3867C42.2609 52.3867 41.8477 52.7911 41.8477 53.2899C41.8477 53.7888 42.2609 54.1932 42.7707 54.1932Z" fill="#5F0080"/>
<path d="M42.1535 1.80645C42.6633 1.80645 43.0766 1.40206 43.0766 0.903226C43.0766 0.404388 42.6633 0 42.1535 0C41.6437 0 41.2305 0.404388 41.2305 0.903226C41.2305 1.40206 41.6437 1.80645 42.1535 1.80645Z" fill="#5F0080"/>
<path d="M16.3059 51.783C16.8157 51.783 17.229 51.3786 17.229 50.8798C17.229 50.381 16.8157 49.9766 16.3059 49.9766C15.7961 49.9766 15.3828 50.381 15.3828 50.8798C15.3828 51.3786 15.7961 51.783 16.3059 51.783Z" fill="#5F0080"/>
<path d="M9.54026 3.00958C10.0501 3.00958 10.4633 2.60519 10.4633 2.10635C10.4633 1.60751 10.0501 1.20312 9.54026 1.20312C9.03046 1.20312 8.61719 1.60751 8.61719 2.10635C8.61719 2.60519 9.03046 3.00958 9.54026 3.00958Z" fill="#5F0080"/>
<path d="M5.23167 40.3455C5.74147 40.3455 6.15475 39.9411 6.15475 39.4423C6.15475 38.9435 5.74147 38.5391 5.23167 38.5391C4.72187 38.5391 4.30859 38.9435 4.30859 39.4423C4.30859 39.9411 4.72187 40.3455 5.23167 40.3455Z" fill="#5F0080"/>
<path d="M0.923077 16.2596C1.43288 16.2596 1.84615 15.8552 1.84615 15.3564C1.84615 14.8575 1.43288 14.4531 0.923077 14.4531C0.413276 14.4531 0 14.8575 0 15.3564C0 15.8552 0.413276 16.2596 0.923077 16.2596Z" fill="#5F0080"/>
<path d="M27.6918 55.9988C27.5737 55.9988 27.458 55.9663 27.3558 55.9013C27.1811 55.7905 27.0765 55.6002 27.0765 55.3967V48.5008C14.0315 48.1805 3.51953 37.6971 3.51953 24.8556C3.51953 12.0141 14.3638 1.20312 27.6918 1.20312C41.0198 1.20312 51.8641 11.813 51.8641 24.8556C51.8641 24.8604 51.8641 24.8664 51.8641 24.8713C51.7361 29.668 50.3921 34.2913 47.8703 38.6135C45.8605 42.0578 43.1023 45.3155 39.6734 48.2985C33.8481 53.3638 28.1792 55.8447 27.9417 55.9482C27.8617 55.9832 27.778 56 27.6931 56L27.6918 55.9988ZM27.6918 2.40743C15.042 2.40743 4.7503 12.4778 4.7503 24.8556C4.7503 37.2334 15.042 47.3038 27.6918 47.3038C28.0315 47.3038 28.3072 47.5735 28.3072 47.9059V54.4381C30.1177 53.5445 34.5054 51.1876 38.882 47.3748C44.0881 42.8406 50.3528 35.2523 50.6334 24.8484C50.6297 12.473 40.3392 2.40743 27.6918 2.40743Z" fill="#5F0080"/>
<path d="M45.4277 26.3852C45.088 26.3852 44.8123 26.1154 44.8123 25.7831C44.8123 16.5473 37.1323 9.03243 27.6935 9.03243C27.3538 9.03243 27.0781 8.76266 27.0781 8.43028C27.0781 8.09789 27.3538 7.82812 27.6935 7.82812C37.8117 7.82812 46.043 15.8825 46.043 25.7831C46.043 26.1154 45.7674 26.3852 45.4277 26.3852Z" fill="#5F0080"/>
<path d="M51.0754 9.63441C48.3603 9.63441 46.1523 7.47389 46.1523 4.8172C46.1523 2.16052 48.3603 0 51.0754 0C53.7905 0 55.9985 2.16052 55.9985 4.8172C55.9985 7.47389 53.7905 9.63441 51.0754 9.63441ZM51.0754 1.2043C49.0397 1.2043 47.3831 2.82529 47.3831 4.8172C47.3831 6.80912 49.0397 8.43011 51.0754 8.43011C53.1111 8.43011 54.7677 6.80912 54.7677 4.8172C54.7677 2.82529 53.1111 1.2043 51.0754 1.2043Z" fill="#5F0080"/>
<path d="M6.77043 51.1828C4.73474 51.1828 3.07812 49.5618 3.07812 47.5699C3.07812 45.578 4.73474 43.957 6.77043 43.957C8.80613 43.957 10.4627 45.578 10.4627 47.5699C10.4627 49.5618 8.80613 51.1828 6.77043 51.1828ZM6.77043 45.1613C5.41289 45.1613 4.30889 46.2416 4.30889 47.5699C4.30889 48.8983 5.41289 49.9785 6.77043 49.9785C8.12797 49.9785 9.23197 48.8983 9.23197 47.5699C9.23197 46.2416 8.12797 45.1613 6.77043 45.1613Z" fill="#5F0080"/>
<path d="M27.5499 31.0602H22.7684C22.4287 31.0602 22.153 30.7904 22.153 30.458C22.153 29.8944 22.1911 29.3417 22.2674 28.8142C22.3474 28.2638 22.5038 27.7291 22.7302 27.2209C22.9591 26.703 23.2976 26.2105 23.7333 25.7564C24.1591 25.3121 24.7241 24.9026 25.4108 24.5401C25.7234 24.3751 26.1407 24.1559 26.6613 23.8826C27.1524 23.626 27.6398 23.325 28.1099 22.9878C28.5554 22.6686 28.9468 22.2977 29.2705 21.8846C29.5511 21.5281 29.6878 21.1452 29.6878 20.7092C29.6878 20.1131 29.4884 19.6856 29.0588 19.3616C28.585 19.0039 28.0558 18.8305 27.4416 18.8305C27.0564 18.8305 26.7142 18.9004 26.425 19.0365C26.1001 19.1894 25.8022 19.3773 25.5388 19.594C25.2828 19.8036 25.0576 20.0445 24.8681 20.3094C24.6514 20.6165 24.457 20.8887 24.2884 21.1259C24.1948 21.2572 24.0521 21.3463 23.8908 21.374C23.7296 21.4017 23.5647 21.3656 23.4305 21.274L19.7001 18.7221C19.4613 18.5595 19.3727 18.2549 19.4871 17.9923C20.1641 16.4388 21.2533 15.2128 22.7241 14.3469C24.1788 13.4894 25.8391 13.0547 27.6594 13.0547C28.6305 13.0547 29.6139 13.1944 30.5825 13.469C31.5745 13.7508 32.4754 14.2036 33.2582 14.8178C34.0471 15.4356 34.7007 16.2425 35.1991 17.2155C35.6988 18.1934 35.9511 19.3809 35.9511 20.7454C35.9511 22.1989 35.6348 23.443 35.0108 24.4438C34.3979 25.4277 33.4871 26.296 32.3031 27.027C31.7838 27.3654 31.2471 27.6749 30.7093 27.9447C30.217 28.1903 29.7567 28.4541 29.3394 28.7251C28.9665 28.9683 28.665 29.2405 28.4434 29.5367C28.2564 29.786 28.1653 30.0883 28.1653 30.4568C28.1653 30.7892 27.8896 31.059 27.5499 31.059V31.0602ZM23.3998 29.8559H26.9924C27.0699 29.4753 27.2225 29.1309 27.4502 28.8262C27.7591 28.4155 28.1641 28.0458 28.6576 27.7243C29.113 27.4268 29.6151 27.1414 30.1481 26.874C30.6465 26.6248 31.1438 26.3381 31.6262 26.0226C31.6311 26.0202 31.6348 26.0166 31.6398 26.0142C32.665 25.3831 33.4453 24.6437 33.9598 23.8187C34.4644 23.0094 34.7204 21.9774 34.7204 20.7478C34.7204 19.5182 34.5111 18.5656 34.0988 17.7563C33.6804 16.9398 33.1388 16.2678 32.489 15.7595C31.833 15.2453 31.0761 14.8648 30.2391 14.6275C29.3825 14.3842 28.5136 14.2614 27.6582 14.2614C26.0656 14.2614 24.6182 14.6383 23.3579 15.3802C22.2551 16.0293 21.4059 16.9181 20.8287 18.026L23.6311 19.9433C23.7038 19.8421 23.7788 19.7349 23.8576 19.6241C24.1099 19.2701 24.409 18.9509 24.7474 18.6728C25.0884 18.3921 25.4724 18.1501 25.8896 17.9538C26.3462 17.7382 26.8693 17.6274 27.4416 17.6274C28.3253 17.6274 29.1216 17.89 29.8096 18.409C30.5456 18.9642 30.9185 19.7386 30.9185 20.7104C30.9185 21.4125 30.6921 22.0544 30.2465 22.6205C29.8527 23.1226 29.3776 23.5743 28.8373 23.9608C28.3204 24.3306 27.7838 24.6617 27.2422 24.9448C26.7241 25.2169 26.3068 25.4349 25.9954 25.5999C25.4256 25.8998 24.9665 26.2297 24.6305 26.5802C24.2908 26.9331 24.0324 27.31 23.8588 27.7014C23.6754 28.1109 23.5511 28.542 23.4859 28.9828C23.4453 29.2658 23.417 29.5572 23.3998 29.8547V29.8559Z" fill="#5F0080"/>
<path d="M27.6178 38.539H22.8732C22.5335 38.539 22.2578 38.2693 22.2578 37.9369V33.2232C22.2578 32.8909 22.5335 32.6211 22.8732 32.6211H27.6178C27.9575 32.6211 28.2332 32.8909 28.2332 33.2232V37.9369C28.2332 38.2693 27.9575 38.539 27.6178 38.539ZM23.4886 37.3347H27.0024V33.8254H23.4886V37.3347Z" fill="#5F0080"/>
</g>
<defs>
<clipPath id="clip0_9738_122789">
<rect width="56" height="56" fill="white"/>
</clipPath>
</defs>
</svg>
