<svg width="126" height="126" viewBox="0 0 126 126" fill="none" xmlns="http://www.w3.org/2000/svg">
<g clip-path="url(#clip0_9738_109280)">
<path d="M97.8365 18.3691V106.114C97.8365 110.389 94.4508 113.856 90.2765 113.856H34.2436C30.0693 113.856 26.6836 110.389 26.6836 106.114V18.3691C26.6836 14.0942 30.0693 10.627 34.2436 10.627H90.2765C94.4508 10.627 97.8365 14.0942 97.8365 18.3691Z" fill="#E1D0FB"/>
<path d="M117.107 16.6992C121.201 16.6992 124.519 20.0967 124.519 24.2896C124.519 28.4825 121.201 31.8799 117.107 31.8799C113.013 31.8799 109.695 28.4825 109.695 24.2896C109.695 20.0967 113.013 16.6992 117.107 16.6992Z" fill="white"/>
<path d="M7.40988 85.0117C10.6859 85.0117 13.3393 87.7291 13.3393 91.084C13.3393 94.4389 10.6859 97.1563 7.40988 97.1563C4.13388 97.1563 1.48047 94.4389 1.48047 91.084C1.48047 87.7291 4.13388 85.0117 7.40988 85.0117Z" fill="white"/>
<path d="M75.6 4.55469C78.876 4.55469 81.5295 7.27204 81.5295 10.627C81.5295 12.3029 80.8654 13.821 79.7921 14.9201C78.7189 16.0192 77.2366 16.6993 75.6 16.6993H48.9177C45.6417 16.6993 42.9883 13.9819 42.9883 10.627C42.9883 8.95102 43.6524 7.43295 44.7256 6.33387C45.7988 5.23478 47.2812 4.55469 48.9177 4.55469H75.6Z" fill="white"/>
<path d="M120.813 51.6148C122.041 51.6148 123.037 50.5953 123.037 49.3377C123.037 48.08 122.041 47.0605 120.813 47.0605C119.585 47.0605 118.59 48.08 118.59 49.3377C118.59 50.5953 119.585 51.6148 120.813 51.6148Z" fill="#5F0080"/>
<path d="M108.954 89.5659C110.182 89.5659 111.178 88.5464 111.178 87.2888C111.178 86.0312 110.182 85.0117 108.954 85.0117C107.726 85.0117 106.73 86.0312 106.73 87.2888C106.73 88.5464 107.726 89.5659 108.954 89.5659Z" fill="#5F0080"/>
<path d="M104.505 4.55422C105.733 4.55422 106.728 3.53472 106.728 2.27711C106.728 1.0195 105.733 0 104.505 0C103.277 0 102.281 1.0195 102.281 2.27711C102.281 3.53472 103.277 4.55422 104.505 4.55422Z" fill="#5F0080"/>
<path d="M83.7548 126C84.9828 126 85.9783 124.98 85.9783 123.722C85.9783 122.465 84.9828 121.445 83.7548 121.445C82.5268 121.445 81.5312 122.465 81.5312 123.722C81.5312 124.98 82.5268 126 83.7548 126Z" fill="#5F0080"/>
<path d="M74.1181 32.6389V40.2293H66.7063V47.0606H59.2946V40.2293H51.8828V32.6389H59.2946V25.8076H66.7063V32.6389H74.1181Z" fill="white"/>
<path d="M14.0829 53.1323C15.3109 53.1323 16.3064 52.1128 16.3064 50.8552C16.3064 49.5976 15.3109 48.5781 14.0829 48.5781C12.8549 48.5781 11.8594 49.5976 11.8594 50.8552C11.8594 52.1128 12.8549 53.1323 14.0829 53.1323Z" fill="#5F0080"/>
<path d="M6.66884 7.59035C7.89686 7.59035 8.89237 6.57085 8.89237 5.31324C8.89237 4.05563 7.89686 3.03613 6.66884 3.03613C5.44082 3.03613 4.44531 4.05563 4.44531 5.31324C4.44531 6.57085 5.44082 7.59035 6.66884 7.59035Z" fill="#5F0080"/>
<path d="M90.2745 115.373H34.2416C29.2549 115.373 25.1992 111.22 25.1992 106.113V18.3686C25.1992 13.2618 29.2549 9.1084 34.2416 9.1084H42.9875C43.8057 9.1084 44.4698 9.78849 44.4698 10.6265C44.4698 11.4644 43.8057 12.1445 42.9875 12.1445H34.2416C30.8915 12.1445 28.1639 14.9378 28.1639 18.3686V106.113C28.1639 109.544 30.8915 112.337 34.2416 112.337H90.2745C93.6246 112.337 96.3522 109.544 96.3522 106.113V18.3686C96.3522 14.9378 93.6246 12.1445 90.2745 12.1445H81.5286C80.7104 12.1445 80.0463 11.4644 80.0463 10.6265C80.0463 9.78849 80.7104 9.1084 81.5286 9.1084H90.2745C95.2612 9.1084 99.3169 13.2618 99.3169 18.3686V106.113C99.3169 111.22 95.2612 115.373 90.2745 115.373Z" fill="#5F0080"/>
<path d="M75.6019 18.2169H48.9196C44.8312 18.2169 41.5078 14.8133 41.5078 10.6265C41.5078 8.60139 42.2786 6.69469 43.678 5.25859C45.0773 3.82249 46.9392 3.03613 48.9196 3.03613H75.6019C79.6903 3.03613 83.0137 6.43965 83.0137 10.6265C83.0137 12.6516 82.2429 14.5583 80.8435 15.9944C79.4442 17.4275 77.5824 18.2169 75.6019 18.2169ZM48.9196 6.07228C47.7337 6.07228 46.616 6.54592 45.777 7.40818C44.938 8.26741 44.4725 9.41204 44.4725 10.6265C44.4725 13.1374 46.4678 15.1807 48.9196 15.1807H75.6019C76.7878 15.1807 77.9055 14.7071 78.7475 13.8448C79.5865 12.9856 80.049 11.841 80.049 10.6265C80.049 8.1156 78.0537 6.07228 75.6019 6.07228H48.9196Z" fill="#5F0080"/>
<path d="M66.7043 48.5782H59.2926C58.4743 48.5782 57.8102 47.8981 57.8102 47.0601V41.7469H51.8808C51.0625 41.7469 50.3984 41.0668 50.3984 40.2288V32.6385C50.3984 31.8005 51.0625 31.1204 51.8808 31.1204H57.8102V25.8071C57.8102 24.9692 58.4743 24.2891 59.2926 24.2891H66.7043C67.5226 24.2891 68.1867 24.9692 68.1867 25.8071V31.1204H74.1161C74.9343 31.1204 75.5984 31.8005 75.5984 32.6385V40.2288C75.5984 41.0668 74.9343 41.7469 74.1161 41.7469H68.1867V47.0601C68.1867 47.8981 67.5226 48.5782 66.7043 48.5782ZM60.7749 45.5421H65.222V40.2288C65.222 39.3908 65.8861 38.7107 66.7043 38.7107H72.6337V34.1565H66.7043C65.8861 34.1565 65.222 33.4764 65.222 32.6385V27.3252H60.7749V32.6385C60.7749 33.4764 60.1108 34.1565 59.2926 34.1565H53.3631V38.7107H59.2926C60.1108 38.7107 60.7749 39.3908 60.7749 40.2288V45.5421Z" fill="#5F0080"/>
<path d="M62.2586 59.2051H38.5409C37.7227 59.2051 37.0586 58.525 37.0586 57.687C37.0586 56.849 37.7227 56.1689 38.5409 56.1689H62.2586C63.0769 56.1689 63.7409 56.849 63.7409 57.687C63.7409 58.525 63.0769 59.2051 62.2586 59.2051Z" fill="#5F0080"/>
<path d="M85.9762 68.3135H38.5409C37.7227 68.3135 37.0586 67.6334 37.0586 66.7954C37.0586 65.9574 37.7227 65.2773 38.5409 65.2773H85.9762C86.7945 65.2773 87.4586 65.9574 87.4586 66.7954C87.4586 67.6334 86.7945 68.3135 85.9762 68.3135Z" fill="#5F0080"/>
<path d="M85.9762 77.4219H38.5409C37.7227 77.4219 37.0586 76.7418 37.0586 75.9038C37.0586 75.0658 37.7227 74.3857 38.5409 74.3857H85.9762C86.7945 74.3857 87.4586 75.0658 87.4586 75.9038C87.4586 76.7418 86.7945 77.4219 85.9762 77.4219Z" fill="#5F0080"/>
<path d="M85.9762 86.5303H38.5409C37.7227 86.5303 37.0586 85.8502 37.0586 85.0122C37.0586 84.1742 37.7227 83.4941 38.5409 83.4941H85.9762C86.7945 83.4941 87.4586 84.1742 87.4586 85.0122C87.4586 85.8502 86.7945 86.5303 85.9762 86.5303Z" fill="#5F0080"/>
<path d="M85.9762 95.6387H38.5409C37.7227 95.6387 37.0586 94.9586 37.0586 94.1206C37.0586 93.2826 37.7227 92.6025 38.5409 92.6025H85.9762C86.7945 92.6025 87.4586 93.2826 87.4586 94.1206C87.4586 94.9586 86.7945 95.6387 85.9762 95.6387Z" fill="#5F0080"/>
<path d="M85.9762 104.747H38.5409C37.7227 104.747 37.0586 104.067 37.0586 103.229C37.0586 102.391 37.7227 101.711 38.5409 101.711H85.9762C86.7945 101.711 87.4586 102.391 87.4586 103.229C87.4586 104.067 86.7945 104.747 85.9762 104.747Z" fill="#5F0080"/>
<path d="M117.105 33.3975C112.201 33.3975 108.211 29.3109 108.211 24.2891C108.211 19.2673 112.201 15.1807 117.105 15.1807C122.009 15.1807 125.999 19.2673 125.999 24.2891C125.999 29.3109 122.009 33.3975 117.105 33.3975ZM117.105 18.2168C113.835 18.2168 111.176 20.9402 111.176 24.2891C111.176 27.638 113.835 30.3614 117.105 30.3614C120.375 30.3614 123.034 27.638 123.034 24.2891C123.034 20.9402 120.375 18.2168 117.105 18.2168Z" fill="#5F0080"/>
<path d="M7.41176 98.6749C3.3264 98.6749 0 95.2713 0 91.0845C0 86.8977 3.3264 83.4941 7.41176 83.4941C11.4971 83.4941 14.8235 86.8977 14.8235 91.0845C14.8235 95.2713 11.5001 98.6749 7.41176 98.6749ZM7.41176 86.5303C4.95995 86.5303 2.96471 88.5736 2.96471 91.0845C2.96471 93.5954 4.95995 95.6387 7.41176 95.6387C9.86358 95.6387 11.8588 93.5954 11.8588 91.0845C11.8588 88.5736 9.86358 86.5303 7.41176 86.5303Z" fill="#5F0080"/>
</g>
<defs>
<clipPath id="clip0_9738_109280">
<rect width="126" height="126" fill="white"/>
</clipPath>
</defs>
</svg>
