<svg width="48" height="48" viewBox="0 0 48 48" fill="none" xmlns="http://www.w3.org/2000/svg">
<rect width="48" height="48" rx="18" fill="#777777"/>
<g clip-path="url(#clip0_6176_13117)">
<path d="M26.7318 22.7046H25.3805V21.4015C25.3805 20.6848 24.7724 20.0984 24.0291 20.0984C23.2859 20.0984 22.6778 20.6848 22.6778 21.4015V22.7046H21.3264C20.5832 22.7046 19.9751 23.291 19.9751 24.0077C19.9751 24.7245 20.5832 25.3109 21.3264 25.3109H22.6778V26.614C22.6778 27.3307 23.2859 27.9171 24.0291 27.9171C24.7724 27.9171 25.3805 27.3307 25.3805 26.614V25.3109H26.7318C27.4751 25.3109 28.0832 24.7245 28.0832 24.0077C28.0832 23.291 27.4751 22.7046 26.7318 22.7046ZM35.0561 14.8859C32.0832 12.0451 27.4075 11.7194 24.0291 14.1171C20.2724 11.4196 14.9751 12.1755 12.1778 15.7981C9.66426 19.0559 10.0156 23.6038 13.0021 26.4706L21.1102 34.3545C22.6913 35.8791 25.2589 35.8791 26.8399 34.3545L34.948 26.4706C38.2994 23.3171 38.3534 18.1437 35.0832 14.912L35.0561 14.8859ZM33.1507 24.6072L25.0426 32.4259C24.5156 32.9341 23.6643 32.9341 23.1372 32.4259L15.0291 24.6072C12.8264 22.431 12.8264 18.9647 15.0291 16.7885C17.2724 14.6514 20.894 14.6514 23.1372 16.7885C23.6643 17.2967 24.5156 17.2967 25.0426 16.7885C27.2859 14.6514 30.9075 14.6514 33.1507 16.7885C35.367 18.9647 35.367 22.457 33.1507 24.6332V24.6072Z" fill="white"/>
</g>
<defs>
<clipPath id="clip0_6176_13117">
<rect width="27" height="23" fill="white" transform="translate(10.5 12.5)"/>
</clipPath>
</defs>
</svg>
