<svg width="48" height="48" viewBox="0 0 48 48" fill="none" xmlns="http://www.w3.org/2000/svg">
<rect width="48" height="48" rx="18" fill="#777777"/>
<g clip-path="url(#clip0_6177_14088)">
<path d="M11 24.6053V30.6579C11 31.3237 11.5318 31.8684 12.1818 31.8684H13.3636C13.3636 33.8779 14.9473 35.5 16.9091 35.5C18.8709 35.5 20.4545 33.8779 20.4545 31.8684H27.5455C27.5455 33.8779 29.1291 35.5 31.0909 35.5C33.0527 35.5 34.6364 33.8779 34.6364 31.8684H35.8182C36.4682 31.8684 37 31.3237 37 30.6579V16.1316C37 14.1221 35.4164 12.5 33.4545 12.5H22.8182C20.8564 12.5 19.2727 14.1221 19.2727 16.1316V18.5526H16.9091C15.7982 18.5526 14.7464 19.0853 14.0727 20.0053L11.2364 23.8789C11.2364 23.8789 11.1773 23.9879 11.1536 24.0484L11.0827 24.1816C11.0355 24.3147 11 24.46 11 24.6053ZM29.9091 31.8684C29.9091 31.2026 30.4409 30.6579 31.0909 30.6579C31.7409 30.6579 32.2727 31.2026 32.2727 31.8684C32.2727 32.5342 31.7409 33.0789 31.0909 33.0789C30.4409 33.0789 29.9091 32.5342 29.9091 31.8684ZM21.6364 16.1316C21.6364 15.4658 22.1682 14.9211 22.8182 14.9211H33.4545C34.1045 14.9211 34.6364 15.4658 34.6364 16.1316V29.4474H33.7145C32.4027 27.9584 30.1573 27.8495 28.7036 29.2053C28.6209 29.2779 28.5382 29.3626 28.4673 29.4474H21.6364V16.1316ZM19.2727 23.3947H14.5455L15.9636 21.4579C16.1882 21.1553 16.5427 20.9737 16.9091 20.9737H19.2727V23.3947ZM15.7273 31.8684C15.7273 31.2026 16.2591 30.6579 16.9091 30.6579C17.5591 30.6579 18.0909 31.2026 18.0909 31.8684C18.0909 32.5342 17.5591 33.0789 16.9091 33.0789C16.2591 33.0789 15.7273 32.5342 15.7273 31.8684ZM13.3636 25.8158H19.2727V29.1811C17.8191 27.8495 15.5973 27.9705 14.2855 29.4474H13.3636V25.8158Z" fill="white"/>
</g>
<defs>
<clipPath id="clip0_6177_14088">
<rect width="26" height="23" fill="white" transform="translate(11 12.5)"/>
</clipPath>
</defs>
</svg>
