<svg width="48" height="48" viewBox="0 0 48 48" fill="none" xmlns="http://www.w3.org/2000/svg">
<rect width="48" height="48" rx="18" fill="#777777"/>
<path d="M34.9091 16.3636H13.0909C12.4909 16.3636 12 16.8545 12 17.4545V21.8182C12 23.2036 12.8727 24.4364 14.1818 24.8945V34.9091C14.1818 35.5091 14.6727 36 15.2727 36H32.7273C33.3273 36 33.8182 35.5091 33.8182 34.9091V24.8945C35.1273 24.4364 36 23.2036 36 21.8182V17.4545C36 16.8545 35.5091 16.3636 34.9091 16.3636ZM27.2727 18.5455H29.4545V21.8182C29.4545 22.4182 28.9636 22.9091 28.3636 22.9091C27.7636 22.9091 27.2727 22.4182 27.2727 21.8182V18.5455ZM22.9091 18.5455H25.0909V21.8182C25.0909 22.4182 24.6 22.9091 24 22.9091C23.4 22.9091 22.9091 22.4182 22.9091 21.8182V18.5455ZM18.5455 18.5455H20.7273V21.8182C20.7273 22.4182 20.2364 22.9091 19.6364 22.9091C19.0364 22.9091 18.5455 22.4182 18.5455 21.8182V18.5455ZM15.2727 22.9091C14.6727 22.9091 14.1818 22.4182 14.1818 21.8182V18.5455H16.3636V21.8182C16.3636 22.4182 15.8727 22.9091 15.2727 22.9091ZM26.1818 33.8182H21.8182V31.6364C21.8182 30.4364 22.8 29.4545 24 29.4545C25.2 29.4545 26.1818 30.4364 26.1818 31.6364V33.8182ZM31.6364 33.8182H28.3636V31.6364C28.3636 29.2255 26.4109 27.2727 24 27.2727C21.5891 27.2727 19.6364 29.2255 19.6364 31.6364V33.8182H16.3636V24.8945C16.7673 24.7418 17.1382 24.5236 17.4545 24.24C18.6982 25.3527 20.5745 25.3527 21.8182 24.24C23.0618 25.3527 24.9382 25.3527 26.1818 24.24C27.4255 25.3527 29.3018 25.3527 30.5455 24.24C30.8618 24.5236 31.2327 24.7418 31.6364 24.8945V33.8182ZM33.8182 21.8182C33.8182 22.4182 33.3273 22.9091 32.7273 22.9091C32.1273 22.9091 31.6364 22.4182 31.6364 21.8182V18.5455H33.8182V21.8182ZM15.6 14.1818H32.7273C33.3273 14.1818 33.8182 13.6909 33.8182 13.0909C33.8182 12.4909 33.3273 12 32.7273 12H15.6C15 12 14.5091 12.4909 14.5091 13.0909C14.5091 13.6909 15 14.1818 15.6 14.1818Z" fill="white"/>
</svg>
