<svg width="48" height="48" viewBox="0 0 48 48" fill="none" xmlns="http://www.w3.org/2000/svg">
<rect width="48" height="48" rx="18" fill="#777777"/>
<g clip-path="url(#clip0_6177_14094)">
<path d="M33.7246 25.136C33.0958 25.136 32.5812 25.6628 32.5812 26.3066V30.9888C32.5812 31.6327 32.0667 32.1594 31.4378 32.1594H15.4302C14.8013 32.1594 14.2868 31.6327 14.2868 30.9888V19.7631L21.01 26.6577C21.6503 27.3133 22.5193 27.6761 23.4226 27.6761C24.3487 27.6761 25.2292 27.3015 25.8809 26.6226L26.8985 25.5925C27.2644 25.0658 27.1386 24.34 26.6241 23.9654C26.2239 23.6728 25.6865 23.6728 25.2978 23.9654L24.2344 25.0306C23.7885 25.4755 23.0796 25.4755 22.6336 25.0306L15.899 18.1126H21.1472C21.7761 18.1126 22.2906 17.5858 22.2906 16.942C22.2906 16.2982 21.7761 15.7714 21.1472 15.7714H15.4302C13.5322 15.7714 12 17.3517 12 19.2832V30.9888C12 32.932 13.5322 34.5005 15.4302 34.5005H31.4378C33.3359 34.5005 34.868 32.932 34.868 30.9888V26.3066C34.868 25.6628 34.3535 25.136 33.7246 25.136ZM34.9252 14.6009C33.7361 13.4303 31.9409 13.1728 30.4888 13.9688C28.6937 12.9621 26.4297 13.6293 25.4464 15.4671C24.6575 16.942 24.8976 18.7681 26.0524 19.9738L29.7227 23.626C29.94 23.8367 30.2373 23.9654 30.5345 23.9654C30.8433 23.9654 31.1291 23.8484 31.3464 23.626L34.9709 19.9153C36.3659 18.4169 36.343 16.0641 34.9252 14.6009ZM33.313 18.2531L30.4888 21.1444L27.676 18.2531C27.1158 17.6795 27.1272 16.743 27.6989 16.1694C28.2592 15.5959 29.1739 15.6076 29.7227 16.1929C30.1687 16.6494 30.889 16.6494 31.3349 16.1929C31.8952 15.6427 32.787 15.6427 33.3473 16.1929C33.8847 16.7781 33.8618 17.6912 33.3016 18.2531H33.313Z" fill="white"/>
</g>
<defs>
<clipPath id="clip0_6177_14094">
<rect width="24" height="21" fill="white" transform="translate(12 13.5)"/>
</clipPath>
</defs>
</svg>
