<svg width="17" height="17" viewBox="0 0 17 17" fill="none" xmlns="http://www.w3.org/2000/svg">
<g id="Step_indicator_ic">
<path id="Vector" fill-rule="evenodd" clip-rule="evenodd" d="M9.16797 0.5C7.3066 0.5 5.66797 1.99212 5.66797 4C5.66797 6.00788 7.3066 7.5 9.16797 7.5C11.0293 7.5 12.668 6.00788 12.668 4C12.668 1.99212 11.0293 0.5 9.16797 0.5Z" fill="#E1D0FB"/>
<path id="Vector_2" d="M13.817 16.5H4.51896C4.30907 16.5 4.20414 16.5 4.11584 16.4897C3.3586 16.4018 2.76069 15.7687 2.67765 14.9669C2.66797 14.8734 2.66797 14.7623 2.66797 14.54V14.1068C2.66797 12.3276 3.54241 10.6766 4.97614 9.74887C7.54946 8.08371 10.7865 8.08371 13.3598 9.74887C14.7936 10.6766 15.668 12.3276 15.668 14.1068V14.54C15.668 14.7623 15.668 14.8734 15.6583 14.9669C15.5753 15.7687 14.9773 16.4018 14.2201 16.4897C14.1318 16.5 14.0269 16.5 13.817 16.5Z" fill="#5F0080"/>
</g>
</svg>
