<svg width="17" height="16" viewBox="0 0 17 16" fill="none" xmlns="http://www.w3.org/2000/svg">
<path d="M8.1395 0.839198C8.37765 0.787976 8.6239 0.787976 8.86206 0.839198C9.39182 0.953158 9.73422 1.37112 10.0027 1.81255C10.2743 2.25919 10.5601 2.88734 10.9112 3.659L10.928 3.69597C11.1649 4.2167 11.2213 4.31208 11.2913 4.37428C11.3185 4.39851 11.3481 4.42009 11.3793 4.43873C11.4597 4.48656 11.5673 4.51105 12.1323 4.57701L12.2706 4.59316C13.0654 4.68594 13.7126 4.76149 14.1954 4.87528C14.6719 4.98757 15.151 5.17024 15.4277 5.60459C15.5881 5.85635 15.6814 6.14547 15.6986 6.44408C15.7283 6.95926 15.4473 7.39059 15.1274 7.76344C14.8033 8.14126 14.3237 8.58542 13.7349 9.13094L13.7067 9.15702C13.2669 9.56446 13.1903 9.65278 13.1533 9.74262C13.1347 9.7875 13.1219 9.83454 13.115 9.88262C13.1013 9.97886 13.1222 10.0942 13.2934 10.6709L13.3287 10.7897C13.6017 11.7096 13.8233 12.4555 13.9169 13.0311C14.0091 13.598 14.0153 14.2013 13.6091 14.6548C13.5065 14.7694 13.3891 14.8698 13.2601 14.9533C12.7501 15.2835 12.1597 15.1799 11.619 14.9966C11.0701 14.8105 10.3749 14.4697 9.51742 14.0497L9.2547 13.9209C8.71758 13.6577 8.61014 13.6199 8.5103 13.6191L8.49686 13.6192C8.39701 13.6207 8.28987 13.6595 7.75485 13.9269L7.51839 14.0452C6.65239 14.4782 5.95047 14.8291 5.39639 15.0216C4.8511 15.211 4.25451 15.3198 3.73903 14.9849C3.61692 14.9055 3.50523 14.811 3.40659 14.7035C2.99023 14.2498 2.99399 13.6393 3.08547 13.0659C3.17843 12.4832 3.40097 11.7266 3.67556 10.7931L3.71163 10.6705C3.88113 10.0941 3.90177 9.97894 3.88783 9.88278C3.8809 9.83502 3.86808 9.7883 3.84968 9.74374C3.81263 9.65406 3.73616 9.56582 3.29687 9.15894L3.26871 9.13278C2.67895 8.58646 2.19874 8.14166 1.87416 7.76329C1.55385 7.38986 1.27266 6.95783 1.30303 6.44187C1.32051 6.14478 1.41333 5.85716 1.5726 5.60645C1.84923 5.17106 2.32891 4.98796 2.80603 4.87544C3.28949 4.76141 3.93765 4.68576 4.73369 4.59284L4.86923 4.57701C5.43428 4.51105 5.54179 4.48656 5.62217 4.43873C5.65349 4.42009 5.68299 4.39851 5.71026 4.37428C5.78028 4.31208 5.83663 4.2167 6.07355 3.69597L6.09034 3.65906C6.44142 2.88737 6.7272 2.2592 6.99885 1.81255C7.26732 1.37112 7.60968 0.953158 8.1395 0.839198Z" fill="black" fill-opacity="0.2"/>
</svg>