<svg width="17" height="17" viewBox="0 0 17 17" fill="none" xmlns="http://www.w3.org/2000/svg">
<g id="Step_indicator_ic">
<path id="Vector" d="M7.97544 1.3392C8.21359 1.28798 8.45984 1.28798 8.698 1.3392C9.22776 1.45316 9.57016 1.87112 9.83864 2.31255C10.1102 2.75919 10.396 3.38734 10.7471 4.159L10.7639 4.19597C11.0008 4.7167 11.0572 4.81208 11.1272 4.87428C11.1545 4.89851 11.184 4.92009 11.2153 4.93873C11.2957 4.98656 11.4032 5.01105 11.9682 5.07701L12.1066 5.09316C12.9014 5.18594 13.5486 5.26149 14.0314 5.37528C14.5078 5.48757 14.987 5.67024 15.2637 6.10459C15.4241 6.35635 15.5174 6.64547 15.5346 6.94408C15.5642 7.45926 15.2833 7.89059 14.9634 8.26344C14.6392 8.64126 14.1597 9.08542 13.5708 9.63094L13.5426 9.65702C13.1028 10.0645 13.0262 10.1528 12.9892 10.2426C12.9706 10.2875 12.9578 10.3345 12.951 10.3826C12.9372 10.4789 12.9582 10.5942 13.1294 11.1709L13.1646 11.2897C13.4377 12.2096 13.6592 12.9555 13.7528 13.5311C13.845 14.098 13.8512 14.7013 13.445 15.1548C13.3424 15.2694 13.225 15.3698 13.0961 15.4533C12.586 15.7835 11.9957 15.6799 11.455 15.4966C10.9061 15.3105 10.2108 14.9697 9.35336 14.5497L9.09064 14.4209C8.55352 14.1577 8.44608 14.1199 8.34624 14.1191L8.3328 14.1192C8.23295 14.1207 8.12581 14.1595 7.59079 14.4269L7.35432 14.5452C6.48832 14.9782 5.7864 15.3291 5.23232 15.5216C4.68704 15.711 4.09045 15.8198 3.57497 15.4849C3.45286 15.4055 3.34116 15.311 3.24253 15.2035C2.82616 14.7498 2.82993 14.1393 2.92141 13.5659C3.01437 12.9832 3.23691 12.2266 3.5115 11.2931L3.54756 11.1705C3.71707 10.5941 3.73771 10.4789 3.72376 10.3828C3.71684 10.335 3.70402 10.2883 3.68562 10.2437C3.64856 10.1541 3.5721 10.0658 3.13281 9.65894L3.10464 9.63278C2.51488 9.08646 2.03468 8.64166 1.7101 8.26329C1.38979 7.88986 1.1086 7.45783 1.13897 6.94187C1.15645 6.64478 1.24927 6.35716 1.40854 6.10645C1.68516 5.67106 2.16484 5.48796 2.64196 5.37544C3.12543 5.26141 3.77359 5.18576 4.56963 5.09284L4.70517 5.07701C5.27022 5.01105 5.37772 4.98656 5.45811 4.93873C5.48943 4.92009 5.51892 4.89851 5.5462 4.87428C5.61622 4.81208 5.67256 4.7167 5.90948 4.19597L5.92628 4.15906C6.27736 3.38737 6.56314 2.7592 6.83479 2.31255C7.10326 1.87112 7.44562 1.45316 7.97544 1.3392Z" fill="#5F0080"/>
</g>
</svg>
