<svg width="16" height="17" viewBox="0 0 16 17" fill="none" xmlns="http://www.w3.org/2000/svg">
<g id="Step_indicator_ic">
<path id="Vector" d="M10.337 2.02654C9.67072 1.99999 8.9036 1.99999 8.02202 2H7.93558C6.52366 1.99999 5.40521 1.99998 4.52498 2.10905C3.62026 2.22115 2.88147 2.45691 2.2809 2.9907C2.18631 3.07477 2.09599 3.16333 2.01027 3.25608C1.46594 3.84502 1.22552 4.5695 1.1112 5.4567C0.999981 6.31988 0.999989 7.41666 1 8.80121V8.88601C0.999989 10.2706 0.999981 11.3674 1.1112 12.2305C1.22552 13.1177 1.46594 13.8422 2.01027 14.4311C2.09599 14.5239 2.18631 14.6125 2.2809 14.6965C2.88147 15.2303 3.62026 15.4661 4.52498 15.5782C5.40521 15.6872 6.52365 15.6872 7.93554 15.6872H8.02199C9.43392 15.6872 10.5524 15.6872 11.4326 15.5782C12.3374 15.4661 13.0761 15.2303 13.6767 14.6965C13.7713 14.6125 13.8616 14.5239 13.9474 14.4311C14.4917 13.8422 14.7321 13.1177 14.8464 12.2305C14.9576 11.3674 14.9576 10.2706 14.9576 8.88601V8.80129C14.9576 7.83346 14.9576 7.00622 14.9196 6.30112L12.0593 9.10609L11.9833 9.18081C11.6747 9.48481 11.3432 9.81145 10.9204 10.019C10.7978 10.0792 10.6711 10.1306 10.5412 10.1731C10.0925 10.3195 9.62248 10.3184 9.18512 10.3174L9.07752 10.3172H9.03176C8.75736 10.3173 8.46016 10.3174 8.20608 10.2898C7.91375 10.2581 7.53327 10.1781 7.1761 9.91593C7.01922 9.80081 6.87996 9.66425 6.76255 9.51041C6.49526 9.16017 6.41364 8.78705 6.38128 8.50041C6.35314 8.25119 6.35324 7.95978 6.35333 7.69068L6.35334 7.64582L6.35317 7.54028C6.35213 7.11138 6.35101 6.65054 6.50032 6.21052C6.54358 6.08306 6.59606 5.95878 6.65739 5.83866C6.8691 5.42398 7.2022 5.0989 7.51219 4.79634L7.58841 4.72184L10.337 2.02654Z" fill="#E1D0FB"/>
<path id="Vector_2" d="M11.3922 2.25767C11.9429 1.71133 12.2183 1.43817 12.5377 1.34808C12.7469 1.28906 12.9661 1.28521 13.1734 1.3369C13.4898 1.41581 13.7556 1.67947 14.2871 2.20678C14.8186 2.7341 15.0844 2.99776 15.1639 3.31161C15.2161 3.51723 15.2121 3.73476 15.1526 3.94233C15.0618 4.25918 14.7865 4.53236 14.2358 5.07869L11.0605 8.22879C10.6113 8.67446 10.3867 8.89726 10.1073 9.02462C10.0822 9.03606 10.0569 9.04686 10.0313 9.05702C9.74637 9.17062 9.43421 9.17686 8.80997 9.18942C8.08517 9.20398 7.72278 9.21126 7.49177 9.00478C7.47179 8.98694 7.45277 8.96806 7.43476 8.94822C7.22659 8.71902 7.23393 8.35951 7.24863 7.64045C7.26129 7.02116 7.26761 6.7115 7.38212 6.42877C7.39238 6.40342 7.40327 6.37833 7.41477 6.35348C7.54313 6.07625 7.76773 5.85342 8.21693 5.40777L11.3922 2.25767Z" fill="#5F0080"/>
</g>
</svg>
