<svg width="17" height="16" viewBox="0 0 17 16" fill="none" xmlns="http://www.w3.org/2000/svg">
<path d="M10.6377 1.53826C9.9715 1.51171 9.20438 1.51171 8.3228 1.51172H8.23636C6.82444 1.51171 5.70599 1.5117 4.82577 1.62077C3.92104 1.73287 3.18225 1.96863 2.58168 2.50242C2.48709 2.58649 2.39677 2.67505 2.31105 2.7678C1.76672 3.35674 1.5263 4.08122 1.41198 4.96842C1.30076 5.8316 1.30077 6.92838 1.30078 8.31293V8.39773C1.30077 9.78229 1.30076 10.8791 1.41198 11.7422C1.5263 12.6294 1.76672 13.3539 2.31105 13.9428C2.39677 14.0356 2.48709 14.1242 2.58168 14.2082C3.18225 14.742 3.92104 14.9778 4.82577 15.0899C5.70599 15.1989 6.82443 15.1989 8.23632 15.1989H8.32277C9.7347 15.1989 10.8532 15.1989 11.7334 15.0899C12.6381 14.9778 13.3769 14.742 13.9775 14.2082C14.0721 14.1242 14.1624 14.0356 14.2481 13.9428C14.7925 13.3539 15.0329 12.6294 15.1472 11.7422C15.2584 10.8791 15.2584 9.78229 15.2584 8.39773V8.31301C15.2584 7.34517 15.2584 6.51793 15.2204 5.81284L12.3601 8.61781L12.2841 8.69253C11.9755 8.99653 11.644 9.32317 11.2212 9.53077C11.0986 9.59093 10.9719 9.64237 10.842 9.68485C10.3933 9.83125 9.92326 9.83013 9.4859 9.82909L9.3783 9.82893H9.33254C9.05814 9.82901 8.76094 9.82917 8.50686 9.80157C8.21453 9.76981 7.83405 9.68981 7.47689 9.42765C7.32001 9.31253 7.18074 9.17597 7.06333 9.02213C6.79605 8.67189 6.71442 8.29877 6.68206 8.01213C6.65393 7.76291 6.65402 7.4715 6.65411 7.2024L6.65412 7.15753L6.65395 7.052C6.65291 6.6231 6.65179 6.16226 6.8011 5.72224C6.84436 5.59477 6.89685 5.4705 6.95817 5.35038C7.16989 4.9357 7.50298 4.61062 7.81297 4.30805L7.88919 4.23356L10.6377 1.53826Z" fill="black" fill-opacity="0.2"/>
<path d="M11.8922 1.75767C12.4429 1.21133 12.7183 0.938166 13.0377 0.848078C13.2469 0.789061 13.4661 0.785206 13.6734 0.836902C13.9898 0.915814 14.2556 1.17947 14.7871 1.70678C15.3186 2.2341 15.5844 2.49776 15.6639 2.81161C15.7161 3.01723 15.7121 3.23476 15.6526 3.44233C15.5618 3.75918 15.2865 4.03236 14.7358 4.57869L11.5605 7.72879C11.1113 8.17446 10.8867 8.39726 10.6073 8.52462C10.5822 8.53606 10.5569 8.54686 10.5313 8.55702C10.2464 8.67062 9.93421 8.67686 9.30997 8.68942C8.58517 8.70398 8.22278 8.71126 7.99177 8.50478C7.97179 8.48694 7.95277 8.46806 7.93476 8.44822C7.72659 8.21902 7.73393 7.85951 7.74863 7.14045C7.76129 6.52116 7.76761 6.2115 7.88212 5.92877C7.89238 5.90342 7.90327 5.87833 7.91477 5.85348C8.04313 5.57625 8.26773 5.35342 8.71693 4.90777L11.8922 1.75767Z" fill="black"/>
</svg>