<svg width="12" height="12" viewBox="0 0 12 12" fill="none" xmlns="http://www.w3.org/2000/svg">
<g clip-path="url(#clip0_8905_115414)">
<path fill-rule="evenodd" clip-rule="evenodd" d="M4.49998 10.6496C4.58282 10.6496 4.64998 10.5825 4.64998 10.4996C4.64998 10.4168 4.58282 10.3496 4.49998 10.3496C4.41713 10.3496 4.34998 10.4168 4.34998 10.4996C4.34998 10.5825 4.41713 10.6496 4.49998 10.6496ZM3.34998 10.4996C3.34998 9.86448 3.86485 9.34961 4.49998 9.34961C5.1351 9.34961 5.64998 9.86448 5.64998 10.4996C5.64998 11.1347 5.1351 11.6496 4.49998 11.6496C3.86485 11.6496 3.34998 11.1347 3.34998 10.4996Z" fill="#FFFFFF"/>
<path fill-rule="evenodd" clip-rule="evenodd" d="M10.5 10.6496C10.5828 10.6496 10.65 10.5825 10.65 10.4996C10.65 10.4168 10.5828 10.3496 10.5 10.3496C10.4171 10.3496 10.35 10.4168 10.35 10.4996C10.35 10.5825 10.4171 10.6496 10.5 10.6496ZM9.34998 10.4996C9.34998 9.86448 9.86485 9.34961 10.5 9.34961C11.1351 9.34961 11.65 9.86448 11.65 10.4996C11.65 11.1347 11.1351 11.6496 10.5 11.6496C9.86485 11.6496 9.34998 11.1347 9.34998 10.4996Z" fill="#FFFFFF"/>
<path d="M1 1H2.81818L4.03636 7.24851C4.07793 7.46336 4.19178 7.65635 4.35798 7.79371C4.52417 7.93106 4.73214 8.00403 4.94545 7.99983H9.36364C9.57696 8.00403 9.78492 7.93106 9.95112 7.79371C10.1173 7.65635 10.2312 7.46336 10.2727 7.24851L11 3.33328H3.27273" stroke="#FFFFFF" stroke-width="1.3" stroke-linecap="round" stroke-linejoin="round"/>
</g>
<defs>
<clipPath id="clip0_8905_115414">
<rect width="12" height="12" fill="white"/>
</clipPath>
</defs>
</svg>
