<svg width="13" height="13" viewBox="0 0 13 13" fill="none" xmlns="http://www.w3.org/2000/svg">
<g clip-path="url(#clip0_9044_48756)">
<path d="M12 2.5V5.5H9" stroke="#333333" stroke-width="1.3" stroke-linecap="round" stroke-linejoin="round"/>
<path d="M1 10.5V7.5H4" stroke="#333333" stroke-width="1.3" stroke-linecap="round" stroke-linejoin="round"/>
<path d="M2.255 5.00077C2.50858 4.28416 2.93957 3.64347 3.50773 3.13848C4.0759 2.63349 4.76273 2.28065 5.50414 2.1129C6.24555 1.94515 7.01738 1.96794 7.7476 2.17916C8.47781 2.39037 9.14263 2.78313 9.68 3.32077L12 5.50077M1 7.50077L3.32 9.68077C3.85737 10.2184 4.52219 10.6112 5.2524 10.8224C5.98262 11.0336 6.75445 11.0564 7.49586 10.8886C8.23727 10.7209 8.9241 10.3681 9.49227 9.86306C10.0604 9.35807 10.4914 8.71738 10.745 8.00077" stroke="#333333" stroke-width="1.3" stroke-linecap="round" stroke-linejoin="round"/>
</g>
<defs>
<clipPath id="clip0_9044_48756">
<rect width="12" height="12" fill="white" transform="translate(0.5 0.5)"/>
</clipPath>
</defs>
</svg>
