<svg width="24" height="24" viewBox="0 0 24 24" fill="none" xmlns="http://www.w3.org/2000/svg">
<path id="Vector" d="M23.9414 10.8562C23.8008 8.81619 23.5041 6.80432 22.7578 4.88385C22.3875 3.93041 21.9286 3.02619 21.1369 2.33901C20.4286 1.72447 19.5938 1.33447 18.7158 1.03119C18.2344 0.804318 17.7141 0.683381 17.1975 0.562443C15.0863 0.0786931 12.9469 -0.073182 10.7845 0.0313493C9.02719 0.115724 7.29516 0.351037 5.61563 0.890568C4.67297 1.19197 3.77062 1.58104 2.98453 2.20307C2.34375 2.70463 1.90453 3.36416 1.5525 4.08697C0.960937 5.30291 0.620156 6.59713 0.380156 7.92182C0.16017 9.12669 0.0330768 10.3467 0 11.571C0 11.6235 0.01875 14.0671 0.046875 14.421C0.19875 16.3584 0.501562 18.2606 1.33125 20.0432C1.41984 20.2335 1.50609 20.4267 1.64391 20.5893C2.05875 21.3553 2.67844 21.9093 3.43453 22.3237C4.62703 22.9799 5.91891 23.3296 7.24594 23.5823C8.24499 23.7701 9.25501 23.8939 10.2698 23.9531C11.5583 24.0236 12.8499 24.0098 14.1366 23.9118C15.945 23.7623 17.7159 23.4529 19.4334 22.837C21.3084 22.1643 22.4869 20.8771 23.0925 19.0059C23.5673 17.5396 23.8256 16.0387 23.9325 14.5059C24.0195 13.291 24.0224 12.0715 23.9414 10.8562Z" fill="#FF9100"/>
</svg>
