<svg width="16" height="16" viewBox="0 0 16 16" fill="none" xmlns="http://www.w3.org/2000/svg">
<path d="M8 0C12.4182 0 16 3.58165 16 8C16 12.4182 12.4182 16 8 16C3.58165 16 0 12.4182 0 8C2.4223e-05 3.58167 3.58167 2.42238e-05 8 0ZM6.13379 5.33301V11.2002H7.45898V9.28809H8.6084C10.0846 9.28809 10.9336 8.48547 10.9336 7.31055C10.9336 6.1518 10.1021 5.33301 8.64355 5.33301H6.13379ZM8.39648 6.33008C9.18311 6.33013 9.56348 6.72716 9.56348 7.31055C9.56346 7.90201 9.18309 8.30756 8.39648 8.30762H7.45898V6.33008H8.39648Z" fill="#E6002D"/>
</svg>
