<svg width="16" height="16" viewBox="0 0 16 16" fill="none" xmlns="http://www.w3.org/2000/svg">
<g clip-path="url(#clip0_7034_35575)">
<path d="M14.5535 4.5122L11.4999 1.4418C10.9256 0.864378 9.92425 0.858268 9.33843 1.43721C9.18872 1.58692 9.0711 1.77022 9.01916 1.91763C8.52041 2.95791 7.985 3.60941 7.2976 4.00047L7.13186 4.08067C6.39252 4.4511 5.38661 4.82841 3.52757 4.82841C3.3244 4.82841 3.12963 4.86813 2.94251 4.94451C2.56913 5.10144 2.27234 5.39878 2.11609 5.77245C1.96407 6.14582 1.96407 6.56384 2.11609 6.93721C2.19553 7.1274 2.30704 7.29696 2.44834 7.43444L4.91918 9.90527L2 13.9938L6.08777 11.0746L8.55249 13.5394C8.69456 13.6837 8.86259 13.7983 9.05353 13.8762C9.23863 13.9541 9.43741 13.9942 9.63821 13.9942C9.83901 13.9942 10.0378 13.9541 10.2229 13.8762C10.4084 13.801 10.5769 13.6893 10.7186 13.5479C10.8603 13.4065 10.9722 13.2382 11.0478 13.0528C11.1264 12.868 11.1662 12.6656 11.1662 12.4662C11.1662 10.6057 11.5435 9.60053 11.9131 8.86042C12.292 8.10275 12.9588 7.52533 14.0166 7.01665C14.2236 6.93721 14.4061 6.82112 14.5596 6.6676C14.8429 6.38003 15.0011 5.99227 15 5.58865C14.9988 5.18502 14.8384 4.79816 14.5535 4.5122ZM10.5452 8.17913C9.91966 9.43402 9.63783 10.7531 9.63248 12.4594L3.52757 6.35598C5.1613 6.35598 6.44063 6.10011 7.64894 5.52804L7.82843 5.44784C8.89696 4.91395 9.71344 4.002 10.4161 2.5195L13.4132 5.61358C11.9903 6.29564 11.0791 7.11059 10.5452 8.17913Z" fill="#D8D8D8"/>
</g>
<defs>
<clipPath id="clip0_7034_35575">
<rect width="16" height="16" fill="white"/>
</clipPath>
</defs>
</svg>
