<svg width="12" height="12" viewBox="0 0 12 12" fill="none" xmlns="http://www.w3.org/2000/svg">
<g clip-path="url(#clip0_10957_151856)">
<mask id="mask0_10957_151856" style="mask-type:luminance" maskUnits="userSpaceOnUse" x="0" y="0" width="12" height="12">
<path d="M12 0H0V12H12V0Z" fill="white"/>
</mask>
<g mask="url(#mask0_10957_151856)">
<path d="M9 5.5C9 3.567 7.433 2 5.5 2C3.567 2 2 3.567 2 5.5C2 7.433 3.567 9 5.5 9C7.433 9 9 7.433 9 5.5ZM10 5.5C10 7.98528 7.98528 10 5.5 10C3.01472 10 1 7.98528 1 5.5C1 3.01472 3.01472 1 5.5 1C7.98528 1 10 3.01472 10 5.5Z" fill="#5F0080"/>
<path d="M7.9714 7.97091C8.14226 7.80005 8.40622 7.77829 8.6003 7.90646L8.67843 7.97091L10.8532 10.1457L10.9177 10.2238C11.046 10.4179 11.0242 10.6818 10.8532 10.8527C10.6825 11.0235 10.4193 11.045 10.2253 10.9172L10.1462 10.8527L7.9714 8.67794L7.90694 8.59982C7.77878 8.40574 7.80054 8.14177 7.9714 7.97091Z" fill="#5F0080"/>
</g>
</g>
<defs>
<clipPath id="clip0_10957_151856">
<rect width="12" height="12" fill="white"/>
</clipPath>
</defs>
</svg>
