<svg width="16" height="16" viewBox="0 0 16 16" fill="none" xmlns="http://www.w3.org/2000/svg">
<path d="M13.8921 3.0726C13.5516 2.73193 13.1473 2.46169 12.7023 2.27732C12.2574 2.09295 11.7804 1.99805 11.2988 1.99805C10.8171 1.99805 10.3402 2.09295 9.89521 2.27732C9.45023 2.46169 9.04595 2.73193 8.70544 3.0726L7.99878 3.77926L7.29211 3.0726C6.60432 2.3848 5.67147 1.9984 4.69878 1.9984C3.72609 1.9984 2.79324 2.3848 2.10544 3.0726C1.41765 3.76039 1.03125 4.69324 1.03125 5.66593C1.03125 6.63862 1.41765 7.57147 2.10544 8.25926L2.81211 8.96593L7.99878 14.1526L13.1854 8.96593L13.8921 8.25926C14.2328 7.91876 14.503 7.51447 14.6874 7.0695C14.8718 6.62453 14.9667 6.14759 14.9667 5.66593C14.9667 5.18427 14.8718 4.70733 14.6874 4.26236C14.503 3.81739 14.2328 3.4131 13.8921 3.0726Z" stroke="#333333" stroke-width="1.3" stroke-linecap="round" stroke-linejoin="round"/>
</svg>
