<svg width="14" height="14" viewBox="0 0 14 14" fill="none" xmlns="http://www.w3.org/2000/svg">
<path fill-rule="evenodd" clip-rule="evenodd" d="M6.99922 0.700195C3.55175 0.700195 0.699219 3.43566 0.699219 6.88203C0.699219 8.27056 1.16609 9.55044 1.94907 10.5788C2.07535 10.7447 2.11586 10.8797 2.10944 10.9756C2.0773 11.4556 1.91675 11.9259 1.51089 12.3478C1.37085 12.4933 1.32409 12.709 1.38876 12.9022C1.45354 13.0959 1.61997 13.2358 1.81908 13.258C3.09394 13.4002 4.21878 13.1595 4.88934 12.8868C5.04936 12.8217 5.20237 12.8101 5.32559 12.8433C5.85921 12.9872 6.42054 13.0639 6.99922 13.0639C10.4467 13.0639 13.2992 10.3284 13.2992 6.88203C13.2992 3.43566 10.4467 0.700195 6.99922 0.700195ZM1.72648 6.88203C1.72648 4.09062 4.05551 1.7698 6.99922 1.7698C9.94293 1.7698 12.272 4.09062 12.272 6.88203C12.272 9.67342 9.94293 11.9943 6.99922 11.9943C6.5079 11.9943 6.03314 11.9292 5.58323 11.8079C5.20983 11.7072 4.83345 11.7612 4.51554 11.8905C4.14267 12.0422 3.55005 12.194 2.84214 12.2249C3.02005 11.8395 3.10804 11.441 3.13422 11.05C3.16549 10.5831 2.96318 10.189 2.75408 9.91437C2.10619 9.06338 1.72648 8.01484 1.72648 6.88203Z" fill="#777777"/>
<path d="M4.9 6.9998C4.9 7.38641 4.5866 7.6998 4.2 7.6998C3.8134 7.6998 3.5 7.38641 3.5 6.9998C3.5 6.6132 3.8134 6.2998 4.2 6.2998C4.5866 6.2998 4.9 6.6132 4.9 6.9998Z" fill="#777777"/>
<path d="M7.70078 6.9998C7.70078 7.38641 7.38739 7.6998 7.00078 7.6998C6.61418 7.6998 6.30078 7.38641 6.30078 6.9998C6.30078 6.6132 6.61418 6.2998 7.00078 6.2998C7.38739 6.2998 7.70078 6.6132 7.70078 6.9998Z" fill="#777777"/>
<path d="M10.4996 6.9998C10.4996 7.38641 10.1862 7.6998 9.79961 7.6998C9.413 7.6998 9.09961 7.38641 9.09961 6.9998C9.09961 6.6132 9.413 6.2998 9.79961 6.2998C10.1862 6.2998 10.4996 6.6132 10.4996 6.9998Z" fill="#777777"/>
</svg>
