<svg width="14" height="14" viewBox="0 0 14 14" fill="none" xmlns="http://www.w3.org/2000/svg">
<path fill-rule="evenodd" clip-rule="evenodd" d="M3.15854 1.96558C1.99982 2.41109 1.07692 3.51466 1.07692 4.97682C1.07692 6.13344 1.5983 7.24226 2.43326 8.31262C3.26837 9.38328 4.38271 10.3717 5.49579 11.2827C5.94903 11.6536 6.25176 11.9001 6.50394 12.0595C6.74382 12.2112 6.8824 12.2469 7 12.2469C7.1176 12.2469 7.2562 12.2112 7.49609 12.0595C7.74823 11.9001 8.05098 11.6536 8.50423 11.2827C9.6173 10.3717 10.7316 9.38328 11.5667 8.31262C12.4017 7.24226 12.923 6.13344 12.923 4.97682C12.923 3.51466 12.0002 2.41109 10.8415 1.96558C9.69325 1.52413 8.34246 1.73638 7.4277 2.90617C7.32585 3.03646 7.16772 3.11288 7 3.11288C6.83229 3.11288 6.67416 3.03646 6.57229 2.90617C5.65756 1.73638 4.30672 1.52413 3.15854 1.96558ZM7 1.79285C5.7819 0.628851 4.14 0.456504 2.76454 0.98534C1.23096 1.57497 0 3.04392 0 4.97682C0 6.45262 0.665582 7.783 1.57705 8.95152C2.48837 10.1198 3.67991 11.17 4.8047 12.0905L4.83019 12.1113C5.2512 12.4559 5.60469 12.7452 5.91931 12.9441C6.25255 13.1547 6.5961 13.3002 7 13.3002C7.4039 13.3002 7.74746 13.1547 8.08066 12.9441C8.39531 12.7452 8.74881 12.4559 9.16979 12.1113L9.19527 12.0905C10.3201 11.17 11.5116 10.1198 12.423 8.95152C13.3344 7.783 14 6.45262 14 4.97682C14 3.04392 12.769 1.57497 11.2355 0.98534C9.85999 0.456504 8.21807 0.628851 7 1.79285Z" fill="#777777"/>
</svg>
