<svg width="20" height="20" viewBox="0 0 20 20" fill="none" xmlns="http://www.w3.org/2000/svg">
<g clip-path="url(#clip0_11775_153824)">
<path d="M15.2219 3.57495L7.56157 11.2353L8.15082 11.8246L11.9256 15.5994C12.2232 14.6006 12.3287 13.5275 12.1578 12.5316L16.8719 7.81758C17.5884 7.82701 18.3633 7.6591 19.0704 7.4234L15.8112 4.16421L15.2219 3.57495Z" fill="#C0392B"/>
<path d="M7.56177 11.2354L6.38325 12.4139L4.02622 14.7709L2.8477 15.9494L2.25844 17.7172L3.43696 16.5387L6.97251 13.0031L8.15103 11.8246L7.56177 11.2354Z" fill="#BDC3C7"/>
<path d="M8.15088 11.8247L6.97236 13.0032L4.61533 15.3603L3.43681 16.5388L2.2583 17.7173L4.02607 17.128L5.20459 15.9495L7.56162 13.5925L8.74014 12.414L8.15088 11.8247Z" fill="#7F8C8D"/>
<path d="M12.552 0.905005C12.3166 1.61247 12.1484 2.38696 12.1579 3.10362L7.44384 7.81768C6.44817 7.64698 5.37475 7.75213 4.37602 8.04976L8.15093 11.8247L15.8113 4.16431L12.552 0.905005Z" fill="#E74C3C"/>
</g>
<defs>
<clipPath id="clip0_11775_153824">
<rect width="20" height="20" fill="white"/>
</clipPath>
</defs>
</svg>
