<svg width="52" height="52" viewBox="0 0 52 52" fill="none" xmlns="http://www.w3.org/2000/svg">
<rect width="52" height="52" rx="26" fill="#F7F7F7"/>
<path d="M41 35.1652C41 35.9675 40.3257 36.6239 39.5015 36.6239C39.4865 36.6239 39.4865 36.6239 39.4715 36.6239H36.4745V39.5414C36.4745 40.1249 36.1149 40.6646 35.5455 40.8834C35.3656 40.971 35.1708 41.0001 34.976 41.0001C34.5864 41.0001 34.1968 40.8543 33.9121 40.5771L25.985 32.8604L18.0579 40.5771C17.7732 40.8543 17.3836 41.0001 16.994 41.0001C16.7992 41.0001 16.6044 40.971 16.4246 40.8834C15.8551 40.6646 15.4955 40.1249 15.4955 39.5414V36.6239H12.4985C11.6743 36.6239 11 35.9675 11 35.1652C11 34.3629 11 34.3191 18.5375 27.1421C19.1369 26.5732 20.0809 26.5878 20.6503 27.1567C22.0739 28.5571 23.962 29.3302 25.985 29.3302C28.008 29.3302 29.8961 28.5571 31.3197 27.1567C31.8891 26.5878 32.8482 26.5732 33.4326 27.1421C37.988 31.4746 39.7864 33.2105 40.5055 34.0857C40.8052 34.3483 41 34.7276 41 35.1652Z" fill="#6059B1"/>
<path d="M26 12.125C31.1687 12.125 35.375 16.3313 35.375 21.5C35.375 23.9787 34.412 26.3186 32.6719 28.0723L32.666 28.0781C30.8992 29.8851 28.5344 30.875 26 30.875C23.4656 30.875 21.1008 29.8851 19.334 28.0781L19.3281 28.0723C17.588 26.3186 16.625 23.9787 16.625 21.5C16.625 16.3313 20.8313 12.125 26 12.125Z" fill="url(#paint0_linear_11779_154685)" stroke="#8400B2" stroke-width="2.25"/>
<path d="M26.8799 17.1176L27.8477 18.7792C27.9204 18.9011 28.0186 19.0063 28.1358 19.0878C28.2531 19.1693 28.3867 19.2252 28.5276 19.2518L30.4714 19.6298C30.6386 19.6637 30.7939 19.7403 30.9216 19.8519C31.0494 19.9635 31.1452 20.1061 31.1995 20.2655C31.2537 20.425 31.2645 20.5956 31.2308 20.7604C31.1971 20.9253 31.12 21.0785 31.0073 21.2048L29.6715 22.6066C29.5705 22.7101 29.4944 22.8346 29.4487 22.9709C29.4031 23.1072 29.389 23.2518 29.4075 23.3941L29.6395 25.2842C29.6571 25.458 29.6278 25.6334 29.5545 25.7926C29.4812 25.9517 29.3665 26.089 29.222 26.1905C29.0775 26.292 28.9083 26.3541 28.7316 26.3706C28.5549 26.3871 28.377 26.3573 28.2157 26.2843L26.4239 25.4968C26.2905 25.4382 26.1461 25.4078 26 25.4078C25.8539 25.4078 25.7095 25.4382 25.5761 25.4968L23.7843 26.2843C23.623 26.3573 23.4451 26.3871 23.2684 26.3706C23.0917 26.3541 22.9225 26.292 22.778 26.1905C22.6335 26.089 22.5188 25.9517 22.4455 25.7926C22.3722 25.6334 22.3429 25.458 22.3605 25.2842L22.5925 23.3941C22.611 23.2518 22.5969 23.1072 22.5512 22.9709C22.5056 22.8346 22.4295 22.7101 22.3285 22.6066L20.9927 21.2048C20.88 21.0785 20.8029 20.9253 20.7692 20.7604C20.7355 20.5956 20.7463 20.425 20.8005 20.2655C20.8548 20.1061 20.9506 19.9635 21.0784 19.8519C21.2061 19.7403 21.3614 19.6637 21.5286 19.6298L23.4724 19.2518C23.6133 19.2252 23.7469 19.1693 23.8642 19.0878C23.9814 19.0063 24.0796 18.9011 24.1523 18.7792L25.1201 17.1176C25.2109 16.9674 25.3397 16.8431 25.4939 16.7568C25.6482 16.6704 25.8226 16.625 26 16.625C26.1774 16.625 26.3518 16.6704 26.5061 16.7568C26.6603 16.8431 26.7891 16.9674 26.8799 17.1176Z" fill="#8400B2"/>
<defs>
<linearGradient id="paint0_linear_11779_154685" x1="20.75" y1="12.125" x2="30.5" y2="29" gradientUnits="userSpaceOnUse">
<stop stop-color="#EAA3FF"/>
<stop offset="0.998626" stop-color="#D446FF"/>
</linearGradient>
</defs>
</svg>
