<svg width="52" height="52" viewBox="0 0 52 52" fill="none" xmlns="http://www.w3.org/2000/svg">
<rect width="52" height="52" rx="26" fill="#F7F7F7"/>
<path d="M41 35.1652C41 35.9675 40.3257 36.6239 39.5015 36.6239C39.4865 36.6239 39.4865 36.6239 39.4715 36.6239H36.4745V39.5414C36.4745 40.1249 36.1149 40.6646 35.5455 40.8834C35.3656 40.971 35.1708 41.0001 34.976 41.0001C34.5864 41.0001 34.1968 40.8543 33.9121 40.5771L25.985 32.8604L18.0579 40.5771C17.7732 40.8543 17.3836 41.0001 16.994 41.0001C16.7992 41.0001 16.6044 40.971 16.4246 40.8834C15.8551 40.6646 15.4955 40.1249 15.4955 39.5414V36.6239H12.4985C11.6743 36.6239 11 35.9675 11 35.1652C11 34.3629 11 34.3191 18.5375 27.1421C19.1369 26.5732 20.0809 26.5878 20.6503 27.1567C22.0739 28.5571 23.962 29.3302 25.985 29.3302C28.008 29.3302 29.8961 28.5571 31.3197 27.1567C31.8891 26.5878 32.8482 26.5732 33.4326 27.1421C37.988 31.4746 39.7864 33.2105 40.5055 34.0857C40.8052 34.3483 41 34.7276 41 35.1652Z" fill="#6059B1"/>
<path d="M26 12.125C31.1687 12.125 35.375 16.3313 35.375 21.5C35.375 23.9787 34.412 26.3186 32.6719 28.0723L32.666 28.0781C30.8992 29.8851 28.5344 30.875 26 30.875C23.4656 30.875 21.1008 29.8851 19.334 28.0781L19.3281 28.0723C17.588 26.3186 16.625 23.9787 16.625 21.5C16.625 16.3313 20.8313 12.125 26 12.125Z" fill="#D3EAFF" stroke="#B7DDFF" stroke-width="2.25"/>
<path d="M26 16.9678C26.119 16.9678 26.236 16.9981 26.3389 17.0557C26.4159 17.0988 26.4831 17.1561 26.5371 17.2236L26.5869 17.2949L27.5518 18.9521L27.5527 18.9551C27.6505 19.1192 27.7833 19.2599 27.9404 19.3691C28.0974 19.4782 28.2758 19.5524 28.4639 19.5879L30.4062 19.9668V19.9658C30.5144 19.9883 30.6144 20.0388 30.6963 20.1104C30.7789 20.1825 30.8404 20.2742 30.875 20.376C30.9096 20.4777 30.916 20.5864 30.8945 20.6914C30.873 20.7965 30.8236 20.8951 30.751 20.9766L29.4258 22.3672C29.2891 22.5074 29.1862 22.6769 29.124 22.8623C29.0774 23.0015 29.0543 23.147 29.0566 23.293L29.0674 23.4385L29.2988 25.3262C29.3087 25.4365 29.2899 25.548 29.2432 25.6494C29.1954 25.753 29.1197 25.8432 29.0244 25.9102C28.9292 25.9769 28.8175 26.0183 28.7002 26.0293C28.5827 26.0403 28.4643 26.02 28.3574 25.9717L28.3535 25.9707L26.5615 25.1826C26.3846 25.1049 26.1933 25.0654 26 25.0654C25.8067 25.0654 25.6154 25.1049 25.4385 25.1826L23.6465 25.9707L23.6426 25.9717C23.5357 26.02 23.4173 26.0403 23.2998 26.0293C23.1825 26.0183 23.0708 25.9769 22.9756 25.9102C22.8803 25.8432 22.8046 25.753 22.7568 25.6494C22.7101 25.548 22.6913 25.4365 22.7012 25.3262L22.9326 23.4385C22.9579 23.2446 22.9381 23.0477 22.876 22.8623C22.8293 22.7231 22.7597 22.593 22.6699 22.4775L22.5742 22.3672L21.249 20.9766C21.1764 20.8951 21.127 20.7965 21.1055 20.6914C21.084 20.5864 21.0904 20.4777 21.125 20.376C21.1596 20.2742 21.2211 20.1825 21.3037 20.1104C21.3854 20.039 21.4849 19.9884 21.5928 19.9658L21.5938 19.9668L23.5352 19.5879L23.5361 19.5889C23.7242 19.5534 23.9025 19.4783 24.0596 19.3691C24.2167 19.26 24.3495 19.1192 24.4473 18.9551L24.4482 18.9521L25.4131 17.2949C25.4728 17.1961 25.5583 17.1132 25.6611 17.0557C25.764 16.9981 25.881 16.9678 26 16.9678Z" fill="#B7DDFF" stroke="#B7DDFF" stroke-width="0.685717"/>
</svg>
