<svg width="40" height="40" viewBox="0 0 40 40" fill="none" xmlns="http://www.w3.org/2000/svg">
<path d="M40 32.2201C40 33.2898 39.1009 34.1651 38.002 34.1651C37.982 34.1651 37.982 34.1651 37.962 34.1651H33.966V38.055C33.966 38.833 33.4865 39.5527 32.7273 39.8444C32.4875 39.9611 32.2278 40 31.968 40C31.4486 40 30.9291 39.8055 30.5495 39.436L19.98 29.147L9.41059 39.436C9.03097 39.8055 8.51149 40 7.99201 40C7.73227 40 7.47253 39.9611 7.23277 39.8444C6.47353 39.5527 5.99401 38.833 5.99401 38.055V34.1651H1.998C0.899101 34.1651 0 33.2898 0 32.2201C0 31.1503 0 31.092 10.05 21.5227C10.8492 20.7641 12.1079 20.7836 12.8671 21.5421C14.7652 23.4093 17.2827 24.4401 19.98 24.4401C22.6773 24.4401 25.1948 23.4093 27.0929 21.5421C27.8521 20.7836 29.1309 20.7641 29.9101 21.5227C35.984 27.2993 38.3818 29.6138 39.3407 30.7808C39.7403 31.1309 40 31.6366 40 32.2201Z" fill="#6059B1"/>
<path d="M20 1.5C26.8916 1.5 32.5 7.10843 32.5 14C32.5 17.3052 31.216 20.4254 28.8955 22.7637L28.8877 22.7715C26.5319 25.1808 23.3792 26.5 20 26.5C16.6208 26.5 13.4681 25.1808 11.1123 22.7715L11.1045 22.7637L10.8906 22.542C8.70552 20.23 7.5 17.202 7.5 14C7.5 7.10843 13.1084 1.5 20 1.5Z" fill="#C7932D" stroke="#B77A03" stroke-width="3"/>
<path d="M21.1732 8.15677L22.4636 10.3723C22.5605 10.5348 22.6914 10.6751 22.8478 10.7838C23.0041 10.8924 23.1822 10.9669 23.3702 11.0023L25.9618 11.5064C26.1848 11.5517 26.3918 11.6538 26.5622 11.8025C26.7326 11.9513 26.8603 12.1415 26.9326 12.354C27.0049 12.5666 27.0193 12.7941 26.9744 13.0139C26.9294 13.2337 26.8267 13.438 26.6764 13.6064L24.8953 15.4755C24.7607 15.6135 24.6592 15.7795 24.5983 15.9612C24.5374 16.1429 24.5186 16.3357 24.5434 16.5255L24.8526 19.0456C24.8761 19.2774 24.837 19.5112 24.7393 19.7234C24.6415 19.9356 24.4886 20.1186 24.296 20.254C24.1033 20.3893 23.8778 20.4721 23.6422 20.4941C23.4066 20.5161 23.1693 20.4764 22.9542 20.3791L20.5653 19.3291C20.3874 19.2509 20.1948 19.2105 20 19.2105C19.8052 19.2105 19.6126 19.2509 19.4347 19.3291L17.0458 20.3791C16.8307 20.4764 16.5934 20.5161 16.3578 20.4941C16.1222 20.4721 15.8967 20.3893 15.704 20.254C15.5114 20.1186 15.3585 19.9356 15.2607 19.7234C15.163 19.5112 15.1239 19.2774 15.1474 19.0456L15.4566 16.5255C15.4814 16.3357 15.4626 16.1429 15.4017 15.9612C15.3408 15.7795 15.2393 15.6135 15.1047 15.4755L13.3236 13.6064C13.1733 13.438 13.0706 13.2337 13.0256 13.0139C12.9807 12.7941 12.9951 12.5666 13.0674 12.354C13.1397 12.1415 13.2674 11.9513 13.4378 11.8025C13.6082 11.6538 13.8152 11.5517 14.0382 11.5064L16.6298 11.0023C16.8178 10.9669 16.9959 10.8924 17.1522 10.7838C17.3086 10.6751 17.4395 10.5348 17.5364 10.3723L18.8268 8.15677C18.9478 7.95659 19.1196 7.79081 19.3252 7.67567C19.5309 7.56053 19.7634 7.5 20 7.5C20.2366 7.5 20.4691 7.56053 20.6748 7.67567C20.8804 7.79081 21.0522 7.95659 21.1732 8.15677Z" fill="#B77A03"/>
</svg>
