<svg width="12" height="13" viewBox="0 0 12 13" fill="none" xmlns="http://www.w3.org/2000/svg">
<g clip-path="url(#clip0_12335_118540)">
<path d="M7.52472 3C8.01309 3.09528 8.46192 3.33413 8.81376 3.68597C9.16559 4.03781 9.40444 4.48663 9.49972 4.975M7.52472 1C8.53936 1.11272 9.48552 1.56709 10.2078 2.2885C10.9302 3.00992 11.3857 3.9555 11.4997 4.97M10.9997 8.96V10.46C11.0003 10.5993 10.9718 10.7371 10.916 10.8647C10.8602 10.9923 10.7784 11.1068 10.6758 11.2009C10.5732 11.2951 10.452 11.3667 10.3201 11.4114C10.1882 11.456 10.0484 11.4725 9.90972 11.46C8.37114 11.2928 6.89322 10.7671 5.59472 9.925C4.38664 9.15733 3.36239 8.13309 2.59472 6.925C1.74971 5.6206 1.22384 4.1355 1.05972 2.59C1.04723 2.45173 1.06366 2.31238 1.10797 2.18081C1.15229 2.04924 1.22351 1.92834 1.31711 1.82581C1.4107 1.72328 1.52462 1.64135 1.65162 1.58526C1.77861 1.52917 1.91589 1.50013 2.05472 1.5H3.55472C3.79738 1.49761 4.03262 1.58354 4.2166 1.74177C4.40059 1.89999 4.52076 2.11972 4.55472 2.36C4.61803 2.84003 4.73545 3.31136 4.90472 3.765C4.97199 3.94396 4.98655 4.13846 4.94668 4.32544C4.9068 4.51242 4.81415 4.68406 4.67972 4.82L4.04472 5.455C4.7565 6.70677 5.79295 7.74322 7.04472 8.455L7.67972 7.82C7.81567 7.68557 7.9873 7.59292 8.17428 7.55305C8.36126 7.51317 8.55576 7.52773 8.73472 7.595C9.18836 7.76428 9.65969 7.88169 10.1397 7.945C10.3826 7.97926 10.6044 8.1016 10.763 8.28875C10.9216 8.47589 11.0058 8.71479 10.9997 8.96Z" stroke="white" stroke-width="1.3" stroke-linecap="round" stroke-linejoin="round"/>
</g>
<defs>
<clipPath id="clip0_12335_118540">
<rect width="12" height="12" fill="white" transform="translate(0 0.5)"/>
</clipPath>
</defs>
</svg>
