<svg width="40" height="40" viewBox="0 0 40 40" fill="none" xmlns="http://www.w3.org/2000/svg">
<path d="M40 32.2201C40 33.2898 39.1009 34.1651 38.002 34.1651C37.982 34.1651 37.982 34.1651 37.962 34.1651H33.966V38.055C33.966 38.833 33.4865 39.5527 32.7273 39.8444C32.4875 39.9611 32.2278 40 31.968 40C31.4486 40 30.9291 39.8055 30.5495 39.436L19.98 29.147L9.41059 39.436C9.03097 39.8055 8.51149 40 7.99201 40C7.73227 40 7.47253 39.9611 7.23277 39.8444C6.47353 39.5527 5.99401 38.833 5.99401 38.055V34.1651H1.998C0.899101 34.1651 0 33.2898 0 32.2201C0 31.1503 0 31.092 10.05 21.5227C10.8492 20.7641 12.1079 20.7836 12.8671 21.5421C14.7652 23.4093 17.2827 24.4401 19.98 24.4401C22.6773 24.4401 25.1948 23.4093 27.0929 21.5421C27.8521 20.7836 29.1309 20.7641 29.9101 21.5227C35.984 27.2993 38.3818 29.6138 39.3407 30.7808C39.7403 31.1309 40 31.6366 40 32.2201Z" fill="#6059B1"/>
<path d="M20 1.5C26.8916 1.5 32.5 7.10843 32.5 14C32.5 17.3052 31.216 20.4254 28.8955 22.7637L28.8877 22.7715C26.5319 25.1808 23.3792 26.5 20 26.5C16.6208 26.5 13.4681 25.1808 11.1123 22.7715L11.1045 22.7637L10.8906 22.542C8.70552 20.23 7.5 17.202 7.5 14C7.5 7.10843 13.1084 1.5 20 1.5Z" fill="#D3EAFF" stroke="#B7DDFF" stroke-width="3"/>
<path d="M20 7.95703C20.1586 7.95703 20.3141 7.99757 20.4512 8.07422C20.554 8.13181 20.6438 8.20862 20.7158 8.29883L20.7822 8.39355L22.0684 10.6025L22.0713 10.6064C22.2017 10.8252 22.3775 11.0136 22.5869 11.1592C22.7957 11.3043 23.0332 11.4027 23.2832 11.4502V11.4512L25.875 11.9551C26.0192 11.9851 26.1525 12.0512 26.2617 12.1465C26.3719 12.2427 26.4538 12.3653 26.5 12.501C26.5462 12.6366 26.5549 12.7819 26.5264 12.9219C26.4977 13.062 26.4318 13.1932 26.335 13.3018L24.5645 15.1602C24.3841 15.3463 24.2474 15.5699 24.165 15.8154C24.1029 16.0008 24.0731 16.1952 24.0762 16.3896L24.0898 16.585L24.3965 19.0918H24.3975C24.4127 19.2421 24.3879 19.394 24.3242 19.5322C24.2605 19.6705 24.1603 19.7906 24.0332 19.8799C23.906 19.9692 23.7564 20.0244 23.5996 20.0391C23.4429 20.0537 23.2851 20.0274 23.1426 19.9629L23.1387 19.9609L20.749 18.9102C20.5131 18.8065 20.2578 18.7529 20 18.7529C19.7422 18.7529 19.4869 18.8065 19.251 18.9102L16.8613 19.9609L16.8574 19.9629C16.7149 20.0274 16.5571 20.0537 16.4004 20.0391C16.2436 20.0244 16.094 19.9692 15.9668 19.8799C15.8397 19.7906 15.7395 19.6705 15.6758 19.5322C15.628 19.4284 15.6023 19.3169 15.5986 19.2041L15.6025 19.0918L15.9102 16.585C15.9438 16.3264 15.9179 16.0628 15.835 15.8154C15.7525 15.5697 15.6152 15.3464 15.4346 15.1602H15.4355L13.6641 13.3018H13.665C13.5682 13.1932 13.5023 13.062 13.4736 12.9219C13.4451 12.7819 13.4538 12.6366 13.5 12.501C13.5462 12.3653 13.6281 12.2427 13.7383 12.1465C13.8475 12.0512 13.9808 11.9851 14.125 11.9551L16.7168 11.4512L16.7158 11.4502C16.9662 11.4028 17.204 11.3045 17.4131 11.1592C17.6225 11.0136 17.7983 10.8252 17.9287 10.6064L17.9316 10.6025L19.2178 8.39355C19.2975 8.26171 19.4117 8.15098 19.5488 8.07422C19.6859 7.99757 19.8414 7.95703 20 7.95703Z" fill="#B7DDFF" stroke="#B7DDFF" stroke-width="0.914289"/>
</svg>
