<svg width="12" height="13" viewBox="0 0 12 13" fill="none" xmlns="http://www.w3.org/2000/svg">
<path d="M10.5 6.25001C10.5017 6.90995 10.3475 7.56096 10.05 8.15001C9.69722 8.85589 9.15488 9.4496 8.48372 9.86465C7.81257 10.2797 7.03912 10.4997 6.25 10.5C5.59007 10.5017 4.93906 10.3475 4.35 10.05L1.5 11L2.45 8.15001C2.15247 7.56096 1.99828 6.90995 2 6.25001C2.00031 5.46089 2.22031 4.68744 2.63536 4.01629C3.05041 3.34514 3.64413 2.8028 4.35 2.45001C4.93906 2.15248 5.59007 1.99829 6.25 2.00001H6.5C7.54217 2.05751 8.52652 2.49739 9.26457 3.23544C10.0026 3.97349 10.4425 4.95784 10.5 6.00001V6.25001Z" stroke="#333333" stroke-width="1.3" stroke-linecap="round" stroke-linejoin="round"/>
</svg>
