<svg width="56" height="56" viewBox="0 0 56 56" fill="none" xmlns="http://www.w3.org/2000/svg">
<path d="M25.5 13.9997V4.66666C25.5 3.28594 26.6193 2.16666 28 2.16666C29.3807 2.16666 30.5 3.28594 30.5 4.66666V13.9997C30.5 15.3804 29.3807 16.4997 28 16.4997C26.6193 16.4997 25.5 15.3804 25.5 13.9997Z" fill="#5F0080"/>
<path opacity="0.5" d="M25.5 51.333V42C25.5 40.6193 26.6193 39.5 28 39.5C29.3807 39.5 30.5 40.6193 30.5 42V51.333C30.5 52.7137 29.3807 53.833 28 53.833C26.6193 53.833 25.5 52.7137 25.5 51.333Z" fill="#BD76FF"/>
<path opacity="0.8" d="M9.73565 9.73574C10.712 8.75943 12.2945 8.75943 13.2708 9.73574L19.8743 16.3393L20.0462 16.5287C20.847 17.5106 20.7896 18.9592 19.8743 19.8744C18.9591 20.7897 17.5106 20.8471 16.5286 20.0463L16.3392 19.8744L9.73565 13.2709C8.75934 12.2946 8.75934 10.7121 9.73565 9.73574Z" fill="#5F0080"/>
<path opacity="0.35" d="M36.1258 36.1258C37.1021 35.1495 38.6846 35.1495 39.6609 36.1258L46.2645 42.7293L46.4363 42.9188C47.2371 43.9007 47.1797 45.3492 46.2645 46.2645C45.3492 47.1797 43.9007 47.2371 42.9188 46.4363L42.7293 46.2645L36.1258 39.6609C35.1495 38.6846 35.1495 37.1021 36.1258 36.1258Z" fill="#BD76FF"/>
<path opacity="0.6" d="M13.9995 25.5C15.3802 25.5 16.4995 26.6193 16.4995 28C16.4995 29.3807 15.3802 30.5 13.9995 30.5H4.6665C3.28579 30.5 2.1665 29.3807 2.1665 28C2.1665 26.6193 3.28579 25.5 4.6665 25.5H13.9995Z" fill="#5F0080"/>
<path opacity="0.25" d="M51.333 25.5C52.7137 25.5 53.833 26.6193 53.833 28C53.833 29.3807 52.7137 30.5 51.333 30.5H42C40.6193 30.5 39.5 29.3807 39.5 28C39.5 26.6193 40.6193 25.5 42 25.5H51.333Z" fill="#BD76FF"/>
<path opacity="0.45" d="M16.3391 36.1257C17.3154 35.1495 18.898 35.1495 19.8743 36.1257C20.8505 37.102 20.8505 38.6846 19.8743 39.6609L13.2708 46.2644C12.2945 47.2406 10.7119 47.2406 9.73561 46.2644C8.75933 45.2881 8.75939 43.7056 9.73561 42.7293L16.3391 36.1257Z" fill="#5F0080"/>
<path opacity="0.15" d="M42.7293 9.73576C43.7056 8.75954 45.2881 8.75948 46.2644 9.73576C47.2406 10.712 47.2406 12.2946 46.2644 13.2709L39.6609 19.8744C38.6846 20.8506 37.102 20.8506 36.1257 19.8744C35.1495 18.8981 35.1495 17.3156 36.1257 16.3393L42.7293 9.73576Z" fill="#BD76FF"/>
</svg>
