<svg width="56" height="56" viewBox="0 0 56 56" fill="none" xmlns="http://www.w3.org/2000/svg">
<path d="M53.4478 35.8815C55.2436 38.796 55.3344 42.4706 53.6868 45.4707C52.0391 48.4721 48.9069 50.3371 45.512 50.3371H11.7328C8.33797 50.3371 5.20571 48.4721 3.55806 45.4707C1.91042 42.4706 2.00126 38.796 3.79699 35.8815L20.6853 8.46543C22.4052 5.6755 25.3719 4.00934 28.6224 4.00934C31.8729 4.00934 34.8397 5.6755 36.5595 8.46543L53.4478 35.8815Z" fill="white"/>
<path d="M51.0221 13.2135C53.4276 13.2135 55.3776 11.2415 55.3776 8.80897C55.3776 6.37644 53.4276 4.40448 51.0221 4.40448C48.6166 4.40448 46.6665 6.37644 46.6665 8.80897C46.6665 11.2415 48.6166 13.2135 51.0221 13.2135Z" fill="#BD76FF"/>
<path d="M4.66685 23.9101C6.55689 23.9101 8.08907 22.3607 8.08907 20.4494C8.08907 18.5382 6.55689 16.9888 4.66685 16.9888C2.77681 16.9888 1.24463 18.5382 1.24463 20.4494C1.24463 22.3607 2.77681 23.9101 4.66685 23.9101Z" fill="#BD76FF"/>
<path d="M48.6952 38.8766C50.2507 41.4023 48.455 44.6742 45.5119 44.6742H11.7327C8.78956 44.6742 6.99383 41.4023 8.54938 38.8766L25.439 11.4593C26.9074 9.07706 30.3371 9.07706 31.8056 11.4593L48.6952 38.8766Z" fill="#BD76FF"/>
<path d="M30.3818 36.6026C30.8323 37.0582 31.1111 37.6874 31.1111 38.382C31.1111 39.0767 30.8323 39.7059 30.3818 40.1614C29.9313 40.617 29.3091 40.8989 28.6222 40.8989C27.2471 40.8989 26.1333 39.7726 26.1333 38.382C26.1333 37.6874 26.4121 37.0582 26.8625 36.6026C27.313 36.1471 27.9353 35.8652 28.6222 35.8652C29.3091 35.8652 29.9313 36.1471 30.3818 36.6026Z" fill="white"/>
<path d="M31.1111 19.5056V30.2023C31.1111 31.5928 29.9973 32.7191 28.6222 32.7191C27.2471 32.7191 26.1333 31.5928 26.1333 30.2023V19.5056C26.1333 18.1151 27.2471 16.9888 28.6222 16.9888C29.3091 16.9888 29.9313 17.2707 30.3818 17.7262C30.8323 18.1818 31.1111 18.811 31.1111 19.5056Z" fill="white"/>
<path d="M50.0891 21.3933C50.6046 21.3933 51.0224 20.9707 51.0224 20.4494C51.0224 19.9282 50.6046 19.5056 50.0891 19.5056C49.5736 19.5056 49.1558 19.9282 49.1558 20.4494C49.1558 20.9707 49.5736 21.3933 50.0891 21.3933Z" fill="#5F0080"/>
<path d="M41.3777 5.66291C41.8931 5.66291 42.311 5.24035 42.311 4.71909C42.311 4.19783 41.8931 3.77527 41.3777 3.77527C40.8622 3.77527 40.4443 4.19783 40.4443 4.71909C40.4443 5.24035 40.8622 5.66291 41.3777 5.66291Z" fill="#5F0080"/>
<path d="M37.6443 56C38.1597 56 38.5776 55.5774 38.5776 55.0562C38.5776 54.5349 38.1597 54.1124 37.6443 54.1124C37.1288 54.1124 36.7109 54.5349 36.7109 55.0562C36.7109 55.5774 37.1288 56 37.6443 56Z" fill="#5F0080"/>
<path d="M18.3557 1.88764C18.8712 1.88764 19.289 1.46508 19.289 0.94382C19.289 0.422563 18.8712 0 18.3557 0C17.8402 0 17.4224 0.422563 17.4224 0.94382C17.4224 1.46508 17.8402 1.88764 18.3557 1.88764Z" fill="#5F0080"/>
<path d="M0.933333 52.2247C1.4488 52.2247 1.86667 51.8022 1.86667 51.2809C1.86667 50.7597 1.4488 50.3371 0.933333 50.3371C0.417868 50.3371 0 50.7597 0 51.2809C0 51.8022 0.417868 52.2247 0.933333 52.2247Z" fill="#5F0080"/>
<path d="M45.5117 50.9663H11.7326C8.11246 50.9663 4.77113 48.978 3.01397 45.7765C1.25682 42.5764 1.35389 38.6576 3.26909 35.5493L20.1574 8.1332C21.9918 5.15703 25.1564 3.38013 28.6222 3.38013C32.0879 3.38013 35.2525 5.15703 37.0869 8.13195L53.9752 35.548C55.8904 38.6564 55.9875 42.5751 54.2303 45.7753C52.4732 48.9767 49.1318 50.965 45.5117 50.965V50.9663ZM28.6222 4.63855C25.5882 4.63855 22.8193 6.19397 21.2127 8.79891L4.32437 36.2137C2.64811 38.9332 2.56349 42.3637 4.10162 45.1649C5.63975 47.9674 8.5642 49.7079 11.7326 49.7079H45.5117C48.6801 49.7079 51.6045 47.9674 53.1427 45.1649C54.6808 42.3637 54.5949 38.9332 52.9199 36.2137L36.0316 8.79766C34.4262 6.19271 31.6561 4.63855 28.6222 4.63855Z" fill="#5F0080"/>
<path d="M45.5119 45.3034H11.7327C10.1212 45.3034 8.69253 44.4527 7.90977 43.0281C7.12702 41.6036 7.16933 39.9274 8.02053 38.5431L24.9114 11.127C25.7153 9.82202 27.1028 9.04431 28.6223 9.04431C30.1418 9.04431 31.5293 9.82328 32.3332 11.127L49.2228 38.5444C50.0753 39.9274 50.1164 41.6036 49.3336 43.0294C48.5508 44.4539 47.1222 45.3046 45.5107 45.3046L45.5119 45.3034ZM28.6223 10.3015C27.5347 10.3015 26.5428 10.859 25.9667 11.7915L9.07706 39.2088C8.46729 40.1979 8.43742 41.3972 8.99742 42.4165C9.55742 43.4359 10.5791 44.0437 11.7315 44.0437H45.5107C46.663 44.0437 47.686 43.4359 48.2447 42.4165C48.8047 41.3972 48.7748 40.1979 48.1651 39.2088L31.2767 11.7915C30.7018 10.859 29.7087 10.3015 28.6223 10.3015Z" fill="#5F0080"/>
<path d="M28.6223 33.3483C26.9063 33.3483 25.5112 31.9376 25.5112 30.2023V19.5056C25.5112 17.7703 26.9063 16.3596 28.6223 16.3596C29.4524 16.3596 30.2339 16.6868 30.8213 17.2807C31.4087 17.8747 31.7335 18.665 31.7335 19.5056V30.2023C31.7335 31.9376 30.3384 33.3483 28.6223 33.3483ZM28.6223 17.618C27.5932 17.618 26.7557 18.4649 26.7557 19.5056V30.2023C26.7557 31.243 27.5932 32.0899 28.6223 32.0899C29.6515 32.0899 30.489 31.243 30.489 30.2023V19.5056C30.489 19.0023 30.2949 18.5278 29.9415 18.1717C29.5893 17.8156 29.1201 17.618 28.6223 17.618Z" fill="#5F0080"/>
<path d="M28.6223 41.5281C26.9063 41.5281 25.5112 40.1174 25.5112 38.382C25.5112 37.5427 25.8348 36.7524 26.4222 36.1584C27.0095 35.5644 27.7911 35.236 28.6223 35.236C29.4536 35.236 30.2339 35.5632 30.8225 36.1584C31.4099 36.7524 31.7335 37.5427 31.7335 38.382C31.7335 39.2214 31.4099 40.0117 30.8225 40.6057C30.2351 41.1996 29.4536 41.5281 28.6223 41.5281ZM28.6223 36.4944C28.1246 36.4944 27.6554 36.6907 27.3032 37.0481C26.9511 37.4042 26.7557 37.8787 26.7557 38.382C26.7557 39.4227 27.5932 40.2697 28.6223 40.2697C29.1201 40.2697 29.5893 40.0734 29.9415 39.716C30.2936 39.3598 30.489 38.8854 30.489 38.382C30.489 37.8787 30.2949 37.4042 29.9415 37.0481C29.5893 36.692 29.1201 36.4944 28.6223 36.4944Z" fill="#5F0080"/>
<path d="M51.0222 13.8427C48.277 13.8427 46.0444 11.5851 46.0444 8.80898C46.0444 6.03289 48.277 3.77527 51.0222 3.77527C53.7675 3.77527 56 6.03289 56 8.80898C56 11.5851 53.7675 13.8427 51.0222 13.8427ZM51.0222 5.0337C48.9639 5.0337 47.2889 6.72754 47.2889 8.80898C47.2889 10.8904 48.9639 12.5843 51.0222 12.5843C53.0805 12.5843 54.7555 10.8904 54.7555 8.80898C54.7555 6.72754 53.0805 5.0337 51.0222 5.0337Z" fill="#5F0080"/>
<path d="M4.66651 24.5393C2.43647 24.5393 0.62207 22.7045 0.62207 20.4494C0.62207 18.1943 2.43647 16.3596 4.66651 16.3596C6.89656 16.3596 8.71096 18.1943 8.71096 20.4494C8.71096 22.7045 6.89656 24.5393 4.66651 24.5393ZM4.66651 17.618C3.12216 17.618 1.86651 18.8877 1.86651 20.4494C1.86651 22.0112 3.12216 23.2809 4.66651 23.2809C6.21087 23.2809 7.46652 22.0112 7.46652 20.4494C7.46652 18.8877 6.21087 17.618 4.66651 17.618Z" fill="#5F0080"/>
</svg>
