<svg width="60" height="61" viewBox="0 0 60 61" fill="none" xmlns="http://www.w3.org/2000/svg">
<rect y="0.726562" width="60" height="60" rx="12" fill="#D9D9D9"/>
<path d="M21.7419 35.2266V27.8027H23.2048V35.2266H21.7419ZM21.5505 25.793C21.5573 25.3145 21.9743 24.9316 22.4802 24.9316C22.9792 24.9316 23.3962 25.3145 23.3962 25.793C23.3962 26.2715 22.9792 26.6611 22.4802 26.6543C21.9743 26.6611 21.5573 26.2715 21.5505 25.793ZM27.8467 35.377C25.6797 35.377 24.3672 33.7842 24.374 31.5488C24.3672 29.2861 25.7275 27.707 27.8193 27.707C29.5146 27.707 30.7383 28.7051 30.8955 30.209H29.4736C29.3232 29.5117 28.7695 28.9307 27.8467 28.9238C26.6436 28.9307 25.8369 29.9287 25.8369 31.5078C25.8369 33.1348 26.623 34.1396 27.8467 34.1328C28.6738 34.1396 29.2891 33.6748 29.4736 32.875H30.8955C30.7383 34.3174 29.5967 35.377 27.8467 35.377ZM35.1409 35.377C33.0354 35.377 31.6614 33.8457 31.6682 31.5488C31.6614 29.2383 33.0354 27.707 35.1409 27.707C37.2327 27.707 38.5999 29.2383 38.5999 31.5488C38.5999 33.8457 37.2327 35.377 35.1409 35.377ZM33.1311 31.5488C33.1311 32.9639 33.7805 34.1602 35.1409 34.1602C36.4807 34.1602 37.1233 32.9639 37.1233 31.5488C37.1233 30.127 36.4807 28.917 35.1409 28.9102C33.7805 28.917 33.1311 30.127 33.1311 31.5488Z" fill="#333333"/>
</svg>
