<svg width="16" height="16" viewBox="0 0 16 16" fill="none" xmlns="http://www.w3.org/2000/svg">
<path d="M14.2929 7.36665L8.16621 13.4933C7.41565 14.2439 6.39767 14.6655 5.33621 14.6655C4.27475 14.6655 3.25677 14.2439 2.50621 13.4933C1.75565 12.7428 1.33398 11.7248 1.33398 10.6633C1.33398 9.60186 1.75565 8.58388 2.50621 7.83332L8.63288 1.70665C9.13325 1.20628 9.81191 0.925171 10.5195 0.925171C11.2272 0.925171 11.9058 1.20628 12.4062 1.70665C12.9066 2.20703 13.1877 2.88568 13.1877 3.59332C13.1877 4.30096 12.9066 4.97961 12.4062 5.47999L6.27288 11.6067C6.02269 11.8568 5.68336 11.9974 5.32954 11.9974C4.97572 11.9974 4.6364 11.8568 4.38621 11.6067C4.13602 11.3565 3.99547 11.0171 3.99547 10.6633C3.99547 10.3095 4.13602 9.97018 4.38621 9.71999L10.0462 4.06665" stroke="#333333" stroke-width="1.3" stroke-linecap="round" stroke-linejoin="round"/>
</svg>
