<svg width="16" height="16" viewBox="0 0 16 16" fill="none" xmlns="http://www.w3.org/2000/svg">
<path fill-rule="evenodd" clip-rule="evenodd" d="M8.00026 1.98359C4.67735 1.98359 1.98359 4.67735 1.98359 8.00026C1.98359 11.3232 4.67735 14.0169 8.00026 14.0169C11.3232 14.0169 14.0169 11.3232 14.0169 8.00026C14.0169 4.67735 11.3232 1.98359 8.00026 1.98359ZM0.683594 8.00026C0.683594 3.95938 3.95938 0.683594 8.00026 0.683594C12.0411 0.683594 15.3169 3.95938 15.3169 8.00026C15.3169 12.0411 12.0411 15.3169 8.00026 15.3169C3.95938 15.3169 0.683594 12.0411 0.683594 8.00026Z" fill="#ffffff"/>
<path fill-rule="evenodd" clip-rule="evenodd" d="M7.99961 4.68359C8.35859 4.68359 8.64961 4.97461 8.64961 5.33359V10.6669C8.64961 11.0259 8.35859 11.3169 7.99961 11.3169C7.64062 11.3169 7.34961 11.0259 7.34961 10.6669V5.33359C7.34961 4.97461 7.64062 4.68359 7.99961 4.68359Z" fill="#ffffff"/>
<path fill-rule="evenodd" clip-rule="evenodd" d="M4.68359 8.00156C4.68359 7.64258 4.97461 7.35156 5.33359 7.35156H10.6669C11.0259 7.35156 11.3169 7.64258 11.3169 8.00156C11.3169 8.36055 11.0259 8.65156 10.6669 8.65156H5.33359C4.97461 8.65156 4.68359 8.36055 4.68359 8.00156Z" fill="#ffffff"/>
</svg>
