<svg width="56" height="56" viewBox="0 0 56 56" fill="none" xmlns="http://www.w3.org/2000/svg">
<g id="_&#235;&#160;&#136;&#236;&#157;&#180;&#236;&#150;&#180;_1" clip-path="url(#clip0_9738_109145)">
<g id="10, Bacteria, diagnosis, forbidden, no, scientist, signaling">
<g id="Group">
<path id="Vector" d="M55.0774 43.6923C55.5872 43.6923 56.0005 43.2791 56.0005 42.7693C56.0005 42.2595 55.5872 41.8462 55.0774 41.8462C54.5676 41.8462 54.1543 42.2595 54.1543 42.7693C54.1543 43.2791 54.5676 43.6923 55.0774 43.6923Z" fill="#4D0073"/>
<path id="Vector_2" d="M52.3074 0.615356C54.0071 0.615356 55.3843 1.99259 55.3843 3.69228C55.3843 5.39197 54.0071 6.7692 52.3074 6.7692C50.6077 6.7692 49.2305 5.39197 49.2305 3.69228C49.2305 1.99259 50.6077 0.615356 52.3074 0.615356Z" fill="#BD76FF"/>
<path id="Vector_3" d="M53.2307 12.3077C53.7405 12.3077 54.1538 11.8944 54.1538 11.3846C54.1538 10.8748 53.7405 10.4615 53.2307 10.4615C52.7209 10.4615 52.3076 10.8748 52.3076 11.3846C52.3076 11.8944 52.7209 12.3077 53.2307 12.3077Z" fill="#4D0073"/>
<path id="Vector_4" d="M45.8459 53.5384C46.3557 53.5384 46.769 53.1251 46.769 52.6153C46.769 52.1055 46.3557 51.6923 45.8459 51.6923C45.3361 51.6923 44.9229 52.1055 44.9229 52.6153C44.9229 53.1251 45.3361 53.5384 45.8459 53.5384Z" fill="#4D0073"/>
<path id="Vector_5" d="M27.8157 1.35388C41.7505 1.35388 53.0465 12.6499 53.0465 26.5847C53.0465 40.5194 41.7505 51.8154 27.8157 51.8154C13.881 51.8154 2.58496 40.5194 2.58496 26.5847C2.58496 12.6499 13.881 1.35388 27.8157 1.35388ZM43.3013 36.7176C48.0077 29.5397 47.2077 19.8093 40.8988 13.5016C34.5899 7.19265 24.8607 6.39265 17.6828 11.0991L25.5117 18.928L36.457 29.8733L43.3013 36.7176ZM37.9487 42.0702L31.1043 35.2259L20.1591 24.2807L12.3302 16.4517C7.62373 23.6296 8.42373 33.3588 14.7327 39.6677C21.0403 45.9767 30.7708 46.7767 37.9487 42.0702Z" fill="white"/>
<path id="Vector_6" d="M15.0774 54.1539C15.5872 54.1539 16.0005 53.7406 16.0005 53.2308C16.0005 52.721 15.5872 52.3077 15.0774 52.3077C14.5676 52.3077 14.1543 52.721 14.1543 53.2308C14.1543 53.7406 14.5676 54.1539 15.0774 54.1539Z" fill="#4D0073"/>
<path id="Vector_7" d="M10.1535 1.84615C10.6633 1.84615 11.0766 1.43288 11.0766 0.923077C11.0766 0.413276 10.6633 0 10.1535 0C9.64374 0 9.23047 0.413276 9.23047 0.923077C9.23047 1.43288 9.64374 1.84615 10.1535 1.84615Z" fill="#4D0073"/>
<path id="Vector_8" d="M4.92293 55.3847C7.302 55.3847 9.23062 53.4561 9.23062 51.077C9.23062 48.6979 7.302 46.7693 4.92293 46.7693C2.54385 46.7693 0.615234 48.6979 0.615234 51.077C0.615234 53.4561 2.54385 55.3847 4.92293 55.3847Z" fill="#BD76FF"/>
<path id="Vector_9" d="M2.15355 11.0769C2.66335 11.0769 3.07662 10.6636 3.07662 10.1538C3.07662 9.64399 2.66335 9.23071 2.15355 9.23071C1.64374 9.23071 1.23047 9.64399 1.23047 10.1538C1.23047 10.6636 1.64374 11.0769 2.15355 11.0769Z" fill="#4D0073"/>
<path id="Vector_10" d="M0.923077 38.7692C1.43288 38.7692 1.84615 38.356 1.84615 37.8462C1.84615 37.3364 1.43288 36.9231 0.923077 36.9231C0.413276 36.9231 0 37.3364 0 37.8462C0 38.356 0.413276 38.7692 0.923077 38.7692Z" fill="#4D0073"/>
<path id="Vector_11" d="M27.8149 52.4307C13.5638 52.4307 1.96875 40.8356 1.96875 26.5846C1.96875 12.3335 13.5638 0.738403 27.8149 0.738403C42.066 0.738403 53.6611 12.3335 53.6611 26.5846C53.6611 40.8356 42.066 52.4307 27.8149 52.4307ZM27.8149 1.96917C14.242 1.96917 3.19952 13.0116 3.19952 26.5846C3.19952 40.1575 14.242 51.1999 27.8149 51.1999C41.3878 51.1999 52.4303 40.1575 52.4303 26.5846C52.4303 13.0116 41.3878 1.96917 27.8149 1.96917Z" fill="#4D0073"/>
<path id="Vector_12" d="M27.8163 45.7022H27.8151C22.7086 45.7022 17.9074 43.7133 14.2976 40.1022C11.1714 36.976 9.21571 32.8357 8.78863 28.4444C8.36771 24.112 9.44217 19.733 11.8163 16.1133C11.9172 15.9582 12.0834 15.8573 12.268 15.8388C12.4514 15.8204 12.6348 15.8844 12.7665 16.016L38.3849 41.6345C38.5154 41.765 38.5806 41.9484 38.5622 42.133C38.5437 42.3176 38.4428 42.4837 38.2877 42.5847C35.1776 44.624 31.5566 45.7022 27.8176 45.7022H27.8163ZM12.4416 17.4339C8.2914 24.3976 9.38432 33.4499 15.1677 39.2333C18.5449 42.6117 23.0372 44.4727 27.8151 44.4727H27.8163C31.0594 44.4727 34.2065 43.6062 36.9671 41.9594L12.4416 17.4339Z" fill="#4D0073"/>
<path id="Vector_13" d="M43.3009 37.3329C43.1384 37.3329 42.9821 37.2689 42.8652 37.1532L17.2467 11.5347C17.1163 11.4043 17.051 11.2209 17.0695 11.0363C17.0879 10.8517 17.1889 10.6855 17.3439 10.5846C20.4541 8.5452 24.075 7.46704 27.8141 7.46704C32.9206 7.46704 37.7206 9.45596 41.3316 13.067C44.4578 16.192 46.4147 20.3323 46.8406 24.7237C47.2615 29.056 46.187 33.435 43.8129 37.0547C43.7107 37.2098 43.5458 37.3107 43.3612 37.3292C43.3403 37.3317 43.3193 37.3329 43.2984 37.3329H43.3009ZM18.6646 11.211L43.1901 35.7366C47.3415 28.7717 46.2473 19.7193 40.4639 13.9372C37.0855 10.5587 32.5932 8.69781 27.8166 8.69781C24.5723 8.69781 21.4252 9.56427 18.6646 11.211Z" fill="#4D0073"/>
<path id="Vector_14" d="M52.3075 7.38462C50.2718 7.38462 48.6152 5.728 48.6152 3.69231C48.6152 1.65662 50.2718 0 52.3075 0C54.3432 0 55.9998 1.65662 55.9998 3.69231C55.9998 5.728 54.3432 7.38462 52.3075 7.38462ZM52.3075 1.23077C50.95 1.23077 49.846 2.33477 49.846 3.69231C49.846 5.04985 50.95 6.15385 52.3075 6.15385C53.6651 6.15385 54.7691 5.04985 54.7691 3.69231C54.7691 2.33477 53.6651 1.23077 52.3075 1.23077Z" fill="#4D0073"/>
<path id="Vector_15" d="M4.92308 56C2.208 56 0 53.792 0 51.0769C0 48.3618 2.208 46.1538 4.92308 46.1538C7.63815 46.1538 9.84615 48.3618 9.84615 51.0769C9.84615 53.792 7.63815 56 4.92308 56ZM4.92308 47.3846C2.88738 47.3846 1.23077 49.0412 1.23077 51.0769C1.23077 53.1126 2.88738 54.7692 4.92308 54.7692C6.95877 54.7692 8.61539 53.1126 8.61539 51.0769C8.61539 49.0412 6.95877 47.3846 4.92308 47.3846Z" fill="#4D0073"/>
</g>
</g>
</g>
<defs>
<clipPath id="clip0_9738_109145">
<rect width="56" height="56" fill="white"/>
</clipPath>
</defs>
</svg>
