<svg width="16" height="16" viewBox="0 0 16 16" fill="none" xmlns="http://www.w3.org/2000/svg">
<g clip-path="url(#clip0_2370_33704)">
<path d="M15.3335 2.66699V6.66699H11.3335" stroke="#333333" stroke-width="1.3" stroke-linecap="round" stroke-linejoin="round"/>
<path d="M13.6598 9.99968C13.2264 11.2263 12.4061 12.2788 11.3225 12.9987C10.2389 13.7185 8.95073 14.0667 7.65204 13.9907C6.35335 13.9148 5.11453 13.4188 4.12226 12.5775C3.12999 11.7362 2.43804 10.5952 2.15067 9.32639C1.8633 8.05761 1.99608 6.72981 2.529 5.54306C3.06192 4.35632 3.96612 3.37493 5.10533 2.74678C6.24454 2.11863 7.55704 1.87775 8.84506 2.06045C10.1331 2.24314 11.3268 2.83951 12.2464 3.75968L15.3331 6.66635" stroke="#333333" stroke-width="1.3" stroke-linecap="round" stroke-linejoin="round"/>
</g>
<defs>
<clipPath id="clip0_2370_33704">
<rect width="16" height="16" fill="white"/>
</clipPath>
</defs>
</svg>
