<svg width="16" height="17" viewBox="0 0 16 17" fill="none" xmlns="http://www.w3.org/2000/svg">
<path d="M12 5.83203C13.1046 5.83203 14 4.9366 14 3.83203C14 2.72746 13.1046 1.83203 12 1.83203C10.8954 1.83203 10 2.72746 10 3.83203C10 4.9366 10.8954 5.83203 12 5.83203Z" stroke="#333333" stroke-width="1.3" stroke-linecap="round" stroke-linejoin="round"/>
<path d="M4 10.5C5.10457 10.5 6 9.60457 6 8.5C6 7.39543 5.10457 6.5 4 6.5C2.89543 6.5 2 7.39543 2 8.5C2 9.60457 2.89543 10.5 4 10.5Z" stroke="#333333" stroke-width="1.3" stroke-linecap="round" stroke-linejoin="round"/>
<path d="M12 15.168C13.1046 15.168 14 14.2725 14 13.168C14 12.0634 13.1046 11.168 12 11.168C10.8954 11.168 10 12.0634 10 13.168C10 14.2725 10.8954 15.168 12 15.168Z" stroke="#333333" stroke-width="1.3" stroke-linecap="round" stroke-linejoin="round"/>
<path d="M5.72656 9.50781L10.2799 12.1611" stroke="#333333" stroke-width="1.3" stroke-linecap="round" stroke-linejoin="round"/>
<path d="M10.2732 4.83984L5.72656 7.49318" stroke="#333333" stroke-width="1.3" stroke-linecap="round" stroke-linejoin="round"/>
</svg>
