<svg width="24" height="24" viewBox="0 0 24 24" fill="none" xmlns="http://www.w3.org/2000/svg">
<path fill-rule="evenodd" clip-rule="evenodd" d="M5.69966 11.6003C5.32921 11.2703 5.29585 10.7018 5.62513 10.3306L11.3277 3.90147C11.498 3.70947 11.7421 3.59961 11.9984 3.59961C12.2548 3.59961 12.4988 3.70947 12.6692 3.90147L18.3718 10.3306C18.701 10.7018 18.6677 11.2703 18.2972 11.6003C17.9268 11.9303 17.3596 11.8968 17.0303 11.5256L12.8959 6.8645V19.5002C12.8959 19.9969 12.494 20.3996 11.9984 20.3996C11.5028 20.3996 11.101 19.9969 11.101 19.5002V6.8645L6.96666 11.5256C6.63737 11.8968 6.07011 11.9303 5.69966 11.6003Z" fill="black"/>
</svg>
